<?xml version="1.0" encoding="UTF-8"?>
<svg id="_レイヤー_2" data-name="レイヤー 2" xmlns="http://www.w3.org/2000/svg" viewBox="0 0 300.46 83.54">
  <defs>
    <style>
      .cls-1 {
        fill: #f58777;
      }
    </style>
  </defs>
  <g id="_04" data-name="04">
    <g>
      <g>
        <path class="cls-1" d="M90.71.33v21.38h9.54v1.72h-11.35V.33h1.81Z"/>
        <path class="cls-1" d="M102.03,7.18c.57-1.44,1.37-2.69,2.41-3.76,1.03-1.07,2.25-1.9,3.65-2.49,1.4-.59,2.92-.89,4.57-.89s3.17.3,4.57.89c1.4.59,2.61,1.43,3.65,2.49,1.03,1.07,1.84,2.32,2.41,3.76.57,1.44.86,3.01.86,4.7s-.29,3.26-.86,4.7c-.57,1.44-1.38,2.7-2.41,3.76-1.03,1.07-2.25,1.9-3.65,2.49-1.4.59-2.92.89-4.57.89s-3.17-.3-4.57-.89c-1.4-.59-2.61-1.42-3.65-2.49-1.03-1.07-1.84-2.32-2.41-3.76-.57-1.44-.86-3.01-.86-4.7s.29-3.26.86-4.7ZM104.32,17.03c.82,1.52,1.96,2.71,3.4,3.58,1.44.87,3.09,1.3,4.93,1.3s3.49-.43,4.93-1.3c1.44-.87,2.57-2.06,3.38-3.58.81-1.52,1.22-3.23,1.22-5.15s-.41-3.66-1.22-5.17c-.81-1.51-1.94-2.69-3.38-3.56-1.44-.87-3.09-1.3-4.93-1.3s-3.49.43-4.93,1.3c-1.44.87-2.57,2.06-3.4,3.56-.82,1.51-1.24,3.23-1.24,5.17s.41,3.63,1.24,5.15Z"/>
        <path class="cls-1" d="M127.9,7.18c.57-1.44,1.37-2.69,2.41-3.76,1.03-1.07,2.25-1.9,3.65-2.49,1.4-.59,2.92-.89,4.57-.89s3.17.3,4.57.89c1.4.59,2.61,1.43,3.65,2.49,1.03,1.07,1.84,2.32,2.41,3.76.57,1.44.86,3.01.86,4.7s-.29,3.26-.86,4.7c-.57,1.44-1.38,2.7-2.41,3.76-1.03,1.07-2.25,1.9-3.65,2.49-1.4.59-2.92.89-4.57.89s-3.17-.3-4.57-.89c-1.4-.59-2.61-1.42-3.65-2.49-1.03-1.07-1.84-2.32-2.41-3.76-.57-1.44-.86-3.01-.86-4.7s.29-3.26.86-4.7ZM130.19,17.03c.82,1.52,1.96,2.71,3.4,3.58,1.44.87,3.09,1.3,4.93,1.3s3.49-.43,4.93-1.3c1.44-.87,2.57-2.06,3.38-3.58.81-1.52,1.22-3.23,1.22-5.15s-.41-3.66-1.22-5.17c-.81-1.51-1.94-2.69-3.38-3.56-1.44-.87-3.09-1.3-4.93-1.3s-3.49.43-4.93,1.3c-1.44.87-2.57,2.06-3.4,3.56-.82,1.51-1.24,3.23-1.24,5.17s.41,3.63,1.24,5.15Z"/>
        <path class="cls-1" d="M155.98.33v23.1h-1.81V.33h1.81ZM167.86.33l-10.16,10.82,10.66,12.28h-2.31l-10.59-12.24L165.55.33h2.31Z"/>
        <path class="cls-1" d="M181.06,5.81c.66-1.78,1.59-3.2,2.8-4.24,1.21-1.04,2.63-1.57,4.26-1.57s3.05.52,4.26,1.57c1.21,1.04,2.15,2.46,2.81,4.24.66,1.78.99,3.81.99,6.07s-.33,4.29-.99,6.07c-.66,1.78-1.6,3.2-2.81,4.24-1.21,1.04-2.63,1.57-4.26,1.57s-3.05-.52-4.26-1.57c-1.21-1.04-2.15-2.46-2.8-4.24-.66-1.78-.99-3.81-.99-6.07s.33-4.29.99-6.07ZM182.32,15.87c.29,1.23.7,2.31,1.24,3.23.54.92,1.19,1.64,1.96,2.16.77.52,1.64.78,2.61.78s1.86-.26,2.62-.78c.76-.52,1.41-1.24,1.95-2.16.54-.92.95-2,1.24-3.23.29-1.23.43-2.56.43-3.99s-.14-2.76-.43-3.99c-.29-1.23-.7-2.31-1.24-3.23-.54-.92-1.19-1.64-1.95-2.16-.76-.52-1.63-.78-2.62-.78s-1.84.26-2.61.78c-.77.52-1.42,1.24-1.96,2.16-.54.92-.95,2-1.24,3.23-.29,1.23-.43,2.56-.43,3.99s.14,2.76.43,3.99Z"/>
        <path class="cls-1" d="M211.16.33h.69v23.1h-1.81V4.52l-8.58,12.67h14.03v1.62h-17.06L211.16.33Z"/>
      </g>
      <g>
        <path class="cls-1" d="M10.26,68.99c1.16,1.89,2.67,3.34,4.54,4.34,1.87,1.01,3.91,1.51,6.1,1.51,1.83,0,3.47-.24,4.9-.71,1.43-.48,2.72-1.12,3.88-1.93,1.16-.81,2.15-1.69,3-2.64v8.86c-1.58,1.25-3.29,2.22-5.14,2.92-1.85.7-4.19,1.04-7.01,1.04s-5.66-.48-8.17-1.43c-2.51-.95-4.69-2.33-6.54-4.12-1.85-1.8-3.28-3.91-4.29-6.35-1.01-2.44-1.51-5.14-1.51-8.11s.5-5.67,1.51-8.11c1.01-2.44,2.44-4.56,4.29-6.35,1.85-1.8,4.03-3.17,6.54-4.12,2.51-.95,5.23-1.43,8.17-1.43s5.16.35,7.01,1.04c1.85.7,3.57,1.67,5.14,2.92v8.85c-.84-.95-1.84-1.83-3-2.64s-2.45-1.45-3.88-1.92c-1.43-.48-3.06-.72-4.9-.72-2.2,0-4.23.5-6.1,1.51-1.87,1.01-3.38,2.45-4.54,4.32-1.16,1.87-1.73,4.09-1.73,6.66s.58,4.74,1.73,6.63Z"/>
        <path class="cls-1" d="M51.48,68.85l.17,1.76-5.06,11h-8.85l19.53-40.75,19.52,40.75h-8.91l-4.95-10.67.11-1.98-5.77-13.37-5.78,13.25ZM48.12,66.65h18.48l.94,6.21h-20.35l.94-6.21Z"/>
        <path class="cls-1" d="M91.02,43.11v38.5h-7.86v-38.5h7.86ZM87.95,43.11h8.14c3.04,0,5.63.51,7.76,1.54,2.13,1.03,3.76,2.46,4.89,4.29,1.14,1.83,1.71,3.98,1.71,6.43s-.57,4.56-1.71,6.41c-1.14,1.85-2.77,3.29-4.89,4.32-2.13,1.03-4.71,1.54-7.76,1.54h-8.14v-6.27h7.65c1.39,0,2.59-.23,3.6-.69,1.01-.46,1.79-1.12,2.34-1.98s.82-1.9.82-3.11-.27-2.25-.82-3.11-1.33-1.52-2.34-1.98c-1.01-.46-2.21-.69-3.6-.69h-7.65v-6.71ZM100.21,63.68l12.54,17.93h-9.29l-11.55-17.93h8.3Z"/>
        <path class="cls-1" d="M127.49,43.11v38.5h-8.03v-38.5h8.03ZM124.52,81.61v-7.15h7.76c1.69,0,3.28-.23,4.78-.69,1.5-.46,2.82-1.18,3.96-2.17,1.14-.99,2.03-2.25,2.67-3.77.64-1.52.96-3.35.96-5.47s-.32-3.95-.96-5.47c-.64-1.52-1.53-2.78-2.67-3.77-1.14-.99-2.46-1.71-3.96-2.17-1.5-.46-3.1-.69-4.78-.69h-7.76v-7.15h8.03c4.03,0,7.56.79,10.59,2.37,3.03,1.58,5.38,3.8,7.07,6.68,1.69,2.88,2.53,6.28,2.53,10.2s-.84,7.33-2.53,10.2c-1.69,2.88-4.04,5.11-7.07,6.68-3.02,1.58-6.55,2.36-10.59,2.36h-8.03Z"/>
        <path class="cls-1" d="M169.01,43.11v38.5h-7.98v-38.5h7.98Z"/>
        <path class="cls-1" d="M198.22,61.04h18.98c.11,2.93-.23,5.7-1.02,8.3-.79,2.6-2.02,4.9-3.68,6.9-1.67,2-3.73,3.57-6.19,4.7-2.46,1.14-5.26,1.7-8.42,1.7-2.97,0-5.71-.5-8.22-1.48-2.51-.99-4.69-2.38-6.54-4.18-1.85-1.8-3.28-3.94-4.29-6.43-1.01-2.49-1.51-5.23-1.51-8.2s.52-5.69,1.57-8.17c1.04-2.48,2.5-4.59,4.37-6.35,1.87-1.76,4.07-3.12,6.6-4.07,2.53-.95,5.28-1.43,8.25-1.43,2.64,0,5.01.37,7.12,1.1,2.11.73,3.98,1.75,5.61,3.05,1.63,1.3,3.03,2.85,4.21,4.65l-6.71,3.91c-.95-1.69-2.28-3.05-3.99-4.1-1.7-1.04-3.79-1.57-6.24-1.57-2.31,0-4.42.52-6.32,1.57-1.91,1.04-3.42,2.54-4.54,4.48-1.12,1.94-1.68,4.25-1.68,6.93s.55,4.96,1.65,6.96c1.1,2,2.59,3.55,4.48,4.65,1.89,1.1,4.02,1.65,6.41,1.65,1.58,0,2.99-.21,4.23-.63,1.25-.42,2.32-1.02,3.22-1.79.9-.77,1.66-1.65,2.28-2.64.62-.99,1.1-2.07,1.43-3.25h-11.06v-6.27Z"/>
        <path class="cls-1" d="M233.8,68.85l.17,1.76-5.06,11h-8.85l19.53-40.75,19.52,40.75h-8.91l-4.95-10.67.11-1.98-5.77-13.37-5.78,13.25ZM230.45,66.65h18.48l.94,6.21h-20.35l.94-6.21Z"/>
        <path class="cls-1" d="M300.46,43.11v40.42l-27.39-25.79v23.87h-7.59v-40.42l27.39,25.79v-23.87h7.59Z"/>
      </g>
    </g>
  </g>
</svg>