<?xml version="1.0" encoding="UTF-8"?>
<svg id="_レイヤー_2" data-name="レイヤー 2" xmlns="http://www.w3.org/2000/svg" viewBox="0 0 130.42 102.82">
  <defs>
    <style>
      .cls-1 {
        fill: #f58777;
      }

      .cls-2 {
        fill: none;
        stroke: #f58777;
        stroke-linecap: round;
        stroke-linejoin: round;
        stroke-width: 4px;
      }
    </style>
  </defs>
  <g id="_02" data-name="02">
    <g>
      <g>
        <path class="cls-1" d="M45.44,53.77c0,.62.11,1.16.32,1.62.21.46.55.82,1.01,1.07.46.26,1.03.38,1.71.38.79,0,1.51-.18,2.18-.54.66-.36,1.22-.89,1.66-1.57.45-.68.74-1.45.86-2.3l2.5-14.4h3.97l-2.46,14.4c-.24,1.62-.76,3.02-1.57,4.19-.81,1.17-1.83,2.07-3.06,2.7-1.23.63-2.61.94-4.14.94s-2.83-.27-3.87-.8c-1.05-.53-1.82-1.29-2.34-2.27-.51-.98-.75-2.12-.7-3.42h3.94ZM44.14,41.34c.78-1.14,1.74-2.04,2.9-2.69,1.15-.65,2.39-.96,3.71-.94.98,0,1.82.2,2.51.61.69.41,1.24.96,1.65,1.66.41.7.68,1.5.82,2.4.14.9.14,1.86.02,2.88-.13,1.05-.4,2.02-.82,2.93-.42.91-.94,1.71-1.57,2.4-.63.69-1.36,1.23-2.19,1.62-.83.38-1.74.58-2.72.58-1.32,0-2.45-.34-3.38-1.01s-1.61-1.58-2.03-2.72c-.43-1.14-.54-2.42-.35-3.82.19-1.45.68-2.75,1.46-3.89ZM47.05,47.31c.2.62.55,1.11,1.06,1.47.5.36,1.11.54,1.84.54.51.02,1.01-.07,1.5-.27.49-.2.95-.49,1.38-.86.43-.37.78-.82,1.06-1.33.28-.51.47-1.06.58-1.63.08-.55.07-1.08-.03-1.57-.11-.49-.29-.92-.54-1.3-.26-.37-.58-.67-.96-.88-.38-.21-.83-.33-1.34-.35-.77,0-1.48.18-2.14.53-.66.35-1.22.84-1.66,1.47-.45.63-.74,1.34-.86,2.13-.11.75-.06,1.43.14,2.05Z"/>
        <path class="cls-1" d="M64.29,41.42c.85-1.15,1.93-2.06,3.22-2.72,1.29-.66,2.69-.99,4.21-.99s2.82.34,3.92,1.02c1.1.68,1.92,1.61,2.46,2.77.54,1.16.72,2.46.53,3.89-.19,1.47-.71,2.78-1.57,3.94-.85,1.15-1.93,2.06-3.22,2.72-1.29.66-2.7.99-4.24.99s-2.79-.34-3.89-1.01c-1.1-.67-1.92-1.59-2.46-2.75-.54-1.16-.73-2.46-.56-3.89.21-1.49.75-2.82,1.6-3.97ZM67.01,47.4c.21.64.56,1.15,1.06,1.54.49.38,1.1.59,1.82.61.77,0,1.48-.19,2.13-.56.65-.37,1.19-.88,1.63-1.52.44-.64.71-1.33.82-2.08.11-.75.05-1.43-.16-2.05-.21-.62-.57-1.13-1.06-1.54-.49-.41-1.11-.61-1.86-.61-.73-.02-1.42.16-2.08.54-.66.38-1.21.9-1.63,1.54-.43.64-.7,1.34-.83,2.11-.11.7-.05,1.38.16,2.02Z"/>
        <path class="cls-1" d="M83.02,49.24c.5-.46,1.12-.69,1.87-.69s1.37.23,1.87.69c.5.46.75,1.04.75,1.74s-.25,1.29-.75,1.74c-.5.46-1.13.69-1.87.69s-1.37-.23-1.87-.69c-.5-.46-.75-1.04-.75-1.74s.25-1.29.75-1.74ZM90.91,30.35l-3.49,15.3h-3.3l1.73-15.3h5.06Z"/>
      </g>
      <path class="cls-2" d="M55.33,2.93c-9.3-1.91-18.49,3.11-26.49,8.21-8.31,5.29-16.68,11.13-21.83,19.53C1.56,39.58.38,51.08,4.34,60.75s13.08,17.15,23.41,18.7c-3.38,7.12-6.77,14.24-10.15,21.37,7.75-5.15,23.75-14.26,25.16-14.82,1.09-.43,2.29-.4,3.46-.36,12.78.44,25.6,1.79,38.31.38,12.71-1.42,25.61-5.98,34.17-15.47,6.97-7.72,10.53-18.41,9.58-28.77s-6.4-20.22-14.66-26.54c-4.24-3.24-9.11-5.55-14.1-7.44-11.42-4.33-22.3-5.8-34.45-5.8"/>
    </g>
  </g>
</svg>