<?xml version="1.0" encoding="UTF-8"?>
<svg id="_レイヤー_2" data-name="レイヤー 2" xmlns="http://www.w3.org/2000/svg" viewBox="0 0 142.41 149.1">
  <defs>
    <style>
      .cls-1 {
        fill: #f58777;
      }
    </style>
  </defs>
  <g id="_03" data-name="03">
    <g>
      <g>
        <path class="cls-1" d="M7.27,68.89c-1.12-.34-2.06-.96-2.81-1.84-.75-.88-1.25-2.02-1.5-3.41-.21-1.18-.19-2.32.06-3.42.25-1.11.7-2.12,1.35-3.03.65-.92,1.47-1.69,2.46-2.32.99-.63,2.13-1.06,3.41-1.29,1.41-.25,2.63-.21,3.68.13,1.05.34,1.9.93,2.58,1.79.67.86,1.13,1.97,1.37,3.33.06.34.09.7.1,1.1s-.02.75-.08,1.04l-12.79,2.27-.45-2.52,9.67-1.72-.81,1.64c.07-.23.12-.48.16-.74.04-.27.04-.52,0-.75-.12-.65-.31-1.19-.6-1.62-.28-.43-.64-.73-1.07-.92-.43-.18-.97-.22-1.6-.11-.63.11-1.18.34-1.65.68-.47.34-.85.77-1.15,1.29-.3.52-.5,1.11-.61,1.78-.11.67-.13,1.39-.06,2.16.06.81.25,1.51.56,2.08.32.57.75.98,1.29,1.22.54.24,1.19.29,1.95.16.84-.15,1.56-.47,2.15-.97.59-.5,1.06-1.1,1.39-1.81l3.66.49c-.55,1.42-1.4,2.61-2.55,3.56-1.15.95-2.6,1.58-4.34,1.89-1.39.25-2.64.2-3.76-.14Z"/>
        <path class="cls-1" d="M30.78,54.61c-.15-.43-.39-.76-.71-.99-.32-.24-.78-.3-1.37-.2-.55.1-1.03.31-1.46.63-.43.33-.75.73-.97,1.21-.22.48-.32,1.02-.3,1.6l.04,9.19-4.03.72-.09-14.93,4.03-.72.05,2.13c.37-.84.88-1.54,1.55-2.09.66-.55,1.48-.91,2.47-1.09,1.15-.23,2.1-.15,2.84.24.74.39,1.31.98,1.69,1.76.39.79.6,1.72.64,2.8l.04,9.55-4.13.73-.02-9.1c-.03-.54-.12-1.02-.27-1.45Z"/>
        <path class="cls-1" d="M38.14,67.36c.26.12.54.15.83.1.36-.04.65-.2.87-.48.22-.28.38-.62.47-1.01.09-.4.12-.8.09-1.2l-.08-16.2,3.91-.69.13,17.17c0,1-.16,1.93-.49,2.8-.33.87-.85,1.6-1.56,2.18s-1.6.97-2.67,1.16c-.8.14-1.51.11-2.13-.09-.62-.21-1.17-.47-1.64-.8l1.58-3.37c.21.18.44.33.7.45ZM40.16,41.09c.41-.52.95-.83,1.62-.95.67-.12,1.28,0,1.83.34.55.35.88.86,1,1.53.12.65-.02,1.24-.42,1.76-.39.52-.93.85-1.6.97-.67.12-1.29,0-1.85-.35-.56-.36-.9-.86-1.02-1.51-.12-.67.02-1.27.43-1.78Z"/>
        <path class="cls-1" d="M49.77,50.32c.64-1.28,1.54-2.36,2.69-3.24,1.15-.88,2.48-1.45,3.97-1.71,1.49-.26,2.84-.16,4.04.32,1.2.48,2.17,1.24,2.91,2.29s1.14,2.29,1.2,3.74c.07,1.48-.22,2.87-.85,4.15-.64,1.28-1.54,2.36-2.69,3.24-1.16.88-2.49,1.45-4,1.72-1.47.26-2.81.16-4-.31-1.2-.47-2.17-1.23-2.91-2.28-.74-1.05-1.15-2.29-1.23-3.73-.05-1.51.24-2.9.88-4.19ZM53.49,55.74c.32.59.76,1.04,1.31,1.33.55.29,1.18.38,1.9.28.76-.13,1.42-.44,2-.92.57-.48,1.02-1.08,1.34-1.78s.46-1.44.44-2.19c-.03-.75-.2-1.42-.52-1.99-.32-.57-.75-1.01-1.31-1.33-.55-.31-1.2-.4-1.93-.27-.72.11-1.37.41-1.95.9-.58.49-1.03,1.09-1.34,1.8-.31.7-.46,1.45-.45,2.22.02.71.19,1.36.51,1.96Z"/>
        <path class="cls-1" d="M72.48,64.91l-4.22.75,3.6-9.38-5.95-12.27,4.32-.77,4.66,11.07-2.03.26,4.4-12.58,4.28-.76-9.05,23.68Z"/>
        <path class="cls-1" d="M37.99,97.25c.53.28,1.05.47,1.57.58.52.11,1.03.11,1.53,0,.5-.09.9-.31,1.2-.65.3-.34.41-.73.33-1.15-.05-.4-.22-.71-.52-.92-.3-.21-.67-.37-1.11-.5-.45-.13-.94-.24-1.47-.34-.65-.12-1.29-.31-1.91-.57-.62-.26-1.15-.64-1.59-1.15-.44-.51-.71-1.16-.8-1.97-.1-.96.05-1.79.45-2.49.41-.7.98-1.27,1.73-1.72.74-.45,1.56-.75,2.44-.91,1.2-.21,2.3-.18,3.32.11,1.01.29,1.93.7,2.74,1.25l-1.48,2.83c-.58-.46-1.22-.82-1.92-1.09s-1.38-.34-2.05-.22c-.5.09-.89.27-1.17.55-.28.28-.39.6-.35.96.04.34.21.61.5.8s.68.35,1.15.46c.47.11.96.22,1.46.33.77.17,1.47.38,2.11.65.64.26,1.18.64,1.61,1.13.43.49.7,1.15.81,2,.1.96-.02,1.83-.38,2.62-.36.79-.91,1.45-1.65,1.98-.74.53-1.63.89-2.68,1.08-.99.18-1.92.2-2.8.07-.88-.12-1.69-.36-2.45-.7-.75-.34-1.44-.73-2.06-1.16l1.79-2.89c.57.4,1.12.73,1.64,1.01Z"/>
        <path class="cls-1" d="M50.12,106.08l-.09-22.09,3.97-.71.18,22.04-4.06.75ZM64.92,92.87c-.56,1.3-1.35,2.39-2.38,3.27-1.03.88-2.2,1.43-3.52,1.67-.99.18-1.86.11-2.6-.2-.75-.31-1.37-.8-1.87-1.46-.5-.66-.88-1.44-1.15-2.35-.27-.91-.43-1.85-.47-2.84-.04-1.06.06-2.08.28-3.07.22-.99.57-1.9,1.04-2.72.47-.82,1.08-1.51,1.81-2.06.74-.55,1.6-.92,2.58-1.09,1.32-.24,2.5-.09,3.52.45,1.03.53,1.84,1.35,2.45,2.44.61,1.09.95,2.36,1.03,3.8.07,1.48-.18,2.88-.74,4.18ZM61.01,87.42c-.32-.56-.75-.98-1.31-1.26-.56-.28-1.2-.37-1.92-.26-.5.09-.98.28-1.43.56-.45.29-.84.65-1.19,1.1-.34.45-.61.95-.81,1.49-.2.54-.3,1.11-.3,1.69.04.58.15,1.1.32,1.55.18.46.43.85.74,1.17.32.32.68.56,1.1.7.42.14.88.18,1.39.11.76-.11,1.43-.41,2.01-.88.58-.47,1.04-1.06,1.39-1.76.35-.7.51-1.44.48-2.21,0-.78-.17-1.45-.49-2.01Z"/>
        <path class="cls-1" d="M73.81,94.72l-3.97.71-.09-14.93,3.97-.71.09,14.94ZM77.14,82.98c-.29-.1-.61-.12-.97-.06-.55.08-1.01.31-1.37.71-.36.4-.63.88-.8,1.43-.17.55-.25,1.13-.23,1.73l-1.09-1.01c.01-1.02.21-2.04.58-3.04.37-1.01.88-1.87,1.52-2.59.64-.72,1.38-1.16,2.22-1.3.52-.09,1.01-.07,1.46.07.45.14.86.37,1.24.69l-1.7,3.78c-.29-.16-.58-.3-.87-.4Z"/>
        <path class="cls-1" d="M83.18,70.61c.41-.52.94-.83,1.59-.95.69-.12,1.31-.01,1.86.34.55.35.88.86,1,1.53.12.65-.02,1.24-.42,1.76-.39.53-.94.85-1.63.97-.65.12-1.26,0-1.82-.36-.56-.36-.9-.86-1.02-1.51-.12-.67.02-1.27.43-1.78ZM87.21,77.39l.09,14.93-3.91.69-.15-14.92,3.97-.71Z"/>
        <path class="cls-1" d="M101.46,79.21c-.15-.43-.39-.76-.71-.99-.32-.24-.78-.3-1.37-.2-.55.1-1.03.31-1.46.63s-.75.73-.97,1.21c-.22.48-.32,1.02-.3,1.6l.04,9.19-4.03.72-.09-14.94,4.03-.72.05,2.14c.37-.85.88-1.54,1.55-2.1.66-.55,1.48-.91,2.47-1.09,1.15-.22,2.1-.14,2.84.24.74.39,1.31.98,1.69,1.76.39.79.6,1.72.64,2.79l.04,9.55-4.13.73-.02-9.1c-.03-.54-.12-1.02-.27-1.45Z"/>
        <path class="cls-1" d="M110.74,76.57c.57-1.26,1.36-2.31,2.38-3.15s2.18-1.37,3.49-1.58c.97-.17,1.83-.12,2.58.16.75.28,1.39.73,1.91,1.35.52.62.93,1.36,1.22,2.22.29.86.47,1.8.52,2.83.06,1.05-.04,2.06-.29,3.03-.25.96-.63,1.85-1.12,2.64-.5.79-1.12,1.45-1.88,1.97-.75.52-1.61.87-2.58,1.04-1.3.23-2.47.1-3.5-.4-1.03-.5-1.86-1.27-2.48-2.32-.62-1.05-.96-2.28-1.02-3.7-.06-1.46.19-2.82.75-4.08ZM114.19,88.59c.11.61.31,1.12.6,1.53.29.42.68.71,1.18.88.5.17,1.08.2,1.75.08.78-.14,1.46-.44,2.05-.92.59-.47,1.04-1.08,1.36-1.83.32-.75.47-1.56.45-2.42l-.06-14.61,3.91-.69.09,14.61c.05,1.64-.22,3.1-.81,4.4-.59,1.3-1.44,2.36-2.54,3.2-1.1.83-2.4,1.38-3.92,1.65-1.51.27-2.83.23-3.95-.11-1.12-.34-2.02-.95-2.7-1.83-.68-.88-1.11-1.96-1.29-3.25l3.88-.69ZM114.65,81.94c.31.57.74,1,1.3,1.26.56.27,1.19.34,1.91.21.51-.07.99-.25,1.43-.53.45-.28.85-.65,1.2-1.09.35-.44.62-.94.81-1.49.18-.55.28-1.12.28-1.71-.01-.56-.11-1.07-.31-1.54-.19-.46-.45-.86-.76-1.18-.32-.32-.68-.56-1.1-.7-.42-.14-.88-.18-1.39-.11-.76.13-1.43.43-2.02.9-.59.46-1.05,1.04-1.38,1.74-.33.7-.49,1.45-.48,2.25.03.75.19,1.42.5,1.99Z"/>
        <path class="cls-1" d="M135.99,60.92l-.76,15.67-3.25.58-.97-15.36,4.98-.88ZM131.53,80.91c.41-.54.99-.87,1.72-1,.74-.13,1.39-.01,1.96.35.57.37.92.89,1.05,1.59.12.69-.02,1.31-.44,1.85-.41.54-.99.87-1.72,1-.74.13-1.39.01-1.96-.35-.57-.36-.92-.89-1.05-1.58-.12-.69.02-1.31.44-1.85Z"/>
      </g>
      <path class="cls-1" d="M1.44,11.14c16.83,1.66,33.69,3.14,50.55,4.44,16.78,1.29,33.58,2.4,50.39,3.33,9.52.53,19.05.99,28.57,1.4,1.93.08,1.93-2.92,0-3-16.9-.73-33.79-1.64-50.67-2.73-16.8-1.09-33.58-2.35-50.35-3.8-9.5-.82-19-1.7-28.49-2.63-1.92-.19-1.91,2.81,0,3h0Z"/>
      <path class="cls-1" d="M104.71,2.99c11.67,4.3,23.64,7.71,35.82,10.19,1.88.38,2.69-2.51.8-2.89-12.18-2.48-24.16-5.89-35.82-10.19-1.81-.67-2.6,2.23-.8,2.89h0Z"/>
      <path class="cls-1" d="M130.4,110.44c-22.44,5-44.09,13.55-63.9,25.24-5.56,3.28-10.96,6.8-16.2,10.56-1.56,1.11-.06,3.72,1.51,2.59,18.5-13.24,39.03-23.57,60.71-30.46,6.15-1.95,12.38-3.63,18.68-5.03,1.88-.42,1.09-3.31-.8-2.89h0Z"/>
    </g>
  </g>
</svg>