<?xml version="1.0" encoding="UTF-8"?>
<svg id="_レイヤー_2" data-name="レイヤー 2" xmlns="http://www.w3.org/2000/svg" viewBox="0 0 89.77 126.43">
  <defs>
    <style>
      .cls-1 {
        fill: #f58777;
      }
    </style>
  </defs>
  <g id="_06" data-name="06">
    <g>
      <path class="cls-1" d="M28.63,6.64c-.18,13.39-7.04,26.41-17.7,34.47-3.03,2.29-6.38,4.2-9.92,5.59-1.76.69-1.07,3.5.8,2.89,7.09-2.32,15.29-.45,20.53,4.92s6.86,13.92,4.19,21.01l2.95.4c.26-7.91,1.47-16.11,5.61-23.01,3.48-5.79,9.01-10.4,15.75-11.66,1.65-.31,1.29-3.08-.4-2.95-7.07.56-12.96-4.73-15.73-10.85-3.59-7.92-2.18-17.29-1.01-25.58.11-.81-.2-1.6-1.05-1.85-.7-.2-1.73.25-1.85,1.05-1.31,9.29-2.72,19.43,1.47,28.23,3.27,6.85,10.24,12.63,18.17,12l-.4-2.95c-7.35,1.37-13.49,6.46-17.35,12.72-4.57,7.4-5.93,16.29-6.21,24.84-.06,1.79,2.38,1.9,2.95.4,2.38-6.3,1.7-13.58-1.6-19.44s-9.13-9.76-15.63-10.91c-3.74-.66-7.57-.46-11.18.72l.8,2.89c13.49-5.29,23.94-17.03,28.01-30.92,1.15-3.91,1.75-7.97,1.81-12.04.03-1.93-2.97-1.93-3,0h0Z"/>
      <path class="cls-1" d="M63.68,74.26c2.77,5.33.99,11.82-2.39,16.44-3.78,5.16-9.51,8.53-14.9,11.77l1.82,2.36c3.77-3.91,10.33-2.38,13.8,1.16,4.66,4.75,4.53,12.5,3.44,18.58l2.95.4c1.49-13.07,9.37-25.11,20.64-31.84,1.66-.99.16-3.56-1.51-2.59-2.64,1.52-6.32.08-8.67-1.42-2.23-1.42-4.02-3.46-5.3-5.75-2.6-4.64-3.14-10.51-.48-15.24.95-1.68-1.64-3.2-2.59-1.51-3.29,5.84-2.63,13.15.78,18.8,1.67,2.76,4.02,5.18,6.85,6.76,3.21,1.78,7.56,2.9,10.92.95l-1.51-2.59c-12.25,7.32-20.51,20.27-22.13,34.43-.19,1.67,2.65,2.06,2.95.4,1.31-7.32,1.26-16.5-4.68-21.95-4.71-4.31-12.81-5.66-17.58-.71-1.16,1.21.33,3.25,1.82,2.36,6.05-3.64,12.38-7.5,16.41-13.47,3.7-5.48,5.08-12.79,1.95-18.84-.89-1.71-3.48-.2-2.59,1.51h0Z"/>
    </g>
  </g>
</svg>