<?xml version="1.0" encoding="UTF-8"?>
<svg id="_レイヤー_2" data-name="レイヤー 2" xmlns="http://www.w3.org/2000/svg" xmlns:xlink="http://www.w3.org/1999/xlink" viewBox="0 0 521.34 138.77">
  <defs>
    <style>
      .cls-1 {
        filter: url(#drop-shadow-1);
      }

      .cls-2 {
        fill: #fff;
      }
    </style>
    <filter id="drop-shadow-1" x="111.93" y="106.24" width="299" height="49" filterUnits="userSpaceOnUse">
      <feOffset dx="1" dy="1"/>
      <feGaussianBlur result="blur" stdDeviation="5"/>
      <feFlood flood-color="#000" flood-opacity=".2"/>
      <feComposite in2="blur" operator="in"/>
      <feComposite in="SourceGraphic"/>
    </filter>
  </defs>
  <g id="footer">
    <g>
      <g class="cls-1">
        <path class="cls-2" d="M134.74,129.46c.37-.4.68-.8.95-1.19.26-.39.46-.79.6-1.2.14-.41.2-.84.2-1.28,0-.37-.07-.73-.22-1.08-.14-.35-.36-.67-.64-.96-.28-.29-.62-.52-1.02-.7-.4-.18-.86-.26-1.37-.26-.72,0-1.34.16-1.86.49-.52.33-.92.8-1.19,1.42-.27.62-.41,1.35-.41,2.2h-2.04c0-1.2.22-2.25.65-3.16.43-.9,1.06-1.61,1.88-2.11.82-.5,1.81-.76,2.96-.76.93,0,1.73.16,2.4.47.67.31,1.22.71,1.66,1.2.43.49.75,1.01.96,1.57.21.56.31,1.1.31,1.61,0,.86-.21,1.72-.62,2.57-.42.85-.95,1.61-1.61,2.28l-5.35,5.45h7.66v1.92h-11.86l7.94-8.47Z"/>
        <path class="cls-2" d="M143.17,125.07c.53-1.3,1.26-2.32,2.2-3.06.94-.74,2.02-1.12,3.25-1.12s2.32.37,3.25,1.12,1.67,1.76,2.2,3.06.79,2.78.79,4.46-.26,3.17-.79,4.46c-.53,1.3-1.26,2.32-2.2,3.06s-2.02,1.12-3.25,1.12-2.32-.37-3.25-1.12c-.94-.74-1.67-1.76-2.2-3.06-.53-1.3-.79-2.78-.79-4.46s.26-3.17.79-4.46ZM144.7,132.23c.19.82.47,1.54.84,2.14.37.6.81,1.06,1.33,1.39s1.1.49,1.74.49,1.24-.16,1.75-.49c.51-.33.95-.79,1.32-1.39.37-.6.65-1.31.84-2.14.19-.82.29-1.72.29-2.7s-.1-1.88-.29-2.7c-.19-.82-.47-1.54-.84-2.14-.37-.6-.81-1.06-1.32-1.39-.51-.33-1.1-.49-1.75-.49s-1.22.16-1.74.49-.96.79-1.33,1.39c-.37.6-.65,1.31-.84,2.14s-.29,1.72-.29,2.7.1,1.88.29,2.7Z"/>
        <path class="cls-2" d="M165.68,129.46c.37-.4.68-.8.95-1.19.26-.39.46-.79.6-1.2.14-.41.2-.84.2-1.28,0-.37-.07-.73-.22-1.08-.14-.35-.36-.67-.64-.96-.28-.29-.62-.52-1.02-.7-.4-.18-.86-.26-1.37-.26-.72,0-1.34.16-1.86.49-.52.33-.92.8-1.19,1.42-.27.62-.41,1.35-.41,2.2h-2.04c0-1.2.22-2.25.65-3.16.43-.9,1.06-1.61,1.88-2.11.82-.5,1.81-.76,2.96-.76.93,0,1.73.16,2.4.47.67.31,1.22.71,1.66,1.2.43.49.75,1.01.96,1.57.21.56.31,1.1.31,1.61,0,.86-.21,1.72-.62,2.57-.42.85-.95,1.61-1.61,2.28l-5.35,5.45h7.66v1.92h-11.86l7.94-8.47Z"/>
        <path class="cls-2" d="M182.84,121.13l-5.26,6.94-.14-.12c.32-.4.69-.66,1.12-.79.42-.13.91-.19,1.45-.19.69,0,1.33.14,1.93.41.6.27,1.13.66,1.58,1.15.46.5.81,1.08,1.07,1.74.26.66.38,1.38.38,2.15,0,1.15-.25,2.16-.76,3.02-.5.86-1.18,1.54-2.04,2.02-.86.48-1.83.72-2.92.72s-2.04-.24-2.9-.72c-.86-.48-1.55-1.15-2.05-2.02s-.76-1.87-.76-3.02c0-.69.1-1.33.29-1.92.19-.59.45-1.11.77-1.56l5.66-7.8h2.57ZM175.99,134.44c.33.58.78,1.04,1.34,1.38s1.21.5,1.93.5,1.36-.17,1.93-.5c.57-.34,1.02-.8,1.34-1.38.33-.58.49-1.26.49-2.03s-.16-1.45-.49-2.05c-.33-.6-.78-1.07-1.34-1.4-.57-.34-1.21-.5-1.93-.5s-1.36.17-1.93.5-1.02.8-1.34,1.4c-.33.6-.49,1.28-.49,2.05s.16,1.44.49,2.03Z"/>
        <path class="cls-2" d="M208.65,134.62c.42.51.9.91,1.43,1.2.53.29,1.13.43,1.8.43.9,0,1.62-.25,2.16-.74s.82-1.13.82-1.9-.18-1.35-.53-1.8c-.35-.45-.81-.81-1.38-1.09s-1.17-.53-1.81-.76c-.42-.14-.88-.33-1.39-.56-.51-.23-1-.53-1.46-.89s-.84-.8-1.14-1.33c-.3-.53-.44-1.18-.44-1.94,0-.83.21-1.58.62-2.23s.99-1.17,1.73-1.55,1.58-.56,2.52-.56,1.71.17,2.39.52c.68.34,1.26.78,1.74,1.32s.86,1.1,1.13,1.69l-1.75,1.01c-.21-.42-.47-.82-.79-1.22-.32-.4-.71-.73-1.16-.98-.46-.26-1.01-.38-1.67-.38-.91,0-1.58.22-1.99.66-.42.44-.62.93-.62,1.48,0,.46.12.89.36,1.28.24.39.64.76,1.21,1.1.57.34,1.34.68,2.32,1.02.45.16.92.37,1.42.62.5.26.96.58,1.38.97.42.39.77.86,1.04,1.42.27.55.41,1.21.41,1.98s-.14,1.4-.42,1.99c-.28.59-.66,1.1-1.15,1.51-.49.42-1.04.74-1.66.96-.62.22-1.26.34-1.93.34-.91,0-1.76-.2-2.53-.59-.78-.39-1.46-.91-2.04-1.56-.58-.65-1.06-1.34-1.43-2.08l1.63-1.1c.38.67.79,1.26,1.21,1.78Z"/>
        <path class="cls-2" d="M223.44,121.13v16.8h-2.04v-16.8h2.04ZM222.53,121.13h8.47v1.92h-8.47v-1.92ZM222.53,127.85h7.99v1.92h-7.99v-1.92ZM222.53,136.01h8.47v1.92h-8.47v-1.92Z"/>
        <path class="cls-2" d="M239.21,131.6l-.19.43-2.5,5.9h-2.28l7.8-17.64,7.8,17.64h-2.28l-2.45-5.76-.19-.48-2.88-6.77-2.83,6.67ZM238.37,130.97h7.44l.72,1.92h-8.88l.72-1.92Z"/>
        <path class="cls-2" d="M255.16,134.62c.42.51.9.91,1.43,1.2.53.29,1.13.43,1.8.43.9,0,1.62-.25,2.16-.74s.82-1.13.82-1.9-.18-1.35-.53-1.8c-.35-.45-.81-.81-1.38-1.09s-1.17-.53-1.81-.76c-.42-.14-.88-.33-1.39-.56-.51-.23-1-.53-1.46-.89s-.84-.8-1.14-1.33c-.3-.53-.44-1.18-.44-1.94,0-.83.21-1.58.62-2.23s.99-1.17,1.73-1.55,1.58-.56,2.52-.56,1.71.17,2.39.52c.68.34,1.26.78,1.74,1.32s.86,1.1,1.13,1.69l-1.75,1.01c-.21-.42-.47-.82-.79-1.22-.32-.4-.71-.73-1.16-.98-.46-.26-1.01-.38-1.67-.38-.91,0-1.58.22-1.99.66-.42.44-.62.93-.62,1.48,0,.46.12.89.36,1.28.24.39.64.76,1.21,1.1.57.34,1.34.68,2.32,1.02.45.16.92.37,1.42.62.5.26.96.58,1.38.97.42.39.77.86,1.04,1.42.27.55.41,1.21.41,1.98s-.14,1.4-.42,1.99c-.28.59-.66,1.1-1.15,1.51-.49.42-1.04.74-1.66.96-.62.22-1.26.34-1.93.34-.91,0-1.76-.2-2.53-.59-.78-.39-1.46-.91-2.04-1.56-.58-.65-1.06-1.34-1.43-2.08l1.63-1.1c.38.67.79,1.26,1.21,1.78Z"/>
        <path class="cls-2" d="M267.59,126.11c.42-1.05,1.02-1.96,1.79-2.74.77-.78,1.67-1.38,2.71-1.82,1.04-.44,2.17-.66,3.38-.66s2.36.22,3.4.66c1.03.44,1.93,1.05,2.7,1.82s1.36,1.69,1.79,2.74c.42,1.05.64,2.19.64,3.42s-.21,2.35-.64,3.41c-.42,1.06-1.02,1.97-1.79,2.75-.77.78-1.67,1.38-2.7,1.82-1.03.44-2.16.66-3.4.66s-2.34-.22-3.38-.66c-1.04-.44-1.94-1.05-2.71-1.82-.77-.78-1.36-1.69-1.79-2.75-.42-1.06-.64-2.19-.64-3.41s.21-2.37.64-3.42ZM269.94,132.92c.55.99,1.31,1.78,2.27,2.35s2.05.86,3.26.86,2.32-.29,3.28-.86c.95-.58,1.7-1.36,2.26-2.35.55-.99.83-2.12.83-3.38s-.28-2.39-.83-3.38c-.55-.99-1.3-1.78-2.26-2.35-.95-.58-2.04-.86-3.28-.86s-2.3.29-3.26.86-1.72,1.36-2.27,2.35c-.55.99-.83,2.12-.83,3.38s.28,2.39.83,3.38Z"/>
        <path class="cls-2" d="M303.07,121.13v17.64l-12.72-13.34v12.5h-2.04v-17.64l12.72,13.34v-12.5h2.04Z"/>
        <path class="cls-2" d="M319.03,121.13v14.88h6.6v1.92h-8.64v-16.8h2.04Z"/>
        <path class="cls-2" d="M328.19,126.11c.42-1.05,1.02-1.96,1.79-2.74.77-.78,1.67-1.38,2.71-1.82,1.04-.44,2.17-.66,3.38-.66s2.36.22,3.4.66c1.03.44,1.93,1.05,2.7,1.82s1.36,1.69,1.79,2.74c.42,1.05.64,2.19.64,3.42s-.21,2.35-.64,3.41c-.42,1.06-1.02,1.97-1.79,2.75-.77.78-1.67,1.38-2.7,1.82-1.03.44-2.16.66-3.4.66s-2.34-.22-3.38-.66c-1.04-.44-1.94-1.05-2.71-1.82-.77-.78-1.36-1.69-1.79-2.75-.42-1.06-.64-2.19-.64-3.41s.21-2.37.64-3.42ZM330.54,132.92c.55.99,1.31,1.78,2.27,2.35s2.05.86,3.26.86,2.32-.29,3.28-.86c.95-.58,1.7-1.36,2.26-2.35.55-.99.83-2.12.83-3.38s-.28-2.39-.83-3.38c-.55-.99-1.3-1.78-2.26-2.35-.95-.58-2.04-.86-3.28-.86s-2.3.29-3.26.86-1.72,1.36-2.27,2.35c-.55.99-.83,2.12-.83,3.38s.28,2.39.83,3.38Z"/>
        <path class="cls-2" d="M348.59,126.11c.42-1.05,1.02-1.96,1.79-2.74.77-.78,1.67-1.38,2.71-1.82,1.04-.44,2.17-.66,3.38-.66s2.36.22,3.4.66c1.03.44,1.93,1.05,2.7,1.82s1.36,1.69,1.79,2.74c.42,1.05.64,2.19.64,3.42s-.21,2.35-.64,3.41c-.42,1.06-1.02,1.97-1.79,2.75-.77.78-1.67,1.38-2.7,1.82-1.03.44-2.16.66-3.4.66s-2.34-.22-3.38-.66c-1.04-.44-1.94-1.05-2.71-1.82-.77-.78-1.36-1.69-1.79-2.75-.42-1.06-.64-2.19-.64-3.41s.21-2.37.64-3.42ZM350.94,132.92c.55.99,1.31,1.78,2.27,2.35s2.05.86,3.26.86,2.32-.29,3.28-.86c.95-.58,1.7-1.36,2.26-2.35.55-.99.83-2.12.83-3.38s-.28-2.39-.83-3.38c-.55-.99-1.3-1.78-2.26-2.35-.95-.58-2.04-.86-3.28-.86s-2.3.29-3.26.86-1.72,1.36-2.27,2.35c-.55.99-.83,2.12-.83,3.38s.28,2.39.83,3.38Z"/>
        <path class="cls-2" d="M371.35,121.13v16.8h-2.04v-16.8h2.04ZM380.47,121.13l-7.27,7.87,7.63,8.93h-2.52l-7.58-8.88,7.22-7.92h2.52Z"/>
        <path class="cls-2" d="M386.15,134.62c.42.51.9.91,1.43,1.2.53.29,1.13.43,1.8.43.9,0,1.62-.25,2.16-.74s.82-1.13.82-1.9-.18-1.35-.53-1.8c-.35-.45-.81-.81-1.38-1.09s-1.17-.53-1.81-.76c-.42-.14-.88-.33-1.39-.56-.51-.23-1-.53-1.46-.89s-.84-.8-1.14-1.33c-.3-.53-.44-1.18-.44-1.94,0-.83.21-1.58.62-2.23s.99-1.17,1.73-1.55,1.58-.56,2.52-.56,1.71.17,2.39.52c.68.34,1.26.78,1.74,1.32s.86,1.1,1.13,1.69l-1.75,1.01c-.21-.42-.47-.82-.79-1.22-.32-.4-.71-.73-1.16-.98-.46-.26-1.01-.38-1.67-.38-.91,0-1.58.22-1.99.66-.42.44-.62.93-.62,1.48,0,.46.12.89.36,1.28.24.39.64.76,1.21,1.1.57.34,1.34.68,2.32,1.02.45.16.92.37,1.42.62.5.26.96.58,1.38.97.42.39.77.86,1.04,1.42.27.55.41,1.21.41,1.98s-.14,1.4-.42,1.99c-.28.59-.66,1.1-1.15,1.51-.49.42-1.04.74-1.66.96-.62.22-1.26.34-1.93.34-.91,0-1.76-.2-2.53-.59-.78-.39-1.46-.91-2.04-1.56-.58-.65-1.06-1.34-1.43-2.08l1.63-1.1c.38.67.79,1.26,1.21,1.78Z"/>
      </g>
      <g>
        <path class="cls-2" d="M12.55,120.27c1.19.55,2.38.86,3.57.94,1.19.08,2.35-.12,3.49-.6,1.32-.56,2.25-1.35,2.8-2.37s.57-2.12.08-3.29c-.43-1.01-1.02-1.72-1.79-2.12-.77-.4-1.75-.63-2.95-.68-1.2-.05-2.64-.05-4.31,0-.88.05-1.93.04-3.12-.01-1.2-.05-2.4-.27-3.61-.65-1.21-.38-2.33-.99-3.38-1.83-1.04-.84-1.89-2.03-2.54-3.57-.78-1.84-.98-3.63-.61-5.36.37-1.73,1.21-3.3,2.52-4.7,1.31-1.4,2.96-2.52,4.96-3.37,2.06-.87,3.98-1.27,5.76-1.21,1.78.06,3.39.41,4.84,1.05,1.44.64,2.68,1.41,3.72,2.31l-3.96,5.03c-.75-.59-1.56-1.07-2.43-1.45-.86-.38-1.76-.6-2.69-.66-.93-.06-1.89.12-2.87.53-1.29.54-2.13,1.25-2.52,2.12-.39.87-.42,1.71-.08,2.5.34.8.89,1.39,1.67,1.77.77.38,1.81.61,3.11.69,1.3.08,2.88.06,4.74-.07,1.2-.07,2.4-.04,3.6.11s2.36.44,3.47.9,2.12,1.12,3.01,1.99c.89.87,1.63,2,2.21,3.38.66,1.57.94,3.09.85,4.58-.1,1.49-.5,2.88-1.22,4.18-.72,1.3-1.65,2.45-2.8,3.46-1.15,1.01-2.46,1.82-3.93,2.45-1.97.83-3.96,1.23-5.98,1.19-2.02-.03-3.94-.43-5.74-1.19-1.8-.76-3.38-1.74-4.72-2.95l3.3-5.3c1.18.91,2.37,1.64,3.56,2.19Z"/>
        <path class="cls-2" d="M33.79,83.05l11.97,32.89-6.72,2.45-11.98-32.89,6.72-2.45ZM31.16,84l6.53-2.38c2.6-.95,4.97-1.33,7.11-1.15s3.98.87,5.52,2.09,2.71,2.9,3.49,5.06c.78,2.13.97,4.16.57,6.1-.4,1.94-1.35,3.66-2.88,5.17s-3.59,2.74-6.19,3.69l-6.53,2.38-2.07-5.69,6.53-2.38c1.79-.65,3.05-1.57,3.78-2.76.74-1.19.82-2.57.25-4.13-.58-1.6-1.53-2.61-2.86-3.03-1.32-.42-2.88-.31-4.66.34l-6.53,2.38-2.07-5.68Z"/>
        <path class="cls-2" d="M64.33,72.57l10.29,33.45-6.83,2.1-10.29-33.45,6.83-2.1ZM61.65,73.39l7.07-2.18c2.64-.81,5.03-1.06,7.15-.74s3.92,1.13,5.4,2.42c1.48,1.29,2.55,3,3.2,5.14.65,2.1.72,4.11.23,6.02-.49,1.91-1.53,3.6-3.1,5.06-1.57,1.46-3.68,2.6-6.33,3.41l-7.07,2.18-1.68-5.45,6.64-2.04c1.21-.37,2.19-.89,2.95-1.56.75-.67,1.25-1.45,1.5-2.35.25-.89.21-1.87-.11-2.92-.32-1.05-.84-1.88-1.55-2.48-.71-.6-1.56-.97-2.56-1.1-1-.13-2.1,0-3.31.37l-6.64,2.04-1.79-5.83ZM77.81,87.98l15.69,12.23-8.08,2.49-14.83-12.49,7.22-2.22Z"/>
        <path class="cls-2" d="M96.18,63.41l9,33.82-7.01,1.86-9-33.82,7.01-1.86Z"/>
        <path class="cls-2" d="M136.68,54.06l7.84,35.91-29.33-17.6,4.63,21.2-6.74,1.47-7.83-35.9,29.33,17.6-4.63-21.2,6.74-1.47Z"/>
        <path class="cls-2" d="M166.07,65.77l17.06-2.57c.5,2.62.57,5.16.21,7.6-.36,2.45-1.15,4.68-2.38,6.7-1.23,2.02-2.87,3.71-4.93,5.07-2.05,1.35-4.5,2.25-7.33,2.67-2.67.4-5.2.33-7.59-.22-2.39-.55-4.54-1.51-6.45-2.87-1.91-1.36-3.48-3.1-4.73-5.2-1.24-2.1-2.07-4.49-2.47-7.16s-.3-5.19.3-7.55c.6-2.37,1.63-4.47,3.07-6.3,1.44-1.83,3.24-3.35,5.38-4.55,2.15-1.2,4.55-2,7.22-2.4,2.37-.36,4.56-.35,6.55.02,1.99.38,3.81,1.04,5.46,1.98,1.64.95,3.11,2.15,4.41,3.61l-5.5,4.42c-1.09-1.39-2.47-2.43-4.14-3.14-1.67-.71-3.62-.9-5.82-.56-2.08.31-3.9,1.07-5.47,2.27-1.57,1.2-2.73,2.75-3.47,4.64-.74,1.9-.93,4.05-.57,6.46.36,2.37,1.17,4.38,2.43,6.03,1.26,1.65,2.81,2.84,4.66,3.57,1.85.73,3.84.94,5.98.62,1.42-.21,2.66-.59,3.72-1.14,1.06-.55,1.95-1.23,2.65-2.04.7-.81,1.27-1.71,1.69-2.68.43-.97.71-2.01.85-3.11l-9.94,1.5-.85-5.64Z"/>
        <path class="cls-2" d="M214.53,67.63c1.16,1.65,2.61,2.88,4.37,3.68,1.75.81,3.63,1.15,5.63,1.02,1.66-.11,3.13-.41,4.4-.93,1.27-.51,2.41-1.17,3.41-1.97,1-.8,1.86-1.65,2.57-2.57l.51,8.03c-1.36,1.22-2.86,2.2-4.5,2.94-1.64.74-3.74,1.19-6.3,1.35-2.66.17-5.16-.11-7.49-.83-2.33-.72-4.39-1.84-6.17-3.37-1.78-1.52-3.2-3.36-4.25-5.52-1.05-2.15-1.67-4.58-1.84-7.27-.17-2.7.13-5.18.91-7.45.78-2.27,1.95-4.27,3.53-6.01,1.58-1.74,3.48-3.11,5.7-4.12,2.22-1.01,4.67-1.6,7.33-1.76,2.56-.16,4.7.02,6.42.55,1.72.53,3.33,1.31,4.83,2.35l.51,8.03c-.82-.82-1.78-1.56-2.87-2.22-1.09-.67-2.3-1.17-3.63-1.53s-2.82-.47-4.48-.37c-2,.13-3.81.7-5.45,1.72-1.64,1.02-2.93,2.41-3.87,4.18-.94,1.76-1.34,3.81-1.19,6.14.14,2.3.79,4.27,1.95,5.91Z"/>
        <path class="cls-2" d="M242.39,52.72c.92-2.22,2.21-4.15,3.87-5.8,1.66-1.64,3.61-2.91,5.85-3.81,2.24-.9,4.68-1.35,7.32-1.37,2.67-.02,5.12.41,7.36,1.28,2.24.87,4.2,2.12,5.9,3.74,1.69,1.62,3,3.54,3.93,5.75.93,2.21,1.4,4.65,1.42,7.32.02,2.63-.43,5.08-1.33,7.33-.9,2.25-2.18,4.22-3.82,5.9-1.64,1.68-3.58,2.98-5.83,3.91-2.24.93-4.72,1.4-7.42,1.42-2.7.02-5.18-.43-7.43-1.33-2.25-.9-4.22-2.18-5.9-3.84-1.68-1.66-2.97-3.61-3.88-5.85-.91-2.25-1.38-4.68-1.39-7.32-.02-2.67.44-5.11,1.36-7.33ZM250.02,65.95c.94,1.73,2.23,3.09,3.87,4.08,1.64.99,3.54,1.48,5.71,1.47,2.17-.01,4.06-.52,5.69-1.53,1.63-1.01,2.89-2.38,3.8-4.12.91-1.74,1.35-3.72,1.34-5.96s-.47-4.21-1.38-5.94c-.91-1.73-2.19-3.09-3.82-4.08-1.64-.99-3.56-1.48-5.76-1.47-2.17.01-4.06.52-5.69,1.53-1.63,1.01-2.9,2.38-3.83,4.12-.92,1.74-1.38,3.72-1.37,5.96.01,2.23.49,4.21,1.43,5.94Z"/>
        <path class="cls-2" d="M293.23,43.23l-1.47,28.71,13.93.71-.32,6.24-21.07-1.08,1.79-34.95,7.14.37Z"/>
        <path class="cls-2" d="M320.44,45.12l-2.66,28.63,13.89,1.29-.58,6.22-21.01-1.95,3.24-34.85,7.12.66Z"/>
        <path class="cls-2" d="M347.44,48.12l-4.81,34.67-6.83-.95,4.81-34.67,6.83.95ZM341.18,76.48l17.48,2.42-.83,5.99-17.48-2.42.83-5.99ZM343.31,61.13l16.49,2.29-.82,5.89-16.49-2.29.82-5.89ZM345.16,47.8l17.48,2.42-.83,5.99-17.48-2.42.83-5.99Z"/>
        <path class="cls-2" d="M374.72,76.2c.71,1.88,1.81,3.44,3.3,4.66,1.5,1.22,3.23,2.02,5.19,2.4,1.64.32,3.13.38,4.49.21,1.36-.18,2.62-.53,3.79-1.05,1.17-.52,2.21-1.13,3.13-1.84l-1.53,7.9c-1.62.84-3.32,1.41-5.09,1.72-1.77.3-3.92.21-6.44-.28-2.62-.51-4.97-1.4-7.04-2.68-2.08-1.28-3.79-2.89-5.13-4.81-1.34-1.92-2.26-4.06-2.73-6.41-.48-2.35-.46-4.85.05-7.5s1.43-4.98,2.75-6.98c1.32-2,2.96-3.65,4.92-4.93,1.96-1.28,4.15-2.14,6.55-2.55,2.41-.42,4.92-.38,7.54.13,2.52.49,4.55,1.2,6.08,2.14,1.53.94,2.9,2.1,4.09,3.49l-1.53,7.9c-.59-1-1.33-1.95-2.22-2.87s-1.94-1.71-3.13-2.39-2.61-1.17-4.25-1.48c-1.96-.38-3.87-.28-5.71.3-1.84.58-3.44,1.6-4.79,3.07-1.35,1.47-2.25,3.35-2.69,5.64-.44,2.26-.3,4.33.4,6.21Z"/>
        <path class="cls-2" d="M403.48,57.93l25.26,6.16-1.53,6.27-9.18-2.24-6.76,27.74-6.95-1.69,6.76-27.74-9.13-2.23,1.53-6.27Z"/>
        <path class="cls-2" d="M441.47,67.73l-9.47,33.69-6.98-1.96,9.47-33.69,6.98,1.96Z"/>
        <path class="cls-2" d="M447.13,79.78c1.58-1.81,3.42-3.23,5.52-4.25,2.1-1.03,4.35-1.6,6.76-1.73,2.41-.13,4.87.22,7.37,1.05,2.53.84,4.72,2.03,6.56,3.57,1.84,1.54,3.3,3.35,4.39,5.43,1.08,2.08,1.71,4.32,1.88,6.71.17,2.39-.16,4.85-1,7.38-.83,2.5-2.03,4.67-3.61,6.52-1.58,1.85-3.41,3.3-5.5,4.36-2.09,1.06-4.35,1.67-6.77,1.84-2.42.16-4.92-.18-7.48-1.03-2.56-.85-4.77-2.06-6.61-3.64-1.85-1.58-3.3-3.42-4.36-5.53-1.06-2.11-1.66-4.37-1.81-6.79s.2-4.88,1.02-7.38c.84-2.53,2.05-4.7,3.63-6.51ZM450.12,94.76c.34,1.94,1.13,3.64,2.36,5.1,1.24,1.46,2.88,2.54,4.94,3.22,2.06.68,4.02.8,5.88.37,1.86-.44,3.5-1.33,4.92-2.69,1.42-1.36,2.48-3.09,3.18-5.21.7-2.12.9-4.14.59-6.07-.31-1.93-1.08-3.62-2.32-5.09-1.24-1.46-2.9-2.54-4.99-3.23-2.06-.68-4.02-.81-5.88-.37-1.87.44-3.51,1.33-4.94,2.68-1.43,1.35-2.5,3.09-3.2,5.21-.7,2.12-.88,4.15-.54,6.09Z"/>
        <path class="cls-2" d="M521.34,96.25l-13.84,34.04-14.24-31.1-8.17,20.1-6.39-2.6,13.84-34.04,14.24,31.1,8.17-20.1,6.39,2.6Z"/>
      </g>
      <g>
        <path class="cls-2" d="M164.27,7.66l2.44,16.62-4.01.59-2.44-16.62,4.01-.59ZM162.26,14.14l12.58-1.85.53,3.61-12.58,1.85-.53-3.61ZM175.43,6.02l2.44,16.62-4.01.59-2.44-16.62,4.01-.59Z"/>
        <path class="cls-2" d="M182.5,9.98c.34-1.12.87-2.11,1.59-2.98s1.61-1.58,2.66-2.12c1.05-.54,2.21-.89,3.48-1.03,1.29-.14,2.5-.06,3.64.24,1.14.3,2.15.8,3.05,1.48.9.69,1.63,1.54,2.19,2.56.56,1.02.92,2.17,1.06,3.46.14,1.29.06,2.5-.26,3.63-.32,1.13-.83,2.14-1.55,3.02s-1.6,1.61-2.65,2.16c-1.05.56-2.23.91-3.53,1.06-1.32.15-2.55.06-3.7-.25-1.15-.32-2.16-.83-3.06-1.53-.89-.71-1.62-1.58-2.17-2.61s-.91-2.19-1.05-3.48-.05-2.49.29-3.61ZM187.36,15.66c.47.71,1.09,1.24,1.84,1.59.75.35,1.61.47,2.56.37.94-.1,1.74-.41,2.4-.92s1.14-1.16,1.45-1.96c.31-.8.4-1.69.29-2.68s-.4-1.84-.86-2.55c-.47-.71-1.07-1.25-1.82-1.6-.75-.35-1.61-.47-2.58-.37-.95.11-1.76.41-2.42.92-.66.51-1.14,1.16-1.45,1.96-.31.8-.4,1.69-.29,2.68.11.99.4,1.83.87,2.55Z"/>
        <path class="cls-2" d="M202.69,2.96l13.25-1.07.29,3.61-4.62.37,1.06,13.13-4.04.33-1.06-13.13-4.59.37-.29-3.61Z"/>
        <path class="cls-2" d="M234.58,7.56l2.71-.1c.46-.02.86-.1,1.18-.26.32-.16.57-.37.73-.64.17-.27.24-.6.23-.98-.02-.58-.23-1-.62-1.27-.39-.27-.94-.4-1.65-.37l-1.68.06.38,10.5,2.06-.08c.53-.02,1-.1,1.41-.25.41-.15.73-.39.97-.71.24-.32.34-.75.33-1.3-.01-.35-.1-.65-.25-.9-.15-.25-.36-.45-.62-.6-.26-.15-.56-.26-.89-.32-.33-.06-.7-.08-1.1-.07l-3.09.11-.08-2.21,3.55-.13c.82-.03,1.61.03,2.38.18s1.48.41,2.12.78c.64.37,1.16.85,1.55,1.43s.61,1.3.64,2.15c.04,1.12-.19,2.03-.71,2.74-.51.71-1.25,1.24-2.21,1.61s-2.11.57-3.44.62l-6.57.24-.61-16.79,6.16-.22c1.17-.04,2.2.08,3.1.36.9.28,1.62.73,2.16,1.34s.83,1.4.87,2.36c.03.88-.2,1.64-.7,2.28-.5.64-1.18,1.14-2.06,1.5-.88.36-1.9.56-3.06.6l-3.14.11-.06-1.78Z"/>
        <path class="cls-2" d="M254.55.38l.22,16.8-4.13.05-.22-16.8,4.13-.05Z"/>
        <path class="cls-2" d="M264.14,12.84c.42.45.88.8,1.38,1.04.5.25,1.03.37,1.59.38.59,0,1.08-.14,1.47-.43.39-.29.58-.69.59-1.21,0-.43-.1-.78-.33-1.05-.22-.27-.58-.52-1.07-.77-.49-.24-1.15-.52-1.96-.83-.4-.15-.86-.35-1.37-.61-.52-.26-1.01-.6-1.47-1.01-.46-.41-.84-.91-1.14-1.5s-.44-1.3-.44-2.13c0-.99.28-1.84.8-2.56.53-.71,1.24-1.26,2.13-1.62.89-.37,1.88-.55,2.97-.54,1.12.01,2.09.2,2.91.58.82.38,1.5.85,2.04,1.41.54.57.95,1.14,1.23,1.72l-3.11,1.7c-.24-.4-.51-.75-.82-1.05s-.65-.53-1.03-.71c-.37-.17-.78-.26-1.21-.26-.58,0-1.02.11-1.32.36s-.46.55-.46.92c0,.38.14.72.43,1.01.29.29.71.56,1.26.8.55.25,1.22.51,2,.79.59.23,1.14.49,1.65.79.51.3.96.66,1.35,1.08.39.42.69.9.91,1.45.22.55.33,1.17.32,1.88,0,.85-.19,1.6-.54,2.26s-.82,1.21-1.41,1.65c-.59.44-1.26.78-2,1-.75.22-1.51.33-2.3.33-1.09,0-2.1-.22-3.03-.62s-1.74-.94-2.42-1.62c-.68-.68-1.21-1.42-1.59-2.22l2.85-2.01c.33.61.71,1.14,1.12,1.59Z"/>
        <path class="cls-2" d="M283.24,11.79c.43.76,1.02,1.35,1.77,1.76.74.41,1.57.64,2.48.67.8.03,1.51-.04,2.12-.23.62-.18,1.17-.44,1.66-.75.49-.32.93-.66,1.31-1.03l-.17,4.36c-.69.5-1.44.89-2.26,1.16-.81.27-1.83.38-3.06.34-1.34-.05-2.57-.31-3.69-.77s-2.07-1.1-2.86-1.91c-.78-.82-1.38-1.77-1.79-2.86-.41-1.09-.58-2.29-.53-3.6.05-1.31.32-2.49.81-3.55.49-1.05,1.16-1.96,2-2.71.85-.75,1.84-1.31,3-1.68,1.15-.37,2.4-.53,3.74-.48,1.23.05,2.24.24,3.03.58s1.51.78,2.16,1.33l-.17,4.37c-.35-.4-.76-.78-1.23-1.14-.47-.36-1-.66-1.6-.88-.6-.22-1.3-.35-2.1-.38-.91-.04-1.75.12-2.53.48-.77.35-1.41.89-1.9,1.61-.49.72-.76,1.6-.8,2.63-.04,1.02.16,1.92.59,2.68Z"/>
        <path class="cls-2" d="M303.52,1.76l-.77,10.96c-.06.85.12,1.55.52,2.11.41.56,1.06.87,1.96.93.91.06,1.61-.15,2.09-.65.48-.5.76-1.17.82-2.01l.77-10.96,4.05.29-.79,11.25c-.07,1.05-.31,1.96-.71,2.72-.4.76-.92,1.37-1.57,1.83s-1.4.79-2.23.99-1.73.26-2.67.2-1.81-.26-2.61-.57c-.8-.31-1.48-.74-2.06-1.29-.58-.55-1.01-1.22-1.3-2.03-.29-.81-.4-1.74-.32-2.79l.79-11.25,4.05.29Z"/>
        <path class="cls-2" d="M323.64,3.41l-1.59,16.72-4.11-.39,1.59-16.73,4.11.39Z"/>
        <path class="cls-2" d="M328.65,3.89l13.21,1.54-.42,3.6-4.6-.54-1.53,13.09-4.03-.47,1.53-13.09-4.58-.53.42-3.6Z"/>
        <path class="cls-2" d="M348.06,18.88c.35.5.77.91,1.23,1.22.46.31.97.5,1.53.58.59.08,1.09,0,1.51-.23.42-.24.67-.61.74-1.12.06-.43,0-.79-.18-1.08-.18-.29-.5-.59-.96-.9s-1.07-.67-1.83-1.09c-.38-.2-.8-.46-1.28-.79-.48-.33-.92-.73-1.32-1.2-.4-.47-.71-1.02-.93-1.64-.22-.62-.27-1.34-.15-2.17.14-.98.52-1.79,1.14-2.43.62-.64,1.39-1.08,2.33-1.33.93-.24,1.94-.29,3.01-.13,1.11.16,2.04.48,2.81.96.76.48,1.37,1.04,1.83,1.67.46.63.79,1.25.99,1.87l-3.31,1.27c-.18-.43-.4-.81-.67-1.15-.27-.34-.57-.62-.92-.84-.35-.22-.74-.36-1.16-.42-.57-.08-1.02-.02-1.36.18-.34.2-.53.49-.58.85-.05.38.04.73.3,1.06.25.33.63.65,1.15.97.51.32,1.14.67,1.87,1.05.55.31,1.06.64,1.53,1.01s.86.78,1.19,1.25c.33.47.56.99.71,1.56s.17,1.2.06,1.9c-.12.84-.4,1.56-.84,2.17-.44.61-.97,1.09-1.62,1.45s-1.35.6-2.12.72c-.77.12-1.54.13-2.32.02-1.08-.16-2.05-.5-2.92-1.02-.87-.52-1.6-1.17-2.18-1.93-.58-.76-1.01-1.57-1.28-2.42l3.1-1.61c.25.65.55,1.23.9,1.73Z"/>
      </g>
    </g>
  </g>
</svg>