<?xml version="1.0" encoding="UTF-8"?>
<svg id="_レイヤー_2" data-name="レイヤー 2" xmlns="http://www.w3.org/2000/svg" viewBox="0 0 164.61 226.54">
  <defs>
    <style>
      .cls-1 {
        fill: #f58777;
      }
    </style>
  </defs>
  <g id="_05" data-name="05">
    <g>
      <g>
        <path class="cls-1" d="M39.69,79.66l-4.32,24.96h-4.03l4.22-24.96h4.13Z"/>
        <path class="cls-1" d="M44.27,104.14c-1.05-.53-1.86-1.3-2.45-2.3-.59-1-.88-2.21-.88-3.62,0-1.19.22-2.31.66-3.36.44-1.04,1.06-1.96,1.86-2.75.8-.79,1.74-1.41,2.83-1.86,1.09-.45,2.28-.67,3.58-.67,1.43,0,2.63.26,3.6.77s1.71,1.25,2.22,2.21c.51.96.77,2.13.77,3.52,0,.34-.03.71-.1,1.1-.06.4-.15.73-.26,1.01h-12.99v-2.56h9.82l-1.09,1.47c.11-.21.2-.45.29-.7.08-.26.13-.5.13-.74,0-.66-.1-1.23-.3-1.7-.2-.47-.5-.83-.9-1.09-.4-.26-.91-.38-1.55-.38s-1.22.13-1.74.38c-.52.26-.98.61-1.36,1.07-.38.46-.69,1.01-.91,1.65-.22.64-.37,1.34-.43,2.11-.09.81-.02,1.53.19,2.14.21.62.57,1.09,1.06,1.42.49.33,1.12.5,1.89.5.85,0,1.62-.19,2.29-.58.67-.38,1.23-.9,1.68-1.54l3.52,1.12c-.79,1.3-1.83,2.32-3.14,3.06-1.3.74-2.84,1.1-4.61,1.1-1.41,0-2.64-.27-3.68-.8Z"/>
        <path class="cls-1" d="M68.72,89.9l-.61,3.49h-8.9l.64-3.49h8.86ZM67.12,84.78l-3.46,19.84h-3.9l3.36-19.84h4Z"/>
        <path class="cls-1" d="M79.05,82.22l-4.58,7.87h-2.94l3.07-7.87h4.45Z"/>
        <path class="cls-1" d="M80.56,100.84c.47.36.95.65,1.44.85.49.2.99.29,1.5.27.51,0,.94-.14,1.3-.43.35-.29.53-.65.53-1.07.02-.41-.1-.74-.35-.99-.26-.26-.59-.48-1.01-.69-.42-.2-.88-.4-1.39-.59-.62-.23-1.21-.53-1.78-.9-.57-.36-1.02-.83-1.36-1.41-.34-.58-.49-1.27-.45-2.08.06-.96.36-1.75.88-2.37.52-.62,1.19-1.08,2-1.39.81-.31,1.66-.46,2.56-.46,1.22,0,2.3.23,3.25.69.95.46,1.78,1.03,2.48,1.71l-1.95,2.53c-.49-.55-1.06-1.02-1.7-1.41s-1.3-.58-1.98-.58c-.51,0-.93.11-1.25.34-.32.22-.49.52-.51.88-.02.34.1.63.35.88.26.25.61.46,1.06.66.45.19.91.38,1.38.58.73.3,1.38.64,1.97,1.01.59.37,1.05.84,1.39,1.39.34.55.49,1.26.45,2.11-.06.96-.34,1.8-.83,2.51-.49.71-1.15,1.27-1.97,1.66s-1.77.59-2.83.59c-1,0-1.93-.14-2.77-.42-.84-.28-1.61-.65-2.29-1.12-.68-.47-1.29-.97-1.82-1.5l2.27-2.53c.49.49.97.92,1.44,1.28Z"/>
        <path class="cls-1" d="M106.25,105.64c0,.62.11,1.16.32,1.62.21.46.55.82,1.01,1.07.46.26,1.03.38,1.71.38.79,0,1.51-.18,2.18-.54.66-.36,1.22-.89,1.66-1.57.45-.68.74-1.45.86-2.3l2.5-14.4h3.97l-2.46,14.4c-.23,1.62-.76,3.02-1.57,4.19-.81,1.17-1.83,2.07-3.06,2.7-1.23.63-2.61.94-4.14.94s-2.83-.27-3.87-.8c-1.05-.53-1.82-1.29-2.34-2.27-.51-.98-.75-2.12-.7-3.42h3.94ZM104.96,93.21c.78-1.14,1.74-2.04,2.9-2.69,1.15-.65,2.39-.97,3.71-.94.98,0,1.82.2,2.51.61.69.41,1.24.96,1.65,1.66.41.7.68,1.5.82,2.4.14.9.14,1.86.02,2.88-.13,1.05-.4,2.02-.82,2.93-.42.91-.94,1.71-1.57,2.4-.63.69-1.36,1.23-2.19,1.62s-1.74.58-2.72.58c-1.32,0-2.45-.34-3.38-1.01-.93-.67-1.61-1.58-2.03-2.72-.43-1.14-.54-2.42-.35-3.82.19-1.45.68-2.75,1.46-3.89ZM107.87,99.18c.2.62.55,1.11,1.06,1.47.5.36,1.11.54,1.84.54.51.02,1.01-.07,1.5-.27.49-.2.95-.49,1.38-.86.43-.37.78-.82,1.06-1.33.28-.51.47-1.06.58-1.63.08-.55.07-1.08-.03-1.57-.11-.49-.29-.92-.54-1.3-.26-.37-.58-.67-.96-.88-.38-.21-.83-.33-1.34-.35-.77,0-1.48.18-2.14.53-.66.35-1.22.84-1.66,1.47-.45.63-.74,1.34-.86,2.13-.11.75-.06,1.43.14,2.05Z"/>
        <path class="cls-1" d="M125.1,93.29c.85-1.15,1.92-2.06,3.22-2.72,1.29-.66,2.69-.99,4.21-.99s2.82.34,3.92,1.02c1.1.68,1.92,1.61,2.46,2.77.54,1.16.72,2.46.53,3.89-.19,1.47-.71,2.78-1.57,3.94-.85,1.15-1.93,2.06-3.22,2.72-1.29.66-2.7.99-4.24.99s-2.79-.34-3.89-1.01c-1.1-.67-1.92-1.59-2.46-2.75-.54-1.16-.73-2.46-.56-3.89.21-1.49.75-2.82,1.6-3.97ZM127.82,99.27c.21.64.56,1.15,1.06,1.54.49.38,1.1.59,1.82.61.77,0,1.48-.19,2.13-.56.65-.37,1.19-.88,1.63-1.52.44-.64.71-1.33.82-2.08.11-.75.05-1.43-.16-2.05-.21-.62-.57-1.13-1.06-1.54-.49-.41-1.11-.61-1.86-.61-.73-.02-1.42.16-2.08.54-.66.38-1.21.9-1.63,1.54-.43.64-.7,1.34-.83,2.11-.11.7-.05,1.38.16,2.02Z"/>
        <path class="cls-1" d="M143.84,101.11c.5-.46,1.12-.69,1.87-.69s1.37.23,1.87.69c.5.46.75,1.04.75,1.74s-.25,1.29-.75,1.74c-.5.46-1.13.69-1.87.69s-1.37-.23-1.87-.69c-.5-.46-.75-1.04-.75-1.74s.25-1.28.75-1.74ZM151.72,82.22l-3.49,15.3h-3.3l1.73-15.3h5.06Z"/>
      </g>
      <path class="cls-1" d="M1.08,21.17c20.34,4.26,40.65,8.69,60.92,13.28s40.5,9.34,60.7,14.26c11.38,2.77,22.75,5.59,34.1,8.46,1.87.47,2.67-2.42.8-2.89-20.15-5.1-40.34-10.03-60.57-14.8s-40.49-9.38-60.8-13.83c-11.44-2.51-22.89-4.96-34.35-7.36-1.88-.39-2.69,2.5-.8,2.89h0Z"/>
      <path class="cls-1" d="M162.41,119.97c-15.11,9.99-30.53,19.53-46.22,28.59s-31.52,17.57-47.66,25.63c-9.15,4.57-18.38,8.98-27.69,13.24-1.75.8-.23,3.39,1.51,2.59,16.47-7.54,32.72-15.57,48.71-24.09s31.58-17.45,46.96-26.88c8.72-5.35,17.35-10.85,25.88-16.49,1.6-1.06.1-3.66-1.51-2.59h0Z"/>
      <path class="cls-1" d="M162.97,36.28c-13.43-13.72-28.47-25.83-44.73-36.04-1.64-1.03-3.15,1.56-1.51,2.59,16.05,10.08,30.86,22.03,44.12,35.57,1.35,1.38,3.47-.74,2.12-2.12h0Z"/>
      <path class="cls-1" d="M109.22,185.56c-18.41,8.64-36.34,18.29-53.68,28.92-4.89,3-9.72,6.07-14.52,9.22-1.61,1.06-.11,3.65,1.51,2.59,17-11.16,34.61-21.38,52.74-30.59,5.11-2.6,10.26-5.11,15.45-7.54,1.75-.82.23-3.41-1.51-2.59h0Z"/>
    </g>
  </g>
</svg>