<?xml version="1.0" encoding="UTF-8"?>
<svg id="_レイヤー_2" data-name="レイヤー 2" xmlns="http://www.w3.org/2000/svg" viewBox="0 0 219.19 103.48">
  <defs>
    <style>
      .cls-1 {
        fill: #f58777;
      }
    </style>
  </defs>
  <g id="_08" data-name="08">
    <g>
      <g>
        <path class="cls-1" d="M45.47,38.56c.09.67.37,1.26.82,1.75s1.06.83,1.83,1.02c.93.22,1.87.2,2.81-.06.94-.27,1.75-.65,2.43-1.16l-1.45,4.01c-.7.31-1.48.5-2.34.59-.86.09-1.77.03-2.73-.18-1.46-.31-2.67-.92-3.62-1.81-.95-.89-1.57-1.96-1.86-3.22s-.19-2.56.3-3.91c.5-1.42,1.29-2.6,2.37-3.55,1.08-.95,2.32-1.61,3.73-1.98,1.41-.37,2.88-.39,4.4-.07.92.2,1.72.5,2.42.92s1.28.91,1.74,1.49l-1.46,4.04c-.22-.79-.64-1.46-1.25-2.02-.61-.56-1.34-.93-2.2-1.11-.81-.18-1.6-.14-2.36.1-.76.24-1.43.62-2.02,1.15-.58.53-1.02,1.17-1.31,1.91-.27.73-.35,1.43-.26,2.11Z"/>
        <path class="cls-1" d="M59.79,47.02l-4-.86,9.45-23.49,4,.86-9.45,23.49ZM68.55,38.25c.03-.44-.06-.83-.27-1.16-.21-.33-.59-.57-1.12-.73-.58-.15-1.13-.13-1.64.04-.52.17-.98.45-1.38.83s-.72.82-.95,1.32l-.85-.18c.42-1.02.98-1.94,1.67-2.75.7-.81,1.52-1.41,2.47-1.81.95-.39,1.98-.47,3.11-.23s1.95.67,2.49,1.29c.53.62.81,1.37.84,2.24s-.14,1.82-.51,2.84l-3.61,9.01-3.97-.86,3.42-8.43c.17-.51.28-.98.31-1.42Z"/>
        <path class="cls-1" d="M77.56,50.36c-.91-.74-1.54-1.66-1.91-2.77-.36-1.1-.39-2.34-.1-3.72.25-1.17.7-2.21,1.35-3.14.65-.93,1.45-1.7,2.39-2.3.95-.6,2-1.01,3.16-1.22,1.16-.21,2.37-.18,3.65.1,1.4.3,2.52.8,3.36,1.51.84.71,1.41,1.58,1.71,2.63.3,1.05.3,2.25,0,3.6-.07.33-.18.69-.33,1.06-.15.37-.3.68-.46.93l-12.7-2.74.54-2.5,9.6,2.07-1.37,1.21c.15-.19.29-.39.43-.63.14-.23.23-.46.28-.69.14-.65.16-1.22.06-1.72-.1-.5-.32-.92-.65-1.25-.33-.33-.81-.57-1.44-.7-.63-.13-1.22-.13-1.79,0-.56.14-1.08.39-1.56.76-.47.37-.88.84-1.24,1.42-.35.58-.64,1.24-.87,1.97-.25.78-.34,1.49-.26,2.14.08.65.32,1.19.73,1.62.41.43.99.72,1.74.88.83.18,1.62.15,2.36-.08.74-.23,1.39-.62,1.97-1.15l3.2,1.84c-1.05,1.11-2.28,1.88-3.71,2.33-1.43.45-3.01.48-4.74.11-1.38-.3-2.52-.82-3.43-1.56Z"/>
        <path class="cls-1" d="M95.68,54.27c-.91-.74-1.55-1.66-1.91-2.77-.36-1.1-.4-2.34-.1-3.72.25-1.17.7-2.21,1.35-3.14s1.45-1.7,2.4-2.3c.95-.6,2-1.01,3.16-1.22,1.16-.21,2.37-.18,3.65.1,1.4.3,2.52.8,3.36,1.51.84.71,1.41,1.58,1.71,2.63.3,1.05.3,2.25,0,3.6-.07.33-.18.69-.33,1.06s-.3.68-.46.93l-12.7-2.74.54-2.5,9.6,2.07-1.37,1.21c.15-.19.29-.39.43-.63.14-.23.23-.46.28-.69.14-.65.16-1.22.06-1.72-.1-.5-.31-.92-.65-1.25-.33-.33-.81-.57-1.44-.7-.62-.13-1.22-.13-1.79,0-.57.14-1.08.39-1.56.76-.47.37-.88.84-1.24,1.42-.35.58-.64,1.24-.87,1.97-.25.78-.34,1.49-.26,2.14.08.65.32,1.19.73,1.62.41.43.99.72,1.74.88.83.18,1.62.15,2.36-.08.74-.23,1.39-.62,1.97-1.15l3.21,1.84c-1.05,1.11-2.28,1.88-3.71,2.33-1.43.45-3.01.48-4.74.11-1.38-.3-2.52-.82-3.43-1.56Z"/>
        <path class="cls-1" d="M114.03,58.72l-3.94-.85,5.58-13.86,3.94.85-5.57,13.86ZM121.55,49.11c-.23-.2-.52-.34-.88-.42-.54-.14-1.05-.09-1.54.14-.49.23-.92.57-1.28,1.02-.37.44-.66.95-.87,1.52l-.63-1.35c.4-.94.96-1.8,1.69-2.6s1.52-1.4,2.39-1.82c.87-.43,1.72-.55,2.55-.37.52.11.96.32,1.32.61s.66.67.89,1.11l-3.01,2.86c-.21-.26-.42-.49-.65-.7Z"/>
        <path class="cls-1" d="M137.96,41.96c-.17-.18-.39-.31-.65-.38-.36-.08-.69-.04-1.01.12-.32.16-.6.41-.85.73-.25.33-.44.7-.6,1.1l-7.28,18.11-3.88-.84,7.6-19.02c.38-.96.9-1.78,1.56-2.45.66-.67,1.43-1.13,2.31-1.4.89-.27,1.86-.28,2.92-.03.81.17,1.46.47,1.94.89.48.42.85.87,1.12,1.34l-2.77,2.51c-.11-.29-.25-.52-.42-.7ZM136.46,48.5l-1.36,3.28-8.82-1.9,1.36-3.27,8.82,1.9Z"/>
        <path class="cls-1" d="M140.39,59.98c-.02.45.07.85.27,1.19.2.34.58.57,1.15.69.56.12,1.1.12,1.61-.01.51-.13.96-.38,1.37-.74.4-.36.71-.81.91-1.36l3.47-8.51,4,.86-5.61,13.85-4-.86.8-2.02c-.66.62-1.4,1.07-2.22,1.35-.83.28-1.74.31-2.74.1-1.13-.24-1.96-.68-2.52-1.31-.55-.63-.85-1.39-.9-2.27-.05-.88.11-1.82.48-2.81l3.58-8.85,4.07.88-3.39,8.44c-.19.48-.3.95-.32,1.4Z"/>
        <path class="cls-1" d="M166.09,44.41l-9.49,23.49-3.94-.85,9.39-23.51,4.04.87Z"/>
        <path class="cls-1" d="M164.05,65.92c.59-.34,1.24-.44,1.98-.28.73.16,1.29.51,1.68,1.07.39.55.52,1.18.37,1.86-.15.69-.52,1.2-1.1,1.55-.59.34-1.25.44-1.97.28-.73-.16-1.29-.51-1.69-1.07-.39-.55-.52-1.18-.37-1.87.15-.69.52-1.2,1.1-1.54ZM175.74,49.11l-6.63,14.22-3.22-.7,4.91-14.59,4.94,1.07Z"/>
      </g>
      <path class="cls-1" d="M22.55.03C13.97,1.56,6.28,7.52,2.48,15.34c-3.92,8.08-2.99,17.09,1.38,24.78s11.52,13.98,18.1,20.07c6.91,6.4,14.87,13.97,15.91,23.9.5,4.85-1.16,9.39-4.69,12.77-3.15,3.01-7.81,4.81-11.96,2.77l.3,2.36c4.59-4.07,11.9-3.28,17.56-3.18,7.32.12,14.63.47,21.93.93,14.7.92,29.36,2.28,44.07,3.05,25.78,1.35,52.08.73,76.95-6.93,13.07-4.02,25.56-10,36.43-18.35.65-.5.97-1.28.54-2.05-.36-.64-1.41-1.03-2.05-.54-19.71,15.14-44.25,22.08-68.7,24.43-28.17,2.71-56.42-.58-84.53-2.44-8.2-.54-16.42-.97-24.64-1.11-6.64-.11-14.35-.66-19.69,4.06-.69.61-.54,1.94.3,2.36,8.11,3.98,16.89-2.16,20.02-9.73,3.87-9.35-1.62-19.45-7.66-26.45s-13.99-12.88-20.25-20.05C6.09,39.46,1.45,31.04,3.31,22.08,5.31,12.38,13.67,4.65,23.35,2.92c1.9-.34,1.09-3.23-.8-2.89h0Z"/>
    </g>
  </g>
</svg>