<?xml version="1.0" encoding="UTF-8"?>
<svg id="_レイヤー_2" data-name="レイヤー 2" xmlns="http://www.w3.org/2000/svg" viewBox="0 0 318.93 123.73">
  <defs>
    <style>
      .cls-1 {
        fill: #f58777;
      }

      .cls-2 {
        fill: none;
        stroke: #f58777;
        stroke-linecap: round;
        stroke-linejoin: round;
        stroke-width: 4px;
      }
    </style>
  </defs>
  <g id="_01" data-name="01">
    <g>
      <g>
        <path class="cls-1" d="M50.33,47.18c.49.59,1.04,1.04,1.67,1.35s1.35.44,2.16.39c.68-.04,1.28-.22,1.81-.53.52-.31.93-.7,1.21-1.17.28-.47.42-.97.43-1.5,0-.66-.18-1.19-.55-1.57-.37-.38-.86-.7-1.47-.96-.62-.26-1.32-.53-2.11-.83-.57-.2-1.16-.46-1.78-.8-.62-.33-1.2-.74-1.73-1.22-.53-.48-.97-1.06-1.31-1.74-.34-.68-.52-1.47-.54-2.37,0-1.26.34-2.4,1.02-3.4.67-1.01,1.58-1.82,2.71-2.44,1.14-.62,2.42-.96,3.85-1.03,1.3-.08,2.44.07,3.41.45.98.39,1.81.92,2.49,1.62s1.24,1.47,1.66,2.31l-3.55,2.15c-.27-.5-.59-.95-.97-1.36-.38-.41-.82-.73-1.33-.96-.51-.22-1.13-.31-1.88-.26-.57.04-1.07.17-1.5.39-.42.22-.75.51-.97.86-.22.36-.34.76-.35,1.21,0,.43.13.8.36,1.13.23.33.56.62.97.88.41.26.89.49,1.42.69.54.2,1.1.4,1.69.6.94.28,1.79.69,2.56,1.21.77.53,1.39,1.19,1.86,1.98.47.79.71,1.77.72,2.92-.01,1.46-.4,2.75-1.15,3.87-.75,1.13-1.74,2.04-2.97,2.72-1.23.69-2.57,1.08-4.01,1.17-1.32.06-2.54-.13-3.64-.57-1.11-.44-2.07-1.08-2.9-1.91-.82-.83-1.46-1.77-1.91-2.81l3.27-2.52c.41.76.86,1.44,1.35,2.03Z"/>
        <path class="cls-1" d="M65.08,58.7l2.37-21.96,4.02-.26-2.27,21.92-4.12.3ZM81.26,47.22c-.7,1.23-1.61,2.23-2.73,2.98-1.12.76-2.35,1.18-3.69,1.26-1,.06-1.86-.1-2.56-.49-.71-.39-1.27-.94-1.69-1.65-.42-.71-.71-1.53-.88-2.46-.17-.93-.22-1.89-.15-2.88.08-1.05.29-2.06.62-3.02.33-.96.78-1.82,1.34-2.59.56-.76,1.24-1.38,2.03-1.85.79-.47,1.69-.73,2.69-.8,1.34-.09,2.49.19,3.45.84.96.64,1.68,1.54,2.16,2.7.48,1.16.68,2.45.6,3.89-.1,1.48-.5,2.84-1.2,4.07ZM77.98,41.37c-.25-.59-.64-1.06-1.16-1.4-.52-.34-1.15-.5-1.87-.47-.51.03-1.01.17-1.48.4-.48.23-.91.56-1.3.97-.39.41-.71.88-.97,1.39-.25.52-.42,1.07-.49,1.65-.03.58.02,1.1.15,1.58.13.47.33.89.61,1.24.28.36.62.63,1.01.82.4.19.85.28,1.36.27.77-.03,1.46-.24,2.09-.65.63-.4,1.15-.93,1.58-1.59.43-.66.67-1.37.73-2.15.08-.77,0-1.46-.26-2.05Z"/>
        <path class="cls-1" d="M89.89,50.04l-4.02.26,1.58-14.85,4.02-.26-1.57,14.85ZM94.5,38.75c-.28-.13-.59-.19-.96-.16-.56.01-1.03.2-1.44.56-.4.36-.72.8-.96,1.33-.23.53-.37,1.09-.42,1.69l-.97-1.12c.13-1.01.43-2,.92-2.96s1.08-1.76,1.8-2.41c.72-.65,1.5-.99,2.35-1.05.53-.03,1.01.04,1.44.23.43.19.82.46,1.16.82l-2.11,3.57c-.27-.2-.54-.36-.82-.49Z"/>
        <path class="cls-1" d="M105.13,34.31l-1.57,14.85-3.96.26,1.51-14.85,4.02-.26ZM101.88,27.13c.46-.47,1.02-.72,1.68-.77.7-.05,1.31.13,1.81.54.51.41.78.95.83,1.63.04.66-.16,1.23-.61,1.71-.45.48-1.03.74-1.73.78-.66.04-1.25-.14-1.77-.56-.52-.42-.8-.95-.84-1.61-.04-.68.16-1.26.63-1.72Z"/>
        <path class="cls-1" d="M119.09,37.71c-.1-.44-.3-.8-.6-1.07-.3-.27-.74-.38-1.34-.35-.55.04-1.06.19-1.53.47-.46.28-.83.64-1.1,1.1-.27.46-.43.97-.48,1.55l-.98,9.14-4.09.26,1.58-14.85,4.09-.26-.18,2.13c.46-.8,1.05-1.44,1.77-1.91.72-.47,1.58-.74,2.58-.81,1.17-.1,2.1.09,2.79.56.69.47,1.19,1.12,1.49,1.94.3.83.41,1.77.33,2.85l-1.02,9.49-4.18.27.99-9.04c.03-.54,0-1.03-.11-1.47Z"/>
        <path class="cls-1" d="M130.7,48.44c.04.62.18,1.15.42,1.59.24.44.6.78,1.08,1,.47.23,1.05.32,1.73.27.79-.05,1.5-.28,2.14-.68.64-.4,1.16-.96,1.56-1.67s.64-1.49.71-2.35l1.56-14.53,3.96-.26-1.53,14.53c-.13,1.63-.56,3.06-1.29,4.28-.73,1.22-1.69,2.19-2.88,2.9-1.18.71-2.54,1.11-4.07,1.21-1.53.1-2.84-.08-3.92-.55-1.08-.46-1.9-1.17-2.48-2.12-.57-.95-.88-2.07-.92-3.37l3.93-.25ZM128.61,36.11c.7-1.19,1.61-2.14,2.72-2.87,1.11-.72,2.32-1.12,3.64-1.18.98-.06,1.83.09,2.55.44.72.36,1.3.88,1.75,1.55.45.68.77,1.46.97,2.34.2.89.26,1.84.2,2.87-.06,1.05-.27,2.04-.63,2.97-.36.93-.83,1.76-1.41,2.5-.58.73-1.28,1.32-2.08,1.75-.81.44-1.7.69-2.68.75-1.32.08-2.46-.18-3.43-.79s-1.7-1.47-2.2-2.58c-.5-1.11-.7-2.38-.6-3.79.1-1.46.5-2.78,1.2-3.97ZM131.9,41.88c.24.6.62,1.07,1.15,1.4.52.33,1.15.47,1.87.42.51-.01,1.01-.13,1.48-.37.48-.23.92-.55,1.32-.95.4-.4.72-.86.97-1.39.24-.53.4-1.08.47-1.67.05-.56,0-1.08-.13-1.56-.14-.48-.35-.9-.63-1.26-.28-.36-.62-.63-1.01-.82-.4-.19-.85-.28-1.36-.27-.77.05-1.47.27-2.11.67-.64.39-1.16.92-1.57,1.58s-.65,1.38-.73,2.18c-.06.75.03,1.43.28,2.03Z"/>
        <path class="cls-1" d="M164.08,30.51l-1.57,14.85-3.96.26,1.51-14.85,4.02-.26ZM160.83,23.33c.46-.47,1.02-.72,1.68-.77.7-.05,1.31.13,1.81.54.51.41.78.95.83,1.63.04.66-.16,1.23-.61,1.71-.45.48-1.03.74-1.73.78-.66.04-1.25-.14-1.77-.56-.52-.42-.8-.95-.84-1.61-.04-.68.16-1.26.63-1.72Z"/>
        <path class="cls-1" d="M170.91,41.03c.49.33.99.58,1.49.75.5.17,1.01.23,1.52.17.51-.03.93-.2,1.27-.51.33-.31.49-.68.46-1.1,0-.41-.14-.73-.42-.97s-.62-.45-1.05-.62c-.43-.18-.9-.34-1.43-.5-.63-.19-1.24-.45-1.83-.78-.59-.33-1.07-.77-1.45-1.32-.38-.55-.57-1.23-.58-2.05,0-.96.24-1.77.73-2.42.48-.65,1.12-1.16,1.91-1.52.79-.36,1.63-.57,2.52-.63,1.21-.08,2.31.08,3.29.48.98.4,1.84.91,2.59,1.55l-1.79,2.65c-.53-.52-1.12-.95-1.78-1.3-.66-.34-1.34-.49-2.02-.45-.51.03-.92.17-1.22.42-.3.24-.46.55-.45.91,0,.34.14.63.41.86.27.23.64.42,1.1.59.46.16.93.33,1.41.49.74.25,1.42.54,2.03.88.61.33,1.1.77,1.48,1.3.38.53.57,1.23.58,2.08,0,.96-.23,1.82-.67,2.56-.44.75-1.06,1.34-1.86,1.79-.79.45-1.72.71-2.79.77-1,.06-1.93-.02-2.79-.24-.86-.22-1.64-.55-2.36-.97-.71-.42-1.35-.89-1.92-1.38l2.1-2.67c.52.46,1.03.85,1.52,1.19Z"/>
        <path class="cls-1" d="M197.82,43.08l-4.09.26,2.67-25.18,4.09-.26-2.67,25.18ZM203.86,32.25c-.09-.43-.29-.78-.58-1.04-.29-.26-.72-.39-1.28-.4-.6.02-1.12.18-1.57.49-.45.31-.82.7-1.09,1.18-.28.48-.47.99-.56,1.53l-.86.06c.12-1.1.41-2.13.86-3.1.45-.97,1.08-1.77,1.88-2.41.8-.64,1.78-1,2.93-1.07s2.06.11,2.75.56c.68.45,1.16,1.09,1.42,1.93.27.84.36,1.79.28,2.87l-1.01,9.65-4.06.26.99-9.04c.03-.54,0-1.02-.09-1.45Z"/>
        <path class="cls-1" d="M215.83,41.44c-1.08-.46-1.94-1.18-2.59-2.14-.65-.96-1.02-2.15-1.11-3.55-.08-1.19.07-2.32.44-3.4.37-1.07.93-2.03,1.68-2.87.75-.84,1.65-1.52,2.71-2.03s2.23-.82,3.53-.9c1.43-.09,2.64.09,3.64.53,1,.45,1.79,1.14,2.36,2.06.57.93.9,2.08.99,3.46.02.34.01.71-.02,1.11-.04.4-.1.74-.19,1.02l-12.97.84-.16-2.55,9.8-.63-.99,1.54c.09-.22.17-.46.24-.72.07-.26.1-.51.08-.74-.04-.66-.18-1.22-.41-1.67-.23-.46-.55-.8-.96-1.03-.41-.23-.93-.32-1.57-.28-.64.04-1.21.21-1.72.5-.51.29-.93.67-1.29,1.16-.35.48-.62,1.05-.8,1.7-.18.65-.28,1.36-.3,2.14-.03.82.08,1.52.33,2.13.25.6.63,1.05,1.15,1.35.51.3,1.15.42,1.92.37.85-.06,1.6-.3,2.25-.72.65-.43,1.17-.97,1.58-1.64l3.58.89c-.7,1.35-1.68,2.43-2.93,3.25-1.25.82-2.76,1.28-4.53,1.4-1.41.09-2.65-.1-3.72-.56Z"/>
        <path class="cls-1" d="M234.7,40.7l-4.02.26,1.57-14.85,4.02-.26-1.58,14.85ZM239.31,29.41c-.28-.13-.59-.19-.96-.16-.56.02-1.03.2-1.44.56-.4.36-.72.8-.96,1.33-.23.53-.37,1.09-.42,1.69l-.97-1.12c.13-1.01.43-2,.92-2.96.48-.96,1.08-1.76,1.8-2.41.72-.64,1.5-.99,2.35-1.05.53-.03,1.01.04,1.44.23.43.19.82.46,1.16.82l-2.11,3.57c-.27-.2-.54-.36-.82-.49Z"/>
        <path class="cls-1" d="M247.29,39.41c-1.08-.46-1.94-1.18-2.59-2.14-.65-.96-1.02-2.15-1.11-3.55-.08-1.19.07-2.32.44-3.4.37-1.07.93-2.03,1.68-2.87.75-.84,1.65-1.52,2.71-2.03,1.06-.52,2.23-.82,3.53-.9,1.43-.09,2.64.09,3.64.53,1,.45,1.79,1.14,2.36,2.06.57.92.9,2.08.99,3.46.02.34.01.71-.02,1.11-.04.4-.1.74-.19,1.02l-12.96.84-.17-2.55,9.8-.63-.99,1.54c.09-.22.17-.46.24-.72.07-.26.1-.51.08-.74-.04-.66-.18-1.22-.41-1.67-.23-.46-.55-.8-.96-1.03-.41-.23-.93-.32-1.57-.28s-1.21.21-1.72.5c-.51.29-.93.68-1.29,1.16-.35.48-.62,1.05-.8,1.7-.18.65-.28,1.36-.3,2.14-.03.82.08,1.52.33,2.13.25.6.63,1.06,1.15,1.35.51.3,1.15.42,1.92.37.85-.06,1.6-.3,2.25-.72.65-.43,1.17-.97,1.58-1.64l3.58.89c-.7,1.35-1.68,2.43-2.93,3.25-1.25.82-2.76,1.28-4.53,1.4-1.41.09-2.65-.1-3.72-.56Z"/>
        <path class="cls-1" d="M263.55,35.33c.47-.49,1.08-.76,1.82-.81.74-.05,1.38.14,1.91.57.53.43.82.99.86,1.69.05.7-.17,1.3-.64,1.79-.47.49-1.08.76-1.82.81-.75.05-1.38-.14-1.91-.57-.53-.43-.82-.99-.86-1.69-.05-.7.17-1.3.64-1.79ZM270.21,15.97l-2.5,15.49-3.29.21.74-15.38,5.05-.33Z"/>
      </g>
      <path class="cls-2" d="M303.04,2c7.72.44,13.88,8.07,13.88,15.8,0,7.73-5.27,14.86-12.15,18.39,4.92,2.89,5.04,10.23,2.47,15.32-3.73,7.39-11.9,12.3-20.18,12.11"/>
      <path class="cls-2" d="M7.15,30.64c-5.43,5.76-6.73,15.02-3.09,22.05,2.19,4.23,6.07,7.46,10.52,9.13,3.01,1.13,4.52,4.53,3.22,7.48-.56,1.28-.92,2.64-1.03,4.03-.35,4.38,1.75,8.88,5.34,11.42,3.17,2.25,7.17,2.93,11.03,3.44,49.18,6.46,98.76-5.4,148.34-7.19,12.18-.44,24.54-.24,36.29,2.97s22.97,9.73,29.81,19.82"/>
      <path class="cls-2" d="M278.81,64.97c-7.55-1.65-15.57,2.78-19.64,9.36-4.07,6.58-4.68,14.82-3.38,22.44,1.66,9.75,6.55,19.23,14.61,24.97"/>
    </g>
  </g>
</svg>