<?xml version="1.0" encoding="UTF-8"?>
<svg id="_レイヤー_2" data-name="レイヤー 2" xmlns="http://www.w3.org/2000/svg" viewBox="0 0 420.25 83.76">
  <defs>
    <style>
      .cls-1 {
        fill: #f58777;
      }
    </style>
  </defs>
  <g id="_01" data-name="01">
    <g>
      <g>
        <path class="cls-1" d="M151.77.33v21.38h9.54v1.72h-11.35V.33h1.81Z"/>
        <path class="cls-1" d="M163.08,7.18c.57-1.44,1.37-2.69,2.41-3.76,1.03-1.07,2.25-1.9,3.65-2.49,1.4-.59,2.92-.89,4.57-.89s3.17.3,4.57.89c1.4.59,2.61,1.42,3.65,2.49,1.03,1.07,1.84,2.32,2.41,3.76.57,1.44.86,3.01.86,4.7s-.29,3.26-.86,4.7c-.57,1.44-1.38,2.7-2.41,3.76-1.03,1.07-2.25,1.9-3.65,2.49-1.4.59-2.92.89-4.57.89s-3.17-.3-4.57-.89c-1.4-.59-2.61-1.42-3.65-2.49-1.03-1.07-1.84-2.32-2.41-3.76-.57-1.44-.86-3.01-.86-4.7s.29-3.26.86-4.7ZM165.38,17.03c.82,1.52,1.96,2.71,3.4,3.58,1.44.87,3.09,1.3,4.93,1.3s3.49-.43,4.93-1.3c1.44-.87,2.57-2.06,3.38-3.58.81-1.52,1.22-3.23,1.22-5.15s-.41-3.66-1.22-5.16c-.81-1.51-1.94-2.69-3.38-3.56-1.44-.87-3.09-1.3-4.93-1.3s-3.49.43-4.93,1.3c-1.44.87-2.57,2.06-3.4,3.56-.82,1.51-1.24,3.23-1.24,5.16s.41,3.63,1.24,5.15Z"/>
        <path class="cls-1" d="M188.96,7.18c.57-1.44,1.37-2.69,2.41-3.76,1.03-1.07,2.25-1.9,3.65-2.49,1.4-.59,2.92-.89,4.57-.89s3.17.3,4.57.89c1.4.59,2.61,1.42,3.65,2.49,1.03,1.07,1.84,2.32,2.41,3.76.57,1.44.86,3.01.86,4.7s-.29,3.26-.86,4.7c-.57,1.44-1.38,2.7-2.41,3.76-1.03,1.07-2.25,1.9-3.65,2.49-1.4.59-2.92.89-4.57.89s-3.17-.3-4.57-.89c-1.4-.59-2.61-1.42-3.65-2.49-1.03-1.07-1.84-2.32-2.41-3.76-.57-1.44-.86-3.01-.86-4.7s.29-3.26.86-4.7ZM191.25,17.03c.82,1.52,1.96,2.71,3.4,3.58,1.44.87,3.09,1.3,4.93,1.3s3.49-.43,4.93-1.3c1.44-.87,2.57-2.06,3.38-3.58.81-1.52,1.22-3.23,1.22-5.15s-.41-3.66-1.22-5.16c-.81-1.51-1.94-2.69-3.38-3.56-1.44-.87-3.09-1.3-4.93-1.3s-3.49.43-4.93,1.3c-1.44.87-2.57,2.06-3.4,3.56-.82,1.51-1.24,3.23-1.24,5.16s.41,3.63,1.24,5.15Z"/>
        <path class="cls-1" d="M217.04.33v23.1h-1.81V.33h1.81ZM228.92.33l-10.16,10.82,10.66,12.28h-2.31l-10.59-12.24L226.61.33h2.31Z"/>
        <path class="cls-1" d="M242.12,5.81c.66-1.78,1.59-3.2,2.8-4.24,1.21-1.04,2.63-1.57,4.26-1.57s3.05.52,4.26,1.57c1.21,1.05,2.15,2.46,2.81,4.24.66,1.78.99,3.81.99,6.07s-.33,4.29-.99,6.07c-.66,1.78-1.6,3.2-2.81,4.24-1.21,1.05-2.63,1.57-4.26,1.57s-3.05-.52-4.26-1.57c-1.21-1.04-2.15-2.46-2.8-4.24-.66-1.78-.99-3.81-.99-6.07s.33-4.29.99-6.07ZM243.37,15.87c.29,1.23.7,2.31,1.24,3.23.54.92,1.19,1.64,1.96,2.16.77.52,1.64.78,2.61.78s1.86-.26,2.62-.78c.76-.52,1.41-1.24,1.95-2.16.54-.92.95-2,1.24-3.23.29-1.23.43-2.56.43-3.99s-.14-2.76-.43-3.99c-.29-1.23-.7-2.31-1.24-3.23-.54-.92-1.19-1.64-1.95-2.16-.76-.52-1.63-.78-2.62-.78s-1.84.26-2.61.78c-.77.52-1.42,1.24-1.96,2.16-.54.92-.95,2-1.24,3.23-.29,1.23-.43,2.56-.43,3.99s.14,2.76.43,3.99Z"/>
        <path class="cls-1" d="M261.59,1.78l7.13-1.72v23.36h-1.82V2.28l-5.31,1.39v-1.88Z"/>
      </g>
      <g>
        <path class="cls-1" d="M47.41,43.11h9.24l-16.22,40.65-12.1-25.3-12.16,25.3L0,43.11h9.24l8.36,23.93,10.72-25.85,10.83,25.85,8.25-23.93Z"/>
        <path class="cls-1" d="M71.28,43.11v38.5h-7.98v-38.5h7.98Z"/>
        <path class="cls-1" d="M116.76,43.11v40.43l-27.39-25.8v23.87h-7.59v-40.43l27.39,25.8v-23.87h7.59Z"/>
        <path class="cls-1" d="M135.35,43.11v38.5h-8.03v-38.5h8.03ZM132.38,81.61v-7.15h7.76c1.69,0,3.28-.23,4.78-.69,1.5-.46,2.82-1.18,3.96-2.17,1.14-.99,2.03-2.25,2.67-3.77.64-1.52.96-3.35.96-5.47s-.32-3.95-.96-5.47c-.64-1.52-1.53-2.78-2.67-3.77-1.14-.99-2.46-1.71-3.96-2.17-1.5-.46-3.1-.69-4.78-.69h-7.76v-7.15h8.03c4.03,0,7.56.79,10.59,2.36,3.03,1.58,5.38,3.8,7.07,6.68,1.69,2.88,2.53,6.28,2.53,10.2s-.84,7.32-2.53,10.2c-1.69,2.88-4.04,5.11-7.07,6.68-3.02,1.58-6.55,2.36-10.59,2.36h-8.03Z"/>
        <path class="cls-1" d="M174.79,58.51h6.22c1.14,0,2.13-.18,2.97-.55.84-.37,1.49-.9,1.95-1.6.46-.7.69-1.52.69-2.47,0-1.47-.5-2.58-1.51-3.35-1.01-.77-2.37-1.16-4.1-1.16h-4.24v25.96h5.06c1.32,0,2.51-.19,3.57-.58,1.06-.39,1.9-1,2.5-1.84.6-.84.91-1.93.91-3.25,0-.95-.17-1.77-.52-2.45-.35-.68-.84-1.25-1.48-1.7-.64-.46-1.38-.79-2.23-.99-.84-.2-1.76-.3-2.75-.3h-7.04v-4.29h7.76c1.87,0,3.66.2,5.36.6,1.7.4,3.24,1.04,4.59,1.9,1.36.86,2.43,1.97,3.22,3.33.79,1.36,1.18,2.99,1.18,4.9,0,2.53-.6,4.6-1.79,6.22-1.19,1.61-2.87,2.8-5.03,3.57-2.16.77-4.68,1.16-7.53,1.16h-13.64v-38.5h12.82c2.57,0,4.82.36,6.76,1.07,1.94.72,3.47,1.79,4.56,3.22,1.1,1.43,1.65,3.24,1.65,5.45,0,1.94-.55,3.61-1.65,5-1.1,1.39-2.62,2.45-4.56,3.16-1.94.71-4.2,1.07-6.76,1.07h-6.93v-3.58Z"/>
        <path class="cls-1" d="M213.67,43.11v38.5h-7.86v-38.5h7.86ZM210.59,43.11h8.14c3.04,0,5.63.51,7.76,1.54,2.13,1.03,3.76,2.46,4.89,4.29,1.14,1.83,1.71,3.98,1.71,6.43s-.57,4.56-1.71,6.41c-1.14,1.85-2.77,3.29-4.89,4.32-2.13,1.03-4.71,1.54-7.76,1.54h-8.14v-6.27h7.65c1.39,0,2.59-.23,3.6-.69,1.01-.46,1.79-1.12,2.34-1.98.55-.86.82-1.9.82-3.11s-.27-2.25-.82-3.11c-.55-.86-1.33-1.52-2.34-1.98-1.01-.46-2.21-.69-3.6-.69h-7.65v-6.71ZM222.86,63.68l12.54,17.93h-9.29l-11.55-17.93h8.3Z"/>
        <path class="cls-1" d="M249.7,43.11v38.5h-7.59v-38.5h7.59ZM247.17,43.11h19.42v6.66h-19.42v-6.66ZM247.17,57.91h18.31v6.55h-18.31v-6.55ZM247.17,74.96h19.42v6.66h-19.42v-6.66Z"/>
        <path class="cls-1" d="M286.16,68.85l.17,1.76-5.06,11h-8.85l19.53-40.75,19.52,40.75h-8.91l-4.95-10.67.11-1.98-5.77-13.36-5.78,13.25ZM282.81,66.65h18.48l.94,6.21h-20.35l.94-6.21Z"/>
        <path class="cls-1" d="M325.93,43.11v38.5h-8.08v-38.5h8.08ZM348.97,43.11l-15.95,18.04,16.77,20.46h-9.57l-16.61-20.24,16-18.26h9.35Z"/>
        <path class="cls-1" d="M363.82,43.11v38.5h-7.59v-38.5h7.59ZM361.29,43.11h19.42v6.66h-19.42v-6.66ZM361.29,57.91h18.31v6.55h-18.31v-6.55ZM361.29,74.96h19.42v6.66h-19.42v-6.66Z"/>
        <path class="cls-1" d="M398.53,43.11v38.5h-7.86v-38.5h7.86ZM395.45,43.11h8.14c3.04,0,5.63.51,7.76,1.54,2.13,1.03,3.76,2.46,4.89,4.29,1.14,1.83,1.71,3.98,1.71,6.43s-.57,4.56-1.71,6.41c-1.14,1.85-2.77,3.29-4.89,4.32-2.13,1.03-4.71,1.54-7.76,1.54h-8.14v-6.27h7.65c1.39,0,2.59-.23,3.6-.69,1.01-.46,1.79-1.12,2.34-1.98.55-.86.82-1.9.82-3.11s-.27-2.25-.82-3.11c-.55-.86-1.33-1.52-2.34-1.98-1.01-.46-2.21-.69-3.6-.69h-7.65v-6.71ZM407.71,63.68l12.54,17.93h-9.29l-11.55-17.93h8.3Z"/>
      </g>
    </g>
  </g>
</svg>