<?xml version="1.0" encoding="UTF-8"?>
<svg id="_レイヤー_2" data-name="レイヤー 2" xmlns="http://www.w3.org/2000/svg" viewBox="0 0 154.46 36.96">
  <defs>
    <style>
      .cls-1 {
        fill: #f58777;
      }
    </style>
  </defs>
  <g id="intro">
    <g>
      <path class="cls-1" d="M8.26,1.68v33.6H0V1.68h8.26Z"/>
      <path class="cls-1" d="M48.29,1.68v35.28l-23.23-20.59v18.91h-7.78V0l23.18,20.59V1.68h7.82Z"/>
      <path class="cls-1" d="M65.66,1.68v33.6h-8.35V1.68h8.35ZM62.69,35.28v-7.2h6.34c1.28,0,2.52-.16,3.72-.48,1.2-.32,2.26-.85,3.17-1.58.91-.74,1.64-1.72,2.18-2.95.54-1.23.82-2.76.82-4.58s-.27-3.35-.82-4.58c-.54-1.23-1.27-2.22-2.18-2.95-.91-.74-1.97-1.26-3.17-1.58-1.2-.32-2.44-.48-3.72-.48h-6.34V1.68h6.62c3.68,0,6.86.69,9.55,2.06,2.69,1.38,4.77,3.31,6.24,5.81,1.47,2.5,2.21,5.47,2.21,8.93s-.74,6.39-2.21,8.9c-1.47,2.51-3.55,4.46-6.24,5.83-2.69,1.38-5.87,2.06-9.55,2.06h-6.62Z"/>
      <path class="cls-1" d="M102.19,1.68v33.6h-7.78V1.68h7.78ZM99.79,1.68h16.94v6.67h-16.94V1.68ZM99.79,14.35h15.98v6.53h-15.98v-6.53ZM99.79,28.61h16.94v6.67h-16.94v-6.67Z"/>
      <path class="cls-1" d="M153.74,1.68l-10.56,16.37,11.28,17.23h-10.03l-6.14-11.18-6.34,11.18h-10.03l11.52-17.23L123.12,1.68h10.03l5.18,9.74,5.38-9.74h10.03Z"/>
    </g>
  </g>
</svg>