<?xml version="1.0" encoding="UTF-8"?>
<svg id="_レイヤー_2" data-name="レイヤー 2" xmlns="http://www.w3.org/2000/svg" viewBox="0 0 313.02 131.15">
  <defs>
    <style>
      .cls-1 {
        fill: #f58777;
      }
    </style>
  </defs>
  <g id="_04" data-name="04">
    <g>
      <g>
        <path class="cls-1" d="M44.82,39.44l-3.84,22.4h-4.54l3.81-22.4h4.58Z"/>
        <path class="cls-1" d="M62.13,56.59c.23.64.62,1.15,1.17,1.54s1.21.59,2,.61c.96.02,1.87-.2,2.74-.66s1.57-1.01,2.13-1.65l-.58,4.22c-.62.45-1.34.8-2.16,1.07-.82.27-1.72.4-2.7.4-1.49,0-2.8-.34-3.92-1.01-1.12-.67-1.95-1.59-2.5-2.75s-.72-2.46-.53-3.89c.19-1.49.71-2.82,1.57-3.97.85-1.15,1.93-2.06,3.23-2.72,1.3-.66,2.73-.99,4.29-.99.94,0,1.79.13,2.56.38.77.26,1.44.62,2.02,1.09l-.58,4.26c-.38-.73-.93-1.3-1.65-1.71-.71-.42-1.51-.62-2.38-.62s-1.6.2-2.29.59c-.69.39-1.27.91-1.73,1.55-.46.64-.75,1.35-.88,2.14-.11.77-.04,1.47.19,2.11Z"/>
        <path class="cls-1" d="M75.56,50.55c.78-1.15,1.75-2.07,2.91-2.75,1.16-.68,2.41-1.01,3.73-.99,1,0,1.84.21,2.53.64.68.43,1.23,1,1.63,1.71.41.72.67,1.53.8,2.45.13.92.13,1.88,0,2.88-.13,1.05-.4,2.03-.82,2.96-.42.93-.94,1.74-1.57,2.45-.63.7-1.36,1.25-2.19,1.65s-1.74.59-2.72.59c-1.34,0-2.48-.35-3.39-1.04-.92-.69-1.59-1.62-2.02-2.78-.43-1.16-.54-2.44-.35-3.82.19-1.47.68-2.78,1.46-3.94ZM78.47,56.55c.2.65.55,1.17,1.04,1.55.49.38,1.11.59,1.86.61.51,0,1.01-.11,1.5-.32.49-.21.94-.52,1.36-.91.42-.39.77-.85,1.06-1.36.29-.51.48-1.06.59-1.63.08-.58.08-1.11-.02-1.6-.1-.49-.27-.93-.53-1.33-.26-.39-.58-.71-.96-.94-.38-.23-.83-.36-1.34-.38-.75-.02-1.46.16-2.13.54-.67.38-1.24.9-1.7,1.55-.46.65-.75,1.37-.88,2.16-.11.73-.06,1.41.14,2.06ZM91.22,47.12l-2.53,14.72h-4l2.5-14.72h4.03Z"/>
        <path class="cls-1" d="M104.58,51.41c-.07-.45-.25-.82-.53-1.1-.28-.29-.72-.43-1.31-.43-.56,0-1.07.12-1.55.37s-.87.59-1.17,1.02c-.3.44-.49.94-.58,1.52l-1.57,9.06h-4.1l2.53-14.72h4.1l-.32,2.11c.51-.77,1.14-1.36,1.89-1.79.75-.43,1.62-.64,2.62-.64,1.17-.02,2.09.22,2.75.74.66.51,1.11,1.19,1.36,2.03.24.84.29,1.8.14,2.86l-1.63,9.41h-4.19l1.57-8.96c.06-.53.06-1.02-.02-1.47Z"/>
        <path class="cls-1" d="M121.21,39.44l-4.7,9.98h-2.72l2.94-9.98h4.48Z"/>
        <path class="cls-1" d="M131.67,47.12l-.61,3.49h-8.9l.64-3.49h8.86ZM130.07,42l-3.46,19.84h-3.9l3.36-19.84h4Z"/>
        <path class="cls-1" d="M148.08,47.12l1.73,8.06,5.63-9.25,2.56,9.31,4.58-8.13h4.42l-9.76,15.78-2.94-9.34-6.11,9.34-4.32-15.78h4.22Z"/>
        <path class="cls-1" d="M169.25,50.55c.78-1.15,1.75-2.07,2.91-2.75,1.16-.68,2.41-1.01,3.73-.99,1,0,1.84.21,2.53.64.68.43,1.23,1,1.63,1.71.41.72.67,1.53.8,2.45.13.92.13,1.88,0,2.88-.13,1.05-.4,2.03-.82,2.96-.42.93-.94,1.74-1.57,2.45-.63.7-1.36,1.25-2.19,1.65s-1.74.59-2.72.59c-1.34,0-2.48-.35-3.39-1.04-.92-.69-1.59-1.62-2.02-2.78-.43-1.16-.54-2.44-.35-3.82.19-1.47.68-2.78,1.46-3.94ZM172.16,56.55c.2.65.55,1.17,1.04,1.55.49.38,1.11.59,1.86.61.51,0,1.01-.11,1.5-.32.49-.21.94-.52,1.36-.91.42-.39.77-.85,1.06-1.36.29-.51.48-1.06.59-1.63.08-.58.08-1.11-.02-1.6-.1-.49-.27-.93-.53-1.33-.26-.39-.58-.71-.96-.94-.38-.23-.83-.36-1.34-.38-.75-.02-1.46.16-2.13.54-.67.38-1.24.9-1.7,1.55-.46.65-.75,1.37-.88,2.16-.11.73-.06,1.41.14,2.06ZM184.92,47.12l-2.53,14.72h-4l2.5-14.72h4.03Z"/>
        <path class="cls-1" d="M194.26,47.12l-2.53,14.72h-3.97l2.46-14.72h4.03ZM191.48,39.75c.49-.44,1.07-.66,1.73-.66.7,0,1.3.22,1.78.66s.72,1,.72,1.68-.24,1.22-.72,1.66-1.07.67-1.78.67c-.66,0-1.24-.22-1.73-.67-.49-.45-.74-1-.74-1.66s.24-1.24.74-1.68Z"/>
        <path class="cls-1" d="M206.77,47.12l-.61,3.49h-8.9l.64-3.49h8.86ZM205.17,42l-3.46,19.84h-3.9l3.36-19.84h4Z"/>
        <path class="cls-1" d="M100.55,78.85l-.61,3.49h-8.9l.64-3.49h8.86ZM98.95,73.73l-3.46,19.84h-3.9l3.36-19.84h4Z"/>
        <path class="cls-1" d="M103.43,82.24c.85-1.15,1.93-2.06,3.22-2.72,1.29-.66,2.69-.99,4.21-.99s2.82.34,3.92,1.02c1.1.68,1.92,1.61,2.46,2.77.54,1.16.72,2.46.53,3.89-.19,1.47-.71,2.78-1.57,3.94-.85,1.15-1.93,2.06-3.22,2.72-1.29.66-2.7.99-4.24.99s-2.79-.34-3.89-1.01c-1.1-.67-1.92-1.59-2.46-2.75-.54-1.16-.73-2.46-.56-3.89.21-1.49.75-2.82,1.6-3.97ZM106.15,88.23c.21.64.56,1.15,1.06,1.54.49.38,1.1.59,1.82.61.77,0,1.48-.19,2.13-.56.65-.37,1.19-.88,1.63-1.52.44-.64.71-1.33.82-2.08.11-.75.05-1.43-.16-2.05-.21-.62-.57-1.13-1.06-1.54-.49-.4-1.11-.61-1.86-.61-.73-.02-1.42.16-2.08.54-.66.38-1.21.9-1.63,1.54-.43.64-.7,1.34-.83,2.11-.11.7-.05,1.38.16,2.02Z"/>
        <path class="cls-1" d="M134.5,94.6c0,.62.11,1.16.32,1.62.21.46.55.82,1.01,1.07.46.26,1.03.38,1.71.38.79,0,1.51-.18,2.18-.54.66-.36,1.22-.89,1.66-1.57.45-.68.74-1.45.86-2.3l2.5-14.4h3.97l-2.46,14.4c-.24,1.62-.76,3.02-1.57,4.19-.81,1.17-1.83,2.07-3.06,2.7-1.23.63-2.61.94-4.14.94s-2.83-.27-3.87-.8c-1.05-.53-1.82-1.29-2.34-2.27-.51-.98-.75-2.12-.7-3.42h3.94ZM133.21,82.16c.78-1.14,1.74-2.04,2.9-2.69s2.39-.96,3.71-.94c.98,0,1.82.2,2.51.61.69.41,1.24.96,1.65,1.66.41.7.68,1.5.82,2.4.14.9.14,1.86.02,2.88-.13,1.05-.4,2.02-.82,2.93-.42.91-.94,1.71-1.57,2.4-.63.69-1.36,1.23-2.19,1.62s-1.74.58-2.72.58c-1.32,0-2.45-.34-3.38-1.01-.93-.67-1.61-1.58-2.03-2.72-.43-1.14-.54-2.42-.35-3.82.19-1.45.68-2.75,1.46-3.89ZM136.12,88.13c.2.62.55,1.11,1.06,1.47.5.36,1.11.54,1.84.54.51.02,1.01-.07,1.5-.27.49-.2.95-.49,1.38-.86.43-.37.78-.82,1.06-1.33.28-.51.47-1.06.58-1.63.08-.55.07-1.08-.03-1.57-.11-.49-.29-.92-.54-1.3-.26-.37-.58-.67-.96-.88s-.83-.33-1.34-.35c-.77,0-1.48.18-2.14.53-.66.35-1.22.84-1.66,1.47-.45.63-.74,1.34-.86,2.13-.11.75-.06,1.43.14,2.05Z"/>
        <path class="cls-1" d="M153.35,82.24c.85-1.15,1.93-2.06,3.22-2.72,1.29-.66,2.69-.99,4.21-.99s2.82.34,3.92,1.02c1.1.68,1.92,1.61,2.46,2.77.54,1.16.72,2.46.53,3.89-.19,1.47-.71,2.78-1.57,3.94-.85,1.15-1.93,2.06-3.22,2.72-1.29.66-2.7.99-4.24.99s-2.79-.34-3.89-1.01c-1.1-.67-1.92-1.59-2.46-2.75-.54-1.16-.73-2.46-.56-3.89.21-1.49.75-2.82,1.6-3.97ZM156.07,88.23c.21.64.56,1.15,1.06,1.54.49.38,1.1.59,1.82.61.77,0,1.48-.19,2.13-.56.65-.37,1.19-.88,1.63-1.52.44-.64.71-1.33.82-2.08.11-.75.05-1.43-.16-2.05-.21-.62-.57-1.13-1.06-1.54-.49-.4-1.11-.61-1.86-.61-.73-.02-1.42.16-2.08.54-.66.38-1.21.9-1.63,1.54-.43.64-.7,1.34-.83,2.11-.11.7-.05,1.38.16,2.02Z"/>
        <path class="cls-1" d="M183.43,82.24c.85-1.15,1.93-2.06,3.22-2.72,1.29-.66,2.69-.99,4.21-.99s2.82.34,3.92,1.02c1.1.68,1.92,1.61,2.46,2.77.54,1.16.72,2.46.53,3.89-.19,1.47-.71,2.78-1.57,3.94-.85,1.15-1.93,2.06-3.22,2.72-1.29.66-2.7.99-4.24.99s-2.79-.34-3.89-1.01c-1.1-.67-1.92-1.59-2.46-2.75-.54-1.16-.73-2.46-.56-3.89.21-1.49.75-2.82,1.6-3.97ZM186.15,88.23c.21.64.56,1.15,1.06,1.54.49.38,1.1.59,1.82.61.77,0,1.48-.19,2.13-.56.65-.37,1.19-.88,1.63-1.52.44-.64.71-1.33.82-2.08.11-.75.05-1.43-.16-2.05-.21-.62-.57-1.13-1.06-1.54-.49-.4-1.11-.61-1.86-.61-.73-.02-1.42.16-2.08.54-.66.38-1.21.9-1.63,1.54-.43.64-.7,1.34-.83,2.11-.11.7-.05,1.38.16,2.02Z"/>
        <path class="cls-1" d="M205.68,89.25c.07.45.24.82.51,1.1.27.29.69.43,1.26.43s1.1-.12,1.57-.35c.47-.23.86-.57,1.18-1.01.32-.44.52-.94.61-1.52l1.6-9.06h4.1l-2.56,14.72h-4.1l.35-2.14c-.51.75-1.14,1.34-1.89,1.79-.75.45-1.63.67-2.66.67-1.15,0-2.06-.25-2.74-.75-.67-.5-1.13-1.18-1.36-2.03-.24-.85-.28-1.8-.13-2.85l1.63-9.41h4.16l-1.54,8.96c-.09.51-.09.99-.02,1.44Z"/>
        <path class="cls-1" d="M228.74,78.85l-.61,3.49h-8.9l.64-3.49h8.86ZM227.14,73.73l-3.46,19.84h-3.9l3.36-19.84h4Z"/>
        <path class="cls-1" d="M231.19,90.07c.5-.46,1.12-.69,1.87-.69s1.37.23,1.87.69c.5.46.75,1.04.75,1.74s-.25,1.29-.75,1.74c-.5.46-1.13.69-1.87.69s-1.37-.23-1.87-.69c-.5-.46-.75-1.04-.75-1.74s.25-1.29.75-1.74ZM239.08,71.17l-3.49,15.3h-3.3l1.73-15.3h5.06Z"/>
      </g>
      <path class="cls-1" d="M1.88,17.38c19.93-3.93,39.88-7.86,60.02-10.62,20.37-2.79,40.83-4.08,61.39-3.72,20.74.36,41.44,2.05,62.11,3.72,10.03.81,20.08,1.69,29.94,3.77,9.5,2,18.57,5.45,27.87,8.15,17.91,5.2,37.04,5.65,54.96.2,2.11-.64,4.18-1.37,6.23-2.18,1.77-.7,1.13-3.32-.8-2.89-4.86,1.09-8.96,4.24-10.89,8.88s-1.11,9.52,1.12,13.94c2.79,5.54,7.19,10.05,10.4,15.33,2.49,4.11,4.24,8.62,5.13,13.34,1.8,9.52-.19,19.45-4.84,27.88-5.32,9.64-13.74,16.98-23.36,22.16-13.01,6.99-27.67,10.44-42.13,12.9-1.9.32-1.09,3.21.8,2.89,23.48-4,49.65-11.1,64.2-31.54,5.73-8.04,9.13-17.81,8.99-27.72-.07-4.83-.97-9.67-2.68-14.19-1.94-5.12-4.91-9.52-8.16-13.88-3.5-4.7-8.09-10.25-7.55-16.5.47-5.45,4.6-9.43,9.79-10.59l-.8-2.89c-17.17,6.76-36.56,7.78-54.43,3.37-9.38-2.32-18.39-5.87-27.74-8.3-9.65-2.5-19.6-3.68-29.51-4.57-20.59-1.84-41.26-3.47-61.93-4.11-20.56-.63-41.05.2-61.48,2.7-20.16,2.47-40.14,6.22-60.06,10.13-2.46.48-4.91.97-7.36,1.45-1.89.37-1.09,3.27.8,2.89h0Z"/>
    </g>
  </g>
</svg>