<?xml version="1.0" encoding="UTF-8"?>
<svg id="_レイヤー_2" data-name="レイヤー 2" xmlns="http://www.w3.org/2000/svg" viewBox="0 0 110.03 135.66">
  <defs>
    <style>
      .cls-1 {
        fill: #f58777;
      }
    </style>
  </defs>
  <g id="_06" data-name="06">
    <g>
      <path class="cls-1" d="M3.01,132.35c2.36-5.87,6.91-10.54,11.85-14.34,5.41-4.15,11.42-7.6,17.45-10.76,12.6-6.61,25.96-11.64,39.47-16.06,7.7-2.52,15.45-4.85,23.21-7.17,1.84-.55,1.06-3.45-.8-2.89-14.21,4.26-28.44,8.54-42.26,13.97s-26.53,11.33-37.95,19.85c-5.9,4.4-11.08,9.7-13.86,16.61-.72,1.79,2.18,2.57,2.89.8h0Z"/>
      <path class="cls-1" d="M42.72,135.23c13.15-13.04,31.47-20.43,49.95-20.6,5.21-.05,10.4.48,15.49,1.61,1.88.42,2.68-2.48.8-2.89-18.91-4.18-39.26-.5-55.68,9.73-4.58,2.86-8.85,6.23-12.68,10.03-1.37,1.36.75,3.48,2.12,2.12h0Z"/>
      <path class="cls-1" d="M11.38,84.03c8.67-13.26,18.65-25.64,29.76-36.94s23.42-21.59,36.58-30.53c7.4-5.02,15.07-9.62,22.98-13.79,1.71-.9.19-3.49-1.51-2.59-14.25,7.51-27.71,16.44-40.2,26.6s-23.88,21.47-34.09,33.83c-5.77,6.99-11.16,14.3-16.12,21.89-1.06,1.62,1.54,3.13,2.59,1.51h0Z"/>
    </g>
  </g>
</svg>