<?xml version="1.0" encoding="UTF-8"?>
<svg id="_レイヤー_2" data-name="レイヤー 2" xmlns="http://www.w3.org/2000/svg" viewBox="0 0 182.21 81.61">
  <defs>
    <style>
      .cls-1 {
        fill: #f58777;
      }
    </style>
  </defs>
  <g id="_05" data-name="05">
    <g>
      <g>
        <path class="cls-1" d="M28.56.33v21.38h9.54v1.72h-11.35V.33h1.81Z"/>
        <path class="cls-1" d="M39.88,7.18c.57-1.44,1.37-2.69,2.41-3.76,1.03-1.07,2.25-1.9,3.65-2.49,1.4-.59,2.92-.89,4.57-.89s3.17.3,4.57.89c1.4.59,2.61,1.42,3.65,2.49,1.03,1.07,1.84,2.32,2.41,3.76.57,1.44.86,3.01.86,4.7s-.29,3.26-.86,4.7c-.57,1.44-1.38,2.7-2.41,3.76-1.03,1.07-2.25,1.9-3.65,2.49-1.4.59-2.92.89-4.57.89s-3.17-.3-4.57-.89c-1.4-.59-2.61-1.42-3.65-2.49-1.03-1.07-1.84-2.32-2.41-3.76-.57-1.44-.86-3.01-.86-4.7s.29-3.26.86-4.7ZM42.17,17.03c.82,1.52,1.96,2.71,3.4,3.58,1.44.87,3.09,1.3,4.93,1.3s3.49-.43,4.93-1.3c1.44-.87,2.57-2.06,3.38-3.58.81-1.52,1.22-3.23,1.22-5.15s-.41-3.66-1.22-5.16c-.81-1.51-1.94-2.69-3.38-3.56-1.44-.87-3.09-1.3-4.93-1.3s-3.49.43-4.93,1.3c-1.44.87-2.57,2.06-3.4,3.56-.82,1.51-1.24,3.23-1.24,5.16s.41,3.63,1.24,5.15Z"/>
        <path class="cls-1" d="M65.75,7.18c.57-1.44,1.37-2.69,2.41-3.76,1.03-1.07,2.25-1.9,3.65-2.49,1.4-.59,2.92-.89,4.57-.89s3.17.3,4.57.89c1.4.59,2.61,1.42,3.65,2.49,1.03,1.07,1.84,2.32,2.41,3.76.57,1.44.86,3.01.86,4.7s-.29,3.26-.86,4.7c-.57,1.44-1.38,2.7-2.41,3.76-1.03,1.07-2.25,1.9-3.65,2.49-1.4.59-2.92.89-4.57.89s-3.17-.3-4.57-.89c-1.4-.59-2.61-1.42-3.65-2.49-1.03-1.07-1.84-2.32-2.41-3.76-.57-1.44-.86-3.01-.86-4.7s.29-3.26.86-4.7ZM68.05,17.03c.83,1.52,1.96,2.71,3.4,3.58,1.44.87,3.08,1.3,4.93,1.3s3.49-.43,4.93-1.3c1.44-.87,2.57-2.06,3.38-3.58.81-1.52,1.22-3.23,1.22-5.15s-.41-3.66-1.22-5.16c-.81-1.51-1.94-2.69-3.38-3.56-1.44-.87-3.09-1.3-4.93-1.3s-3.49.43-4.93,1.3c-1.44.87-2.57,2.06-3.4,3.56-.82,1.51-1.24,3.23-1.24,5.16s.41,3.63,1.24,5.15Z"/>
        <path class="cls-1" d="M93.83.33v23.1h-1.81V.33h1.81ZM105.71.33l-10.16,10.82,10.66,12.28h-2.31l-10.59-12.24L103.4.33h2.31Z"/>
        <path class="cls-1" d="M118.91,5.81c.66-1.78,1.59-3.2,2.8-4.24,1.21-1.04,2.63-1.57,4.26-1.57s3.05.52,4.26,1.57c1.21,1.05,2.15,2.46,2.81,4.24s.99,3.81.99,6.07-.33,4.29-.99,6.07-1.6,3.2-2.81,4.24c-1.21,1.05-2.63,1.57-4.26,1.57s-3.05-.52-4.26-1.57c-1.21-1.04-2.14-2.46-2.8-4.24s-.99-3.81-.99-6.07.33-4.29.99-6.07ZM120.17,15.87c.29,1.23.7,2.31,1.24,3.23s1.19,1.64,1.96,2.16c.77.52,1.64.78,2.61.78s1.86-.26,2.62-.78c.76-.52,1.41-1.24,1.95-2.16.54-.92.95-2,1.24-3.23.29-1.23.43-2.56.43-3.99s-.14-2.76-.43-3.99c-.29-1.23-.7-2.31-1.24-3.23-.54-.92-1.19-1.64-1.95-2.16-.76-.52-1.63-.78-2.62-.78s-1.84.26-2.61.78c-.77.52-1.42,1.24-1.96,2.16-.54.92-.95,2-1.24,3.23-.29,1.23-.43,2.56-.43,3.99s.14,2.76.43,3.99Z"/>
        <path class="cls-1" d="M151.77,19.3c-.41.99-.97,1.81-1.68,2.48-.72.66-1.55,1.15-2.49,1.48s-1.96.5-3.04.5c-1.32,0-2.47-.21-3.45-.63-.98-.42-1.81-1-2.51-1.73-.69-.74-1.27-1.57-1.73-2.49l1.55-1.02c.37.77.85,1.47,1.44,2.11.58.64,1.27,1.14,2.06,1.5s1.67.54,2.64.54c1.19,0,2.23-.25,3.12-.74.89-.5,1.58-1.2,2.08-2.13.5-.92.74-2.03.74-3.33,0-1.17-.25-2.19-.74-3.07-.5-.88-1.16-1.57-2-2.06-.84-.5-1.79-.74-2.87-.74-.81,0-1.56.09-2.24.26-.68.18-1.34.46-1.98.86s-1.31.91-2.01,1.55l3.04-12.31h10.89v1.62h-9.5l-1.98,8.02c.53-.46,1.18-.85,1.96-1.17.78-.32,1.63-.48,2.56-.48,1.28,0,2.43.32,3.45.96,1.02.64,1.83,1.52,2.43,2.64.59,1.12.89,2.43.89,3.93,0,1.32-.2,2.48-.61,3.47Z"/>
      </g>
      <g>
        <path class="cls-1" d="M7.86,43.11v38.5H0v-38.5h7.86ZM4.79,43.11h7.65c3.04,0,5.64.5,7.78,1.49,2.15.99,3.79,2.4,4.92,4.23,1.14,1.83,1.71,4.02,1.71,6.54s-.57,4.67-1.71,6.52c-1.14,1.85-2.78,3.27-4.92,4.26-2.14.99-4.74,1.49-7.78,1.49h-7.65v-6.66h7.65c2.09,0,3.74-.48,4.95-1.43,1.21-.95,1.81-2.35,1.81-4.18s-.6-3.27-1.81-4.21c-1.21-.94-2.86-1.4-4.95-1.4h-7.65v-6.66Z"/>
        <path class="cls-1" d="M40.92,68.85l.17,1.76-5.06,11h-8.85l19.53-40.75,19.52,40.75h-8.91l-4.95-10.67.11-1.98-5.77-13.36-5.78,13.25ZM37.57,66.65h18.48l.94,6.21h-20.35l.94-6.21Z"/>
        <path class="cls-1" d="M80.47,43.11v38.5h-7.87v-38.5h7.87ZM77.39,43.11h8.14c3.04,0,5.63.51,7.76,1.54,2.13,1.03,3.76,2.46,4.89,4.29,1.14,1.83,1.71,3.98,1.71,6.43s-.57,4.56-1.71,6.41c-1.14,1.85-2.77,3.29-4.89,4.32-2.13,1.03-4.71,1.54-7.76,1.54h-8.14v-6.27h7.65c1.39,0,2.59-.23,3.6-.69,1.01-.46,1.79-1.12,2.34-1.98.55-.86.83-1.9.83-3.11s-.27-2.25-.83-3.11c-.55-.86-1.33-1.52-2.34-1.98-1.01-.46-2.21-.69-3.6-.69h-7.65v-6.71ZM89.65,63.68l12.54,17.93h-9.29l-11.55-17.93h8.31Z"/>
        <path class="cls-1" d="M116.98,43.11v38.5h-8.08v-38.5h8.08ZM140.03,43.11l-15.95,18.04,16.77,20.46h-9.57l-16.61-20.24,16-18.26h9.35Z"/>
        <path class="cls-1" d="M156.91,68.85l.17,1.76-5.06,11h-8.85l19.53-40.75,19.52,40.75h-8.91l-4.95-10.67.11-1.98-5.77-13.36-5.78,13.25ZM153.56,66.65h18.48l.94,6.21h-20.35l.94-6.21Z"/>
      </g>
    </g>
  </g>
</svg>