<?xml version="1.0" encoding="UTF-8"?>
<svg id="_レイヤー_2" data-name="レイヤー 2" xmlns="http://www.w3.org/2000/svg" viewBox="0 0 242.16 133.32">
  <defs>
    <style>
      .cls-1 {
        fill: #5aa0c8;
      }
    </style>
  </defs>
  <g id="_レイヤー_1-2" data-name="レイヤー 1">
    <g>
      <g>
        <g>
          <path class="cls-1" d="M11.21,4.48c-.23-.16-.5-.25-.81-.27-.41,0-.77.13-1.08.38s-.56.59-.76,1.01c-.19.42-.32.87-.4,1.35l-3.71,21.64H0L3.85,5.87c.19-1.15.57-2.17,1.13-3.06.56-.89,1.3-1.58,2.21-2.09C8.11.22,9.18-.02,10.4,0c.94,0,1.72.17,2.34.52.62.35,1.14.75,1.55,1.21l-2.45,3.42c-.19-.29-.4-.51-.63-.67ZM11.12,12.03l-.72,3.92H.25l.72-3.92h10.15Z"/>
          <path class="cls-1" d="M12.87,15.88c.88-1.3,1.97-2.33,3.28-3.1s2.71-1.14,4.19-1.12c1.13,0,2.08.24,2.84.72.77.48,1.38,1.12,1.84,1.93.46.8.76,1.72.9,2.75.14,1.03.14,2.11,0,3.24-.14,1.18-.45,2.29-.92,3.33-.47,1.04-1.06,1.96-1.76,2.75-.71.79-1.53,1.41-2.47,1.85-.94.44-1.96.67-3.06.67-1.51,0-2.78-.39-3.82-1.17-1.03-.78-1.79-1.82-2.27-3.13-.48-1.31-.61-2.74-.4-4.3.22-1.66.76-3.13,1.64-4.43ZM16.15,22.63c.23.73.62,1.31,1.17,1.75.55.43,1.25.66,2.09.68.58,0,1.14-.12,1.69-.36.55-.24,1.06-.58,1.53-1.03.47-.44.86-.95,1.19-1.53.32-.58.55-1.19.67-1.84.1-.65.09-1.25-.02-1.8-.11-.55-.31-1.05-.59-1.49-.29-.44-.65-.8-1.08-1.06s-.94-.41-1.51-.43c-.84-.02-1.64.18-2.39.61-.76.43-1.39,1.01-1.91,1.75-.52.73-.85,1.54-.99,2.43-.12.82-.07,1.59.16,2.32ZM30.49,12.03l-2.84,16.56h-4.5l2.81-16.56h4.54Z"/>
          <path class="cls-1" d="M37.3,12.03l2.38,9.86,5.44-9.86h5l-11.7,18.32-6.01-18.32h4.9Z"/>
          <path class="cls-1" d="M51.01,15.84c.96-1.3,2.17-2.32,3.62-3.06,1.45-.74,3.03-1.12,4.73-1.12s3.17.38,4.41,1.15c1.24.77,2.16,1.81,2.77,3.11.61,1.31.81,2.77.59,4.37-.22,1.66-.8,3.13-1.76,4.43-.96,1.3-2.17,2.32-3.62,3.06-1.45.74-3.04,1.12-4.77,1.12s-3.14-.38-4.37-1.13c-1.24-.76-2.16-1.79-2.77-3.1-.61-1.31-.82-2.77-.63-4.37.24-1.68.84-3.17,1.8-4.46ZM54.07,22.57c.24.72.64,1.3,1.19,1.73.55.43,1.24.66,2.05.68.86,0,1.66-.21,2.39-.63.73-.42,1.34-.99,1.84-1.71.49-.72.8-1.5.92-2.34.12-.84.06-1.61-.18-2.3-.24-.7-.64-1.27-1.19-1.73-.55-.46-1.25-.68-2.09-.68-.82-.02-1.6.18-2.34.61-.74.43-1.36,1.01-1.84,1.73-.48.72-.79,1.51-.94,2.38-.12.79-.06,1.55.18,2.27Z"/>
          <path class="cls-1" d="M73.33,28.59h-4.54l2.84-16.56h4.54l-2.84,16.56ZM79.32,16.24c-.3-.17-.65-.25-1.06-.25-.62-.02-1.18.15-1.66.52-.48.37-.87.85-1.17,1.42-.3.58-.5,1.2-.59,1.87l-1.01-1.33c.22-1.13.63-2.21,1.24-3.26.61-1.04,1.34-1.9,2.2-2.57.85-.67,1.76-1.01,2.72-1.01.6,0,1.13.12,1.6.36.47.24.88.58,1.24,1.01l-2.63,3.85c-.29-.24-.58-.44-.88-.61Z"/>
          <path class="cls-1" d="M90.14,12.03l-2.84,16.56h-4.46l2.77-16.56h4.54ZM87.01,3.73c.55-.49,1.2-.74,1.94-.74.79,0,1.46.25,2,.74.54.49.81,1.12.81,1.89s-.27,1.37-.81,1.87-1.21.76-2,.76c-.74,0-1.39-.25-1.94-.76-.55-.5-.83-1.13-.83-1.87s.28-1.4.83-1.89Z"/>
          <path class="cls-1" d="M102.78,12.03l-.68,3.92h-10.01l.72-3.92h9.97ZM100.98,6.27l-3.89,22.32h-4.39l3.78-22.32h4.5Z"/>
          <path class="cls-1" d="M106.38,28.05c-1.18-.6-2.09-1.46-2.75-2.59s-.99-2.48-.99-4.07c0-1.34.25-2.6.74-3.78.49-1.17,1.19-2.21,2.09-3.1.9-.89,1.96-1.58,3.19-2.09,1.22-.5,2.57-.76,4.03-.76,1.61,0,2.96.29,4.05.86,1.09.58,1.93,1.4,2.5,2.48.58,1.08.86,2.4.86,3.96,0,.38-.04.8-.11,1.24-.07.44-.17.82-.29,1.13h-14.62v-2.88h11.05l-1.22,1.66c.12-.24.23-.5.32-.79.1-.29.14-.56.14-.83,0-.74-.11-1.38-.34-1.91-.23-.53-.56-.94-1.01-1.22-.44-.29-1.03-.43-1.75-.43s-1.37.14-1.96.43c-.59.29-1.1.69-1.53,1.21-.43.52-.77,1.13-1.03,1.85-.25.72-.41,1.51-.49,2.38-.1.91-.02,1.72.22,2.41.24.7.64,1.23,1.19,1.6.55.37,1.26.56,2.12.56.96,0,1.82-.22,2.57-.65.76-.43,1.39-1.01,1.89-1.73l3.96,1.26c-.89,1.46-2.06,2.61-3.53,3.44-1.46.83-3.19,1.24-5.18,1.24-1.58,0-2.96-.3-4.14-.9Z"/>
          <path class="cls-1" d="M79.13,47.67l-2.84,16.56h-4.46l2.77-16.56h4.54ZM76,39.37c.55-.49,1.2-.74,1.94-.74.79,0,1.46.25,2,.74.54.49.81,1.12.81,1.89s-.27,1.37-.81,1.87-1.21.76-2,.76c-.74,0-1.39-.25-1.94-.76-.55-.5-.83-1.13-.83-1.87s.28-1.4.83-1.89Z"/>
          <path class="cls-1" d="M91.76,47.67l-.68,3.92h-10.01l.72-3.92h9.97ZM89.96,41.9l-3.89,22.32h-4.39l3.78-22.32h4.5Z"/>
          <path class="cls-1" d="M95.36,63.69c-1.18-.6-2.09-1.46-2.75-2.59s-.99-2.48-.99-4.07c0-1.34.25-2.6.74-3.78.49-1.17,1.19-2.21,2.09-3.1.9-.89,1.96-1.58,3.19-2.09,1.22-.5,2.57-.76,4.03-.76,1.61,0,2.96.29,4.05.86,1.09.58,1.93,1.4,2.5,2.48.58,1.08.86,2.4.86,3.96,0,.38-.04.8-.11,1.24-.07.44-.17.82-.29,1.13h-14.62v-2.88h11.05l-1.22,1.66c.12-.24.23-.5.32-.79.1-.29.14-.56.14-.83,0-.74-.11-1.38-.34-1.91-.23-.53-.56-.94-1.01-1.22-.44-.29-1.03-.43-1.75-.43s-1.37.14-1.96.43c-.59.29-1.1.69-1.53,1.21-.43.52-.77,1.13-1.03,1.85-.25.72-.41,1.51-.49,2.38-.1.91-.02,1.72.22,2.41.24.7.64,1.23,1.19,1.6.55.37,1.26.56,2.12.56.96,0,1.82-.22,2.57-.65.76-.43,1.39-1.01,1.89-1.73l3.96,1.26c-.89,1.46-2.06,2.61-3.53,3.44-1.46.83-3.19,1.24-5.18,1.24-1.58,0-2.96-.3-4.14-.9Z"/>
          <path class="cls-1" d="M134.46,64.23h-4.64l1.84-10.08c.05-.58.05-1.12,0-1.64-.05-.52-.2-.93-.45-1.24-.25-.31-.68-.47-1.28-.47s-1.15.14-1.64.43c-.49.29-.89.67-1.19,1.15-.3.48-.51,1.04-.63,1.69l-1.73,10.15h-4.57l1.8-10.08c.07-.6.08-1.15.02-1.66-.06-.5-.22-.91-.47-1.22-.25-.31-.67-.47-1.24-.47s-1.14.13-1.62.4c-.48.26-.87.64-1.17,1.12-.3.48-.51,1.03-.63,1.66l-1.76,10.26h-4.46l2.84-16.56h4.46l-.36,2.27c.36-.53.78-.99,1.26-1.39.48-.4,1.01-.7,1.6-.92.59-.22,1.23-.32,1.93-.32.84-.02,1.54.08,2.11.32.56.24,1.01.58,1.35,1.03.34.44.58.98.72,1.6.67-.91,1.47-1.63,2.39-2.16.92-.53,1.97-.79,3.15-.79,1.25-.02,2.2.25,2.84.83s1.07,1.34,1.26,2.3c.19.96.22,2.03.07,3.2l-1.8,10.58Z"/>
          <path class="cls-1" d="M142.49,59.98c.53.41,1.07.73,1.62.95.55.23,1.12.33,1.69.31.58,0,1.06-.16,1.46-.49.4-.32.59-.73.59-1.21.02-.46-.11-.83-.4-1.12s-.67-.55-1.13-.77c-.47-.23-.99-.45-1.57-.67-.7-.26-1.36-.6-2-1.01-.64-.41-1.15-.94-1.53-1.58-.38-.65-.55-1.43-.5-2.34.07-1.08.4-1.97.99-2.66.59-.7,1.34-1.22,2.25-1.57.91-.35,1.87-.52,2.88-.52,1.37,0,2.59.26,3.65.77,1.07.52,2,1.16,2.79,1.93l-2.2,2.84c-.55-.62-1.19-1.15-1.91-1.58-.72-.43-1.46-.65-2.23-.65-.58,0-1.04.13-1.4.38-.36.25-.55.58-.58.99-.02.38.11.71.4.99.29.28.68.52,1.19.74.5.22,1.02.43,1.55.65.82.34,1.55.71,2.21,1.13.66.42,1.18.94,1.57,1.57.38.62.55,1.42.5,2.38-.07,1.08-.38,2.02-.94,2.83-.55.8-1.29,1.43-2.21,1.87-.92.44-1.99.67-3.19.67-1.13,0-2.17-.16-3.11-.47-.95-.31-1.81-.73-2.57-1.26-.77-.53-1.45-1.09-2.05-1.69l2.56-2.84c.55.55,1.09,1.03,1.62,1.44Z"/>
          <path class="cls-1" d="M156.08,60.28c.56-.52,1.27-.77,2.11-.77s1.54.26,2.11.77c.56.52.85,1.17.85,1.96s-.28,1.45-.85,1.96c-.56.52-1.27.77-2.11.77s-1.54-.26-2.11-.77c-.56-.52-.85-1.17-.85-1.96s.28-1.45.85-1.96ZM164.95,39.03l-3.92,17.21h-3.71l1.94-17.21h5.69Z"/>
        </g>
        <path class="cls-1" d="M96.51,91.88c-2.37,6.6-.03,13.92,4.49,19.01,4.98,5.6,12.59,7.99,19.88,8.36,6.76.34,13.93-.77,19.78-4.33,4.91-2.98,9.68-8.94,7.76-15.06-.9-2.86-3.42-5.53-6.67-4.71s-5.13,4.57-5.82,7.54c-1.48,6.31,1.32,13,5.69,17.53,5.23,5.43,12.91,7.42,20.18,8.14,7.69.77,15.59.54,23.31.32,14.61-.42,30.07-2.22,42.59-10.39,1.53-1,2.99-2.09,4.41-3.25,1.5-1.22-.64-3.33-2.12-2.12-10.28,8.41-23.66,11.34-36.61,12.34-6.55.5-13.12.55-19.69.53-7.01-.02-14.21-.03-20.93-2.28-5.81-1.94-10.77-5.85-13.07-11.65-.94-2.38-1.43-5.03-1.02-7.59.31-1.96,1.86-6.72,4.55-6.27,2.42.4,2.83,4.1,2.45,5.96-.53,2.57-1.98,4.73-3.92,6.47-4.12,3.69-9.93,5.31-15.33,5.73-7.33.57-15.56-.52-21.34-5.47-5.08-4.36-8.02-11.5-5.67-18.02.65-1.82-2.24-2.6-2.89-.8h0Z"/>
      </g>
      <path class="cls-1" d="M206.65,111.04c11.33.02,22.66.04,34,.06l-1.3-2.26c-4.7,7.17-9.01,14.58-12.93,22.21-.88,1.71,1.71,3.23,2.59,1.51,3.92-7.63,8.23-15.04,12.93-22.21.63-.97-.2-2.26-1.3-2.26-11.33-.02-22.66-.04-34-.06-1.93,0-1.93,3,0,3h0Z"/>
    </g>
  </g>
</svg>