<?xml version="1.0" encoding="UTF-8"?>
<svg id="_レイヤー_2" data-name="レイヤー 2" xmlns="http://www.w3.org/2000/svg" viewBox="0 0 488.56 94.39">
  <defs>
    <style>
      .cls-1 {
        fill: #5aa0c8;
      }
    </style>
  </defs>
  <g id="_レイヤー_1-2" data-name="レイヤー 1">
    <g>
      <g>
        <path class="cls-1" d="M189.46.3v21.38h9.54v1.72h-11.35V.3h1.82Z"/>
        <path class="cls-1" d="M200.78,7.14c.57-1.44,1.37-2.69,2.41-3.76,1.03-1.07,2.25-1.9,3.65-2.49s2.92-.89,4.57-.89,3.17.3,4.57.89c1.4.59,2.61,1.42,3.65,2.49,1.03,1.07,1.84,2.32,2.41,3.76.57,1.44.86,3.01.86,4.7s-.29,3.26-.86,4.7c-.57,1.44-1.38,2.7-2.41,3.76-1.03,1.07-2.25,1.9-3.65,2.49-1.4.59-2.92.89-4.57.89s-3.17-.3-4.57-.89-2.61-1.42-3.65-2.49c-1.03-1.07-1.84-2.32-2.41-3.76-.57-1.44-.86-3.01-.86-4.7s.29-3.26.86-4.7ZM203.07,17c.83,1.52,1.96,2.71,3.4,3.58,1.44.87,3.09,1.3,4.93,1.3s3.49-.43,4.93-1.3c1.44-.87,2.57-2.06,3.38-3.58.81-1.52,1.22-3.23,1.22-5.15s-.41-3.66-1.22-5.16c-.81-1.51-1.94-2.69-3.38-3.56-1.44-.87-3.08-1.3-4.93-1.3s-3.49.43-4.93,1.3c-1.44.87-2.57,2.06-3.4,3.56-.83,1.51-1.24,3.23-1.24,5.16s.41,3.63,1.24,5.15Z"/>
        <path class="cls-1" d="M226.65,7.14c.57-1.44,1.38-2.69,2.41-3.76,1.03-1.07,2.25-1.9,3.65-2.49,1.4-.59,2.92-.89,4.57-.89s3.17.3,4.57.89c1.4.59,2.61,1.42,3.65,2.49,1.03,1.07,1.84,2.32,2.41,3.76.57,1.44.86,3.01.86,4.7s-.29,3.26-.86,4.7c-.57,1.44-1.38,2.7-2.41,3.76-1.04,1.07-2.25,1.9-3.65,2.49-1.4.59-2.92.89-4.57.89s-3.17-.3-4.57-.89c-1.4-.59-2.61-1.42-3.65-2.49-1.03-1.07-1.84-2.32-2.41-3.76-.57-1.44-.86-3.01-.86-4.7s.29-3.26.86-4.7ZM228.95,17c.83,1.52,1.96,2.71,3.4,3.58,1.44.87,3.09,1.3,4.93,1.3s3.49-.43,4.93-1.3c1.44-.87,2.57-2.06,3.38-3.58.81-1.52,1.22-3.23,1.22-5.15s-.41-3.66-1.22-5.16c-.81-1.51-1.94-2.69-3.38-3.56-1.44-.87-3.08-1.3-4.93-1.3s-3.49.43-4.93,1.3c-1.44.87-2.57,2.06-3.4,3.56-.83,1.51-1.24,3.23-1.24,5.16s.41,3.63,1.24,5.15Z"/>
        <path class="cls-1" d="M254.73.3v23.1h-1.82V.3h1.82ZM266.61.3l-10.16,10.82,10.66,12.28h-2.31l-10.59-12.24,10.1-10.86h2.31Z"/>
        <path class="cls-1" d="M280.14,1.75l7.13-1.72v23.36h-1.82V2.24l-5.31,1.39v-1.88Z"/>
        <path class="cls-1" d="M294.47,1.75l7.13-1.72v23.36h-1.82V2.24l-5.31,1.39v-1.88Z"/>
      </g>
      <g>
        <path class="cls-1" d="M6.16,87.11c.77.35,1.59.52,2.48.52s1.66-.35,2.45-1.05c.79-.7,1.18-1.89,1.18-3.57v-39.93h8.25v41.58c0,1.72-.29,3.2-.85,4.43-.57,1.23-1.38,2.24-2.42,3.02-1.04.79-2.26,1.37-3.63,1.73-1.38.37-2.85.55-4.43.55-1.28,0-2.52-.17-3.71-.5-1.19-.33-2.25-.71-3.19-1.16-.93-.44-1.7-.88-2.28-1.32l4.24-5.67c.51.55,1.16,1,1.92,1.35Z"/>
        <path class="cls-1" d="M39.05,43.08v38.5h-7.98v-38.5h7.98Z"/>
        <path class="cls-1" d="M84.53,43.08v40.43l-27.39-25.8v23.87h-7.59v-40.42l27.39,25.79v-23.87h7.59Z"/>
        <path class="cls-1" d="M100.98,58.48h6.21c1.14,0,2.13-.18,2.97-.55.84-.37,1.49-.9,1.95-1.6.46-.7.69-1.52.69-2.47,0-1.47-.5-2.58-1.51-3.35-1.01-.77-2.37-1.15-4.1-1.15h-4.24v25.96h5.06c1.32,0,2.51-.19,3.58-.58s1.9-1,2.5-1.84c.6-.84.91-1.93.91-3.25,0-.95-.17-1.77-.52-2.45-.35-.68-.84-1.25-1.49-1.7s-1.38-.79-2.23-.99c-.84-.2-1.76-.3-2.75-.3h-7.04v-4.29h7.75c1.87,0,3.66.2,5.36.61,1.7.4,3.23,1.04,4.59,1.9,1.36.86,2.43,1.97,3.22,3.33.79,1.36,1.18,2.99,1.18,4.9,0,2.53-.6,4.6-1.79,6.22s-2.87,2.8-5.03,3.57c-2.16.77-4.67,1.15-7.54,1.15h-13.64v-38.5h12.82c2.57,0,4.82.36,6.76,1.07,1.94.72,3.46,1.79,4.56,3.22,1.1,1.43,1.65,3.25,1.65,5.45,0,1.94-.55,3.61-1.65,5-1.1,1.39-2.62,2.45-4.56,3.16-1.94.71-4.2,1.07-6.76,1.07h-6.93v-3.58Z"/>
        <path class="cls-1" d="M139.59,43.08v38.5h-7.59v-38.5h7.59ZM137.06,43.08h19.42v6.66h-19.42v-6.66ZM137.06,57.87h18.31v6.55h-18.31v-6.55ZM137.06,74.92h19.42v6.65h-19.42v-6.65Z"/>
        <path class="cls-1" d="M174.4,43.08v38.5h-7.97v-38.5h7.97Z"/>
        <path class="cls-1" d="M202.95,54.27c1.03-2.44,2.46-4.56,4.29-6.35,1.83-1.8,3.99-3.18,6.46-4.15,2.47-.97,5.16-1.46,8.06-1.46s5.63.49,8.09,1.46c2.46.97,4.61,2.36,6.46,4.15,1.85,1.8,3.28,3.91,4.29,6.35,1.01,2.44,1.51,5.12,1.51,8.06s-.5,5.58-1.51,8.06c-1.01,2.48-2.42,4.63-4.23,6.46-1.82,1.83-3.96,3.25-6.44,4.26s-5.2,1.51-8.17,1.51-5.69-.5-8.17-1.51c-2.48-1.01-4.63-2.43-6.46-4.26-1.83-1.83-3.25-3.99-4.23-6.46-.99-2.47-1.49-5.16-1.49-8.06s.51-5.62,1.54-8.06ZM211.25,68.87c1.03,1.91,2.44,3.41,4.24,4.51,1.8,1.1,3.89,1.65,6.27,1.65s4.47-.55,6.27-1.65c1.8-1.1,3.2-2.6,4.21-4.51,1.01-1.91,1.51-4.09,1.51-6.54s-.5-4.64-1.48-6.54c-.99-1.91-2.38-3.41-4.18-4.51-1.8-1.1-3.91-1.65-6.33-1.65s-4.47.55-6.27,1.65c-1.8,1.1-3.21,2.6-4.24,4.51-1.03,1.91-1.54,4.09-1.54,6.54s.51,4.64,1.54,6.54Z"/>
        <path class="cls-1" d="M274.56,43.08h9.13l-19.53,40.75-19.52-40.75h9.08l10.45,25.08,10.4-25.08Z"/>
        <path class="cls-1" d="M297.66,43.08v38.5h-7.59v-38.5h7.59ZM295.13,43.08h19.42v6.66h-19.42v-6.66ZM295.13,57.87h18.32v6.55h-18.32v-6.55ZM295.13,74.92h19.42v6.65h-19.42v-6.65Z"/>
        <path class="cls-1" d="M332.36,43.08v38.5h-7.87v-38.5h7.87ZM329.28,43.08h8.14c3.04,0,5.63.51,7.76,1.54,2.13,1.03,3.76,2.46,4.89,4.29,1.14,1.83,1.71,3.98,1.71,6.44s-.57,4.56-1.71,6.41-2.77,3.29-4.89,4.32c-2.13,1.03-4.71,1.54-7.76,1.54h-8.14v-6.27h7.65c1.39,0,2.59-.23,3.6-.69,1.01-.46,1.79-1.12,2.34-1.98.55-.86.83-1.9.83-3.11s-.27-2.25-.83-3.11c-.55-.86-1.33-1.52-2.34-1.98-1.01-.46-2.21-.69-3.6-.69h-7.65v-6.71ZM341.55,63.65l12.54,17.93h-9.29l-11.55-17.93h8.3Z"/>
        <path class="cls-1" d="M370.42,68.82l.17,1.76-5.06,11h-8.86l19.53-40.75,19.53,40.75h-8.91l-4.95-10.67.11-1.98-5.78-13.37-5.78,13.25ZM367.07,66.62h18.48l.94,6.21h-20.35l.94-6.21Z"/>
        <path class="cls-1" d="M409.97,43.08v31.62h15.35v6.88h-23.21v-38.5h7.87Z"/>
        <path class="cls-1" d="M439.89,43.08v31.62h15.35v6.88h-23.21v-38.5h7.87Z"/>
        <path class="cls-1" d="M467.96,72.39c.97,1.06,2.04,1.89,3.22,2.47,1.17.59,2.44.88,3.79.88,1.58,0,2.86-.4,3.85-1.21.99-.81,1.49-1.91,1.49-3.3,0-1.21-.3-2.18-.91-2.92-.61-.73-1.5-1.38-2.7-1.95s-2.65-1.18-4.37-1.84c-.92-.33-1.97-.78-3.16-1.35-1.19-.57-2.32-1.3-3.38-2.2-1.06-.9-1.94-2-2.64-3.3-.7-1.3-1.04-2.87-1.04-4.7,0-2.2.56-4.1,1.68-5.69,1.12-1.6,2.64-2.82,4.57-3.69,1.92-.86,4.08-1.29,6.46-1.29s4.57.41,6.35,1.24c1.78.83,3.26,1.87,4.46,3.13,1.19,1.27,2.12,2.58,2.78,3.93l-6.16,3.41c-.51-.92-1.13-1.75-1.84-2.5-.71-.75-1.53-1.36-2.45-1.81-.92-.46-1.96-.69-3.14-.69-1.54,0-2.69.36-3.46,1.07s-1.16,1.55-1.16,2.5.31,1.79.94,2.5c.62.71,1.58,1.39,2.86,2.04,1.28.64,2.9,1.29,4.84,1.95,1.25.44,2.45.99,3.6,1.65,1.15.66,2.2,1.46,3.13,2.39.93.93,1.67,2.04,2.2,3.3.53,1.27.8,2.72.8,4.37,0,1.87-.37,3.54-1.1,5.01-.73,1.47-1.74,2.7-3.03,3.71-1.28,1.01-2.72,1.78-4.32,2.31-1.59.53-3.27.8-5.03.8-2.35,0-4.54-.45-6.57-1.35-2.03-.9-3.8-2.12-5.31-3.66-1.5-1.54-2.68-3.21-3.52-5l5.61-3.96c.81,1.43,1.7,2.68,2.67,3.74Z"/>
      </g>
    </g>
  </g>
</svg>