<?xml version="1.0" encoding="UTF-8"?>
<svg id="_レイヤー_2" data-name="レイヤー 2" xmlns="http://www.w3.org/2000/svg" viewBox="0 0 119.59 97.36">
  <defs>
    <style>
      .cls-1 {
        fill: #5aa0c8;
      }
    </style>
  </defs>
  <g id="_03" data-name="03">
    <g>
      <g>
        <path class="cls-1" d="M37.07,57.99c.03.69.16,1.29.4,1.78.24.49.61.88,1.12,1.16.51.28,1.13.42,1.88.42.93,0,1.78-.21,2.54-.64.76-.43,1.39-1.03,1.9-1.8.51-.77.83-1.67.96-2.68l3.12-17.96h5.76l-3.08,18c-.32,2.11-.99,3.9-2.02,5.38-1.03,1.48-2.33,2.61-3.92,3.38-1.59.77-3.38,1.16-5.38,1.16s-3.71-.33-5.04-1c-1.33-.67-2.33-1.62-2.98-2.86-.65-1.24-.97-2.7-.94-4.38l5.68.04ZM34.69,42.35c.95-1.41,2.13-2.51,3.56-3.3,1.43-.79,2.95-1.18,4.58-1.18,1.23,0,2.27.25,3.14.76.87.51,1.57,1.19,2.1,2.04.53.85.89,1.84,1.06,2.96.17,1.12.18,2.32.02,3.6-.16,1.31-.5,2.53-1.02,3.66-.52,1.13-1.17,2.13-1.96,2.98-.79.85-1.71,1.51-2.76,1.98-1.05.47-2.18.7-3.38.7-1.63,0-3.01-.41-4.16-1.24-1.15-.83-1.99-1.95-2.52-3.36-.53-1.41-.69-3-.48-4.76.27-1.81.87-3.43,1.82-4.84ZM39.25,49.47c.23.67.61,1.19,1.16,1.58.55.39,1.23.59,2.06.62.56.03,1.11-.07,1.66-.3.55-.23,1.05-.54,1.52-.94.47-.4.86-.88,1.18-1.44.32-.56.53-1.16.64-1.8.08-.64.07-1.22-.04-1.74-.11-.52-.3-.99-.58-1.4-.28-.41-.64-.73-1.08-.96s-.93-.34-1.46-.34c-.88-.03-1.69.16-2.42.56-.73.4-1.35.94-1.84,1.62-.49.68-.82,1.45-.98,2.3-.11.83-.05,1.57.18,2.24Z"/>
        <path class="cls-1" d="M58.79,42.47c1.09-1.44,2.47-2.57,4.14-3.4,1.67-.83,3.46-1.24,5.38-1.24s3.59.42,5.02,1.26c1.43.84,2.5,1.99,3.22,3.44.72,1.45.96,3.1.72,4.94-.24,1.87-.91,3.52-2,4.96-1.09,1.44-2.47,2.57-4.12,3.4-1.65.83-3.47,1.24-5.44,1.24s-3.55-.42-4.98-1.26c-1.43-.84-2.5-1.99-3.22-3.44-.72-1.45-.97-3.1-.76-4.94.27-1.87.95-3.52,2.04-4.96ZM63.03,49.71c.24.69.62,1.25,1.14,1.68.52.43,1.18.64,1.98.64.83.03,1.59-.17,2.3-.58.71-.41,1.31-.97,1.8-1.68.49-.71.81-1.49.94-2.34.11-.8.05-1.54-.18-2.22-.23-.68-.61-1.24-1.14-1.68-.53-.44-1.2-.67-2-.7s-1.56.17-2.28.6c-.72.43-1.32.99-1.8,1.7-.48.71-.79,1.49-.92,2.34-.13.8-.08,1.55.16,2.24Z"/>
        <path class="cls-1" d="M81.07,51.71c.72-.64,1.61-.96,2.68-.96,1.12,0,2.03.32,2.74.96.71.64,1.06,1.47,1.06,2.48s-.35,1.84-1.06,2.48c-.71.64-1.62.96-2.74.96s-1.96-.32-2.68-.96c-.72-.64-1.08-1.47-1.08-2.48s.36-1.84,1.08-2.48ZM91.75,28.67l-4.4,18.76h-4.92l1.96-18.76h7.36Z"/>
      </g>
      <path class="cls-1" d="M56.68,1.58c-13.08-4.21-27.54.36-37.5,9.36S2.81,33.53.66,46.79c-1.1,6.77-1.02,13.89,1.72,20.28s8.33,11.2,14.23,14.88c11.39,7.11,25.06,10.46,38.45,9.84,6.67-.31,13.31-1.56,19.59-3.84,1.6-.58,3.17-1.23,4.72-1.93.72-.32,1.42-.67,2.13-1.02,1.03-.5,1.77-.82,2.75-.08,3.31,2.5,6.42,5.32,9.61,7.97,1.64,1.36,3.28,2.72,4.91,4.08.97.81,2.54.32,2.56-1.06.11-6.9-.99-13.78-3.25-20.3l-1.05,1.85c8.6-3.24,13.07-11.62,16.15-19.76,1.9-5.02,3.7-10.17,5.02-15.37s1.97-11.06.58-16.55c-1.77-6.96-6.06-12.83-11.94-16.9-5.38-3.71-11.79-5.84-18.2-6.88-5.75-.94-11.78-1.24-17.54-.18-1.9.35-1.09,3.24.8,2.89s3.79-.48,5.85-.52c2.65-.05,5.31.09,7.95.4,5.83.69,11.68,2.29,16.83,5.15,5.51,3.06,10.09,7.71,12.36,13.66,1.7,4.44,2.09,9.1,1.34,13.79-.85,5.38-2.75,10.53-4.5,15.67-2.8,8.25-6.63,18.37-15.5,21.7-.72.27-1.33,1.02-1.05,1.85,2.18,6.29,3.24,12.84,3.14,19.5l2.56-1.06c-3.15-2.61-6.3-5.23-9.45-7.84-1.51-1.25-3.02-2.51-4.53-3.76s-2.88-2.19-4.87-1.69c-1.58.4-3.06,1.37-4.54,2.03s-2.9,1.21-4.39,1.73c-3.09,1.08-6.26,1.91-9.48,2.5-12.57,2.31-25.99.82-37.7-4.34-6.03-2.66-12.07-6.23-16.57-11.11s-6.44-11.52-6.37-18.22,1.75-13.25,4.08-19.44,5.49-11.94,9.69-16.93C26.14,6.63,41.45-.18,55.88,4.47c1.84.59,2.63-2.3.8-2.89h0Z"/>
    </g>
  </g>
</svg>