<?xml version="1.0" encoding="UTF-8"?>
<svg id="_レイヤー_2" data-name="レイヤー 2" xmlns="http://www.w3.org/2000/svg" viewBox="0 0 310.81 198.61">
  <defs>
    <style>
      .cls-1 {
        fill: #5aa0c8;
      }
    </style>
  </defs>
  <g id="_レイヤー_1-2" data-name="レイヤー 1">
    <g>
      <path class="cls-1" d="M42.8,70.71l-3.84,22.4h-4.54l3.81-22.4h4.58Z"/>
      <path class="cls-1" d="M57.58,78.39l1.73,8.06,5.63-9.25,2.56,9.31,4.58-8.13h4.42l-9.76,15.78-2.94-9.34-6.11,9.34-4.32-15.78h4.22Z"/>
      <path class="cls-1" d="M77.47,81.82c.78-1.15,1.75-2.07,2.91-2.75,1.16-.68,2.41-1.01,3.73-.99,1,0,1.84.21,2.53.64.68.43,1.23,1,1.63,1.71.41.72.67,1.53.8,2.45.13.92.13,1.88,0,2.88-.13,1.05-.4,2.03-.82,2.96-.42.93-.94,1.74-1.57,2.45-.63.7-1.36,1.25-2.19,1.65s-1.74.59-2.72.59c-1.34,0-2.48-.35-3.39-1.04-.92-.69-1.59-1.62-2.02-2.78-.43-1.16-.54-2.44-.35-3.82.19-1.47.68-2.78,1.46-3.94ZM80.38,87.82c.2.65.55,1.17,1.04,1.55.49.38,1.11.59,1.86.61.51,0,1.01-.11,1.5-.32.49-.21.94-.52,1.36-.91.42-.39.77-.85,1.06-1.36.29-.51.48-1.06.59-1.63.08-.58.08-1.11-.02-1.6-.1-.49-.27-.93-.53-1.33-.26-.39-.58-.71-.96-.94-.38-.23-.83-.36-1.34-.38-.75-.02-1.46.16-2.13.54-.67.38-1.24.9-1.7,1.55-.46.65-.75,1.37-.88,2.16-.11.73-.06,1.41.14,2.06ZM93.13,78.39l-2.53,14.72h-4l2.5-14.72h4.03Z"/>
      <path class="cls-1" d="M105.21,82.68c-.07-.45-.25-.82-.53-1.1-.28-.29-.72-.43-1.31-.43-.56,0-1.07.12-1.55.37s-.87.59-1.17,1.02c-.3.44-.49.94-.58,1.52l-1.57,9.06h-4.1l2.53-14.72h4.1l-.32,2.11c.51-.77,1.14-1.36,1.89-1.79.75-.43,1.62-.64,2.62-.64,1.17-.02,2.09.22,2.75.74.66.51,1.11,1.19,1.36,2.03.24.84.29,1.8.14,2.86l-1.63,9.41h-4.19l1.57-8.96c.06-.53.06-1.02-.02-1.47Z"/>
      <path class="cls-1" d="M122.56,82.68c-.07-.45-.25-.82-.53-1.1-.28-.29-.72-.43-1.31-.43-.56,0-1.07.12-1.55.37s-.87.59-1.17,1.02c-.3.44-.49.94-.58,1.52l-1.57,9.06h-4.1l2.53-14.72h4.1l-.32,2.11c.51-.77,1.14-1.36,1.89-1.79.75-.43,1.62-.64,2.62-.64,1.17-.02,2.09.22,2.75.74.66.51,1.11,1.19,1.36,2.03.24.84.29,1.8.14,2.86l-1.63,9.41h-4.19l1.57-8.96c.06-.53.06-1.02-.02-1.47Z"/>
      <path class="cls-1" d="M130.84,81.82c.78-1.15,1.75-2.07,2.91-2.75,1.16-.68,2.41-1.01,3.73-.99,1,0,1.84.21,2.53.64.68.43,1.23,1,1.63,1.71.41.72.67,1.53.8,2.45.13.92.13,1.88,0,2.88-.13,1.05-.4,2.03-.82,2.96-.42.93-.94,1.74-1.57,2.45-.63.7-1.36,1.25-2.19,1.65s-1.74.59-2.72.59c-1.34,0-2.48-.35-3.39-1.04-.92-.69-1.59-1.62-2.02-2.78-.43-1.16-.54-2.44-.35-3.82.19-1.47.68-2.78,1.46-3.94ZM133.75,87.82c.2.65.55,1.17,1.04,1.55.49.38,1.11.59,1.86.61.51,0,1.01-.11,1.5-.32.49-.21.94-.52,1.36-.91.42-.39.77-.85,1.06-1.36.29-.51.48-1.06.59-1.63.08-.58.08-1.11-.02-1.6-.1-.49-.27-.93-.53-1.33-.26-.39-.58-.71-.96-.94-.38-.23-.83-.36-1.34-.38-.75-.02-1.46.16-2.13.54-.67.38-1.24.9-1.7,1.55-.46.65-.75,1.37-.88,2.16-.11.73-.06,1.41.14,2.06ZM146.51,78.39l-2.53,14.72h-4l2.5-14.72h4.03Z"/>
      <path class="cls-1" d="M160.49,94.14c0,.62.11,1.16.32,1.62.21.46.55.82,1.01,1.07.46.26,1.03.38,1.71.38.79,0,1.51-.18,2.18-.54.66-.36,1.22-.89,1.66-1.57.45-.68.74-1.45.86-2.3l2.5-14.4h3.97l-2.46,14.4c-.24,1.62-.76,3.02-1.57,4.19-.81,1.17-1.83,2.07-3.06,2.7-1.23.63-2.61.94-4.14.94s-2.83-.27-3.87-.8c-1.05-.53-1.82-1.29-2.34-2.27-.51-.98-.75-2.12-.7-3.42h3.94ZM159.19,81.7c.78-1.14,1.74-2.04,2.9-2.69s2.39-.96,3.71-.94c.98,0,1.82.2,2.51.61.69.41,1.24.96,1.65,1.66.41.7.68,1.5.82,2.4.14.9.14,1.86.02,2.88-.13,1.05-.4,2.02-.82,2.93-.42.91-.94,1.71-1.57,2.4-.63.69-1.36,1.23-2.19,1.62s-1.74.58-2.72.58c-1.32,0-2.45-.34-3.38-1.01-.93-.67-1.61-1.58-2.03-2.72-.43-1.14-.54-2.42-.35-3.82.19-1.45.68-2.75,1.46-3.89ZM162.11,87.67c.2.62.55,1.11,1.06,1.47.5.36,1.11.54,1.84.54.51.02,1.01-.07,1.5-.27.49-.2.95-.49,1.38-.86.43-.37.78-.82,1.06-1.33.28-.51.47-1.06.58-1.63.08-.55.07-1.08-.03-1.57-.11-.49-.29-.92-.54-1.3-.26-.37-.58-.67-.96-.88s-.83-.33-1.34-.35c-.77,0-1.48.18-2.14.53-.66.35-1.22.84-1.66,1.47-.45.63-.74,1.34-.86,2.13-.11.75-.06,1.43.14,2.05Z"/>
      <path class="cls-1" d="M178.06,81.78c.85-1.15,1.93-2.06,3.22-2.72,1.29-.66,2.69-.99,4.21-.99s2.82.34,3.92,1.02c1.1.68,1.92,1.61,2.46,2.77.54,1.16.72,2.46.53,3.89-.19,1.47-.71,2.78-1.57,3.94-.85,1.15-1.93,2.06-3.22,2.72-1.29.66-2.7.99-4.24.99s-2.79-.34-3.89-1.01c-1.1-.67-1.92-1.59-2.46-2.75-.54-1.16-.73-2.46-.56-3.89.21-1.49.75-2.82,1.6-3.97ZM180.78,87.77c.21.64.56,1.15,1.06,1.54.49.38,1.1.59,1.82.61.77,0,1.48-.19,2.13-.56.65-.37,1.19-.88,1.63-1.52.44-.64.71-1.33.82-2.08.11-.75.05-1.43-.16-2.05-.21-.62-.57-1.13-1.06-1.54-.49-.4-1.11-.61-1.86-.61-.73-.02-1.42.16-2.08.54-.66.38-1.21.9-1.63,1.54-.43.64-.7,1.34-.83,2.11-.11.7-.05,1.38.16,2.02Z"/>
      <path class="cls-1" d="M75.63,120.1l-.61,3.49h-8.9l.64-3.49h8.86ZM74.03,114.98l-3.46,19.84h-3.9l3.36-19.84h4Z"/>
      <path class="cls-1" d="M77.23,123.49c.85-1.15,1.93-2.06,3.22-2.72,1.29-.66,2.69-.99,4.21-.99s2.82.34,3.92,1.02c1.1.68,1.92,1.61,2.46,2.77.54,1.16.72,2.46.53,3.89-.19,1.47-.71,2.78-1.57,3.94-.85,1.15-1.93,2.06-3.22,2.72-1.29.66-2.7.99-4.24.99s-2.79-.34-3.89-1.01c-1.1-.67-1.92-1.59-2.46-2.75-.54-1.16-.73-2.46-.56-3.89.21-1.49.75-2.82,1.6-3.97ZM79.95,129.47c.21.64.56,1.15,1.06,1.54.49.38,1.1.59,1.82.61.77,0,1.48-.19,2.13-.56.65-.37,1.19-.88,1.63-1.52.44-.64.71-1.33.82-2.08.11-.75.05-1.43-.16-2.05-.21-.62-.57-1.13-1.06-1.54-.49-.4-1.11-.61-1.86-.61-.73-.02-1.42.16-2.08.54-.66.38-1.21.9-1.63,1.54-.43.64-.7,1.34-.83,2.11-.11.7-.05,1.38.16,2.02Z"/>
      <path class="cls-1" d="M112.27,120.1l-.61,3.49h-8.9l.64-3.49h8.86ZM110.67,114.98l-3.46,19.84h-3.9l3.36-19.84h4Z"/>
      <path class="cls-1" d="M115.88,134.82h-4.1l4.29-24.96h4.1l-4.29,24.96ZM122.6,124.4c-.06-.44-.24-.79-.51-1.07-.28-.28-.69-.44-1.25-.48-.6-.02-1.13.11-1.6.38-.47.28-.86.65-1.17,1.1-.31.46-.53.96-.66,1.49h-.86c.19-1.09.54-2.1,1.06-3.04.51-.94,1.19-1.7,2.03-2.29.84-.59,1.84-.88,2.99-.88s2.05.25,2.7.74c.65.49,1.08,1.16,1.3,2.02.21.85.24,1.81.1,2.88l-1.63,9.57h-4.06l1.57-8.96c.06-.53.06-1.02,0-1.46Z"/>
      <path class="cls-1" d="M132.68,134.34c-1.05-.53-1.86-1.3-2.45-2.3-.59-1-.88-2.21-.88-3.62,0-1.19.22-2.31.66-3.36.44-1.04,1.06-1.96,1.86-2.75.8-.79,1.74-1.41,2.83-1.86,1.09-.45,2.28-.67,3.58-.67,1.43,0,2.63.26,3.6.77.97.51,1.71,1.25,2.22,2.21.51.96.77,2.13.77,3.52,0,.34-.03.71-.1,1.1-.06.4-.15.73-.26,1.01h-12.99v-2.56h9.82l-1.09,1.47c.11-.21.2-.45.29-.7.09-.26.13-.5.13-.74,0-.66-.1-1.23-.3-1.7-.2-.47-.5-.83-.9-1.09-.4-.26-.91-.38-1.55-.38s-1.22.13-1.74.38c-.52.26-.98.61-1.36,1.07-.38.46-.69,1.01-.91,1.65-.22.64-.37,1.34-.43,2.11-.09.81-.02,1.53.19,2.14.21.62.56,1.09,1.06,1.42.49.33,1.12.5,1.89.5.85,0,1.62-.19,2.29-.58.67-.38,1.23-.9,1.68-1.54l3.52,1.12c-.79,1.3-1.83,2.32-3.14,3.06-1.3.74-2.84,1.1-4.61,1.1-1.41,0-2.64-.27-3.68-.8Z"/>
      <path class="cls-1" d="M159.88,134.82h-4.1l4.29-24.96h4.1l-4.29,24.96ZM171.45,131.38c-.78,1.16-1.74,2.08-2.9,2.75-1.15.67-2.4,1.01-3.74,1.01-.98,0-1.82-.21-2.51-.64-.69-.43-1.24-1-1.65-1.73-.41-.73-.67-1.55-.8-2.46-.13-.92-.13-1.87,0-2.85.15-1.07.43-2.06.83-2.98.41-.92.93-1.73,1.57-2.43.64-.7,1.38-1.26,2.21-1.66s1.74-.61,2.72-.61c1.32,0,2.44.35,3.36,1.06.92.7,1.58,1.63,2,2.78.42,1.15.54,2.43.37,3.84-.19,1.45-.68,2.76-1.46,3.92ZM168.55,125.38c-.21-.64-.57-1.16-1.06-1.55-.49-.39-1.11-.6-1.86-.62-.51,0-1.01.11-1.5.32-.49.21-.94.52-1.36.91-.42.39-.77.85-1.06,1.36-.29.51-.49,1.07-.59,1.66-.06.56-.05,1.08.05,1.58.1.5.27.95.51,1.34.25.39.56.7.94.93s.83.35,1.34.37c.77.02,1.48-.16,2.14-.54.66-.38,1.22-.9,1.68-1.55.46-.65.75-1.36.88-2.13.13-.75.08-1.44-.13-2.08Z"/>
      <path class="cls-1" d="M178.25,134.34c-1.05-.53-1.86-1.3-2.45-2.3-.59-1-.88-2.21-.88-3.62,0-1.19.22-2.31.66-3.36.44-1.04,1.06-1.96,1.86-2.75.8-.79,1.74-1.41,2.83-1.86,1.09-.45,2.28-.67,3.58-.67,1.43,0,2.63.26,3.6.77.97.51,1.71,1.25,2.22,2.21.51.96.77,2.13.77,3.52,0,.34-.03.71-.1,1.1-.06.4-.15.73-.26,1.01h-12.99v-2.56h9.82l-1.09,1.47c.11-.21.2-.45.29-.7.09-.26.13-.5.13-.74,0-.66-.1-1.23-.3-1.7-.2-.47-.5-.83-.9-1.09-.4-.26-.91-.38-1.55-.38s-1.22.13-1.74.38c-.52.26-.98.61-1.36,1.07-.38.46-.69,1.01-.91,1.65-.22.64-.37,1.34-.43,2.11-.09.81-.02,1.53.19,2.14.21.62.56,1.09,1.06,1.42.49.33,1.12.5,1.89.5.85,0,1.62-.19,2.29-.58.67-.38,1.23-.9,1.68-1.54l3.52,1.12c-.79,1.3-1.83,2.32-3.14,3.06-1.3.74-2.84,1.1-4.61,1.1-1.41,0-2.64-.27-3.68-.8Z"/>
      <path class="cls-1" d="M193.56,123.52c.78-1.15,1.75-2.07,2.91-2.75,1.16-.68,2.41-1.01,3.73-.99,1,0,1.84.21,2.53.64.68.43,1.23,1,1.63,1.71.41.72.67,1.53.8,2.45.13.92.13,1.88,0,2.88-.13,1.05-.4,2.03-.82,2.96-.42.93-.94,1.74-1.57,2.45-.63.7-1.36,1.25-2.19,1.65s-1.74.59-2.72.59c-1.34,0-2.48-.35-3.39-1.04-.92-.69-1.59-1.62-2.02-2.78-.43-1.16-.54-2.44-.35-3.82.19-1.47.68-2.78,1.46-3.94ZM196.47,129.52c.2.65.55,1.17,1.04,1.55.49.38,1.11.59,1.86.61.51,0,1.01-.11,1.5-.32.49-.21.94-.52,1.36-.91.42-.39.77-.85,1.06-1.36.29-.51.48-1.06.59-1.63.08-.58.08-1.11-.02-1.6-.1-.49-.27-.93-.53-1.33-.26-.39-.58-.71-.96-.94-.38-.23-.83-.36-1.34-.38-.75-.02-1.46.16-2.13.54-.67.38-1.24.9-1.7,1.55-.46.65-.75,1.37-.88,2.16-.11.73-.06,1.41.14,2.06ZM209.23,120.1l-2.53,14.72h-4l2.5-14.72h4.03Z"/>
      <path class="cls-1" d="M215.18,129.57c.23.64.62,1.15,1.17,1.54s1.21.59,2,.61c.96.02,1.87-.2,2.74-.66s1.57-1.01,2.13-1.65l-.58,4.22c-.62.45-1.34.8-2.16,1.07-.82.27-1.72.4-2.7.4-1.49,0-2.8-.34-3.92-1.01-1.12-.67-1.95-1.59-2.5-2.75s-.72-2.46-.53-3.89c.19-1.49.71-2.82,1.57-3.97.85-1.15,1.93-2.06,3.23-2.72,1.3-.66,2.73-.99,4.29-.99.94,0,1.79.13,2.56.38.77.26,1.44.62,2.02,1.09l-.58,4.26c-.38-.73-.93-1.3-1.65-1.71-.71-.42-1.51-.62-2.38-.62s-1.6.2-2.29.59c-.69.39-1.27.91-1.73,1.55-.46.64-.75,1.35-.88,2.14-.11.77-.04,1.47.19,2.11Z"/>
      <path class="cls-1" d="M229.67,134.82h-4.1l4.29-24.96h4.1l-4.29,24.96ZM236.39,124.4c-.06-.44-.24-.79-.51-1.07-.28-.28-.69-.44-1.25-.48-.6-.02-1.13.11-1.6.38-.47.28-.86.65-1.17,1.1-.31.46-.53.96-.66,1.49h-.86c.19-1.09.54-2.1,1.06-3.04.51-.94,1.19-1.7,2.03-2.29.84-.59,1.84-.88,2.99-.88s2.05.25,2.7.74c.65.49,1.08,1.16,1.3,2.02.21.85.24,1.81.1,2.88l-1.63,9.57h-4.06l1.57-8.96c.06-.53.06-1.02,0-1.46Z"/>
      <path class="cls-1" d="M244.44,131.31c.5-.46,1.12-.69,1.87-.69s1.37.23,1.87.69c.5.46.75,1.04.75,1.74s-.25,1.29-.75,1.74c-.5.46-1.13.69-1.87.69s-1.37-.23-1.87-.69c-.5-.46-.75-1.04-.75-1.74s.25-1.29.75-1.74ZM252.33,112.42l-3.49,15.3h-3.3l1.73-15.3h5.06Z"/>
      <path class="cls-1" d="M3.02,46.09c-.08-1.33.04-2.03.35-3.26.35-1.39.86-2.71,1.46-3.98,1.58-3.32,3.7-6.38,6.06-9.2,6.44-7.68,14.67-13.82,23.62-18.27,11.75-5.84,24.52-8.12,37.56-8.36,13.07-.24,26.16,1.61,38.52,5.91,10.55,3.67,20.65,9.14,29.03,16.57.86.77,2.72.34,2.56-1.06-.58-5.01,1.85-9.53,5.53-12.79,4.28-3.79,9.94-5.22,15.55-5.36,6.06-.16,12.09.96,18.02,2.1,5.41,1.04,10.8,2.27,16.09,3.84,10.52,3.12,20.85,7.66,29.28,14.81,3.96,3.36,7.36,8.11,12.54,9.66,5.78,1.74,12.14-.95,17.46-3.08,12.1-4.85,23.21-11.97,32.67-20.94,1.2-1.14-.43-3.4-1.82-2.36-11.45,8.61-18.4,22.5-18.23,36.86.02,1.93,3.02,1.93,3,0-.16-13.22,6.15-26.3,16.74-34.27l-1.82-2.36c-8.56,8.11-18.52,14.68-29.35,19.34-2.78,1.19-5.62,2.28-8.5,3.17s-6.11,1.64-9.14.8c-2.69-.75-4.81-2.7-6.76-4.6s-4.02-3.89-6.22-5.63c-8.66-6.86-18.89-11.33-29.44-14.42-5.49-1.61-11.07-2.86-16.69-3.91-6-1.13-12.14-2.24-18.27-2-6.3.24-12.42,2-17.21,6.23-4.21,3.71-7.07,9.21-6.41,14.91l2.56-1.06c-7.71-6.83-16.74-12.04-26.29-15.83C103.21,2.7,90.04.3,76.89.03c-13.8-.28-27.56,1.53-40.27,7.08-9.79,4.27-18.89,10.54-26.11,18.44C5.84,30.66.83,37.23.07,44.36c-.06.58-.08,1.15-.05,1.73.11,1.92,3.11,1.93,3,0h0Z"/>
      <path class="cls-1" d="M277.97,70.19c-1.1,13.47,7.11,25.28,14.77,35.56,7.56,10.14,16.53,22.07,14.98,35.5-.77,6.7-4.35,12.78-8.44,17.98s-8.42,9.39-13.35,13.29c-9.98,7.89-21.69,13.48-33.86,17.08-15.82,4.69-32.38,6.1-48.82,6.01-1.93-.01-1.93,2.99,0,3,28.15.16,57.53-4.4,80.95-21.08,5.23-3.73,10.09-7.98,14.36-12.78s8.46-10.57,10.68-16.91c4.68-13.38-1.77-26.51-9.36-37.36-8.38-12-20.2-24.51-18.91-40.27.16-1.92-2.84-1.91-3,0h0Z"/>
    </g>
  </g>
</svg>