<?xml version="1.0" encoding="UTF-8"?>
<svg id="_レイヤー_2" data-name="レイヤー 2" xmlns="http://www.w3.org/2000/svg" viewBox="0 0 249.33 107.16">
  <defs>
    <style>
      .cls-1 {
        fill: #5aa0c8;
      }
    </style>
  </defs>
  <g id="_レイヤー_1-2" data-name="レイヤー 1">
    <g>
      <g>
        <path class="cls-1" d="M14.08,42.58l.39,3.52-8.64,2.6-.39-3.52,8.64-2.6ZM12.22,36.14c-.23-.07-.49-.08-.76-.02-.35.11-.62.3-.82.6-.2.3-.33.65-.39,1.05-.06.41-.05.83,0,1.25l2.39,19.37-3.8,1.14-2.55-20.32c-.13-1.03-.07-1.99.18-2.9.25-.9.7-1.68,1.35-2.34.65-.66,1.49-1.14,2.54-1.44.8-.24,1.5-.29,2.12-.16.62.14,1.16.35,1.63.63l-1.21,3.54c-.24-.2-.47-.33-.71-.41Z"/>
        <path class="cls-1" d="M16.55,45.41c.41-1.33,1.08-2.49,1.99-3.48.92-.99,2.01-1.66,3.28-2.02.96-.29,1.83-.33,2.61-.12.78.21,1.46.6,2.06,1.17.59.57,1.09,1.27,1.47,2.11s.66,1.76.83,2.76c.18,1.04.2,2.06.07,3.07-.13,1.01-.4,1.94-.8,2.8-.4.86-.94,1.59-1.62,2.21-.68.62-1.49,1.07-2.43,1.35-1.29.39-2.47.38-3.55-.02-1.08-.4-1.99-1.09-2.73-2.08s-1.22-2.18-1.44-3.56c-.24-1.46-.15-2.86.26-4.19ZM21.07,50.31c.38.57.86.96,1.44,1.19.58.23,1.23.24,1.95.05.49-.15.94-.39,1.35-.74.41-.34.75-.77,1.04-1.27.28-.5.49-1.03.62-1.61.13-.57.16-1.15.1-1.73-.08-.58-.24-1.08-.48-1.53-.23-.44-.53-.81-.89-1.12-.36-.3-.75-.51-1.19-.63-.43-.11-.9-.11-1.4.02-.72.2-1.35.57-1.88,1.13-.53.56-.92,1.22-1.18,1.98-.25.75-.32,1.53-.22,2.32.11.73.35,1.37.73,1.94ZM30.56,37.61l1.83,14.82-3.83,1.15-1.86-14.81,3.86-1.16Z"/>
        <path class="cls-1" d="M36.35,35.87l4.55,7.79,2.1-9.79,4.26-1.28-5.26,18.6-9.82-14.05,4.17-1.25Z"/>
        <path class="cls-1" d="M49.01,35.6c.49-1.35,1.25-2.53,2.29-3.53,1.04-1,2.29-1.73,3.74-2.16,1.45-.44,2.8-.49,4.05-.15,1.25.34,2.3.98,3.16,1.94.86.96,1.4,2.15,1.63,3.57.24,1.47.12,2.87-.37,4.22s-1.25,2.53-2.29,3.53c-1.05,1.01-2.3,1.73-3.77,2.17-1.43.43-2.77.48-4.01.16-1.25-.33-2.3-.97-3.15-1.92-.86-.96-1.41-2.14-1.66-3.56-.23-1.49-.1-2.91.39-4.26ZM53.34,40.54c.39.55.87.94,1.45,1.17.58.23,1.22.25,1.92.06.74-.22,1.36-.61,1.88-1.15.52-.54.89-1.19,1.12-1.93.23-.74.29-1.48.18-2.23-.11-.74-.36-1.38-.74-1.92-.38-.53-.87-.92-1.45-1.17-.59-.25-1.24-.26-1.95-.05-.7.19-1.31.56-1.83,1.12-.52.56-.9,1.21-1.12,1.94-.22.74-.29,1.49-.19,2.26.1.71.35,1.33.74,1.88Z"/>
        <path class="cls-1" d="M71.27,40.72l-3.86,1.16-1.83-14.82,3.86-1.16,1.83,14.82ZM73.21,28.68c-.3-.07-.62-.05-.97.06-.54.14-.96.43-1.28.87-.31.44-.52.94-.63,1.51-.11.57-.12,1.15-.03,1.75l-1.2-.88c-.11-1.01-.03-2.04.22-3.09.25-1.04.66-1.96,1.21-2.75.55-.79,1.24-1.31,2.05-1.56.51-.15,1-.19,1.46-.1.46.08.9.26,1.32.54l-1.25,3.95c-.31-.13-.61-.23-.91-.29Z"/>
        <path class="cls-1" d="M76.54,16.06c.34-.56.83-.94,1.46-1.13.67-.2,1.3-.16,1.89.12s.98.75,1.17,1.4c.19.63.12,1.23-.21,1.8-.33.57-.83.95-1.51,1.16-.63.19-1.25.14-1.85-.15-.6-.29-.99-.75-1.18-1.38-.2-.65-.12-1.26.22-1.82ZM81.33,22.32l1.83,14.82-3.8,1.14-1.89-14.8,3.86-1.16Z"/>
        <path class="cls-1" d="M92.09,19.08l.42,3.51-8.52,2.57-.39-3.52,8.49-2.56ZM89.08,14.64l2.41,19.99-3.74,1.13-2.51-19.97,3.83-1.15Z"/>
        <path class="cls-1" d="M99.26,31.79c-1.16-.21-2.16-.71-3.01-1.5-.85-.79-1.48-1.86-1.89-3.21-.34-1.14-.46-2.28-.34-3.41.12-1.13.44-2.18.98-3.17.54-.99,1.26-1.85,2.18-2.6.91-.74,1.99-1.3,3.24-1.68,1.37-.41,2.59-.51,3.67-.3s2,.7,2.77,1.47,1.35,1.82,1.75,3.15c.1.33.17.69.23,1.08.05.4.07.74.05,1.04l-12.44,3.75-.74-2.45,9.41-2.83-.62,1.72c.04-.24.07-.49.07-.76,0-.27-.02-.52-.09-.74-.19-.63-.45-1.15-.78-1.54-.33-.39-.72-.65-1.17-.78-.45-.13-.98-.1-1.6.08-.61.18-1.13.47-1.56.87-.43.4-.76.87-.99,1.42-.24.55-.37,1.16-.4,1.84-.03.68.04,1.39.2,2.15.15.8.42,1.47.8,2,.38.53.86.88,1.42,1.06.57.18,1.22.15,1.95-.07.82-.25,1.49-.65,2.03-1.21.53-.56.92-1.21,1.16-1.96l3.69.06c-.38,1.47-1.09,2.75-2.12,3.83-1.03,1.08-2.4,1.88-4.09,2.39-1.35.41-2.6.5-3.75.29Z"/>
        <path class="cls-1" d="M49.13,72.63c.55.21,1.1.34,1.62.4.53.05,1.03,0,1.52-.17.49-.15.86-.41,1.12-.79.25-.38.32-.77.2-1.18-.1-.39-.3-.68-.62-.85-.32-.17-.71-.29-1.16-.37-.46-.08-.96-.13-1.5-.17-.66-.04-1.31-.16-1.96-.35-.65-.18-1.22-.5-1.71-.96-.49-.45-.84-1.07-1.03-1.86-.22-.94-.16-1.78.16-2.52.32-.74.83-1.38,1.51-1.91.69-.53,1.46-.92,2.32-1.18,1.16-.35,2.27-.44,3.31-.28,1.04.17,2,.47,2.87.92l-1.14,2.98c-.63-.39-1.31-.68-2.03-.86-.72-.18-1.41-.18-2.07.02-.49.15-.86.37-1.1.68-.24.31-.32.64-.24.99.08.33.28.58.59.74.32.16.72.27,1.2.32.48.05.98.11,1.48.15.78.08,1.5.21,2.17.4.67.19,1.25.5,1.73.93.49.43.83,1.06,1.04,1.89.22.94.19,1.82-.07,2.64-.26.83-.73,1.55-1.4,2.16-.67.62-1.52,1.08-2.54,1.38-.96.29-1.88.42-2.77.4-.89-.02-1.73-.16-2.51-.41-.79-.25-1.52-.56-2.18-.91l1.45-3.08c.61.33,1.19.6,1.75.81Z"/>
        <path class="cls-1" d="M63.91,67.61c.2.41.47.71.81.91.34.2.78.22,1.33.05.55-.17,1.02-.43,1.4-.79.38-.36.66-.79.84-1.31.18-.51.23-1.06.14-1.63l-1.08-9.13,3.92-1.18,1.79,14.83-3.92,1.18-.28-2.15c-.27.86-.71,1.62-1.29,2.26-.59.64-1.37,1.11-2.35,1.41-1.1.33-2.05.35-2.84.07-.79-.29-1.42-.8-1.89-1.55-.47-.75-.79-1.65-.94-2.69l-1.15-9.48,3.98-1.2,1.11,9.02c.07.51.2.98.4,1.38Z"/>
        <path class="cls-1" d="M97.1,62.13l-3.95,1.19-1.02-9.05c-.11-.5-.25-.97-.42-1.39s-.41-.74-.7-.94c-.29-.2-.7-.22-1.21-.07-.51.15-.94.42-1.28.79-.34.37-.58.8-.72,1.29-.13.49-.17,1.02-.1,1.6l1.13,9.08-3.89,1.17-1.05-9.04c-.09-.53-.23-1-.41-1.41-.18-.41-.42-.72-.71-.92-.29-.2-.69-.23-1.18-.08-.51.15-.94.4-1.28.75-.34.35-.58.76-.71,1.25-.13.49-.17,1.01-.11,1.57l1.13,9.18-3.8,1.15-1.82-14.82,3.8-1.14.28,2.02c.17-.54.41-1.04.72-1.5.31-.46.68-.86,1.13-1.19.45-.33.96-.59,1.56-.77.71-.23,1.33-.32,1.88-.26.54.06,1.01.24,1.41.53s.74.68,1.02,1.18c.34-.95.83-1.77,1.48-2.45.65-.68,1.48-1.18,2.48-1.48,1.06-.34,1.93-.35,2.63-.02.7.32,1.25.87,1.66,1.64.41.77.7,1.67.88,2.71l1.18,9.47Z"/>
        <path class="cls-1" d="M121.12,54.89l-3.95,1.19-1.02-9.05c-.11-.5-.25-.97-.42-1.39-.17-.43-.41-.74-.7-.94-.29-.2-.7-.22-1.21-.07-.51.15-.94.42-1.28.79s-.58.8-.72,1.29c-.13.49-.17,1.02-.1,1.6l1.13,9.08-3.89,1.17-1.05-9.04c-.09-.53-.23-1-.41-1.41-.18-.41-.42-.72-.71-.92-.29-.2-.69-.23-1.18-.08-.51.15-.94.41-1.28.75-.34.35-.58.76-.71,1.25-.13.49-.17,1.01-.11,1.57l1.13,9.18-3.8,1.14-1.82-14.82,3.8-1.14.28,2.02c.17-.54.41-1.04.72-1.5.31-.46.68-.86,1.13-1.19.45-.34.96-.59,1.56-.77.71-.24,1.33-.32,1.88-.26s1.01.24,1.41.53c.4.29.74.68,1.02,1.18.34-.95.83-1.77,1.48-2.45.65-.69,1.48-1.18,2.48-1.48,1.06-.34,1.93-.35,2.63-.02s1.25.87,1.66,1.64c.41.77.7,1.67.88,2.71l1.18,9.47Z"/>
        <path class="cls-1" d="M128.25,52.24c-1.15-.21-2.16-.71-3.01-1.5-.85-.79-1.48-1.86-1.89-3.21-.34-1.14-.46-2.28-.34-3.41.12-1.13.44-2.18.98-3.17.54-.99,1.26-1.85,2.18-2.59.91-.74,1.99-1.3,3.24-1.68,1.37-.41,2.59-.51,3.67-.3,1.08.21,2,.7,2.77,1.47.77.77,1.35,1.82,1.75,3.15.1.33.17.69.23,1.08.05.4.07.74.05,1.04l-12.44,3.75-.74-2.45,9.41-2.83-.62,1.72c.04-.24.07-.49.07-.76s-.02-.52-.09-.74c-.19-.63-.45-1.14-.78-1.54-.33-.39-.72-.65-1.17-.78-.45-.13-.98-.11-1.6.08-.61.18-1.13.48-1.56.87-.43.4-.76.87-.99,1.42-.24.55-.37,1.16-.4,1.84-.03.68.04,1.39.2,2.15.15.8.42,1.47.8,2,.38.53.86.88,1.42,1.06s1.22.15,1.95-.07c.82-.25,1.49-.65,2.02-1.21.53-.56.92-1.21,1.17-1.96l3.69.06c-.38,1.47-1.09,2.75-2.12,3.83s-2.4,1.88-4.09,2.39c-1.35.41-2.6.5-3.75.29Z"/>
        <path class="cls-1" d="M145.24,47.63l-3.86,1.16-1.83-14.82,3.86-1.16,1.83,14.82ZM147.17,35.58c-.3-.07-.62-.05-.97.06-.54.14-.96.43-1.28.87-.31.44-.52.94-.63,1.51-.11.57-.12,1.15-.03,1.75l-1.2-.88c-.1-1.01-.03-2.05.22-3.09.25-1.05.66-1.96,1.21-2.75.55-.79,1.24-1.31,2.05-1.55.51-.15,1-.19,1.46-.1.46.08.9.26,1.31.54l-1.25,3.95c-.31-.13-.61-.23-.91-.29Z"/>
        <path class="cls-1" d="M164.28,37.95c.55.21,1.09.34,1.62.4.53.05,1.03,0,1.52-.17.49-.15.86-.41,1.12-.79.25-.38.32-.77.2-1.18-.1-.39-.3-.68-.62-.85-.32-.17-.71-.29-1.16-.37-.46-.08-.96-.13-1.5-.17-.66-.04-1.31-.16-1.96-.35-.65-.18-1.21-.5-1.71-.96-.49-.45-.84-1.07-1.03-1.86-.22-.94-.16-1.78.16-2.52.32-.74.83-1.38,1.51-1.91.69-.53,1.46-.92,2.32-1.18,1.16-.35,2.27-.44,3.31-.28,1.04.17,2,.47,2.87.92l-1.14,2.98c-.63-.39-1.31-.68-2.03-.86-.72-.18-1.41-.18-2.07.02-.49.15-.86.37-1.1.68-.24.31-.32.64-.24.99.08.33.28.58.59.74.32.16.72.27,1.2.32.48.05.98.11,1.48.15.78.08,1.51.21,2.18.4.67.19,1.25.5,1.73.93.49.43.83,1.06,1.04,1.89.22.94.19,1.82-.07,2.64-.26.83-.73,1.55-1.4,2.16-.67.61-1.52,1.08-2.54,1.38-.96.29-1.88.42-2.77.4-.89-.02-1.72-.16-2.51-.41-.79-.25-1.52-.56-2.18-.91l1.45-3.08c.61.33,1.19.6,1.75.81Z"/>
        <path class="cls-1" d="M180.3,21.69l.42,3.51-8.52,2.57-.39-3.52,8.49-2.56ZM177.29,17.25l2.41,19.99-3.74,1.12-2.51-19.96,3.83-1.15Z"/>
        <path class="cls-1" d="M189.17,41.71l-4.11,1.24,2.48-9.74-7.34-11.49,4.2-1.26,5.92,10.45-1.99.5,2.9-13,4.17-1.26-6.23,24.57Z"/>
        <path class="cls-1" d="M199.65,5.17l3.06,25.14-3.86,1.16-3.16-25.12,3.95-1.19Z"/>
        <path class="cls-1" d="M209.87,27.65c-1.15-.21-2.16-.71-3.01-1.5-.85-.79-1.48-1.86-1.89-3.21-.34-1.14-.46-2.28-.34-3.41.12-1.13.44-2.18.98-3.17s1.26-1.85,2.18-2.59c.91-.74,1.99-1.3,3.24-1.68,1.37-.41,2.59-.51,3.67-.3,1.08.21,2,.7,2.77,1.47.77.77,1.35,1.82,1.75,3.15.1.33.17.69.23,1.08.05.4.07.74.05,1.04l-12.44,3.75-.74-2.45,9.41-2.83-.62,1.72c.04-.24.06-.49.07-.76,0-.27-.02-.52-.09-.74-.19-.63-.45-1.14-.78-1.54-.33-.39-.72-.65-1.17-.78-.45-.13-.98-.1-1.6.08-.61.19-1.13.48-1.56.87-.43.39-.76.87-.99,1.42-.24.55-.37,1.16-.4,1.84-.03.68.04,1.39.2,2.15.15.8.42,1.47.8,2,.38.53.86.88,1.42,1.06.57.18,1.22.15,1.95-.07.82-.25,1.49-.65,2.02-1.21.53-.56.92-1.21,1.17-1.96l3.69.06c-.38,1.47-1.09,2.75-2.12,3.83-1.03,1.08-2.4,1.88-4.09,2.39-1.35.41-2.6.5-3.75.29Z"/>
        <path class="cls-1" d="M225.67,0l1.07,15.65-3.16.95-2.76-15.15,4.84-1.46ZM223.56,20.37c.35-.58.88-.98,1.59-1.2.71-.21,1.38-.17,1.99.12s1.02.78,1.22,1.45c.2.67.13,1.3-.22,1.89-.35.58-.88.98-1.59,1.2-.72.21-1.38.18-1.99-.12-.61-.29-1.02-.78-1.22-1.45s-.13-1.3.22-1.89Z"/>
      </g>
      <path class="cls-1" d="M246.5,28.97c-9.55,15.02-26.26,23.34-42.59,28.91-18.4,6.28-37.92,9.76-55.05,19.34-8.08,4.52-18.34,11.66-17.62,22.19l2.95-.4c-.06-.35.04-.59-.04-.12.09-.49.12-1,.1-1.5-.04-1.12-.29-2.22-.71-3.25-.81-2-2.18-3.72-3.89-5.03-3.7-2.85-8.5-3.59-13-4.19-9.91-1.31-19.98-1.05-29.82.67-10.06,1.77-19.53,5.24-28.66,9.78-4.66,2.32-9.31,4.7-14.29,6.27s-9.86,2.37-14.92,2.51c-5.43.15-11-.4-16.21-2-4.02-1.24-8.41-3.51-9.76-7.8-.58-1.83-3.48-1.05-2.89.8,2.65,8.4,12.87,10.7,20.52,11.62,10.06,1.21,20.27-.35,29.58-4.3,4.73-2,9.24-4.48,13.89-6.65s9.44-3.9,14.36-5.27c9.59-2.66,19.56-3.81,29.5-3.4,5.35.22,11.13.57,16.21,2.38,2.37.85,4.59,2.26,5.94,4.43.57.92,1.01,1.97,1.12,3.06.1.95-.09,1.84.08,2.79.29,1.66,3.06,1.28,2.95-.4-.62-9.17,8.6-15.31,15.58-19.28,8.47-4.82,17.69-8.11,26.98-10.97,17.49-5.37,35.64-9.41,51.47-18.99,8.27-5.01,15.63-11.49,20.84-19.69,1.04-1.63-1.56-3.14-2.59-1.51h0Z"/>
    </g>
  </g>
</svg>