<?xml version="1.0" encoding="UTF-8"?>
<svg id="_レイヤー_2" data-name="レイヤー 2" xmlns="http://www.w3.org/2000/svg" viewBox="0 0 241.78 82.66">
  <defs>
    <style>
      .cls-1 {
        fill: #5aa0c8;
      }
    </style>
  </defs>
  <g id="_レイヤー_1-2" data-name="レイヤー 1">
    <g>
      <g>
        <path class="cls-1" d="M62.05.33v21.38h9.54v1.72h-11.35V.33h1.81Z"/>
        <path class="cls-1" d="M73.37,7.18c.57-1.44,1.37-2.69,2.41-3.76,1.03-1.07,2.25-1.9,3.65-2.49,1.4-.59,2.92-.89,4.57-.89s3.17.3,4.57.89c1.4.59,2.61,1.42,3.65,2.49,1.03,1.07,1.84,2.32,2.41,3.76.57,1.44.86,3.01.86,4.7s-.29,3.26-.86,4.7c-.57,1.44-1.38,2.69-2.41,3.76-1.03,1.07-2.25,1.9-3.65,2.49-1.4.59-2.92.89-4.57.89s-3.17-.3-4.57-.89c-1.4-.59-2.61-1.42-3.65-2.49-1.03-1.07-1.84-2.32-2.41-3.76-.57-1.44-.86-3.01-.86-4.7s.29-3.26.86-4.7ZM75.67,17.03c.83,1.52,1.96,2.71,3.4,3.58,1.44.87,3.09,1.3,4.93,1.3s3.49-.43,4.93-1.3c1.44-.87,2.57-2.06,3.38-3.58.81-1.52,1.22-3.23,1.22-5.15s-.41-3.66-1.22-5.16c-.81-1.51-1.94-2.69-3.38-3.56-1.44-.87-3.08-1.3-4.93-1.3s-3.49.44-4.93,1.3c-1.44.87-2.57,2.06-3.4,3.56s-1.24,3.23-1.24,5.16.41,3.63,1.24,5.15Z"/>
        <path class="cls-1" d="M99.25,7.18c.57-1.44,1.37-2.69,2.41-3.76,1.03-1.07,2.25-1.9,3.65-2.49,1.4-.59,2.92-.89,4.57-.89s3.17.3,4.57.89c1.4.59,2.61,1.42,3.65,2.49,1.03,1.07,1.84,2.32,2.41,3.76.57,1.44.86,3.01.86,4.7s-.29,3.26-.86,4.7c-.57,1.44-1.38,2.69-2.41,3.76-1.03,1.07-2.25,1.9-3.65,2.49-1.4.59-2.92.89-4.57.89s-3.17-.3-4.57-.89c-1.4-.59-2.61-1.42-3.65-2.49-1.03-1.07-1.84-2.32-2.41-3.76-.57-1.44-.86-3.01-.86-4.7s.29-3.26.86-4.7ZM101.54,17.03c.83,1.52,1.96,2.71,3.4,3.58,1.44.87,3.09,1.3,4.93,1.3s3.49-.43,4.93-1.3c1.44-.87,2.57-2.06,3.38-3.58.81-1.52,1.22-3.23,1.22-5.15s-.41-3.66-1.22-5.16c-.81-1.51-1.94-2.69-3.38-3.56-1.44-.87-3.08-1.3-4.93-1.3s-3.49.44-4.93,1.3c-1.44.87-2.57,2.06-3.4,3.56s-1.24,3.23-1.24,5.16.41,3.63,1.24,5.15Z"/>
        <path class="cls-1" d="M127.33.33v23.1h-1.81V.33h1.81ZM139.21.33l-10.16,10.82,10.66,12.28h-2.31l-10.59-12.24L136.9.33h2.31Z"/>
        <path class="cls-1" d="M152.41,5.81c.66-1.78,1.59-3.2,2.8-4.24,1.21-1.04,2.63-1.57,4.26-1.57s3.05.52,4.26,1.57c1.21,1.05,2.15,2.46,2.81,4.24.66,1.78.99,3.81.99,6.07s-.33,4.29-.99,6.07c-.66,1.78-1.6,3.2-2.81,4.24-1.21,1.05-2.63,1.57-4.26,1.57s-3.05-.52-4.26-1.57c-1.21-1.04-2.15-2.46-2.8-4.24-.66-1.78-.99-3.81-.99-6.07s.33-4.29.99-6.07ZM153.66,15.87c.29,1.23.7,2.31,1.24,3.23.54.92,1.19,1.64,1.96,2.16.77.52,1.64.78,2.61.78s1.86-.26,2.62-.78c.76-.52,1.41-1.24,1.95-2.16.54-.92.95-2,1.24-3.23.29-1.23.43-2.56.43-3.99s-.14-2.76-.43-3.99c-.29-1.23-.7-2.31-1.24-3.23s-1.19-1.64-1.95-2.16c-.76-.52-1.63-.78-2.62-.78s-1.84.26-2.61.78c-.77.52-1.42,1.24-1.96,2.16s-.95,2-1.24,3.23c-.29,1.23-.43,2.56-.43,3.99s.14,2.76.43,3.99Z"/>
        <path class="cls-1" d="M170.1.33h15.91l-11.52,23.1h-1.91l10.69-21.38h-13.17V.33Z"/>
      </g>
      <g>
        <path class="cls-1" d="M0,43.11h28.6v7.09h-10.4v31.41h-7.86v-31.41H0v-7.09Z"/>
        <path class="cls-1" d="M31.35,59.44h11.5v6.21h-11.5v-6.21Z"/>
        <path class="cls-1" d="M55.52,72.43c.97,1.06,2.04,1.89,3.22,2.48,1.17.59,2.44.88,3.8.88,1.58,0,2.86-.4,3.85-1.21.99-.81,1.49-1.91,1.49-3.3,0-1.21-.3-2.18-.91-2.92-.6-.73-1.5-1.38-2.69-1.95-1.19-.57-2.65-1.18-4.37-1.84-.92-.33-1.97-.78-3.16-1.35-1.19-.57-2.32-1.3-3.38-2.2-1.06-.9-1.94-2-2.64-3.3-.7-1.3-1.04-2.87-1.04-4.7,0-2.2.56-4.1,1.68-5.69,1.12-1.6,2.64-2.82,4.56-3.69,1.92-.86,4.08-1.29,6.46-1.29s4.57.41,6.35,1.24c1.78.82,3.26,1.87,4.45,3.13,1.19,1.26,2.12,2.58,2.78,3.93l-6.16,3.41c-.51-.92-1.13-1.75-1.84-2.5-.71-.75-1.53-1.36-2.45-1.81-.92-.46-1.96-.69-3.13-.69-1.54,0-2.7.36-3.47,1.07s-1.15,1.55-1.15,2.5.31,1.79.93,2.5c.62.71,1.58,1.39,2.86,2.04,1.28.64,2.9,1.29,4.84,1.95,1.25.44,2.45.99,3.6,1.65,1.16.66,2.2,1.46,3.13,2.39.94.93,1.67,2.03,2.2,3.3.53,1.26.8,2.72.8,4.37,0,1.87-.37,3.54-1.1,5.01-.73,1.47-1.74,2.7-3.02,3.71-1.28,1.01-2.72,1.78-4.32,2.31-1.6.53-3.27.8-5.03.8-2.35,0-4.54-.45-6.57-1.35-2.04-.9-3.8-2.12-5.31-3.66-1.5-1.54-2.68-3.21-3.52-5l5.61-3.96c.81,1.43,1.7,2.68,2.67,3.74Z"/>
        <path class="cls-1" d="M92.62,43.11v38.5h-7.86v-38.5h7.86ZM87.34,57.58h28.27v7.1h-28.27v-7.1ZM118.47,43.11v38.5h-7.87v-38.5h7.87Z"/>
        <path class="cls-1" d="M136.95,43.11v38.5h-7.98v-38.5h7.98Z"/>
        <path class="cls-1" d="M155.32,43.11v38.5h-7.86v-38.5h7.86ZM152.24,43.11h8.14c3.04,0,5.63.51,7.75,1.54,2.13,1.03,3.76,2.46,4.89,4.29,1.14,1.83,1.71,3.98,1.71,6.43s-.57,4.56-1.71,6.41-2.77,3.29-4.89,4.32c-2.13,1.03-4.71,1.54-7.75,1.54h-8.14v-6.27h7.65c1.39,0,2.59-.23,3.6-.69,1.01-.46,1.79-1.12,2.34-1.98s.82-1.9.82-3.11-.27-2.25-.82-3.11c-.55-.86-1.33-1.52-2.34-1.98-1.01-.46-2.21-.69-3.6-.69h-7.65v-6.71ZM164.5,63.68l12.54,17.93h-9.29l-11.55-17.93h8.31Z"/>
        <path class="cls-1" d="M179.9,43.11h28.6v7.09h-10.4v31.41h-7.87v-31.41h-10.34v-7.09Z"/>
        <path class="cls-1" d="M221.18,72.43c.97,1.06,2.04,1.89,3.22,2.48,1.17.59,2.44.88,3.8.88,1.58,0,2.86-.4,3.85-1.21.99-.81,1.49-1.91,1.49-3.3,0-1.21-.3-2.18-.91-2.92-.6-.73-1.5-1.38-2.69-1.95-1.19-.57-2.65-1.18-4.37-1.84-.92-.33-1.97-.78-3.16-1.35-1.19-.57-2.32-1.3-3.38-2.2-1.06-.9-1.94-2-2.64-3.3-.7-1.3-1.04-2.87-1.04-4.7,0-2.2.56-4.1,1.68-5.69,1.12-1.6,2.64-2.82,4.56-3.69,1.92-.86,4.08-1.29,6.46-1.29s4.57.41,6.35,1.24c1.78.82,3.26,1.87,4.45,3.13,1.19,1.26,2.12,2.58,2.78,3.93l-6.16,3.41c-.51-.92-1.13-1.75-1.84-2.5-.71-.75-1.53-1.36-2.45-1.81-.92-.46-1.96-.69-3.13-.69-1.54,0-2.7.36-3.47,1.07s-1.15,1.55-1.15,2.5.31,1.79.93,2.5c.62.71,1.58,1.39,2.86,2.04,1.28.64,2.9,1.29,4.84,1.95,1.25.44,2.45.99,3.6,1.65,1.16.66,2.2,1.46,3.13,2.39.94.93,1.67,2.03,2.2,3.3.53,1.26.8,2.72.8,4.37,0,1.87-.37,3.54-1.1,5.01-.73,1.47-1.74,2.7-3.02,3.71-1.28,1.01-2.72,1.78-4.32,2.31-1.6.53-3.27.8-5.03.8-2.35,0-4.54-.45-6.57-1.35-2.04-.9-3.8-2.12-5.31-3.66-1.5-1.54-2.68-3.21-3.52-5l5.61-3.96c.81,1.43,1.7,2.68,2.67,3.74Z"/>
      </g>
    </g>
  </g>
</svg>