<?xml version="1.0" encoding="UTF-8"?>
<svg id="_レイヤー_2" data-name="レイヤー 2" xmlns="http://www.w3.org/2000/svg" viewBox="0 0 98.4 65.68">
  <defs>
    <style>
      .cls-1 {
        fill: #5aa0c8;
      }
    </style>
  </defs>
  <g id="_レイヤー_1-2" data-name="レイヤー 1">
    <g>
      <path class="cls-1" d="M98.4,47.86c-.92-15.67-2.66-31.28-5.19-46.78-.31-1.9-3.2-1.09-2.89.8,2.49,15.23,4.18,30.57,5.08,45.98.11,1.92,3.11,1.93,3,0h0Z"/>
      <path class="cls-1" d="M73.59,48.87c-7.66-8.09-15.58-15.95-23.73-23.54-1.41-1.32-3.54.8-2.12,2.12,8.15,7.6,16.07,15.45,23.73,23.54,1.33,1.4,3.45-.72,2.12-2.12h0Z"/>
      <path class="cls-1" d="M43.21,62.73c-13.97-3.78-27.65-8.56-40.91-14.36-1.75-.77-3.28,1.82-1.51,2.59,13.5,5.9,27.41,10.82,41.63,14.66,1.87.5,2.66-2.39.8-2.89h0Z"/>
    </g>
  </g>
</svg>