<?xml version="1.0" encoding="UTF-8"?>
<svg id="_レイヤー_2" data-name="レイヤー 2" xmlns="http://www.w3.org/2000/svg" viewBox="0 0 301.36 152.88">
  <defs>
    <style>
      .cls-1 {
        fill: #5aa0c8;
      }
    </style>
  </defs>
  <g id="_レイヤー_1-2" data-name="レイヤー 1">
    <g>
      <g>
        <path class="cls-1" d="M48.21,49.84l-7.43,27.42-5.65-.54,7.39-27.42,5.69.54Z"/>
        <path class="cls-1" d="M62.51,51.19l-7.03,11.87-3.38-.32,4.84-12.08,5.57.53Z"/>
        <path class="cls-1" d="M85.31,81.49l-5.14-.49,3.09-10.96c.11-.63.17-1.24.17-1.81,0-.58-.12-1.05-.37-1.42-.25-.37-.7-.59-1.36-.65-.66-.06-1.28.04-1.86.31-.57.27-1.05.65-1.44,1.15-.38.5-.67,1.1-.87,1.8l-2.98,11.05-5.06-.48,3.05-10.96c.14-.66.21-1.27.19-1.83-.01-.56-.14-1.03-.39-1.4-.25-.37-.69-.59-1.32-.65-.66-.06-1.27.03-1.83.27-.56.24-1.03.61-1.41,1.11-.38.5-.67,1.09-.87,1.77l-3.03,11.16-4.94-.47,4.89-18.02,4.94.47-.64,2.47c.45-.55.97-1.01,1.54-1.4.57-.39,1.19-.67,1.87-.85.67-.18,1.39-.23,2.16-.16.93.06,1.7.25,2.3.58.6.33,1.06.75,1.39,1.28.32.53.53,1.14.63,1.85.84-.94,1.8-1.65,2.87-2.14,1.08-.49,2.27-.67,3.57-.54,1.38.1,2.4.51,3.06,1.21.66.71,1.04,1.6,1.15,2.68.11,1.08.03,2.27-.26,3.55l-3.1,11.52Z"/>
        <path class="cls-1" d="M109.8,79.07c.54.51,1.1.92,1.69,1.22.59.31,1.2.48,1.84.52.64.06,1.19-.07,1.66-.39.47-.32.73-.74.78-1.27.07-.5-.03-.93-.32-1.28-.29-.35-.68-.67-1.17-.97-.49-.3-1.05-.6-1.66-.9-.74-.36-1.44-.81-2.1-1.32-.66-.52-1.17-1.16-1.53-1.91-.36-.76-.46-1.64-.31-2.64.19-1.19.65-2.13,1.38-2.84.72-.71,1.61-1.21,2.65-1.5,1.05-.29,2.13-.38,3.24-.27,1.51.14,2.83.56,3.96,1.24,1.13.68,2.09,1.49,2.88,2.42l-2.73,2.92c-.55-.75-1.19-1.4-1.94-1.95-.75-.55-1.55-.87-2.4-.95-.64-.06-1.17.03-1.59.27-.42.24-.67.59-.74,1.04-.07.42.04.8.33,1.14.29.33.7.65,1.24.94.53.29,1.08.58,1.64.88.87.46,1.64.95,2.33,1.49.69.53,1.21,1.17,1.57,1.9.36.73.46,1.62.31,2.68-.19,1.19-.64,2.2-1.33,3.03-.7.83-1.58,1.45-2.65,1.84-1.07.39-2.27.53-3.59.4-1.25-.12-2.38-.4-3.4-.84-1.02-.44-1.92-1-2.71-1.67-.79-.66-1.49-1.36-2.09-2.09l3.13-2.88c.55.67,1.1,1.26,1.64,1.76Z"/>
        <path class="cls-1" d="M127.86,71.3c1.2-1.33,2.64-2.33,4.32-3,1.68-.67,3.47-.92,5.35-.74,1.88.18,3.47.76,4.76,1.74,1.29.98,2.2,2.22,2.74,3.74.54,1.51.61,3.14.2,4.9-.41,1.81-1.22,3.38-2.42,4.71-1.2,1.33-2.64,2.33-4.32,3.01-1.68.67-3.48.92-5.39.73-1.86-.18-3.43-.75-4.72-1.71-1.29-.97-2.2-2.2-2.74-3.72-.54-1.51-.62-3.14-.24-4.9.44-1.83,1.26-3.42,2.46-4.75ZM130.54,79.07c.19.82.57,1.5,1.13,2.04.57.54,1.3.86,2.2.97.96.09,1.86-.06,2.71-.45.85-.39,1.59-.95,2.21-1.7.62-.75,1.04-1.58,1.26-2.49.22-.92.23-1.77.04-2.57-.19-.79-.57-1.47-1.13-2.04-.56-.56-1.31-.89-2.24-.98-.9-.11-1.79.03-2.65.43-.87.4-1.61.97-2.21,1.72-.61.75-1.03,1.59-1.28,2.53-.22.86-.23,1.71-.04,2.53Z"/>
        <path class="cls-1" d="M166.46,89.19l-5.1-.48,8.29-30.55,5.1.48-8.29,30.55ZM176.05,77.02c-.03-.55-.2-1.02-.51-1.4-.31-.38-.81-.62-1.5-.74-.74-.1-1.42,0-2.04.29-.62.29-1.15.7-1.58,1.24-.44.53-.77,1.12-.99,1.77l-1.07-.1c.37-1.33.92-2.55,1.67-3.66.75-1.11,1.68-1.98,2.8-2.61,1.12-.63,2.39-.88,3.83-.74,1.43.14,2.53.55,3.28,1.23.75.69,1.21,1.58,1.37,2.66.16,1.09.09,2.28-.22,3.59l-3.16,11.71-5.06-.48,3.01-10.96c.14-.66.2-1.26.17-1.81Z"/>
        <path class="cls-1" d="M187.88,77.04c1.1-1.34,2.42-2.37,3.95-3.08,1.53-.71,3.11-.98,4.76-.79,1.25.12,2.27.48,3.07,1.09.8.61,1.41,1.39,1.83,2.32.42.94.66,1.98.71,3.14.05,1.16-.06,2.35-.34,3.58-.28,1.29-.74,2.48-1.37,3.59-.63,1.1-1.37,2.06-2.24,2.86-.87.8-1.84,1.4-2.92,1.79-1.08.39-2.23.53-3.45.42-1.67-.16-3.04-.72-4.1-1.7-1.06-.97-1.79-2.2-2.18-3.7-.39-1.5-.39-3.1.01-4.8.41-1.81,1.17-3.38,2.28-4.73ZM190.8,84.85c.18.83.55,1.52,1.11,2.05.57.54,1.31.86,2.24.98.64.06,1.27-.01,1.91-.22.64-.21,1.24-.53,1.8-.97.56-.44,1.06-.96,1.48-1.57.42-.6.73-1.26.93-1.96.17-.71.23-1.37.17-1.99-.06-.62-.23-1.19-.5-1.72-.27-.52-.63-.95-1.08-1.29-.45-.34-.99-.55-1.63-.64-.93-.11-1.83.03-2.71.43-.88.4-1.65.98-2.29,1.73-.65.76-1.1,1.62-1.35,2.58-.22.89-.24,1.75-.06,2.58ZM207.78,74.63l-4.89,18.02-4.98-.47,4.85-18.02,5.02.48Z"/>
        <path class="cls-1" d="M206.76,101.86l7.27-26.63,5.02.48-7.15,26.6-5.14-.45ZM229,90.89c-1.11,1.38-2.43,2.43-3.95,3.14-1.53.71-3.13.99-4.8.83-1.25-.12-2.27-.49-3.07-1.11-.8-.62-1.39-1.42-1.76-2.38-.38-.96-.58-2.03-.6-3.21-.02-1.18.1-2.37.38-3.58.31-1.28.76-2.49,1.37-3.61.6-1.12,1.32-2.1,2.17-2.93.84-.83,1.8-1.46,2.87-1.88,1.07-.42,2.23-.57,3.48-.45,1.67.16,3.04.73,4.1,1.71,1.06.98,1.77,2.24,2.13,3.76.36,1.52.36,3.16-.03,4.92-.41,1.81-1.17,3.4-2.28,4.79ZM226.11,83.02c-.19-.78-.58-1.43-1.16-1.96-.58-.52-1.32-.84-2.22-.96-.64-.06-1.27,0-1.91.2-.64.19-1.23.51-1.8.93-.56.43-1.05.94-1.47,1.53-.42.59-.73,1.24-.93,1.94-.15.71-.19,1.37-.13,1.98.06.61.23,1.16.51,1.65.27.5.64.9,1.09,1.21.45.31,1,.51,1.63.6.95.12,1.86-.01,2.71-.38.85-.37,1.61-.93,2.27-1.65.66-.73,1.1-1.56,1.32-2.51.25-.94.28-1.8.08-2.58Z"/>
        <path class="cls-1" d="M231.61,104.22l7.27-26.63,5.02.48-7.15,26.6-5.14-.45ZM253.85,93.25c-1.11,1.38-2.43,2.43-3.95,3.14-1.53.71-3.13.99-4.8.83-1.25-.12-2.27-.49-3.07-1.11-.8-.63-1.39-1.42-1.76-2.38-.38-.96-.58-2.03-.6-3.21-.02-1.18.1-2.37.38-3.58.31-1.28.76-2.49,1.37-3.61.6-1.12,1.32-2.1,2.17-2.93.84-.83,1.8-1.46,2.87-1.88,1.07-.42,2.23-.57,3.48-.45,1.67.16,3.04.73,4.1,1.71,1.06.98,1.77,2.24,2.13,3.76.36,1.52.36,3.16-.03,4.92-.41,1.81-1.17,3.4-2.28,4.79ZM250.96,85.38c-.19-.78-.58-1.43-1.16-1.96-.58-.52-1.32-.84-2.22-.96-.64-.06-1.27,0-1.91.2-.64.19-1.23.51-1.8.94-.56.43-1.05.94-1.47,1.53s-.73,1.24-.93,1.94c-.15.71-.19,1.37-.13,1.98.06.61.23,1.16.51,1.65.27.5.64.9,1.09,1.21.45.31,1,.51,1.63.6.95.12,1.86-.01,2.71-.39.85-.37,1.61-.92,2.27-1.65.66-.73,1.1-1.56,1.32-2.51.25-.94.28-1.8.08-2.58Z"/>
        <path class="cls-1" d="M261.48,107.01l-5.34-.51,7.47-10.1-3.07-16.77,5.46.52,1.92,14.89-2.54-.36,9.5-13.68,5.42.51-18.81,25.5Z"/>
      </g>
      <path class="cls-1" d="M71,.01c-16.45,1.95-34.22,3.9-48.22,13.58C12.09,20.98,4.47,32.37,1.45,44.98S.04,71.08,6.69,82.2c4.5,7.52,10.83,13.7,15.61,21.02,4.28,6.56,8.14,15.58,4.6,23.3-1.45,3.17-3.94,5.84-7.01,7.5-1.49.81-3.14,1.37-4.82,1.57-.9.11-1.79-.03-2.68.02-.07,0-.53-.14-.28.03.28.19-.11-.23-.16-.32-.17-.34-.32-.63-.43-1-.83-2.83,1.12-5.86,3.32-7.5,3.26-2.43,7.82-2.39,11.68-1.88,4.56.61,9.05,1.89,13.52,2.93,4.74,1.1,9.49,2.2,14.24,3.27,9.35,2.11,18.73,4.16,28.12,6.1,18.78,3.87,37.65,7.3,56.64,9.95s38.1,4.53,57.27,5.26c18.65.71,37.74.92,56.1-2.86,15.47-3.18,30.91-9.72,42-21.29,2.52-2.63,4.78-5.53,6.71-8.62,1.02-1.64-1.57-3.15-2.59-1.51-8.3,13.31-22.71,21.7-37.42,26.14-18.09,5.46-37.31,5.76-56.05,5.4s-38.86-1.99-58.14-4.46-38.44-5.81-57.5-9.64-37.99-8.31-56.96-12.59c-7.51-1.69-17.07-2.88-22.18,4.27-1.82,2.55-2.57,5.94-1.25,8.87.28.63.68,1.4,1.2,1.86.71.63,1.98.6,2.89.63,1.73.06,3.51-.19,5.16-.72,7.04-2.23,12.11-8.71,12.85-15.99.88-8.68-3.65-16.97-8.65-23.7-5.04-6.79-11.06-12.98-14.86-20.61-2.84-5.69-4.37-12.02-4.61-18.37-.49-12.9,4.17-25.9,12.78-35.54,4.7-5.27,10.43-9.32,16.86-12.23,8.04-3.63,16.8-5.49,25.48-6.81,4.28-.66,8.58-1.17,12.88-1.68,1.89-.22,1.92-3.23,0-3h0Z"/>
    </g>
  </g>
</svg>