<?xml version="1.0" encoding="UTF-8"?>
<svg id="_レイヤー_2" data-name="レイヤー 2" xmlns="http://www.w3.org/2000/svg" viewBox="0 0 312.16 167.05">
  <defs>
    <style>
      .cls-1 {
        fill: #5aa0c8;
      }
    </style>
  </defs>
  <g id="_レイヤー_1-2" data-name="レイヤー 1">
    <g>
      <g>
        <path class="cls-1" d="M57.27,100.74c.51.21,1.02.35,1.51.42.49.06.97.02,1.43-.12.46-.13.82-.36,1.07-.71s.32-.71.22-1.1c-.08-.37-.27-.64-.56-.81s-.65-.29-1.08-.38c-.43-.08-.89-.15-1.4-.19-.62-.06-1.23-.19-1.83-.38-.6-.19-1.13-.5-1.58-.94-.45-.44-.75-1.03-.91-1.77-.18-.88-.11-1.67.22-2.36.32-.69.81-1.27,1.47-1.75.66-.48,1.39-.83,2.2-1.05,1.1-.3,2.14-.35,3.11-.17.97.18,1.86.5,2.66.94l-1.15,2.77c-.58-.38-1.21-.67-1.88-.86-.67-.19-1.32-.2-1.94-.04-.46.13-.81.33-1.05.61-.23.28-.32.59-.25.92.06.31.24.55.53.71.29.16.66.27,1.12.34.45.06.91.12,1.39.18.73.09,1.41.24,2.03.43.62.19,1.16.5,1.6.92.44.42.75,1.02.92,1.8.18.88.13,1.71-.14,2.48-.27.77-.73,1.43-1.37,1.99s-1.45.97-2.42,1.23c-.91.25-1.78.35-2.61.3-.83-.04-1.61-.2-2.34-.45-.73-.26-1.41-.56-2.02-.91l1.44-2.84c.56.32,1.1.59,1.62.81Z"/>
        <path class="cls-1" d="M72.41,96.11c.18.39.42.68.73.87.31.2.73.22,1.25.08.52-.14.97-.38,1.33-.7.37-.33.64-.73.82-1.2.18-.47.24-.98.18-1.52l-.77-8.59,3.71-1,1.29,13.95-3.71,1-.21-2.03c-.28.8-.7,1.5-1.27,2.08s-1.31,1.01-2.24,1.26c-1.04.28-1.93.28-2.66,0-.73-.29-1.31-.79-1.73-1.51-.42-.71-.69-1.56-.81-2.55l-.83-8.91,3.76-1.02.8,8.48c.05.48.16.92.34,1.31Z"/>
        <path class="cls-1" d="M104.81,91.54l-3.74,1.01-.72-8.51c-.09-.47-.21-.91-.36-1.32-.15-.4-.36-.71-.63-.9-.27-.2-.65-.23-1.13-.1-.48.13-.89.37-1.22.7-.33.34-.57.73-.7,1.19-.14.45-.18.95-.14,1.5l.82,8.54-3.68,1-.75-8.5c-.07-.5-.19-.94-.35-1.34-.16-.39-.37-.69-.64-.88-.27-.2-.64-.23-1.1-.11-.48.13-.89.35-1.22.67s-.56.7-.7,1.15c-.14.45-.19.94-.15,1.47l.81,8.64-3.59.97-1.32-13.94,3.59-.97.2,1.9c.17-.5.41-.97.71-1.39.3-.42.66-.79,1.09-1.09s.92-.53,1.48-.68c.67-.2,1.26-.27,1.76-.2.51.07.94.25,1.31.53.37.28.68.66.93,1.13.34-.88.83-1.63,1.46-2.26.63-.63,1.42-1.07,2.36-1.32,1-.29,1.82-.27,2.47.05.65.32,1.15.85,1.51,1.58.36.73.62,1.58.76,2.56l.86,8.91Z"/>
        <path class="cls-1" d="M128.67,85.08l-3.74,1.01-.72-8.51c-.09-.47-.21-.91-.36-1.32-.15-.4-.36-.7-.63-.9-.27-.2-.65-.23-1.13-.1-.48.13-.89.37-1.22.7-.33.34-.57.73-.71,1.19s-.18.95-.14,1.5l.82,8.54-3.68,1-.75-8.5c-.07-.5-.19-.94-.35-1.34-.16-.39-.37-.69-.64-.88-.27-.2-.64-.23-1.1-.11-.48.13-.89.35-1.22.67s-.56.7-.7,1.15c-.14.45-.19.94-.15,1.47l.81,8.64-3.59.97-1.32-13.94,3.59-.97.2,1.9c.17-.5.41-.97.71-1.39.3-.42.66-.79,1.09-1.09.43-.3.92-.53,1.48-.68.67-.2,1.26-.27,1.76-.2.51.07.94.25,1.31.53.37.28.68.66.93,1.13.34-.88.83-1.63,1.46-2.26.63-.62,1.42-1.07,2.36-1.32,1-.29,1.82-.27,2.47.05.65.32,1.15.85,1.52,1.58.36.73.62,1.58.76,2.56l.86,8.9Z"/>
        <path class="cls-1" d="M136.58,82.47c-1.08-.23-2-.72-2.78-1.48-.78-.76-1.34-1.78-1.68-3.06-.29-1.08-.37-2.15-.23-3.2.14-1.05.48-2.03,1.01-2.94.53-.91,1.23-1.7,2.11-2.37.87-.67,1.9-1.17,3.08-1.49,1.29-.35,2.44-.41,3.45-.19s1.85.71,2.55,1.45c.7.74,1.22,1.74,1.56,3,.08.31.14.65.18,1.02.04.37.04.7.02.97l-11.76,3.18-.63-2.32,8.89-2.41-.62,1.6c.04-.22.07-.46.09-.71.01-.25,0-.49-.06-.7-.16-.6-.39-1.08-.69-1.46-.3-.37-.66-.63-1.08-.76-.42-.14-.92-.12-1.5.03s-1.07.42-1.48.78c-.41.36-.73.79-.97,1.3-.23.51-.38,1.08-.42,1.71-.05.63,0,1.31.13,2.02.12.75.35,1.39.7,1.89.34.51.78.85,1.3,1.03s1.14.17,1.83-.01c.77-.21,1.42-.57,1.93-1.08.51-.51.9-1.11,1.14-1.8l3.46.15c-.4,1.37-1.09,2.55-2.09,3.53-1,.98-2.3,1.69-3.9,2.13-1.27.35-2.45.4-3.53.18Z"/>
        <path class="cls-1" d="M153.78,78.28l-3.65.99-1.32-13.94,3.65-.99,1.32,13.94ZM155.91,67.04c-.28-.07-.58-.06-.91.03-.51.12-.91.38-1.22.78-.31.4-.52.87-.63,1.4-.12.53-.14,1.07-.07,1.64l-1.1-.85c-.07-.95.02-1.92.29-2.89.26-.97.67-1.82,1.21-2.55.54-.73,1.19-1.19,1.97-1.4.48-.13.94-.15,1.37-.06.43.09.83.27,1.22.54l-1.27,3.67c-.28-.13-.56-.23-.84-.3Z"/>
        <path class="cls-1" d="M170.56,53.1c.34-.52.8-.85,1.4-1.02.64-.17,1.23-.12,1.77.16s.9.73,1.06,1.34c.16.6.08,1.16-.24,1.68-.32.52-.81.87-1.44,1.04-.6.16-1.17.1-1.73-.19-.55-.28-.91-.73-1.07-1.33-.17-.62-.08-1.18.25-1.7ZM174.89,59.09l1.32,13.94-3.59.97-1.38-13.92,3.65-.99Z"/>
        <path class="cls-1" d="M183.13,67.49c.51.21,1.02.35,1.51.41.49.06.97.02,1.43-.12.46-.13.82-.36,1.07-.71.25-.35.32-.71.22-1.1-.08-.37-.27-.64-.56-.81s-.65-.29-1.08-.38-.89-.15-1.4-.19c-.62-.06-1.23-.19-1.83-.38-.6-.19-1.13-.5-1.58-.94-.45-.44-.76-1.03-.92-1.77-.18-.88-.11-1.67.22-2.36.32-.69.81-1.27,1.47-1.75.66-.48,1.39-.83,2.2-1.05,1.1-.3,2.14-.35,3.11-.17.97.18,1.86.5,2.66.94l-1.15,2.77c-.58-.38-1.21-.67-1.88-.86-.67-.19-1.32-.2-1.94-.04-.46.13-.81.33-1.05.61-.23.28-.32.59-.25.92.06.31.24.55.53.71.29.16.66.27,1.12.34.45.06.91.12,1.39.18.73.09,1.41.24,2.03.43.62.19,1.16.5,1.6.92.44.42.75,1.02.92,1.8.18.88.13,1.71-.14,2.48-.27.77-.73,1.43-1.37,1.99-.65.56-1.45.97-2.42,1.23-.91.25-1.78.35-2.61.3-.83-.04-1.61-.2-2.34-.45-.73-.26-1.41-.56-2.02-.91l1.44-2.84c.56.32,1.1.59,1.62.81Z"/>
        <path class="cls-1" d="M139.13,106.66c.37.52.85.89,1.43,1.1s1.24.23,1.96.06c.87-.22,1.65-.64,2.32-1.26.67-.63,1.18-1.3,1.52-2.01l.51,3.96c-.45.56-1.01,1.06-1.69,1.5-.68.44-1.46.78-2.35,1.02-1.35.37-2.62.38-3.79.05-1.18-.33-2.16-.96-2.93-1.88-.78-.92-1.25-2.05-1.43-3.39-.19-1.4-.04-2.72.45-3.98.49-1.25,1.24-2.34,2.26-3.25,1.02-.92,2.23-1.57,3.64-1.95.85-.23,1.65-.32,2.41-.28.76.04,1.45.21,2.09.49l.52,3.99c-.52-.56-1.16-.94-1.91-1.15-.75-.2-1.52-.19-2.31.02-.75.2-1.4.57-1.93,1.1-.53.53-.93,1.14-1.18,1.83-.26.69-.35,1.41-.27,2.16.09.72.32,1.34.69,1.86Z"/>
        <path class="cls-1" d="M150.09,97.79c.49-1.25,1.24-2.33,2.24-3.25,1.01-.91,2.19-1.56,3.56-1.93,1.37-.37,2.64-.38,3.8-.03,1.16.35,2.13.98,2.91,1.9.78.92,1.25,2.05,1.43,3.39.19,1.38.04,2.69-.45,3.95-.49,1.25-1.24,2.33-2.24,3.25-1.01.91-2.2,1.56-3.59,1.94-1.35.37-2.61.38-3.76.04-1.16-.34-2.13-.97-2.9-1.89-.78-.92-1.26-2.05-1.46-3.38-.17-1.4-.01-2.73.48-3.98ZM154.02,102.54c.35.53.79.9,1.33,1.13.54.23,1.14.26,1.8.1.69-.19,1.29-.53,1.79-1.03s.87-1.09,1.1-1.78c.24-.69.32-1.38.23-2.08-.09-.7-.3-1.31-.65-1.81s-.79-.88-1.33-1.13c-.54-.25-1.15-.28-1.83-.1-.66.16-1.25.49-1.75,1-.5.51-.87,1.11-1.1,1.79-.23.68-.31,1.39-.24,2.11.08.66.29,1.26.64,1.79Z"/>
        <path class="cls-1" d="M187.5,98.66l-3.74,1.01-.72-8.51c-.09-.47-.21-.91-.36-1.32-.15-.4-.36-.7-.63-.9-.27-.2-.65-.23-1.13-.1-.48.13-.89.37-1.22.7-.33.34-.57.73-.7,1.19-.14.45-.18.95-.14,1.5l.82,8.54-3.68,1-.75-8.5c-.07-.5-.19-.94-.35-1.34-.16-.39-.37-.69-.64-.88s-.64-.23-1.1-.11c-.48.13-.89.35-1.22.67s-.56.7-.7,1.15c-.14.45-.19.94-.15,1.47l.81,8.64-3.59.97-1.32-13.94,3.59-.97.2,1.9c.17-.5.41-.97.71-1.39.3-.42.66-.79,1.09-1.09.43-.3.92-.53,1.48-.68.67-.2,1.26-.27,1.76-.2.51.07.94.25,1.31.53.37.28.68.66.93,1.13.34-.88.83-1.63,1.46-2.26.63-.63,1.42-1.07,2.36-1.32,1-.29,1.82-.28,2.47.05.65.32,1.15.85,1.51,1.58.36.73.62,1.58.76,2.56l.86,8.91Z"/>
        <path class="cls-1" d="M190.4,76.42c.34-.52.8-.85,1.4-1.02.64-.17,1.23-.12,1.77.16.54.28.9.73,1.06,1.34.16.6.08,1.16-.24,1.68-.33.52-.81.87-1.44,1.04-.6.16-1.17.1-1.73-.18-.55-.29-.91-.73-1.07-1.33-.17-.62-.08-1.18.25-1.7ZM194.73,82.41l1.32,13.94-3.59.97-1.38-13.92,3.65-.99Z"/>
        <path class="cls-1" d="M208.18,82.93c-.18-.39-.43-.68-.75-.87s-.75-.22-1.29-.07c-.5.14-.94.37-1.31.71-.37.34-.64.74-.81,1.21-.16.47-.21.97-.15,1.52l.8,8.58-3.71,1-1.32-13.94,3.71-1,.23,1.99c.27-.82.7-1.51,1.27-2.08.57-.57,1.31-.98,2.22-1.22,1.06-.31,1.95-.31,2.67,0,.72.3,1.3.8,1.73,1.51.43.7.71,1.55.83,2.56l.83,8.91-3.79,1.03-.78-8.49c-.07-.5-.2-.94-.38-1.33Z"/>
        <path class="cls-1" d="M216.63,79.7c.42-1.22,1.08-2.27,1.96-3.14.88-.87,1.93-1.46,3.13-1.76.89-.24,1.7-.26,2.42-.06s1.36.56,1.9,1.1c.54.54.98,1.2,1.33,1.97.35.78.59,1.64.72,2.6.14.98.13,1.93-.02,2.85s-.43,1.77-.83,2.56c-.4.78-.93,1.45-1.59,2-.66.55-1.43.95-2.32,1.19-1.2.32-2.3.3-3.3-.08-1-.38-1.84-1.04-2.5-1.96-.67-.93-1.08-2.05-1.26-3.37-.18-1.36-.06-2.65.37-3.88ZM220.85,90.63c.15.56.38,1.02.69,1.38s.7.6,1.17.72c.48.12,1.03.1,1.64-.07.71-.19,1.33-.54,1.84-1.02.51-.49.88-1.1,1.12-1.83s.31-1.49.22-2.3l-1.27-13.64,3.59-.97,1.3,13.63c.18,1.52.05,2.92-.39,4.18-.45,1.26-1.15,2.33-2.1,3.2-.96.87-2.13,1.49-3.52,1.87-1.39.38-2.62.45-3.7.22s-1.97-.72-2.67-1.48c-.7-.76-1.2-1.74-1.48-2.93l3.56-.96ZM220.73,84.39c.33.51.77.87,1.32,1.07s1.14.22,1.8.04c.47-.11.9-.31,1.29-.61.39-.3.74-.68,1.03-1.12.29-.44.5-.93.63-1.46.12-.53.17-1.07.12-1.62-.06-.52-.2-.99-.41-1.41-.22-.42-.49-.76-.81-1.04-.32-.27-.68-.46-1.08-.56s-.83-.1-1.3.01c-.69.19-1.3.52-1.81,1-.51.48-.89,1.06-1.15,1.74-.25.68-.34,1.39-.26,2.14.09.7.3,1.31.63,1.82Z"/>
        <path class="cls-1" d="M238.92,62.99l.59,14.7-2.98.81-2.18-14.26,4.58-1.24ZM236.41,82.02c.34-.54.85-.9,1.53-1.08.68-.18,1.3-.13,1.86.16.57.29.94.76,1.11,1.39.17.64.09,1.22-.25,1.76-.34.54-.85.9-1.53,1.08-.68.18-1.3.13-1.86-.16s-.94-.76-1.11-1.39c-.17-.64-.09-1.22.25-1.76Z"/>
      </g>
      <path class="cls-1" d="M255.73,3.73c4.16-2.5,8.76,1.91,11.25,4.91,3.29,3.96,6.12,8.58,8.34,13.22,4.07,8.49,5.5,18.45.66,26.94-2.32,4.08-5.91,7.32-10.49,8.57-1.86.51-1.07,3.4.8,2.89,6.81-1.86,13.21,3.35,15.78,9.35,2.93,6.85.3,14.46-3.96,20.11-2.57,3.41-5.83,6.31-9.34,8.73-.78.54-1.03,1.64-.3,2.36,4.82,4.73,11.46,6.92,18.11,7.25,8,.4,15.84-1.9,23.43-4.12l-1.16-2.74c-11.47,8.43-25.84,12.29-40,10.74-.48-.05-1.09.31-1.3.74-5.95,12.49-16.37,22.45-29.1,27.86-.75.32-.9,1.41-.54,2.05.44.78,1.31.85,2.05.54,13.13-5.58,24.04-16.05,30.17-28.93l-1.3.74c14.6,1.6,29.68-2.45,41.51-11.15,1.29-.95.59-3.26-1.16-2.74-12.26,3.6-28.21,7.87-38.62-2.35l-.3,2.36c6.97-4.79,13.3-11.55,15.37-19.97,1.97-8.03-.95-16.37-7.7-21.23-3.61-2.6-8.14-3.65-12.46-2.47l.8,2.89c9.6-2.61,15.21-12.4,15.79-21.88.35-5.68-1.19-11.34-3.45-16.5-2.38-5.41-5.66-10.65-9.4-15.22-3.45-4.22-9.47-8.85-15.01-5.52-1.65.99-.15,3.59,1.51,2.59h0Z"/>
      <path class="cls-1" d="M20.58,90.38C7.36,96.18-1.7,109.83.27,124.45c.97,7.19,4.61,13.69,10.24,18.28s12.19,7.15,19.09,8.3c9.85,1.64,19.82.54,29.66-.61l-1.3-2.26c-2.5,4.52-.43,9.99,3.41,13.03,4.11,3.26,9.71,4.5,14.8,5.24,10.31,1.51,20.98.25,30.64-3.67,5.51-2.23,10.61-5.26,15.19-9.05l-2.51-1.46c-1.04,2.73.26,5.74,2.44,7.51,2.73,2.23,6.45,2.26,9.77,1.87,7.51-.9,14.9-2.79,21.95-5.53,1.78-.69,1.01-3.59-.8-2.89-5.92,2.3-12.06,4-18.34,5.01-2.87.47-6.1,1.1-8.93.17-2.2-.72-4.11-2.96-3.2-5.34.59-1.55-1.48-2.3-2.51-1.46-7.23,5.97-16.02,9.89-25.23,11.58-4.59.84-9.3,1.09-13.96.76s-9.43-1.15-13.71-2.93-9.15-6.4-6.43-11.33c.5-.9-.11-2.4-1.3-2.26-14.64,1.71-30.78,3.5-43.86-4.83-5.62-3.58-9.86-8.9-11.55-15.39s-.83-13.85,2.4-19.89c3.45-6.46,9.18-11.41,15.85-14.33,1.76-.77.24-3.36-1.51-2.59h0Z"/>
    </g>
  </g>
</svg>