<?xml version="1.0" encoding="UTF-8"?>
<svg id="_レイヤー_2" data-name="レイヤー 2" xmlns="http://www.w3.org/2000/svg" viewBox="0 0 401.55 82.69">
  <defs>
    <style>
      .cls-1 {
        fill: #5aa0c8;
      }
    </style>
  </defs>
  <g id="_レイヤー_1-2" data-name="レイヤー 1">
    <g>
      <g>
        <path class="cls-1" d="M140.72.36v21.38h9.54v1.72h-11.35V.36h1.81Z"/>
        <path class="cls-1" d="M152.03,7.21c.57-1.44,1.37-2.69,2.41-3.76,1.03-1.07,2.25-1.9,3.65-2.49,1.4-.59,2.92-.89,4.57-.89s3.17.3,4.57.89c1.4.59,2.61,1.42,3.65,2.49,1.03,1.07,1.84,2.32,2.41,3.76.57,1.44.86,3.01.86,4.7s-.29,3.26-.86,4.7c-.57,1.44-1.38,2.7-2.41,3.76-1.03,1.07-2.25,1.9-3.65,2.49-1.4.59-2.92.89-4.57.89s-3.17-.3-4.57-.89c-1.4-.59-2.61-1.42-3.65-2.49-1.03-1.07-1.84-2.32-2.41-3.76-.57-1.44-.86-3.01-.86-4.7s.29-3.26.86-4.7ZM154.33,17.06c.82,1.52,1.96,2.71,3.4,3.58,1.44.87,3.09,1.3,4.93,1.3s3.49-.43,4.93-1.3c1.44-.87,2.57-2.06,3.38-3.58.81-1.52,1.22-3.23,1.22-5.15s-.41-3.66-1.22-5.16c-.81-1.51-1.94-2.69-3.38-3.56-1.44-.87-3.09-1.3-4.93-1.3s-3.49.43-4.93,1.3c-1.44.87-2.57,2.06-3.4,3.56-.82,1.51-1.24,3.23-1.24,5.16s.41,3.63,1.24,5.15Z"/>
        <path class="cls-1" d="M177.91,7.21c.57-1.44,1.37-2.69,2.41-3.76,1.03-1.07,2.25-1.9,3.65-2.49s2.92-.89,4.57-.89,3.17.3,4.57.89c1.4.59,2.61,1.42,3.65,2.49,1.03,1.07,1.84,2.32,2.41,3.76.57,1.44.86,3.01.86,4.7s-.29,3.26-.86,4.7c-.57,1.44-1.38,2.7-2.41,3.76-1.03,1.07-2.25,1.9-3.65,2.49-1.4.59-2.92.89-4.57.89s-3.17-.3-4.57-.89-2.61-1.42-3.65-2.49c-1.03-1.07-1.84-2.32-2.41-3.76-.57-1.44-.86-3.01-.86-4.7s.29-3.26.86-4.7ZM180.2,17.06c.83,1.52,1.96,2.71,3.4,3.58,1.44.87,3.08,1.3,4.93,1.3s3.49-.43,4.93-1.3c1.44-.87,2.57-2.06,3.38-3.58.81-1.52,1.22-3.23,1.22-5.15s-.41-3.66-1.22-5.16c-.81-1.51-1.94-2.69-3.38-3.56-1.44-.87-3.09-1.3-4.93-1.3s-3.49.43-4.93,1.3c-1.44.87-2.57,2.06-3.4,3.56-.82,1.51-1.24,3.23-1.24,5.16s.41,3.63,1.24,5.15Z"/>
        <path class="cls-1" d="M205.99.36v23.1h-1.81V.36h1.81ZM217.87.36l-10.16,10.82,10.66,12.28h-2.31l-10.59-12.24L215.56.36h2.31Z"/>
        <path class="cls-1" d="M231.07,5.84c.66-1.78,1.59-3.2,2.8-4.24,1.21-1.04,2.63-1.57,4.26-1.57s3.05.52,4.26,1.57c1.21,1.05,2.15,2.46,2.81,4.24.66,1.78.99,3.81.99,6.07s-.33,4.29-.99,6.07c-.66,1.78-1.6,3.2-2.81,4.24-1.21,1.05-2.63,1.57-4.26,1.57s-3.05-.52-4.26-1.57c-1.21-1.04-2.14-2.46-2.8-4.24-.66-1.78-.99-3.81-.99-6.07s.33-4.29.99-6.07ZM232.32,15.91c.29,1.23.7,2.31,1.24,3.23s1.19,1.64,1.96,2.16c.77.52,1.64.78,2.61.78s1.86-.26,2.62-.78c.76-.52,1.41-1.24,1.95-2.16.54-.92.95-2,1.24-3.23.29-1.23.43-2.56.43-3.99s-.14-2.76-.43-3.99c-.29-1.23-.7-2.31-1.24-3.23-.54-.92-1.19-1.64-1.95-2.16s-1.63-.78-2.62-.78-1.84.26-2.61.78c-.77.52-1.42,1.24-1.96,2.16s-.95,2-1.24,3.23c-.29,1.23-.43,2.56-.43,3.99s.14,2.76.43,3.99Z"/>
        <path class="cls-1" d="M259.22,12.08c.51-.57.96-1.13,1.37-1.68.41-.55.73-1.14.96-1.77.23-.63.35-1.3.35-2.03,0-.57-.1-1.14-.3-1.72s-.51-1.09-.92-1.57c-.42-.47-.94-.86-1.57-1.16-.63-.3-1.37-.45-2.23-.45-1.12,0-2.09.27-2.9.81-.81.54-1.44,1.3-1.88,2.29-.44.99-.66,2.15-.66,3.47h-1.81c0-1.65.29-3.1.87-4.34.58-1.24,1.42-2.21,2.51-2.9,1.09-.69,2.38-1.04,3.88-1.04,1.21,0,2.25.21,3.12.63s1.58.95,2.15,1.6.97,1.35,1.24,2.11c.26.76.4,1.49.4,2.19,0,1.25-.3,2.43-.91,3.53-.61,1.1-1.35,2.1-2.23,3l-8.42,8.68h11.98v1.72h-15.77l10.79-11.39Z"/>
      </g>
      <g>
        <path class="cls-1" d="M8.28,72.46c.97,1.06,2.04,1.89,3.22,2.47,1.17.59,2.44.88,3.79.88,1.58,0,2.86-.4,3.85-1.21.99-.81,1.48-1.91,1.48-3.3,0-1.21-.3-2.18-.91-2.92-.6-.73-1.5-1.38-2.69-1.95-1.19-.57-2.65-1.18-4.37-1.84-.92-.33-1.97-.78-3.16-1.35-1.19-.57-2.32-1.3-3.38-2.2-1.06-.9-1.94-2-2.64-3.3-.7-1.3-1.04-2.87-1.04-4.7,0-2.2.56-4.1,1.68-5.69,1.12-1.6,2.64-2.82,4.57-3.69,1.92-.86,4.08-1.29,6.46-1.29s4.57.41,6.35,1.24c1.78.83,3.26,1.87,4.46,3.13,1.19,1.27,2.12,2.58,2.78,3.93l-6.16,3.41c-.51-.92-1.13-1.75-1.84-2.5-.71-.75-1.53-1.36-2.45-1.81-.92-.46-1.96-.69-3.14-.69-1.54,0-2.69.36-3.47,1.07-.77.71-1.15,1.55-1.15,2.5s.31,1.79.94,2.5c.62.71,1.58,1.39,2.86,2.04,1.28.64,2.9,1.29,4.84,1.95,1.25.44,2.45.99,3.6,1.65,1.15.66,2.2,1.46,3.13,2.39.94.93,1.67,2.04,2.2,3.3.53,1.27.8,2.72.8,4.37,0,1.87-.37,3.54-1.1,5.01-.73,1.47-1.74,2.7-3.02,3.71-1.28,1.01-2.72,1.78-4.32,2.31-1.6.53-3.27.8-5.03.8-2.35,0-4.54-.45-6.57-1.35-2.04-.9-3.8-2.12-5.31-3.66-1.5-1.54-2.68-3.21-3.52-5l5.61-3.96c.81,1.43,1.7,2.68,2.67,3.74Z"/>
        <path class="cls-1" d="M47.13,68.88l.17,1.76-5.06,11h-8.85l19.52-40.75,19.53,40.75h-8.91l-4.95-10.67.11-1.98-5.78-13.37-5.77,13.25ZM43.78,66.68h18.48l.94,6.21h-20.35l.94-6.21Z"/>
        <path class="cls-1" d="M86.79,43.14v38.5h-7.97v-38.5h7.97Z"/>
        <path class="cls-1" d="M105.16,43.14v31.62h15.35v6.88h-23.21v-38.5h7.86Z"/>
        <path class="cls-1" d="M124.9,54.34c1.03-2.44,2.46-4.56,4.29-6.35,1.83-1.8,3.99-3.18,6.46-4.15,2.48-.97,5.16-1.46,8.06-1.46s5.63.49,8.08,1.46c2.46.97,4.61,2.36,6.46,4.15,1.85,1.8,3.28,3.91,4.29,6.35,1.01,2.44,1.51,5.12,1.51,8.06s-.5,5.58-1.51,8.06c-1.01,2.48-2.42,4.63-4.23,6.46-1.82,1.83-3.96,3.25-6.44,4.26s-5.2,1.51-8.17,1.51-5.69-.5-8.17-1.51-4.63-2.43-6.46-4.26c-1.83-1.83-3.25-3.99-4.24-6.46-.99-2.47-1.48-5.16-1.48-8.06s.51-5.62,1.54-8.06ZM133.21,68.94c1.03,1.91,2.44,3.41,4.23,4.51,1.8,1.1,3.89,1.65,6.27,1.65s4.47-.55,6.27-1.65c1.8-1.1,3.2-2.6,4.21-4.51,1.01-1.91,1.51-4.09,1.51-6.54s-.5-4.64-1.49-6.54c-.99-1.91-2.38-3.41-4.18-4.51-1.8-1.1-3.91-1.65-6.33-1.65s-4.47.55-6.27,1.65c-1.8,1.1-3.21,2.6-4.23,4.51-1.03,1.91-1.54,4.09-1.54,6.54s.51,4.64,1.54,6.54Z"/>
        <path class="cls-1" d="M180.23,43.14v38.5h-7.86v-38.5h7.86ZM177.15,43.14h8.14c3.04,0,5.63.51,7.75,1.54,2.13,1.03,3.76,2.46,4.9,4.29,1.14,1.83,1.71,3.98,1.71,6.44s-.57,4.56-1.71,6.41c-1.14,1.85-2.77,3.29-4.9,4.32-2.13,1.03-4.71,1.54-7.75,1.54h-8.14v-6.27h7.64c1.39,0,2.59-.23,3.6-.69,1.01-.46,1.79-1.12,2.34-1.98.55-.86.82-1.9.82-3.11s-.27-2.25-.82-3.11c-.55-.86-1.33-1.52-2.34-1.98-1.01-.46-2.21-.69-3.6-.69h-7.64v-6.71ZM189.42,63.71l12.54,17.93h-9.29l-11.55-17.93h8.3Z"/>
        <path class="cls-1" d="M235.4,43.14v38.5h-8.03v-38.5h8.03ZM232.43,81.64v-7.15h7.76c1.69,0,3.28-.23,4.78-.69,1.5-.46,2.82-1.18,3.96-2.17,1.14-.99,2.03-2.25,2.67-3.77.64-1.52.96-3.35.96-5.47s-.32-3.95-.96-5.47c-.64-1.52-1.53-2.78-2.67-3.77-1.14-.99-2.46-1.71-3.96-2.17-1.5-.46-3.1-.69-4.78-.69h-7.76v-7.15h8.03c4.03,0,7.56.79,10.59,2.37,3.02,1.58,5.38,3.8,7.07,6.68,1.69,2.88,2.53,6.28,2.53,10.2s-.84,7.32-2.53,10.2c-1.69,2.88-4.04,5.11-7.07,6.68-3.03,1.58-6.55,2.36-10.59,2.36h-8.03Z"/>
        <path class="cls-1" d="M276.81,43.14v38.5h-7.87v-38.5h7.87ZM273.73,43.14h8.14c3.04,0,5.63.51,7.76,1.54,2.13,1.03,3.76,2.46,4.89,4.29,1.14,1.83,1.71,3.98,1.71,6.44s-.57,4.56-1.71,6.41c-1.14,1.85-2.77,3.29-4.89,4.32-2.13,1.03-4.71,1.54-7.76,1.54h-8.14v-6.27h7.65c1.39,0,2.59-.23,3.6-.69,1.01-.46,1.79-1.12,2.34-1.98.55-.86.83-1.9.83-3.11s-.27-2.25-.83-3.11c-.55-.86-1.33-1.52-2.34-1.98-1.01-.46-2.21-.69-3.6-.69h-7.65v-6.71ZM286,63.71l12.54,17.93h-9.29l-11.55-17.93h8.31Z"/>
        <path class="cls-1" d="M312.84,43.14v38.5h-7.59v-38.5h7.59ZM310.31,43.14h19.42v6.66h-19.42v-6.66ZM310.31,57.94h18.31v6.55h-18.31v-6.55ZM310.31,74.99h19.42v6.65h-19.42v-6.65Z"/>
        <path class="cls-1" d="M345.7,72.46c.97,1.06,2.04,1.89,3.22,2.47,1.17.59,2.44.88,3.79.88,1.58,0,2.86-.4,3.85-1.21.99-.81,1.48-1.91,1.48-3.3,0-1.21-.3-2.18-.91-2.92-.6-.73-1.5-1.38-2.7-1.95s-2.65-1.18-4.37-1.84c-.92-.33-1.97-.78-3.16-1.35-1.19-.57-2.32-1.3-3.38-2.2-1.06-.9-1.94-2-2.64-3.3-.7-1.3-1.04-2.87-1.04-4.7,0-2.2.56-4.1,1.68-5.69,1.12-1.6,2.64-2.82,4.56-3.69,1.93-.86,4.08-1.29,6.46-1.29s4.57.41,6.35,1.24c1.78.83,3.26,1.87,4.46,3.13,1.19,1.27,2.12,2.58,2.78,3.93l-6.16,3.41c-.51-.92-1.13-1.75-1.84-2.5-.72-.75-1.53-1.36-2.45-1.81-.92-.46-1.96-.69-3.14-.69-1.54,0-2.69.36-3.46,1.07s-1.16,1.55-1.16,2.5.31,1.79.94,2.5c.62.71,1.58,1.39,2.86,2.04,1.28.64,2.9,1.29,4.84,1.95,1.25.44,2.45.99,3.6,1.65s2.2,1.46,3.14,2.39c.93.93,1.67,2.04,2.2,3.3.53,1.27.8,2.72.8,4.37,0,1.87-.37,3.54-1.1,5.01-.73,1.47-1.74,2.7-3.03,3.71-1.28,1.01-2.72,1.78-4.32,2.31-1.59.53-3.27.8-5.03.8-2.35,0-4.54-.45-6.57-1.35-2.03-.9-3.8-2.12-5.31-3.66-1.5-1.54-2.68-3.21-3.52-5l5.61-3.96c.81,1.43,1.7,2.68,2.67,3.74Z"/>
        <path class="cls-1" d="M380.95,72.46c.97,1.06,2.04,1.89,3.22,2.47,1.17.59,2.44.88,3.79.88,1.58,0,2.86-.4,3.85-1.21.99-.81,1.48-1.91,1.48-3.3,0-1.21-.3-2.18-.91-2.92-.6-.73-1.5-1.38-2.7-1.95s-2.65-1.18-4.37-1.84c-.92-.33-1.97-.78-3.16-1.35-1.19-.57-2.32-1.3-3.38-2.2-1.06-.9-1.94-2-2.64-3.3-.7-1.3-1.04-2.87-1.04-4.7,0-2.2.56-4.1,1.68-5.69,1.12-1.6,2.64-2.82,4.56-3.69,1.93-.86,4.08-1.29,6.46-1.29s4.57.41,6.35,1.24c1.78.83,3.26,1.87,4.46,3.13,1.19,1.27,2.12,2.58,2.78,3.93l-6.16,3.41c-.51-.92-1.13-1.75-1.84-2.5-.72-.75-1.53-1.36-2.45-1.81-.92-.46-1.96-.69-3.14-.69-1.54,0-2.69.36-3.46,1.07s-1.16,1.55-1.16,2.5.31,1.79.94,2.5c.62.71,1.58,1.39,2.86,2.04,1.28.64,2.9,1.29,4.84,1.95,1.25.44,2.45.99,3.6,1.65s2.2,1.46,3.14,2.39c.93.93,1.67,2.04,2.2,3.3.53,1.27.8,2.72.8,4.37,0,1.87-.37,3.54-1.1,5.01-.73,1.47-1.74,2.7-3.03,3.71-1.28,1.01-2.72,1.78-4.32,2.31-1.59.53-3.27.8-5.03.8-2.35,0-4.54-.45-6.57-1.35-2.03-.9-3.8-2.12-5.31-3.66-1.5-1.54-2.68-3.21-3.52-5l5.61-3.96c.81,1.43,1.7,2.68,2.67,3.74Z"/>
      </g>
    </g>
  </g>
</svg>