<?xml version="1.0" encoding="UTF-8"?>
<svg id="_レイヤー_2" data-name="レイヤー 2" xmlns="http://www.w3.org/2000/svg" viewBox="0 0 241.78 82.66">
  <defs>
    <style>
      .cls-1 {
        fill: #5aa0c8;
      }
    </style>
  </defs>
  <g id="_レイヤー_1-2" data-name="レイヤー 1">
    <g>
      <g>
        <path class="cls-1" d="M61.84.33v21.38h9.54v1.72h-11.35V.33h1.81Z"/>
        <path class="cls-1" d="M73.16,7.18c.57-1.44,1.37-2.69,2.41-3.76,1.03-1.07,2.25-1.9,3.65-2.49,1.4-.59,2.92-.89,4.57-.89s3.17.3,4.57.89c1.4.59,2.61,1.42,3.65,2.49s1.84,2.32,2.41,3.76c.57,1.44.86,3.01.86,4.7s-.29,3.26-.86,4.7c-.57,1.44-1.38,2.7-2.41,3.76-1.03,1.07-2.25,1.9-3.65,2.49-1.4.59-2.92.89-4.57.89s-3.17-.3-4.57-.89c-1.4-.59-2.61-1.42-3.65-2.49-1.03-1.07-1.84-2.32-2.41-3.76-.57-1.44-.86-3.01-.86-4.7s.29-3.26.86-4.7ZM75.45,17.03c.82,1.52,1.96,2.71,3.4,3.58,1.44.87,3.09,1.3,4.93,1.3s3.49-.43,4.93-1.3c1.44-.87,2.57-2.06,3.38-3.58s1.22-3.23,1.22-5.15-.41-3.66-1.22-5.16c-.81-1.51-1.94-2.69-3.38-3.56-1.44-.87-3.09-1.3-4.93-1.3s-3.49.43-4.93,1.3c-1.44.87-2.57,2.06-3.4,3.56-.82,1.51-1.24,3.23-1.24,5.16s.41,3.63,1.24,5.15Z"/>
        <path class="cls-1" d="M99.03,7.18c.57-1.44,1.37-2.69,2.41-3.76,1.03-1.07,2.25-1.9,3.65-2.49,1.4-.59,2.92-.89,4.57-.89s3.17.3,4.57.89c1.4.59,2.61,1.42,3.65,2.49,1.03,1.07,1.84,2.32,2.41,3.76.57,1.44.86,3.01.86,4.7s-.29,3.26-.86,4.7c-.57,1.44-1.38,2.7-2.41,3.76-1.03,1.07-2.25,1.9-3.65,2.49-1.4.59-2.92.89-4.57.89s-3.17-.3-4.57-.89c-1.4-.59-2.61-1.42-3.65-2.49-1.03-1.07-1.84-2.32-2.41-3.76-.57-1.44-.86-3.01-.86-4.7s.29-3.26.86-4.7ZM101.32,17.03c.83,1.52,1.96,2.71,3.4,3.58,1.44.87,3.08,1.3,4.93,1.3s3.49-.43,4.93-1.3c1.44-.87,2.57-2.06,3.38-3.58s1.22-3.23,1.22-5.15-.41-3.66-1.22-5.16c-.81-1.51-1.94-2.69-3.38-3.56-1.44-.87-3.09-1.3-4.93-1.3s-3.49.43-4.93,1.3c-1.44.87-2.57,2.06-3.4,3.56-.82,1.51-1.24,3.23-1.24,5.16s.41,3.63,1.24,5.15Z"/>
        <path class="cls-1" d="M127.11.33v23.1h-1.81V.33h1.81ZM138.99.33l-10.16,10.82,10.66,12.28h-2.31l-10.59-12.24L136.68.33h2.31Z"/>
        <path class="cls-1" d="M152.19,5.81c.66-1.78,1.59-3.2,2.8-4.24,1.21-1.04,2.63-1.57,4.26-1.57s3.05.52,4.26,1.57c1.21,1.05,2.15,2.46,2.81,4.24s.99,3.81.99,6.07-.33,4.29-.99,6.07c-.66,1.78-1.6,3.2-2.81,4.24-1.21,1.05-2.63,1.57-4.26,1.57s-3.05-.52-4.26-1.57c-1.21-1.04-2.14-2.46-2.8-4.24-.66-1.78-.99-3.81-.99-6.07s.33-4.29.99-6.07ZM153.45,15.87c.29,1.23.7,2.31,1.24,3.23s1.19,1.64,1.96,2.16c.77.52,1.64.78,2.61.78s1.86-.26,2.62-.78c.76-.52,1.41-1.24,1.95-2.16.54-.92.95-2,1.24-3.23.29-1.23.43-2.56.43-3.99s-.14-2.76-.43-3.99c-.29-1.23-.7-2.31-1.24-3.23-.54-.92-1.19-1.64-1.95-2.16s-1.63-.78-2.62-.78-1.84.26-2.61.78c-.77.52-1.42,1.24-1.96,2.16s-.95,2-1.24,3.23c-.29,1.23-.43,2.56-.43,3.99s.14,2.76.43,3.99Z"/>
        <path class="cls-1" d="M171.33,14.55c.37-.79.88-1.47,1.52-2.03.64-.56,1.37-.99,2.19-1.29.83-.3,1.69-.45,2.59-.45s1.77.15,2.59.45c.82.3,1.56.73,2.19,1.29.64.56,1.14,1.24,1.52,2.03s.56,1.68.56,2.67c0,.9-.17,1.75-.5,2.54s-.8,1.49-1.4,2.08c-.61.59-1.33,1.06-2.16,1.4s-1.77.51-2.8.51-1.97-.17-2.8-.51c-.84-.34-1.56-.81-2.16-1.4s-1.07-1.29-1.4-2.08-.5-1.64-.5-2.54c0-.99.19-1.88.56-2.67ZM172.34,2.89c.54-.87,1.27-1.57,2.18-2.1.91-.53,1.95-.79,3.12-.79s2.21.26,3.12.79c.91.53,1.64,1.23,2.18,2.1.54.87.81,1.83.81,2.89,0,.86-.16,1.64-.48,2.36-.32.72-.75,1.33-1.3,1.83-.55.51-1.19.9-1.93,1.17-.74.28-1.53.41-2.39.41s-1.66-.14-2.39-.41c-.74-.27-1.38-.67-1.93-1.17-.55-.5-.98-1.12-1.3-1.83-.32-.71-.48-1.5-.48-2.36,0-1.06.27-2.02.81-2.89ZM173.2,19.73c.45.77,1.06,1.36,1.83,1.78.77.42,1.64.63,2.61.63s1.84-.21,2.61-.63,1.38-1.01,1.83-1.78c.45-.77.68-1.67.68-2.71,0-.97-.25-1.83-.74-2.59-.5-.76-1.13-1.36-1.91-1.8-.78-.44-1.6-.66-2.46-.66s-1.68.22-2.46.66c-.78.44-1.42,1.04-1.91,1.8-.49.76-.74,1.62-.74,2.59,0,1.03.23,1.94.68,2.71ZM173.92,8.25c.43.66.98,1.18,1.65,1.55.67.37,1.36.56,2.06.56s1.39-.19,2.06-.56c.67-.37,1.22-.89,1.65-1.55.43-.66.64-1.42.64-2.28s-.19-1.55-.56-2.21-.89-1.18-1.53-1.57c-.65-.38-1.4-.58-2.26-.58s-1.58.19-2.24.58c-.66.39-1.18.91-1.55,1.57-.37.66-.56,1.4-.56,2.21,0,.86.21,1.62.64,2.28Z"/>
      </g>
      <g>
        <path class="cls-1" d="M0,43.11h28.6v7.1h-10.4v31.4h-7.86v-31.4H0v-7.1Z"/>
        <path class="cls-1" d="M31.35,59.44h11.5v6.21h-11.5v-6.21Z"/>
        <path class="cls-1" d="M55.52,72.43c.97,1.06,2.04,1.89,3.22,2.47,1.17.59,2.44.88,3.8.88,1.58,0,2.86-.4,3.85-1.21.99-.81,1.49-1.91,1.49-3.3,0-1.21-.3-2.18-.91-2.92-.6-.73-1.5-1.38-2.69-1.95-1.19-.57-2.65-1.18-4.37-1.84-.92-.33-1.97-.78-3.16-1.35-1.19-.57-2.32-1.3-3.38-2.2-1.06-.9-1.94-2-2.64-3.3-.7-1.3-1.04-2.87-1.04-4.7,0-2.2.56-4.1,1.68-5.69,1.12-1.59,2.64-2.82,4.56-3.69,1.92-.86,4.08-1.29,6.46-1.29s4.57.41,6.35,1.24c1.78.83,3.26,1.87,4.45,3.13,1.19,1.26,2.12,2.58,2.78,3.93l-6.16,3.41c-.51-.92-1.13-1.75-1.84-2.5-.71-.75-1.53-1.36-2.45-1.81-.92-.46-1.96-.69-3.13-.69-1.54,0-2.7.36-3.47,1.07s-1.15,1.55-1.15,2.5.31,1.79.93,2.5c.62.71,1.58,1.39,2.86,2.04,1.28.64,2.9,1.29,4.84,1.95,1.25.44,2.45.99,3.6,1.65s2.2,1.46,3.13,2.39c.94.93,1.67,2.04,2.2,3.3.53,1.27.8,2.72.8,4.37,0,1.87-.37,3.54-1.1,5s-1.74,2.7-3.02,3.71c-1.28,1.01-2.72,1.78-4.32,2.31s-3.27.8-5.03.8c-2.35,0-4.54-.45-6.57-1.35-2.04-.9-3.8-2.12-5.31-3.66-1.5-1.54-2.68-3.21-3.52-5l5.61-3.96c.81,1.43,1.7,2.68,2.67,3.74Z"/>
        <path class="cls-1" d="M92.62,43.11v38.5h-7.86v-38.5h7.86ZM87.34,57.58h28.27v7.1h-28.27v-7.1ZM118.47,43.11v38.5h-7.87v-38.5h7.87Z"/>
        <path class="cls-1" d="M136.95,43.11v38.5h-7.98v-38.5h7.98Z"/>
        <path class="cls-1" d="M155.32,43.11v38.5h-7.86v-38.5h7.86ZM152.24,43.11h8.14c3.04,0,5.63.51,7.75,1.54,2.13,1.03,3.76,2.46,4.89,4.29,1.14,1.83,1.71,3.98,1.71,6.44s-.57,4.56-1.71,6.41-2.77,3.29-4.89,4.32c-2.13,1.03-4.71,1.54-7.75,1.54h-8.14v-6.27h7.65c1.39,0,2.59-.23,3.6-.69,1.01-.46,1.79-1.12,2.34-1.98.55-.86.82-1.9.82-3.11s-.27-2.25-.82-3.11c-.55-.86-1.33-1.52-2.34-1.98-1.01-.46-2.21-.69-3.6-.69h-7.65v-6.71ZM164.5,63.68l12.54,17.93h-9.29l-11.55-17.93h8.31Z"/>
        <path class="cls-1" d="M179.9,43.11h28.6v7.1h-10.4v31.4h-7.87v-31.4h-10.34v-7.1Z"/>
        <path class="cls-1" d="M221.18,72.43c.97,1.06,2.04,1.89,3.22,2.47,1.17.59,2.44.88,3.8.88,1.58,0,2.86-.4,3.85-1.21.99-.81,1.49-1.91,1.49-3.3,0-1.21-.3-2.18-.91-2.92-.6-.73-1.5-1.38-2.69-1.95-1.19-.57-2.65-1.18-4.37-1.84-.92-.33-1.97-.78-3.16-1.35-1.19-.57-2.32-1.3-3.38-2.2-1.06-.9-1.94-2-2.64-3.3-.7-1.3-1.04-2.87-1.04-4.7,0-2.2.56-4.1,1.68-5.69,1.12-1.59,2.64-2.82,4.56-3.69,1.92-.86,4.08-1.29,6.46-1.29s4.57.41,6.35,1.24c1.78.83,3.26,1.87,4.45,3.13,1.19,1.26,2.12,2.58,2.78,3.93l-6.16,3.41c-.51-.92-1.13-1.75-1.84-2.5-.71-.75-1.53-1.36-2.45-1.81-.92-.46-1.96-.69-3.13-.69-1.54,0-2.7.36-3.47,1.07s-1.15,1.55-1.15,2.5.31,1.79.93,2.5c.62.71,1.58,1.39,2.86,2.04,1.28.64,2.9,1.29,4.84,1.95,1.25.44,2.45.99,3.6,1.65s2.2,1.46,3.13,2.39c.94.93,1.67,2.04,2.2,3.3.53,1.27.8,2.72.8,4.37,0,1.87-.37,3.54-1.1,5s-1.74,2.7-3.02,3.71c-1.28,1.01-2.72,1.78-4.32,2.31s-3.27.8-5.03.8c-2.35,0-4.54-.45-6.57-1.35-2.04-.9-3.8-2.12-5.31-3.66-1.5-1.54-2.68-3.21-3.52-5l5.61-3.96c.81,1.43,1.7,2.68,2.67,3.74Z"/>
      </g>
    </g>
  </g>
</svg>