<?xml version="1.0" encoding="UTF-8"?>
<svg id="_レイヤー_2" data-name="レイヤー 2" xmlns="http://www.w3.org/2000/svg" viewBox="0 0 208.89 267.21">
  <defs>
    <style>
      .cls-1 {
        fill: #5aa0c8;
      }
    </style>
  </defs>
  <g id="_レイヤー_1-2" data-name="レイヤー 1">
    <g>
      <g>
        <path class="cls-1" d="M13.05,107.34l-6.75,39H0l6.6-39h6.45Z"/>
        <path class="cls-1" d="M18.2,145.59c-1.63-.83-2.91-2.03-3.83-3.6-.92-1.57-1.38-3.45-1.38-5.65,0-1.87.34-3.62,1.03-5.25.68-1.63,1.65-3.07,2.9-4.3s2.73-2.2,4.43-2.9c1.7-.7,3.57-1.05,5.6-1.05,2.23,0,4.11.4,5.62,1.2,1.52.8,2.67,1.95,3.47,3.45.8,1.5,1.2,3.33,1.2,5.5,0,.53-.05,1.11-.15,1.73-.1.62-.23,1.14-.4,1.58h-20.3v-4h15.35l-1.7,2.3c.17-.33.32-.7.45-1.1.13-.4.2-.78.2-1.15,0-1.03-.16-1.92-.47-2.65-.32-.73-.78-1.3-1.4-1.7-.62-.4-1.42-.6-2.42-.6s-1.91.2-2.73.6c-.82.4-1.52.96-2.12,1.68-.6.72-1.07,1.57-1.42,2.57-.35,1-.58,2.1-.67,3.3-.13,1.27-.03,2.38.3,3.35s.88,1.71,1.65,2.22c.77.52,1.75.78,2.95.78,1.33,0,2.52-.3,3.57-.9,1.05-.6,1.93-1.4,2.62-2.4l5.5,1.75c-1.23,2.03-2.87,3.62-4.9,4.77-2.03,1.15-4.43,1.73-7.2,1.73-2.2,0-4.12-.42-5.75-1.25Z"/>
        <path class="cls-1" d="M54.4,123.34l-.95,5.45h-13.9l1-5.45h13.85ZM51.9,115.34l-5.4,31h-6.1l5.25-31h6.25Z"/>
        <path class="cls-1" d="M68.55,111.34l-7.15,12.3h-4.6l4.8-12.3h6.95Z"/>
        <path class="cls-1" d="M68.9,140.44c.73.57,1.48,1.01,2.25,1.33.77.32,1.55.46,2.35.42.8,0,1.47-.22,2.02-.67s.83-1.01.83-1.67c.03-.63-.15-1.15-.55-1.55s-.92-.76-1.58-1.08c-.65-.32-1.38-.62-2.17-.92-.97-.37-1.89-.83-2.78-1.4-.88-.57-1.59-1.3-2.12-2.2-.53-.9-.77-1.98-.7-3.25.1-1.5.56-2.73,1.38-3.7.82-.97,1.86-1.69,3.12-2.17,1.27-.48,2.6-.72,4-.72,1.9,0,3.59.36,5.08,1.08s2.78,1.61,3.88,2.67l-3.05,3.95c-.77-.87-1.65-1.6-2.65-2.2-1-.6-2.03-.9-3.1-.9-.8,0-1.45.17-1.95.53-.5.35-.77.81-.8,1.38-.03.53.15.99.55,1.38.4.38.95.72,1.65,1.02.7.3,1.42.6,2.15.9,1.13.47,2.16.99,3.08,1.58s1.64,1.31,2.17,2.17c.53.87.77,1.97.7,3.3-.1,1.5-.53,2.81-1.3,3.92-.77,1.12-1.79,1.98-3.08,2.6s-2.76.92-4.42.92c-1.57,0-3.01-.22-4.33-.65-1.32-.43-2.51-1.02-3.58-1.75-1.07-.73-2.02-1.52-2.85-2.35l3.55-3.95c.77.77,1.52,1.43,2.25,2Z"/>
        <path class="cls-1" d="M105.05,147.94c0,.97.17,1.81.5,2.53.33.72.86,1.27,1.58,1.67.72.4,1.61.6,2.67.6,1.23,0,2.37-.28,3.4-.85,1.03-.57,1.9-1.38,2.6-2.45.7-1.07,1.15-2.27,1.35-3.6l3.9-22.5h6.2l-3.85,22.5c-.37,2.53-1.18,4.72-2.45,6.55-1.27,1.83-2.86,3.24-4.77,4.22-1.92.98-4.08,1.48-6.48,1.48s-4.42-.42-6.05-1.25c-1.63-.83-2.85-2.02-3.65-3.55-.8-1.53-1.17-3.32-1.1-5.35h6.15ZM103.02,128.51c1.22-1.78,2.73-3.18,4.53-4.2,1.8-1.02,3.73-1.51,5.8-1.47,1.53,0,2.84.32,3.92.95s1.94,1.5,2.58,2.6c.63,1.1,1.06,2.35,1.28,3.75.22,1.4.22,2.9.02,4.5-.2,1.63-.62,3.16-1.27,4.58-.65,1.42-1.47,2.67-2.45,3.75-.98,1.08-2.12,1.92-3.42,2.52-1.3.6-2.72.9-4.25.9-2.07,0-3.83-.53-5.28-1.58s-2.51-2.47-3.17-4.25c-.67-1.78-.85-3.77-.55-5.97.3-2.27,1.06-4.29,2.27-6.08ZM107.57,137.84c.32.97.87,1.73,1.65,2.3.78.57,1.74.85,2.88.85.8.03,1.58-.11,2.35-.42.77-.32,1.48-.77,2.15-1.35.67-.58,1.22-1.28,1.65-2.08.43-.8.73-1.65.9-2.55.13-.87.12-1.68-.05-2.45-.17-.77-.45-1.44-.85-2.03-.4-.58-.9-1.04-1.5-1.38-.6-.33-1.3-.52-2.1-.55-1.2,0-2.32.28-3.35.83-1.03.55-1.9,1.32-2.6,2.3-.7.98-1.15,2.09-1.35,3.33-.17,1.17-.09,2.23.22,3.2Z"/>
        <path class="cls-1" d="M132.5,128.64c1.33-1.8,3.01-3.22,5.03-4.25,2.02-1.03,4.21-1.55,6.57-1.55s4.41.53,6.12,1.6c1.72,1.07,3,2.51,3.85,4.33.85,1.82,1.12,3.84.83,6.08-.3,2.3-1.12,4.35-2.45,6.15-1.33,1.8-3.01,3.22-5.03,4.25-2.02,1.03-4.22,1.55-6.62,1.55s-4.36-.53-6.08-1.58-3-2.48-3.85-4.3-1.14-3.84-.88-6.08c.33-2.33,1.17-4.4,2.5-6.2ZM136.75,137.99c.33,1,.88,1.8,1.65,2.4.77.6,1.72.92,2.85.95,1.2,0,2.31-.29,3.33-.88,1.02-.58,1.87-1.38,2.55-2.38.68-1,1.11-2.08,1.28-3.25.17-1.17.08-2.23-.25-3.2-.33-.97-.88-1.77-1.65-2.4-.77-.63-1.73-.95-2.9-.95-1.13-.03-2.22.25-3.25.85s-1.88,1.4-2.55,2.4-1.1,2.1-1.3,3.3c-.17,1.1-.08,2.15.25,3.15Z"/>
        <path class="cls-1" d="M159.77,140.86c.78-.72,1.76-1.07,2.93-1.07s2.14.36,2.92,1.07c.78.72,1.17,1.62,1.17,2.73s-.39,2.01-1.17,2.72c-.78.72-1.76,1.08-2.92,1.08s-2.14-.36-2.93-1.08c-.78-.72-1.17-1.62-1.17-2.72s.39-2.01,1.17-2.73ZM172.1,111.34l-5.45,23.9h-5.15l2.7-23.9h7.9Z"/>
      </g>
      <path class="cls-1" d="M52.38,22.61c21.15,5.91,41.99,12.91,62.42,20.98,20.3,8.03,40.18,17.12,59.53,27.22,10.95,5.71,21.73,11.75,32.33,18.1,1.66.99,3.17-1.6,1.51-2.59-18.91-11.32-38.4-21.65-58.39-30.94s-40.41-17.52-61.23-24.67c-11.68-4.01-23.48-7.68-35.38-11-1.86-.52-2.66,2.37-.8,2.89h0Z"/>
      <path class="cls-1" d="M168.72,180.67c-21.99,14.99-43.99,29.97-65.98,44.96-6.19,4.21-12.37,8.43-18.56,12.64-1.59,1.08-.09,3.68,1.51,2.59,21.99-14.99,43.99-29.97,65.98-44.96,6.19-4.21,12.37-8.43,18.56-12.64,1.59-1.08.09-3.68-1.51-2.59h0Z"/>
      <path class="cls-1" d="M160.48,225.4c-15.07,11.43-28.79,24.56-40.81,39.17-1.22,1.48.89,3.61,2.12,2.12,11.85-14.4,25.34-27.43,40.2-38.71,1.52-1.15.03-3.76-1.51-2.59h0Z"/>
      <path class="cls-1" d="M113.3,2.79c13.01,7.09,25.6,14.94,37.69,23.49,1.58,1.12,3.08-1.48,1.51-2.59C140.41,15.13,127.82,7.29,114.81.2c-1.7-.92-3.21,1.67-1.51,2.59h0Z"/>
    </g>
  </g>
</svg>