<?xml version="1.0" encoding="UTF-8"?>
<svg id="_レイヤー_2" data-name="レイヤー 2" xmlns="http://www.w3.org/2000/svg" viewBox="0 0 104.4 55.74">
  <defs>
    <style>
      .cls-1 {
        fill: #5aa0c8;
      }
    </style>
  </defs>
  <g id="_レイヤー_1-2" data-name="レイヤー 1">
    <g>
      <path class="cls-1" d="M38.59,45.28l-6.93,2.04-1.69-15.85c-.18-.88-.42-1.69-.72-2.44-.3-.75-.71-1.3-1.22-1.66-.51-.35-1.22-.4-2.11-.14-.9.26-1.65.72-2.25,1.36-.61.65-1.03,1.39-1.27,2.24-.24.85-.3,1.78-.2,2.8l1.88,15.91-6.82,2.01-1.74-15.83c-.16-.93-.39-1.75-.7-2.48-.31-.73-.72-1.27-1.23-1.62-.51-.35-1.2-.41-2.06-.15-.9.26-1.64.7-2.24,1.3-.6.61-1.02,1.33-1.26,2.18-.24.85-.31,1.76-.21,2.75l1.87,16.09-6.66,1.96L0,29.78l6.66-1.96.46,3.54c.31-.95.73-1.82,1.27-2.62.54-.8,1.2-1.49,1.99-2.07s1.69-1.02,2.73-1.33c1.24-.4,2.34-.55,3.29-.44.95.11,1.77.42,2.46.94.7.52,1.29,1.21,1.78,2.07.6-1.66,1.48-3.08,2.62-4.27,1.15-1.19,2.6-2.05,4.35-2.57,1.85-.58,3.39-.59,4.61-.01,1.22.58,2.18,1.54,2.89,2.89.71,1.35,1.21,2.93,1.51,4.75l1.96,16.58Z"/>
      <path class="cls-1" d="M45.19,22.67c.86-2.36,2.21-4.41,4.06-6.15,1.84-1.75,4.03-3,6.58-3.74,2.54-.75,4.9-.82,7.09-.22,2.18.6,4.02,1.75,5.5,3.43,1.49,1.68,2.42,3.77,2.81,6.27.4,2.57.17,5.03-.69,7.38-.87,2.36-2.22,4.41-4.06,6.16-1.84,1.75-4.05,3-6.63,3.76-2.51.74-4.85.81-7.02.23-2.18-.59-4.01-1.72-5.5-3.4-1.49-1.68-2.44-3.77-2.86-6.25-.38-2.61-.14-5.1.73-7.45ZM52.71,31.37c.67.97,1.52,1.66,2.53,2.06,1.01.4,2.13.44,3.36.12,1.29-.38,2.39-1.04,3.29-1.99.91-.95,1.57-2.07,1.99-3.36.42-1.29.53-2.59.34-3.89-.19-1.31-.62-2.43-1.28-3.36-.66-.93-1.51-1.62-2.53-2.06-1.02-.44-2.16-.47-3.42-.1-1.23.32-2.3.97-3.22,1.94-.92.97-1.58,2.1-1.98,3.38-.4,1.29-.52,2.6-.35,3.96.17,1.23.59,2.34,1.26,3.31Z"/>
      <path class="cls-1" d="M76.82,13.22c.74-2.3,1.92-4.28,3.53-5.94,1.61-1.66,3.53-2.8,5.77-3.42,1.65-.48,3.15-.56,4.52-.22,1.36.34,2.56,1,3.59,1.98,1.03.98,1.88,2.19,2.55,3.63.68,1.44,1.16,3.04,1.45,4.83.3,1.82.33,3.59.08,5.32-.25,1.73-.73,3.33-1.45,4.8-.71,1.48-1.67,2.74-2.88,3.8-1.21,1.06-2.63,1.83-4.28,2.31-2.22.65-4.28.65-6.17-.02-1.89-.67-3.48-1.86-4.75-3.56-1.28-1.7-2.11-3.79-2.48-6.25-.39-2.53-.22-4.95.52-7.25ZM85.14,33.45c.31,1.04.75,1.89,1.34,2.56.58.66,1.32,1.1,2.22,1.3.9.2,1.92.14,3.06-.2,1.33-.39,2.45-1.05,3.38-1.99.93-.94,1.6-2.09,2.02-3.45.42-1.37.52-2.8.31-4.29l-2.92-25.41,6.66-1.96,2.98,25.39c.41,2.84.22,5.44-.56,7.81-.78,2.37-2.05,4.39-3.79,6.05-1.75,1.66-3.91,2.87-6.49,3.63-2.58.76-4.88.95-6.9.57-2.02-.38-3.7-1.27-5.04-2.66-1.34-1.39-2.3-3.19-2.87-5.4l6.61-1.94ZM84.66,21.8c.65.94,1.48,1.59,2.5,1.95,1.02.36,2.14.36,3.36,0,.87-.22,1.67-.62,2.39-1.2.72-.58,1.35-1.29,1.88-2.13.53-.84.91-1.75,1.12-2.75.21-1,.27-2,.16-3.02-.13-.97-.41-1.84-.83-2.62-.42-.77-.94-1.41-1.55-1.91-.61-.5-1.3-.83-2.05-1-.75-.17-1.56-.14-2.43.07-1.29.38-2.4,1.03-3.34,1.95-.94.92-1.62,2.02-2.07,3.29-.44,1.28-.57,2.61-.4,4,.19,1.31.61,2.43,1.25,3.37Z"/>
    </g>
  </g>
</svg>