<?xml version="1.0" encoding="UTF-8"?>
<svg id="_レイヤー_2" data-name="レイヤー 2" xmlns="http://www.w3.org/2000/svg" viewBox="0 0 145.17 118.08">
  <defs>
    <style>
      .cls-1 {
        fill: #5aa0c8;
      }
    </style>
  </defs>
  <g id="_レイヤー_1-2" data-name="レイヤー 1">
    <g>
      <g>
        <path class="cls-1" d="M43.34,68c.03.87.2,1.61.5,2.22.3.62.77,1.1,1.4,1.45.63.35,1.42.52,2.35.52,1.17,0,2.22-.27,3.17-.8.95-.53,1.74-1.28,2.38-2.25.63-.97,1.03-2.08,1.2-3.35l3.9-22.45h7.2l-3.85,22.5c-.4,2.63-1.24,4.88-2.53,6.72-1.28,1.85-2.92,3.26-4.9,4.23-1.98.97-4.22,1.45-6.72,1.45s-4.63-.42-6.3-1.25c-1.67-.83-2.91-2.03-3.72-3.58-.82-1.55-1.21-3.38-1.17-5.48l7.1.05ZM40.36,48.45c1.18-1.77,2.67-3.14,4.45-4.12,1.78-.98,3.69-1.47,5.72-1.47,1.53,0,2.84.32,3.93.95,1.08.63,1.96,1.48,2.62,2.55.67,1.07,1.11,2.3,1.32,3.7.22,1.4.22,2.9.03,4.5-.2,1.63-.62,3.16-1.28,4.58s-1.47,2.66-2.45,3.72c-.98,1.07-2.13,1.89-3.45,2.47-1.32.58-2.72.88-4.22.88-2.03,0-3.77-.52-5.2-1.55-1.43-1.03-2.48-2.43-3.15-4.2-.67-1.77-.87-3.75-.6-5.95.33-2.27,1.09-4.28,2.28-6.05ZM46.06,57.35c.28.83.77,1.49,1.45,1.97.68.48,1.54.74,2.58.78.7.03,1.39-.09,2.07-.38.68-.28,1.32-.67,1.9-1.17.58-.5,1.07-1.1,1.47-1.8.4-.7.67-1.45.8-2.25.1-.8.08-1.53-.05-2.18-.13-.65-.38-1.23-.72-1.75-.35-.52-.8-.92-1.35-1.2-.55-.28-1.16-.43-1.83-.43-1.1-.03-2.11.2-3.02.7-.92.5-1.68,1.17-2.3,2.03-.62.85-1.03,1.81-1.22,2.88-.13,1.03-.06,1.97.22,2.8Z"/>
        <path class="cls-1" d="M70.49,48.6c1.37-1.8,3.09-3.22,5.17-4.25,2.08-1.03,4.32-1.55,6.73-1.55s4.49.52,6.27,1.58c1.78,1.05,3.12,2.48,4.03,4.3.9,1.82,1.2,3.88.9,6.17-.3,2.33-1.13,4.4-2.5,6.2-1.37,1.8-3.08,3.22-5.15,4.25-2.07,1.03-4.33,1.55-6.8,1.55s-4.44-.53-6.23-1.58c-1.78-1.05-3.12-2.48-4.02-4.3-.9-1.82-1.22-3.88-.95-6.17.33-2.33,1.18-4.4,2.55-6.2ZM75.79,57.65c.3.87.78,1.57,1.43,2.1s1.48.8,2.48.8c1.03.03,1.99-.21,2.88-.73.88-.52,1.63-1.22,2.25-2.1.62-.88,1.01-1.86,1.17-2.92.13-1,.06-1.92-.22-2.78-.28-.85-.76-1.55-1.43-2.1-.67-.55-1.5-.84-2.5-.88s-1.95.22-2.85.75c-.9.53-1.65,1.24-2.25,2.12-.6.88-.98,1.86-1.15,2.92-.17,1-.1,1.93.2,2.8Z"/>
        <path class="cls-1" d="M98.34,60.15c.9-.8,2.02-1.2,3.35-1.2,1.4,0,2.54.4,3.43,1.2.88.8,1.32,1.83,1.32,3.1s-.44,2.3-1.32,3.1c-.88.8-2.03,1.2-3.43,1.2s-2.45-.4-3.35-1.2c-.9-.8-1.35-1.83-1.35-3.1s.45-2.3,1.35-3.1ZM111.69,31.35l-5.5,23.45h-6.15l2.45-23.45h9.2Z"/>
      </g>
      <path class="cls-1" d="M68.69,1.92c-15.98-5.17-33.67.55-45.74,11.64-6.11,5.61-10.96,12.54-14.6,19.98S1.95,49.18.69,57.45s-1.01,16.92,2.51,24.63,10.46,13.32,17.59,17.66c13.9,8.46,30.49,12.37,46.71,11.49,8.05-.44,16.06-2.02,23.63-4.83,1.9-.71,3.78-1.49,5.63-2.34.91-.42,1.8-.89,2.72-1.31,1.28-.59,2.09-.6,3.21.27,4.01,3.14,7.85,6.51,11.77,9.76,1.97,1.63,3.93,3.26,5.9,4.9.98.81,2.54.32,2.56-1.06.14-8.38-1.2-16.74-3.95-24.66l-1.05,1.85c10.46-3.91,15.85-14.26,19.56-24.13,2.27-6.02,4.42-12.2,6.02-18.44,1.69-6.61,2.41-13.47.69-20.15-2.15-8.34-7.28-15.38-14.34-20.26-6.53-4.52-14.32-7.11-22.1-8.39-6.96-1.14-14.3-1.52-21.27-.23-1.9.35-1.09,3.24.8,2.89,5.27-.98,11.36-.82,16.91-.17,7.2.85,14.43,2.83,20.78,6.38,6.75,3.78,12.34,9.5,15.13,16.8,2.07,5.43,2.55,11.14,1.65,16.88-1.03,6.57-3.35,12.87-5.48,19.15-3.46,10.19-8.18,22.66-19.15,26.77-.72.27-1.33,1.02-1.05,1.85,2.67,7.69,3.97,15.73,3.84,23.86l2.56-1.06c-3.81-3.16-7.61-6.32-11.42-9.48-1.9-1.58-3.81-3.16-5.71-4.74-1.69-1.4-3.31-2.48-5.6-1.89-1.94.5-3.75,1.7-5.58,2.5s-3.64,1.51-5.5,2.15c-3.72,1.28-7.54,2.28-11.4,2.98-15.44,2.82-31.88.97-46.25-5.39-7.26-3.21-14.51-7.52-19.98-13.35s-8.08-14.06-8.06-22.29,2.06-16.31,4.92-23.94,6.74-14.77,11.93-20.94C30.01,9.04,45.99.86,62.12,3.42c1.96.31,3.89.79,5.78,1.4s2.63-2.3.8-2.89h0Z"/>
    </g>
  </g>
</svg>