<?xml version="1.0" encoding="UTF-8"?>
<svg id="_レイヤー_2" data-name="レイヤー 2" xmlns="http://www.w3.org/2000/svg" viewBox="0 0 71.61 118.57">
  <defs>
    <style>
      .cls-1 {
        fill: #5aa0c8;
      }
    </style>
  </defs>
  <g id="_レイヤー_1-2" data-name="レイヤー 1">
    <g>
      <path class="cls-1" d="M12.37,2.75c17.03,8.19,32.61,19.27,45.9,32.71,1.82,1.84,3.59,3.72,5.32,5.64.89.99,1.76,1.98,2.63,2.99.45.53.91,1.06,1.35,1.6.18.21.36.43.54.65l.27.32c.31.63.89.67,1.75.11-1.14-1.53-3.74-.04-2.59,1.51,1.54,2.08,4.65.47,3.97-2.01-.32-1.17-1.32-2.11-2.08-3.02-.9-1.07-1.81-2.13-2.74-3.18-3.52-3.98-7.23-7.79-11.11-11.41-7.86-7.33-16.43-13.91-25.54-19.61C24.83,5.79,19.43,2.83,13.89.16c-1.73-.83-3.26,1.75-1.51,2.59h0Z"/>
      <path class="cls-1" d="M9.63,53c12.9,4.85,25.98,9.2,39.21,13.07,1.86.54,2.65-2.35.8-2.89-13.23-3.86-26.31-8.22-39.21-13.07-1.81-.68-2.59,2.22-.8,2.89h0Z"/>
      <path class="cls-1" d="M1.85,118.51c10.4-2.95,20.89-5.54,31.46-7.79,1.89-.4,1.09-3.29-.8-2.89-10.57,2.24-21.06,4.84-31.46,7.79-1.85.53-1.07,3.42.8,2.89h0Z"/>
    </g>
  </g>
</svg>