<?xml version="1.0" encoding="UTF-8"?>
<svg id="_レイヤー_2" data-name="レイヤー 2" xmlns="http://www.w3.org/2000/svg" viewBox="0 0 545.48 138.77">
  <defs>
    <style>
      .cls-1 {
        fill: #fff;
      }
    </style>
  </defs>
  <g id="_レイヤー_1-2" data-name="レイヤー 1">
    <g>
      <path class="cls-1" d="M12.92,125.45c1.2.52,2.4.81,3.59.86,1.19.05,2.35-.17,3.48-.67,1.31-.58,2.22-1.39,2.75-2.43.52-1.04.53-2.13.01-3.29-.45-1-1.06-1.7-1.83-2.08-.77-.38-1.76-.59-2.96-.62-1.2-.03-2.64,0-4.31.09-.88.07-1.92.08-3.12.05-1.2-.03-2.41-.22-3.62-.57-1.22-.35-2.35-.94-3.41-1.76-1.06-.82-1.93-2-2.61-3.52-.81-1.83-1.05-3.61-.71-5.35.34-1.74,1.15-3.32,2.43-4.75,1.28-1.43,2.91-2.58,4.89-3.47,2.04-.91,3.95-1.35,5.73-1.32,1.78.03,3.4.34,4.86.95,1.46.61,2.71,1.35,3.76,2.24l-3.85,5.11c-.77-.57-1.58-1.04-2.46-1.4s-1.77-.56-2.7-.6c-.93-.04-1.88.16-2.86.59-1.28.57-2.11,1.29-2.48,2.17-.37.88-.38,1.71-.03,2.5.35.79.92,1.37,1.7,1.73.78.36,1.82.57,3.13.63,1.3.06,2.88,0,4.74-.17,1.2-.1,2.4-.08,3.6.04,1.2.12,2.37.4,3.49.83,1.12.43,2.14,1.07,3.05,1.92.91.85,1.67,1.97,2.28,3.33.69,1.55,1.01,3.07.94,4.56-.07,1.49-.44,2.89-1.14,4.2-.69,1.31-1.6,2.49-2.73,3.52s-2.42,1.87-3.88,2.53c-1.95.87-3.93,1.31-5.96,1.32s-3.94-.35-5.76-1.07c-1.82-.72-3.41-1.67-4.78-2.85l3.19-5.37c1.2.89,2.4,1.59,3.6,2.12Z"/>
      <path class="cls-1" d="M471.62,83.69c1.62-1.78,3.49-3.16,5.61-4.14,2.12-.98,4.38-1.51,6.8-1.59,2.42-.08,4.86.32,7.35,1.2,2.51.89,4.68,2.13,6.49,3.71,1.81,1.58,3.24,3.42,4.28,5.52,1.04,2.1,1.62,4.35,1.75,6.75.12,2.4-.26,4.85-1.15,7.36-.88,2.48-2.13,4.63-3.74,6.44s-3.48,3.23-5.59,4.25-4.38,1.59-6.81,1.7c-2.43.11-4.91-.28-7.46-1.18s-4.72-2.16-6.54-3.78-3.23-3.49-4.24-5.62-1.57-4.4-1.67-6.82c-.1-2.42.3-4.87,1.18-7.35.89-2.51,2.15-4.66,3.77-6.44ZM474.3,98.73c.3,1.95,1.05,3.66,2.26,5.15,1.21,1.49,2.83,2.59,4.87,3.32,2.04.72,4,.89,5.87.49,1.87-.4,3.53-1.26,4.97-2.59s2.54-3.04,3.29-5.15c.75-2.1.98-4.12.71-6.06-.27-1.93-1.01-3.65-2.21-5.13-1.21-1.49-2.85-2.6-4.92-3.34-2.04-.72-4-.89-5.87-.49-1.87.4-3.54,1.26-5,2.58-1.46,1.32-2.56,3.04-3.31,5.14-.75,2.11-.97,4.13-.67,6.08Z"/>
      <path class="cls-1" d="M545.48,101.68l-14.53,33.75-13.6-31.39-8.58,19.93-6.34-2.73,14.53-33.75,13.6,31.39,8.58-19.93,6.34,2.73Z"/>
      <g>
        <path class="cls-1" d="M146.75,129.46c.37-.4.68-.8.95-1.19.26-.39.46-.79.6-1.2.13-.41.2-.84.2-1.28,0-.37-.07-.73-.22-1.08-.14-.35-.36-.67-.64-.96-.28-.29-.62-.52-1.02-.7-.4-.18-.86-.26-1.37-.26-.72,0-1.34.16-1.86.49-.52.33-.92.8-1.19,1.42-.27.62-.41,1.35-.41,2.2h-2.04c0-1.2.22-2.25.65-3.16.43-.9,1.06-1.61,1.88-2.11.82-.5,1.81-.76,2.96-.76.93,0,1.73.16,2.4.47.67.31,1.22.71,1.66,1.2.43.49.75,1.01.96,1.57.21.56.31,1.1.31,1.61,0,.86-.21,1.72-.62,2.57-.42.85-.95,1.61-1.61,2.28l-5.35,5.45h7.66v1.92h-11.86l7.94-8.47Z"/>
        <path class="cls-1" d="M155.18,125.07c.53-1.3,1.26-2.32,2.2-3.06.94-.74,2.02-1.12,3.25-1.12s2.32.37,3.25,1.12,1.67,1.76,2.2,3.06c.53,1.3.79,2.78.79,4.46s-.26,3.17-.79,4.46c-.53,1.3-1.26,2.32-2.2,3.06s-2.02,1.12-3.25,1.12-2.32-.37-3.25-1.12c-.94-.74-1.67-1.76-2.2-3.06-.53-1.3-.79-2.78-.79-4.46s.26-3.17.79-4.46ZM156.71,132.23c.19.82.47,1.54.84,2.14.37.6.81,1.06,1.33,1.39s1.1.49,1.74.49,1.24-.16,1.75-.49c.51-.33.95-.79,1.32-1.39.37-.6.65-1.31.84-2.14.19-.82.29-1.72.29-2.7s-.1-1.88-.29-2.7c-.19-.82-.47-1.54-.84-2.14-.37-.6-.81-1.06-1.32-1.39-.51-.33-1.1-.49-1.75-.49s-1.22.16-1.74.49-.96.79-1.33,1.39c-.37.6-.65,1.31-.84,2.14s-.29,1.72-.29,2.7.1,1.88.29,2.7Z"/>
        <path class="cls-1" d="M177.69,129.46c.37-.4.68-.8.95-1.19.26-.39.46-.79.6-1.2.13-.41.2-.84.2-1.28,0-.37-.07-.73-.22-1.08-.14-.35-.36-.67-.64-.96-.28-.29-.62-.52-1.02-.7-.4-.18-.86-.26-1.37-.26-.72,0-1.34.16-1.86.49-.52.33-.92.8-1.19,1.42-.27.62-.41,1.35-.41,2.2h-2.04c0-1.2.22-2.25.65-3.16.43-.9,1.06-1.61,1.88-2.11.82-.5,1.81-.76,2.96-.76.93,0,1.73.16,2.4.47.67.31,1.22.71,1.66,1.2.43.49.75,1.01.96,1.57.21.56.31,1.1.31,1.61,0,.86-.21,1.72-.62,2.57-.42.85-.95,1.61-1.61,2.28l-5.35,5.45h7.66v1.92h-11.86l7.94-8.47Z"/>
        <path class="cls-1" d="M194.85,121.13l-5.26,6.94-.14-.12c.32-.4.69-.66,1.12-.79.42-.13.91-.19,1.45-.19.69,0,1.33.14,1.93.41.6.27,1.13.66,1.58,1.15.46.5.81,1.08,1.07,1.74s.38,1.38.38,2.15c0,1.15-.25,2.16-.76,3.02-.5.86-1.18,1.54-2.04,2.02-.86.48-1.83.72-2.92.72s-2.04-.24-2.9-.72c-.86-.48-1.55-1.15-2.05-2.02s-.76-1.87-.76-3.02c0-.69.1-1.33.29-1.92.19-.59.45-1.11.77-1.56l5.66-7.8h2.57ZM188,134.44c.33.58.78,1.04,1.34,1.38.57.34,1.21.5,1.93.5s1.36-.17,1.93-.5,1.02-.8,1.34-1.38.49-1.26.49-2.03-.16-1.45-.49-2.05c-.33-.6-.78-1.07-1.34-1.4s-1.21-.5-1.93-.5-1.36.17-1.93.5c-.57.34-1.02.8-1.34,1.4-.33.6-.49,1.28-.49,2.05s.16,1.44.49,2.03Z"/>
        <path class="cls-1" d="M220.66,134.62c.42.51.9.91,1.43,1.2.53.29,1.13.43,1.8.43.9,0,1.62-.25,2.16-.74.54-.5.82-1.13.82-1.9s-.18-1.35-.53-1.8c-.35-.45-.81-.81-1.38-1.09s-1.17-.53-1.81-.76c-.42-.14-.88-.33-1.39-.56-.51-.23-1-.53-1.46-.89s-.84-.8-1.14-1.33c-.3-.53-.44-1.18-.44-1.94,0-.83.21-1.58.62-2.23s.99-1.17,1.73-1.55c.74-.38,1.58-.56,2.52-.56s1.71.17,2.39.52c.68.34,1.26.78,1.74,1.32s.86,1.1,1.13,1.69l-1.75,1.01c-.21-.42-.47-.82-.79-1.22-.32-.4-.71-.73-1.16-.98-.46-.26-1.01-.38-1.67-.38-.91,0-1.58.22-1.99.66-.42.44-.62.93-.62,1.48,0,.46.12.89.36,1.28.24.39.64.76,1.21,1.1.57.34,1.34.68,2.32,1.02.45.16.92.37,1.42.62s.96.58,1.38.97c.42.39.77.86,1.04,1.42.27.55.41,1.21.41,1.98s-.14,1.4-.42,1.99c-.28.59-.66,1.1-1.15,1.51s-1.04.74-1.66.96c-.62.22-1.26.34-1.93.34-.91,0-1.76-.2-2.53-.59-.78-.39-1.46-.91-2.04-1.56-.58-.65-1.06-1.34-1.43-2.08l1.63-1.1c.38.67.79,1.26,1.21,1.78Z"/>
        <path class="cls-1" d="M235.46,121.13v16.8h-2.04v-16.8h2.04ZM234.54,121.13h8.47v1.92h-8.47v-1.92ZM234.54,127.85h7.99v1.92h-7.99v-1.92ZM234.54,136.01h8.47v1.92h-8.47v-1.92Z"/>
        <path class="cls-1" d="M251.22,131.6l-.19.43-2.5,5.9h-2.28l7.8-17.64,7.8,17.64h-2.28l-2.45-5.76-.19-.48-2.88-6.77-2.83,6.67ZM250.38,130.97h7.44l.72,1.92h-8.88l.72-1.92Z"/>
        <path class="cls-1" d="M267.17,134.62c.42.51.9.91,1.43,1.2.53.29,1.13.43,1.8.43.9,0,1.62-.25,2.16-.74s.82-1.13.82-1.9-.18-1.35-.53-1.8c-.35-.45-.81-.81-1.38-1.09-.57-.28-1.17-.53-1.81-.76-.42-.14-.88-.33-1.39-.56-.51-.23-1-.53-1.46-.89-.46-.36-.84-.8-1.14-1.33-.3-.53-.45-1.18-.45-1.94,0-.83.21-1.58.62-2.23s.99-1.17,1.73-1.55,1.58-.56,2.52-.56,1.71.17,2.39.52c.68.34,1.26.78,1.74,1.32.48.54.86,1.1,1.13,1.69l-1.75,1.01c-.21-.42-.47-.82-.79-1.22-.32-.4-.71-.73-1.16-.98s-1.01-.38-1.67-.38c-.91,0-1.58.22-1.99.66-.42.44-.62.93-.62,1.48,0,.46.12.89.36,1.28.24.39.64.76,1.21,1.1.57.34,1.34.68,2.32,1.02.45.16.92.37,1.42.62.5.26.96.58,1.38.97.42.39.77.86,1.04,1.42.27.55.41,1.21.41,1.98s-.14,1.4-.42,1.99c-.28.59-.66,1.1-1.15,1.51-.49.42-1.04.74-1.66.96-.62.22-1.26.34-1.93.34-.91,0-1.76-.2-2.53-.59-.78-.39-1.46-.91-2.04-1.56-.58-.65-1.06-1.34-1.43-2.08l1.63-1.1c.38.67.79,1.26,1.21,1.78Z"/>
        <path class="cls-1" d="M279.6,126.11c.42-1.05,1.02-1.96,1.79-2.74.77-.78,1.67-1.38,2.71-1.82,1.04-.44,2.17-.66,3.38-.66s2.36.22,3.4.66c1.03.44,1.93,1.05,2.7,1.82.77.78,1.36,1.69,1.79,2.74.42,1.05.64,2.19.64,3.42s-.21,2.35-.64,3.41c-.42,1.06-1.02,1.97-1.79,2.75-.77.78-1.67,1.38-2.7,1.82-1.03.44-2.16.66-3.4.66s-2.34-.22-3.38-.66c-1.04-.44-1.94-1.05-2.71-1.82-.77-.78-1.36-1.69-1.79-2.75-.42-1.06-.64-2.19-.64-3.41s.21-2.37.64-3.42ZM281.96,132.92c.55.99,1.31,1.78,2.27,2.35.96.58,2.05.86,3.26.86s2.32-.29,3.28-.86c.95-.58,1.7-1.36,2.26-2.35.55-.99.83-2.12.83-3.38s-.28-2.39-.83-3.38c-.55-.99-1.3-1.78-2.26-2.35-.95-.58-2.04-.86-3.28-.86s-2.3.29-3.26.86c-.96.58-1.71,1.36-2.27,2.35-.55.99-.83,2.12-.83,3.38s.28,2.39.83,3.38Z"/>
        <path class="cls-1" d="M315.09,121.13v17.64l-12.72-13.34v12.5h-2.04v-17.64l12.72,13.34v-12.5h2.04Z"/>
        <path class="cls-1" d="M331.05,121.13v14.88h6.6v1.92h-8.64v-16.8h2.04Z"/>
        <path class="cls-1" d="M340.2,126.11c.42-1.05,1.02-1.96,1.79-2.74s1.67-1.38,2.71-1.82c1.04-.44,2.17-.66,3.38-.66s2.37.22,3.4.66c1.03.44,1.93,1.05,2.7,1.82s1.36,1.69,1.79,2.74c.42,1.05.64,2.19.64,3.42s-.21,2.35-.64,3.41c-.42,1.06-1.02,1.97-1.79,2.75-.77.78-1.67,1.38-2.7,1.82-1.03.44-2.16.66-3.4.66s-2.34-.22-3.38-.66c-1.04-.44-1.95-1.05-2.71-1.82-.77-.78-1.36-1.69-1.79-2.75-.42-1.06-.64-2.19-.64-3.41s.21-2.37.64-3.42ZM342.56,132.92c.55.99,1.31,1.78,2.27,2.35s2.05.86,3.26.86,2.32-.29,3.28-.86,1.7-1.36,2.26-2.35c.55-.99.83-2.12.83-3.38s-.28-2.39-.83-3.38c-.55-.99-1.3-1.78-2.26-2.35s-2.04-.86-3.28-.86-2.3.29-3.26.86-1.72,1.36-2.27,2.35c-.55.99-.83,2.12-.83,3.38s.28,2.39.83,3.38Z"/>
        <path class="cls-1" d="M360.6,126.11c.42-1.05,1.02-1.96,1.79-2.74s1.67-1.38,2.71-1.82,2.17-.66,3.38-.66,2.36.22,3.4.66c1.03.44,1.93,1.05,2.7,1.82.77.78,1.36,1.69,1.79,2.74.42,1.05.64,2.19.64,3.42s-.21,2.35-.64,3.41c-.42,1.06-1.02,1.97-1.79,2.75-.77.78-1.67,1.38-2.7,1.82-1.03.44-2.16.66-3.4.66s-2.34-.22-3.38-.66c-1.04-.44-1.94-1.05-2.71-1.82-.77-.78-1.37-1.69-1.79-2.75-.42-1.06-.64-2.19-.64-3.41s.21-2.37.64-3.42ZM362.96,132.92c.55.99,1.31,1.78,2.27,2.35.96.58,2.05.86,3.26.86s2.32-.29,3.28-.86c.95-.58,1.71-1.36,2.26-2.35s.83-2.12.83-3.38-.28-2.39-.83-3.38c-.55-.99-1.3-1.78-2.26-2.35-.95-.58-2.04-.86-3.28-.86s-2.3.29-3.26.86c-.96.58-1.72,1.36-2.27,2.35-.55.99-.83,2.12-.83,3.38s.28,2.39.83,3.38Z"/>
        <path class="cls-1" d="M383.37,121.13v16.8h-2.04v-16.8h2.04ZM392.49,121.13l-7.27,7.87,7.63,8.93h-2.52l-7.58-8.88,7.22-7.92h2.52Z"/>
        <path class="cls-1" d="M398.16,134.62c.42.51.9.91,1.43,1.2.53.29,1.13.43,1.8.43.9,0,1.62-.25,2.16-.74s.82-1.13.82-1.9-.18-1.35-.53-1.8c-.35-.45-.81-.81-1.38-1.09-.57-.28-1.17-.53-1.81-.76-.42-.14-.88-.33-1.39-.56-.51-.23-1-.53-1.46-.89-.46-.36-.84-.8-1.14-1.33-.3-.53-.45-1.18-.45-1.94,0-.83.21-1.58.62-2.23s.99-1.17,1.73-1.55,1.58-.56,2.52-.56,1.71.17,2.39.52c.68.34,1.26.78,1.74,1.32.48.54.86,1.1,1.13,1.69l-1.75,1.01c-.21-.42-.47-.82-.79-1.22-.32-.4-.71-.73-1.16-.98s-1.01-.38-1.67-.38c-.91,0-1.58.22-1.99.66-.42.44-.62.93-.62,1.48,0,.46.12.89.36,1.28.24.39.64.76,1.21,1.1.57.34,1.34.68,2.32,1.02.45.16.92.37,1.42.62.5.26.96.58,1.38.97.42.39.77.86,1.04,1.42.27.55.41,1.21.41,1.98s-.14,1.4-.42,1.99c-.28.59-.66,1.1-1.15,1.51-.49.42-1.04.74-1.66.96-.62.22-1.26.34-1.93.34-.91,0-1.76-.2-2.53-.59-.78-.39-1.46-.91-2.04-1.56-.58-.65-1.06-1.34-1.43-2.08l1.63-1.1c.38.67.79,1.26,1.21,1.78Z"/>
        <path class="cls-1" d="M33.23,87.85l8.26,21.52c.72,1.87,1.78,3.18,3.2,3.94,1.42.76,3.09.77,5.02.03,1.93-.74,3.17-1.87,3.71-3.38.54-1.51.46-3.2-.26-5.07l-8.26-21.52,6.67-2.56,8.42,21.94c.74,1.93,1.08,3.75,1.02,5.45-.06,1.7-.47,3.27-1.22,4.7-.75,1.43-1.79,2.7-3.12,3.8-1.33,1.1-2.88,1.99-4.65,2.67-1.8.69-3.57,1.08-5.29,1.15-1.72.07-3.33-.17-4.84-.74-1.5-.57-2.85-1.46-4.03-2.68-1.18-1.22-2.15-2.8-2.89-4.73l-8.42-21.94,6.67-2.56Z"/>
        <path class="cls-1" d="M76.63,109.16l-7.11,2.22-6-36.63,20.72,17.2,7.24-25.94,15.92,33.53-7.11,2.22-8.01-18.08-4.8,18.68-14.58-12.63,3.71,19.43Z"/>
        <path class="cls-1" d="M118.53,96.77l-7.25,1.71-3.37-36.96,19.45,18.63,9.07-25.36,13.5,34.58-7.25,1.71-6.7-18.61-6.12,18.29-13.64-13.63,2.32,19.64Z"/>
        <path class="cls-1" d="M156.77,52.75l5.98,34.49-6.8,1.18-5.98-34.49,6.8-1.18ZM154.5,53.14l17.39-3.02,1.03,5.96-17.39,3.02-1.03-5.96ZM156.8,66.39l16.41-2.84,1.02,5.86-16.4,2.85-1.02-5.86ZM159.45,81.67l17.39-3.02,1.04,5.96-17.39,3.02-1.03-5.96Z"/>
        <path class="cls-1" d="M188.26,47.88l4.26,34.74-7.1.87-4.26-34.74,7.1-.87ZM185.48,48.22l7.35-.9c2.75-.34,5.13-.16,7.17.53,2.03.69,3.66,1.8,4.89,3.33,1.23,1.53,1.98,3.4,2.25,5.62.27,2.18,0,4.17-.83,5.97-.82,1.8-2.13,3.28-3.94,4.44-1.81,1.16-4.08,1.91-6.83,2.25l-7.34.9-.69-5.66,6.9-.84c1.26-.15,2.31-.49,3.17-1.02s1.49-1.21,1.89-2.04c.4-.84.54-1.8.4-2.9-.13-1.09-.5-2-1.09-2.71-.59-.72-1.37-1.23-2.33-1.53-.96-.3-2.07-.38-3.33-.22l-6.9.84-.74-6.05ZM198.83,65.42l13.3,14.79-8.39,1.03-12.4-14.9,7.49-.92Z"/>
        <path class="cls-1" d="M239.35,66.82c1.12,1.67,2.55,2.93,4.29,3.77,1.74.84,3.61,1.22,5.6,1.14,1.66-.07,3.14-.35,4.42-.84s2.43-1.12,3.45-1.9c1.02-.78,1.89-1.61,2.62-2.51l.34,8.04c-1.38,1.19-2.9,2.14-4.56,2.85-1.66.7-3.76,1.11-6.33,1.22-2.67.11-5.16-.21-7.47-.98-2.32-.77-4.35-1.93-6.1-3.49-1.75-1.56-3.13-3.43-4.14-5.6s-1.57-4.61-1.69-7.31c-.12-2.7.24-5.17,1.06-7.43.82-2.25,2.04-4.23,3.65-5.94,1.61-1.7,3.54-3.04,5.78-4,2.24-.96,4.7-1.5,7.36-1.62,2.56-.11,4.7.12,6.41.68,1.71.56,3.3,1.38,4.78,2.45l.34,8.04c-.8-.83-1.74-1.59-2.83-2.28-1.08-.69-2.28-1.22-3.6-1.6-1.32-.38-2.81-.53-4.47-.46-2,.08-3.83.62-5.49,1.61-1.66.99-2.98,2.35-3.95,4.1-.98,1.74-1.41,3.78-1.31,6.11.1,2.3.71,4.28,1.83,5.95Z"/>
        <path class="cls-1" d="M267.62,52.42c.97-2.2,2.31-4.1,4-5.7,1.7-1.6,3.68-2.83,5.94-3.67s4.71-1.24,7.35-1.19c2.67.05,5.11.53,7.32,1.46s4.15,2.22,5.81,3.88c1.65,1.66,2.92,3.61,3.8,5.84.88,2.23,1.29,4.68,1.24,7.35-.05,2.63-.55,5.07-1.51,7.3s-2.28,4.17-3.96,5.8c-1.68,1.64-3.65,2.89-5.92,3.77-2.27.88-4.75,1.29-7.45,1.24-2.7-.05-5.17-.55-7.4-1.51-2.23-.96-4.17-2.28-5.8-3.98-1.64-1.7-2.88-3.68-3.74-5.94-.86-2.27-1.27-4.71-1.22-7.35.05-2.67.56-5.1,1.53-7.3ZM274.93,65.83c.9,1.75,2.16,3.14,3.78,4.17,1.61,1.03,3.5,1.56,5.67,1.6,2.17.04,4.08-.43,5.73-1.4s2.95-2.31,3.9-4.03c.95-1.72,1.44-3.69,1.48-5.92.04-2.23-.37-4.22-1.24-5.97-.87-1.75-2.11-3.14-3.73-4.17-1.62-1.03-3.52-1.56-5.72-1.6-2.17-.04-4.08.43-5.73,1.4-1.65.97-2.96,2.31-3.92,4.03s-1.47,3.69-1.51,5.92c-.04,2.23.39,4.22,1.29,5.97Z"/>
        <path class="cls-1" d="M318.5,44.01l-2.05,28.68,13.91,1-.45,6.23-21.05-1.5,2.5-34.91,7.13.51Z"/>
        <path class="cls-1" d="M345.69,46.46l-3.24,28.57,13.86,1.57-.71,6.21-20.96-2.38,3.95-34.78,7.1.81Z"/>
        <path class="cls-1" d="M372.61,50l-5.51,34.56-6.81-1.09,5.51-34.56,6.81,1.09ZM365.78,78.23l17.43,2.78-.95,5.97-17.43-2.78.95-5.97ZM368.22,62.92l16.44,2.62-.94,5.88-16.44-2.62.94-5.88ZM370.34,49.64l17.43,2.78-.95,5.97-17.43-2.78.95-5.97Z"/>
        <path class="cls-1" d="M399.3,78.63c.67,1.9,1.73,3.47,3.21,4.73,1.47,1.25,3.18,2.09,5.14,2.51,1.63.35,3.12.45,4.49.3s2.63-.48,3.81-.97c1.18-.5,2.24-1.09,3.17-1.78l-1.69,7.87c-1.64.81-3.35,1.35-5.13,1.61-1.78.27-3.92.13-6.43-.41-2.61-.56-4.94-1.5-6.99-2.83-2.05-1.33-3.73-2.96-5.03-4.91-1.3-1.95-2.17-4.1-2.6-6.46-.43-2.36-.37-4.86.2-7.5.57-2.64,1.53-4.95,2.89-6.92,1.36-1.98,3.04-3.58,5.02-4.83,1.99-1.24,4.19-2.05,6.6-2.42,2.41-.37,4.92-.27,7.53.28,2.51.54,4.52,1.29,6.04,2.27,1.51.97,2.85,2.16,4.02,3.57l-1.69,7.87c-.57-1.01-1.29-1.98-2.16-2.92-.87-.94-1.9-1.75-3.08-2.45-1.18-.7-2.59-1.22-4.22-1.57-1.96-.42-3.86-.36-5.71.18s-3.47,1.53-4.86,2.97c-1.38,1.44-2.32,3.3-2.81,5.58-.48,2.25-.39,4.32.28,6.22Z"/>
        <path class="cls-1" d="M428.42,60.95l25.13,6.67-1.66,6.23-9.13-2.43-7.33,27.59-6.91-1.84,7.33-27.59-9.09-2.41,1.66-6.23Z"/>
        <path class="cls-1" d="M466.19,71.52l-10.16,33.49-6.94-2.1,10.16-33.49,6.94,2.1Z"/>
        <path class="cls-1" d="M176.28,7.66l2.44,16.62-4.01.59-2.45-16.62,4.01-.59ZM174.27,14.14l12.58-1.85.53,3.61-12.58,1.85-.53-3.61ZM187.44,6.02l2.44,16.62-4.01.59-2.44-16.62,4.01-.59Z"/>
        <path class="cls-1" d="M194.51,9.98c.34-1.12.87-2.11,1.59-2.98s1.61-1.58,2.66-2.12c1.05-.54,2.21-.89,3.48-1.03,1.29-.14,2.5-.06,3.64.24,1.14.3,2.15.8,3.05,1.48.9.69,1.63,1.54,2.19,2.56.56,1.02.92,2.17,1.06,3.46s.06,2.5-.26,3.63c-.32,1.13-.83,2.14-1.55,3.02s-1.6,1.61-2.65,2.16c-1.05.56-2.23.91-3.53,1.06-1.32.15-2.55.06-3.7-.25-1.15-.32-2.17-.83-3.06-1.53-.89-.71-1.62-1.58-2.17-2.61s-.91-2.19-1.05-3.48-.05-2.49.29-3.61ZM199.37,15.66c.47.71,1.09,1.24,1.84,1.59.75.35,1.61.47,2.56.37.94-.1,1.74-.41,2.4-.92s1.14-1.16,1.45-1.96c.31-.8.4-1.69.29-2.68s-.4-1.84-.86-2.55-1.07-1.25-1.82-1.6c-.75-.35-1.61-.47-2.58-.37-.95.11-1.76.41-2.42.92s-1.14,1.16-1.45,1.96c-.31.8-.4,1.69-.29,2.68.11.99.4,1.84.87,2.55Z"/>
        <path class="cls-1" d="M214.7,2.96l13.25-1.07.29,3.61-4.62.37,1.06,13.13-4.04.33-1.06-13.13-4.59.37-.29-3.61Z"/>
        <path class="cls-1" d="M246.59,7.56l2.71-.1c.46-.02.86-.1,1.18-.26.32-.16.57-.37.73-.64.17-.27.24-.6.23-.98-.02-.58-.23-1-.62-1.27-.39-.27-.94-.4-1.65-.37l-1.68.06.38,10.5,2.06-.08c.53-.02,1-.1,1.41-.25.41-.15.73-.39.97-.71.24-.32.35-.75.33-1.3-.01-.35-.1-.65-.25-.9-.15-.25-.36-.45-.62-.6-.26-.15-.56-.26-.89-.32-.33-.06-.7-.08-1.1-.07l-3.09.11-.08-2.21,3.55-.13c.82-.03,1.61.03,2.38.18.77.15,1.48.41,2.12.78.64.37,1.16.85,1.55,1.43s.61,1.3.64,2.15c.04,1.12-.19,2.03-.71,2.74s-1.25,1.24-2.21,1.61c-.96.36-2.11.57-3.44.62l-6.57.24-.61-16.79,6.16-.22c1.17-.04,2.2.08,3.1.36s1.62.73,2.16,1.34c.54.61.83,1.4.87,2.36.03.88-.2,1.64-.7,2.28s-1.18,1.14-2.06,1.5-1.9.56-3.06.6l-3.14.11-.06-1.78Z"/>
        <path class="cls-1" d="M266.56.38l.22,16.8-4.13.05-.22-16.8,4.13-.05Z"/>
        <path class="cls-1" d="M276.15,12.84c.42.45.88.8,1.38,1.04.5.25,1.03.37,1.59.38.59,0,1.08-.14,1.47-.43.39-.29.58-.69.59-1.21,0-.43-.1-.78-.33-1.05-.22-.27-.58-.52-1.07-.77-.49-.24-1.15-.52-1.96-.83-.4-.15-.86-.35-1.37-.61-.52-.26-1.01-.6-1.47-1.01-.46-.41-.84-.91-1.14-1.5s-.44-1.3-.44-2.13c0-.99.28-1.84.8-2.56.53-.71,1.24-1.26,2.13-1.62.89-.37,1.88-.55,2.97-.54,1.12.01,2.09.2,2.91.58.82.38,1.5.85,2.04,1.41.54.57.95,1.14,1.23,1.72l-3.11,1.7c-.24-.4-.51-.75-.82-1.05s-.65-.53-1.03-.71c-.37-.17-.78-.26-1.21-.26-.58,0-1.02.11-1.32.36s-.46.55-.46.92c0,.38.14.72.43,1.01s.71.56,1.26.8,1.22.51,2,.79c.59.23,1.14.49,1.65.79.51.3.96.66,1.35,1.08s.69.9.91,1.45c.22.55.33,1.17.32,1.88,0,.85-.19,1.6-.54,2.26-.35.66-.82,1.21-1.41,1.65-.59.44-1.25.78-2,1s-1.51.33-2.29.33c-1.09,0-2.1-.22-3.03-.62-.93-.4-1.74-.94-2.42-1.62-.68-.68-1.21-1.42-1.59-2.22l2.85-2.01c.33.61.71,1.14,1.12,1.59Z"/>
        <path class="cls-1" d="M295.26,11.79c.43.76,1.02,1.35,1.77,1.76.74.41,1.57.64,2.48.67.8.03,1.51-.04,2.12-.23.62-.18,1.17-.43,1.66-.75.49-.32.93-.66,1.31-1.03l-.17,4.36c-.69.5-1.44.89-2.26,1.16-.81.27-1.83.38-3.06.34-1.34-.05-2.57-.31-3.69-.77s-2.07-1.1-2.86-1.91-1.38-1.77-1.79-2.86c-.41-1.09-.58-2.29-.53-3.6.05-1.31.32-2.49.81-3.55.49-1.05,1.16-1.96,2-2.71.85-.75,1.84-1.31,3-1.68,1.15-.37,2.4-.53,3.74-.48,1.23.05,2.24.24,3.03.58s1.51.78,2.16,1.33l-.17,4.37c-.35-.4-.76-.78-1.23-1.14-.47-.36-1-.66-1.6-.88-.6-.22-1.3-.35-2.1-.38-.91-.04-1.75.12-2.53.48-.77.35-1.41.89-1.9,1.61-.49.72-.76,1.6-.8,2.63-.04,1.02.16,1.92.59,2.68Z"/>
        <path class="cls-1" d="M315.53,1.76l-.77,10.96c-.06.85.12,1.55.53,2.11.41.56,1.06.87,1.96.93.91.06,1.61-.15,2.09-.65.48-.5.76-1.17.81-2.01l.77-10.96,4.05.29-.79,11.25c-.07,1.05-.31,1.96-.71,2.72-.4.76-.92,1.37-1.57,1.83-.65.46-1.39.79-2.23.99s-1.73.26-2.67.2c-.94-.07-1.81-.26-2.61-.57-.79-.31-1.48-.74-2.06-1.29-.58-.55-1.01-1.22-1.3-2.03-.29-.81-.4-1.74-.32-2.79l.79-11.25,4.05.29Z"/>
        <path class="cls-1" d="M335.66,3.41l-1.59,16.72-4.11-.39,1.59-16.73,4.11.39Z"/>
        <path class="cls-1" d="M340.66,3.89l13.21,1.54-.42,3.6-4.6-.54-1.53,13.09-4.03-.47,1.53-13.09-4.58-.53.42-3.6Z"/>
        <path class="cls-1" d="M360.07,18.88c.35.5.76.91,1.23,1.22.46.31.97.5,1.53.58.58.08,1.09,0,1.51-.23.42-.24.67-.61.74-1.12.06-.43,0-.79-.18-1.08-.18-.29-.5-.59-.96-.9-.46-.31-1.07-.67-1.83-1.09-.38-.2-.8-.46-1.28-.79-.48-.33-.92-.73-1.32-1.2-.4-.47-.71-1.02-.93-1.64-.22-.62-.27-1.34-.15-2.17.14-.98.52-1.79,1.14-2.43.62-.64,1.39-1.08,2.33-1.33.93-.24,1.94-.29,3.01-.13,1.11.16,2.04.48,2.81.96.76.48,1.37,1.04,1.83,1.67.46.63.79,1.25.99,1.87l-3.31,1.27c-.18-.43-.4-.81-.67-1.15-.27-.34-.57-.62-.92-.84s-.74-.36-1.16-.42c-.57-.08-1.02-.02-1.36.18-.34.2-.53.49-.58.85-.06.38.04.73.29,1.06.25.33.63.65,1.15.97s1.14.67,1.87,1.05c.55.31,1.06.64,1.53,1.01s.86.78,1.19,1.25c.33.47.56.99.71,1.56.14.57.16,1.2.06,1.9-.12.84-.4,1.56-.84,2.17-.44.61-.97,1.09-1.62,1.45-.64.36-1.35.6-2.12.72-.77.12-1.54.13-2.32.02-1.08-.16-2.05-.49-2.92-1.02-.87-.52-1.6-1.17-2.18-1.93-.58-.76-1.01-1.57-1.28-2.42l3.09-1.61c.25.65.55,1.23.9,1.73Z"/>
      </g>
    </g>
  </g>
</svg>