<?xml version="1.0" encoding="UTF-8"?>
<svg id="_レイヤー_2" data-name="レイヤー 2" xmlns="http://www.w3.org/2000/svg" viewBox="0 0 170.02 56.55">
  <defs>
    <style>
      .cls-1 {
        fill: #5aa0c8;
      }
    </style>
  </defs>
  <g id="_レイヤー_1-2" data-name="レイヤー 1">
    <g>
      <g>
        <path class="cls-1" d="M30.83,28.96c.42.42.86.75,1.33,1.01.46.26.95.41,1.46.45.51.06.95-.03,1.34-.28.38-.24.6-.58.65-1,.07-.4,0-.74-.23-1.03-.22-.29-.53-.55-.92-.8s-.83-.5-1.31-.75c-.59-.31-1.14-.67-1.66-1.1-.52-.43-.91-.95-1.18-1.56-.27-.61-.34-1.32-.2-2.12.18-.95.56-1.69,1.15-2.25.59-.55,1.31-.93,2.15-1.14.84-.21,1.71-.26,2.6-.16,1.21.14,2.25.5,3.14,1.07.89.57,1.64,1.23,2.26,1.99l-2.24,2.28c-.42-.61-.93-1.14-1.52-1.6-.59-.46-1.22-.73-1.9-.81-.51-.06-.93,0-1.28.19-.34.18-.55.46-.61.81-.06.34.02.64.25.92.22.27.55.53.97.78.42.24.86.49,1.3.74.69.38,1.3.79,1.84,1.23.54.44.94.96,1.22,1.55.27.59.34,1.31.2,2.15-.18.95-.55,1.74-1.12,2.4-.57.65-1.29,1.12-2.15,1.42-.86.29-1.82.38-2.88.25-1-.12-1.9-.37-2.7-.74-.8-.38-1.52-.84-2.14-1.38s-1.17-1.12-1.63-1.71l2.55-2.24c.43.55.86,1.03,1.28,1.44Z"/>
        <path class="cls-1" d="M44.15,22.95c.98-1.04,2.16-1.82,3.52-2.32,1.36-.5,2.79-.67,4.29-.49s2.76.67,3.77,1.48c1.01.81,1.72,1.82,2.12,3.04s.42,2.53.06,3.92c-.36,1.44-1.04,2.68-2.02,3.72s-2.16,1.82-3.52,2.32c-1.36.5-2.8.67-4.33.48-1.48-.18-2.73-.66-3.74-1.46-1.01-.8-1.72-1.8-2.12-3.02-.4-1.22-.43-2.53-.1-3.93.39-1.46,1.08-2.71,2.06-3.75ZM46.14,29.21c.14.66.42,1.21.87,1.65.44.44,1.02.71,1.74.82.76.09,1.49,0,2.18-.3.69-.29,1.29-.73,1.8-1.32.51-.58.86-1.24,1.06-1.97.2-.73.22-1.41.08-2.05-.14-.64-.43-1.19-.87-1.65s-1.03-.74-1.77-.82c-.72-.11-1.43,0-2.13.29-.7.3-1.3.75-1.8,1.33-.5.58-.86,1.25-1.08,2-.19.69-.21,1.36-.08,2.02Z"/>
        <path class="cls-1" d="M80.03,28.13c-.02-.45-.15-.84-.39-1.16-.24-.32-.66-.51-1.25-.58-.55-.07-1.08,0-1.58.18-.51.19-.93.48-1.28.88-.35.4-.6.88-.75,1.44l-2.63,8.81-4.07-.49,4.26-14.32,4.07.48-.57,2.06c.6-.7,1.3-1.22,2.09-1.56.79-.33,1.69-.44,2.68-.32,1.17.12,2.05.47,2.65,1.06.6.59.97,1.31,1.11,2.18.14.87.08,1.82-.2,2.86l-2.74,9.15-4.16-.5,2.62-8.71c.13-.52.18-1.01.16-1.46Z"/>
        <path class="cls-1" d="M93.77,25.45l-4.25,14.32-3.94-.47,4.19-14.33,4,.48ZM91.88,17.8c.54-.38,1.14-.52,1.79-.45.7.08,1.26.37,1.68.86.43.49.6,1.08.52,1.75-.08.66-.38,1.18-.91,1.57-.53.39-1.14.54-1.84.46-.66-.08-1.2-.37-1.64-.87-.44-.5-.61-1.08-.53-1.74.08-.68.39-1.21.93-1.58Z"/>
        <path class="cls-1" d="M98.91,35.61c.16.66.48,1.22.98,1.66.49.45,1.13.73,1.91.84.95.13,1.88.03,2.79-.33.91-.35,1.68-.81,2.31-1.38l-1.07,4.13c-.67.37-1.42.64-2.27.81s-1.76.19-2.73.08c-1.48-.18-2.74-.67-3.77-1.47-1.03-.8-1.75-1.81-2.15-3.03-.4-1.22-.42-2.53-.06-3.92.37-1.46,1.04-2.71,2.03-3.75.98-1.04,2.16-1.81,3.53-2.32,1.37-.5,2.83-.66,4.38-.48.93.11,1.76.34,2.5.68.73.34,1.36.79,1.87,1.32l-1.08,4.16c-.29-.77-.77-1.4-1.43-1.89-.66-.5-1.42-.8-2.29-.9-.83-.1-1.61,0-2.34.32s-1.37.75-1.9,1.34c-.53.58-.91,1.26-1.13,2.02-.2.75-.22,1.46-.06,2.12Z"/>
        <path class="cls-1" d="M112.32,42.01c-.98-.65-1.69-1.51-2.16-2.58s-.61-2.3-.44-3.69c.14-1.19.49-2.27,1.05-3.26.56-.99,1.28-1.82,2.17-2.51.89-.69,1.9-1.19,3.03-1.51,1.13-.32,2.35-.4,3.64-.24,1.42.17,2.58.57,3.48,1.19.9.62,1.55,1.44,1.95,2.46.4,1.01.51,2.21.35,3.59-.04.34-.12.7-.23,1.08-.11.38-.24.71-.37.97l-12.9-1.54.3-2.54,9.76,1.16-1.26,1.33c.13-.2.25-.42.37-.66.11-.24.19-.48.21-.72.08-.66.04-1.23-.1-1.72s-.4-.89-.76-1.19c-.36-.3-.86-.49-1.5-.56s-1.23-.02-1.78.17-1.04.49-1.48.9c-.43.41-.8.92-1.1,1.53s-.53,1.29-.68,2.05c-.18.79-.2,1.51-.06,2.15.14.64.43,1.15.88,1.54.45.39,1.05.62,1.82.72.85.1,1.63,0,2.34-.3.71-.3,1.33-.74,1.85-1.33l3.36,1.53c-.94,1.2-2.1,2.09-3.48,2.66-1.38.58-2.95.76-4.71.55-1.4-.17-2.58-.58-3.56-1.23Z"/>
        <path class="cls-1" d="M127.79,40.81c.55-.4,1.2-.55,1.94-.46.74.09,1.33.39,1.78.9.44.52.62,1.12.54,1.82s-.4,1.25-.95,1.64c-.55.4-1.2.55-1.94.46-.74-.09-1.33-.39-1.78-.9-.44-.51-.62-1.12-.54-1.82s.4-1.25.95-1.64ZM137.86,22.98l-5.28,14.78-3.27-.39,3.53-14.98,5.02.6Z"/>
      </g>
      <path class="cls-1" d="M.21,2.24c2.98,5.21,5.3,10.8,7.2,16.48s3.54,11.78,4.01,17.87c.15,1.91,3.15,1.93,3,0-.49-6.36-2.09-12.63-4.11-18.67S5.91,6.15,2.8.73C1.84-.95-.75.56.21,2.24H.21Z"/>
      <path class="cls-1" d="M140.48,56.15c8.93-8.08,18.58-15.32,28.84-21.64,1.64-1.01.14-3.61-1.51-2.59-10.47,6.45-20.33,13.85-29.45,22.1-1.43,1.3.69,3.41,2.12,2.12h0Z"/>
    </g>
  </g>
</svg>