<?xml version="1.0" encoding="UTF-8"?>
<svg id="_レイヤー_2" data-name="レイヤー 2" xmlns="http://www.w3.org/2000/svg" viewBox="0 0 256.55 134.43">
  <defs>
    <style>
      .cls-1 {
        fill: #5aa0c8;
      }
    </style>
  </defs>
  <g id="_レイヤー_1-2" data-name="レイヤー 1">
    <g>
      <g>
        <path class="cls-1" d="M62.59,53.19c.13.8.44,1.45.91,1.97.47.51,1.23.77,2.25.77s1.96-.21,2.79-.63c.84-.42,1.54-1.02,2.11-1.8.57-.78.93-1.68,1.08-2.71l2.85-16.13h7.3l-4.56,26.22h-7.3l.63-3.82c-.91,1.33-2.03,2.39-3.36,3.19-1.33.8-2.91,1.2-4.73,1.2-2.05,0-3.68-.45-4.87-1.34-1.2-.89-2-2.1-2.42-3.62-.42-1.52-.49-3.21-.23-5.07l2.91-16.76h7.41l-2.74,15.96c-.15.91-.16,1.77-.03,2.56Z"/>
        <path class="cls-1" d="M122.01,60.88h-7.35l2.91-15.96c.08-.91.08-1.78,0-2.59-.08-.82-.31-1.47-.71-1.97-.4-.49-1.07-.74-2.02-.74s-1.82.23-2.59.68c-.78.46-1.41,1.06-1.88,1.82-.48.76-.81,1.65-1,2.68l-2.74,16.07h-7.24l2.85-15.96c.11-.95.12-1.82.03-2.62-.1-.8-.34-1.44-.74-1.94s-1.05-.74-1.97-.74-1.81.21-2.56.63c-.76.42-1.38,1.01-1.85,1.77-.48.76-.81,1.63-1,2.62l-2.79,16.25h-7.07l4.5-26.22h7.07l-.57,3.59c.57-.84,1.23-1.57,2-2.19.76-.63,1.6-1.11,2.54-1.45.93-.34,1.95-.51,3.05-.51,1.33-.04,2.44.13,3.33.51.89.38,1.6.92,2.14,1.62.53.7.91,1.55,1.14,2.54,1.06-1.44,2.33-2.58,3.79-3.42,1.46-.83,3.13-1.25,4.99-1.25,1.98-.04,3.48.4,4.5,1.31,1.03.91,1.69,2.13,2,3.65.3,1.52.34,3.21.11,5.07l-2.85,16.76Z"/>
        <path class="cls-1" d="M166.7,60.88h-7.35l2.91-15.96c.08-.91.08-1.78,0-2.59-.08-.82-.31-1.47-.71-1.97-.4-.49-1.07-.74-2.02-.74s-1.82.23-2.59.68c-.78.46-1.41,1.06-1.88,1.82-.48.76-.81,1.65-1,2.68l-2.74,16.07h-7.24l2.85-15.96c.11-.95.12-1.82.03-2.62-.1-.8-.34-1.44-.74-1.94s-1.05-.74-1.97-.74-1.81.21-2.56.63c-.76.42-1.38,1.01-1.85,1.77-.48.76-.81,1.63-1,2.62l-2.79,16.25h-7.07l4.5-26.22h7.07l-.57,3.59c.57-.84,1.23-1.57,2-2.19.76-.63,1.6-1.11,2.54-1.45.93-.34,1.95-.51,3.05-.51,1.33-.04,2.44.13,3.33.51.89.38,1.6.92,2.14,1.62.53.7.91,1.55,1.14,2.54,1.06-1.44,2.33-2.58,3.79-3.42,1.46-.83,3.13-1.25,4.99-1.25,1.98-.04,3.48.4,4.5,1.31,1.03.91,1.69,2.13,2,3.65.3,1.52.34,3.21.11,5.07l-2.85,16.76Z"/>
        <path class="cls-1" d="M176.27,54.24c.87-.89,1.98-1.34,3.31-1.34s2.49.45,3.36,1.34c.87.89,1.31,1.99,1.31,3.28,0,1.22-.44,2.28-1.31,3.19-.87.91-2,1.37-3.36,1.37s-2.43-.46-3.31-1.37c-.87-.91-1.31-1.98-1.31-3.19,0-1.29.44-2.38,1.31-3.28Z"/>
        <path class="cls-1" d="M193.71,54.24c.87-.89,1.98-1.34,3.31-1.34s2.49.45,3.36,1.34c.87.89,1.31,1.99,1.31,3.28,0,1.22-.44,2.28-1.31,3.19-.87.91-2,1.37-3.36,1.37s-2.43-.46-3.31-1.37c-.87-.91-1.31-1.98-1.31-3.19,0-1.29.44-2.38,1.31-3.28Z"/>
        <path class="cls-1" d="M211.16,54.24c.87-.89,1.98-1.34,3.31-1.34s2.49.45,3.36,1.34c.87.89,1.31,1.99,1.31,3.28,0,1.22-.44,2.28-1.31,3.19-.87.91-2,1.37-3.36,1.37s-2.43-.46-3.31-1.37c-.87-.91-1.31-1.98-1.31-3.19,0-1.29.44-2.38,1.31-3.28Z"/>
      </g>
      <path class="cls-1" d="M29.93,0C20.23.52,12.97,7.64,7.79,15.26c-2.87,4.23-5.71,8.92-7.1,13.86s-.65,9.92,2,14.28c2.86,4.72,7.22,8.32,11.52,11.67v-2.12c-5.11,5.51-7.16,13.36-5.66,20.7s6.88,13.26,13.74,16.09c3.86,1.59,8,2.08,12.12,1.49,1.9-.27,1.09-3.16-.8-2.89-6.24.89-12.78-1.56-17.16-6.03s-6.27-11.29-4.99-17.59c.74-3.6,2.37-6.95,4.87-9.65.5-.54.66-1.61,0-2.12-6.55-5.1-14.89-11.98-13.14-21.33.88-4.71,3.52-9.09,6.06-13.1,2.32-3.66,4.99-7.12,8.25-9.99,3.49-3.08,7.75-5.27,12.45-5.52,1.92-.1,1.93-3.1,0-3h0Z"/>
      <path class="cls-1" d="M65.17,96.06c-4.95-.73-9.94,1.36-12.85,5.46s-2.62,9.43-.03,13.45,7.16,5.96,11.86,5.04,8.38-4.4,9.03-9.01c.72-5.14-2.23-10.4-7.14-12.19-1.82-.66-2.6,2.24-.8,2.89,3.12,1.14,5.05,4.51,5.06,7.74,0,3.47-2.44,6.3-5.67,7.35s-6.9.22-9.17-2.54-2.9-6.62-1.4-9.76c1.79-3.74,6.2-6.14,10.32-5.54.81.12,1.6-.2,1.85-1.05.2-.7-.25-1.73-1.05-1.85h0Z"/>
      <path class="cls-1" d="M33.61,120.39c-4.62-4.19-13.04-1.46-13.69,4.93-.31,3.09,1.42,6.19,3.95,7.89,2.67,1.8,6.12,1.56,8.64-.39,2.73-2.11,4.29-5.98,3-9.31-.29-.76-1.01-1.28-1.85-1.05-.72.2-1.34,1.09-1.05,1.85.76,1.96.19,4.03-1.27,5.55-.76.79-1.53,1.27-2.55,1.51-.12.03-.25.06-.38.08.29-.04-.21.01-.22.01-.26.01-.52,0-.78-.02.29.03-.2-.04-.21-.04-.15-.03-.3-.07-.45-.11-.38-.11-.35-.1-.64-.24-.55-.27-.86-.49-1.22-.81-.43-.39-.75-.77-.98-1.11-.63-.94-.98-1.94-1.02-2.88-.09-2,.96-3.44,2.81-4.34.42-.21-.26.09.18-.08.18-.07.37-.13.55-.19.28-.08.57-.14.85-.2.45-.1-.28.01.18-.03.15-.01.29-.03.44-.03.29-.01.58,0,.87.01.87.06,2.04.52,2.72,1.14.6.54,1.53.59,2.12,0,.55-.55.6-1.58,0-2.12h0Z"/>
      <path class="cls-1" d="M115.66,113.13c1.18,5.16,6.25,7.7,10.89,9.16,6.32,1.99,12.94,3.41,19.44,4.72,12.79,2.57,26.16,3.62,38.83-.12,5.77-1.7,11.23-4.37,15.94-8.11,2.34-1.85,4.33-4.56,7.29-5.41,2.71-.78,5.59-.92,8.34-1.62,10.18-2.61,19.43-8.54,26.42-16.35,7.91-8.84,12.99-20.08,13.74-31.97.12-1.93-2.88-1.92-3,0-1.26,19.95-15.86,38.19-34.74,44.47-2.4.8-4.87,1.41-7.37,1.81-3.02.49-5.72.91-8.18,2.88-2.24,1.8-4.18,3.85-6.57,5.48s-4.78,2.92-7.35,4.02c-11.29,4.83-23.98,5-35.94,3.18-7.44-1.13-14.76-2.94-22.05-4.8-4.65-1.18-11.53-2.67-12.79-8.15-.43-1.88-3.32-1.09-2.89.8h0Z"/>
    </g>
  </g>
</svg>