<?xml version="1.0" encoding="UTF-8"?>
<svg id="_レイヤー_2" data-name="レイヤー 2" xmlns="http://www.w3.org/2000/svg" viewBox="0 0 151.71 101.05">
  <defs>
    <style>
      .cls-1 {
        fill: #5aa0c8;
      }
    </style>
  </defs>
  <g id="_レイヤー_1-2" data-name="レイヤー 1">
    <g>
      <path class="cls-1" d="M35.12,29.88l-4.91-1.44L44.11,0l4.91,1.44-13.9,28.44ZM46.84,19.74c.08-.55,0-1.04-.24-1.47s-.68-.77-1.33-1.01c-.71-.24-1.39-.27-2.05-.1-.66.17-1.26.47-1.79.92-.53.44-.97.96-1.31,1.55l-1.04-.3c.61-1.24,1.39-2.33,2.33-3.28.94-.95,2.02-1.62,3.24-2.03,1.22-.41,2.52-.41,3.9,0,1.38.4,2.38,1.02,2.99,1.83.61.82.89,1.78.85,2.87-.04,1.1-.34,2.26-.9,3.49l-5.31,10.91-4.88-1.43,5.03-10.2c.26-.62.43-1.2.51-1.75Z"/>
      <path class="cls-1" d="M56.92,21.54c1.34-1.11,2.82-1.87,4.46-2.28,1.63-.41,3.24-.37,4.82.12,1.2.35,2.14.9,2.81,1.65.67.75,1.12,1.63,1.36,2.63.23,1,.27,2.07.1,3.22s-.5,2.3-1.01,3.45c-.52,1.21-1.19,2.3-2.02,3.27-.82.97-1.74,1.76-2.74,2.39-1,.62-2.07,1.03-3.21,1.21-1.14.18-2.29.1-3.47-.24-1.61-.47-2.85-1.28-3.7-2.44s-1.34-2.5-1.44-4.05c-.1-1.54.2-3.11.92-4.71.75-1.7,1.79-3.1,3.13-4.21ZM58.3,29.76c.01.85.25,1.59.7,2.23.45.63,1.12,1.09,2.01,1.38.61.18,1.25.23,1.92.14.66-.08,1.31-.29,1.95-.62.64-.33,1.22-.75,1.75-1.26.52-.51.95-1.1,1.28-1.75.3-.66.49-1.3.54-1.93.06-.62,0-1.21-.17-1.78-.17-.56-.44-1.05-.82-1.47-.38-.42-.87-.73-1.48-.93-.89-.29-1.8-.32-2.74-.09-.94.22-1.8.65-2.58,1.27-.78.62-1.38,1.38-1.81,2.28-.38.83-.57,1.68-.55,2.53ZM76.91,22.93l-8.2,16.77-4.8-1.4,8.16-16.78,4.84,1.42Z"/>
      <path class="cls-1" d="M69.23,49.03l12.17-24.78,4.84,1.42-12.04,24.78-4.96-1.41ZM93.14,42.46c-1.35,1.15-2.84,1.93-4.48,2.34-1.63.41-3.26.38-4.87-.09-1.2-.35-2.14-.91-2.8-1.67-.67-.76-1.09-1.65-1.28-2.67s-.18-2.1.02-3.27c.2-1.16.55-2.31,1.05-3.44.55-1.2,1.22-2.3,2.02-3.28.8-.99,1.7-1.81,2.68-2.47.98-.66,2.04-1.09,3.17-1.3s2.3-.14,3.5.21c1.61.47,2.85,1.29,3.7,2.46s1.32,2.53,1.39,4.09c.07,1.56-.25,3.17-.95,4.83-.75,1.7-1.8,3.12-3.15,4.27ZM91.79,34.18c-.04-.8-.3-1.52-.77-2.14-.47-.62-1.14-1.08-2-1.36-.61-.18-1.25-.23-1.91-.16-.66.07-1.31.26-1.94.58-.63.31-1.21.72-1.73,1.22-.52.5-.95,1.08-1.28,1.73-.28.67-.45,1.31-.5,1.92-.05.61,0,1.18.18,1.72.18.54.46,1,.84,1.39.39.39.88.69,1.49.89.91.29,1.82.34,2.73.13.91-.21,1.75-.6,2.54-1.19.78-.59,1.38-1.33,1.77-2.21.42-.88.61-1.72.57-2.52Z"/>
      <path class="cls-1" d="M91.65,55.59l12.17-24.78,4.84,1.42-12.04,24.78-4.96-1.41ZM115.56,49.01c-1.35,1.15-2.84,1.93-4.48,2.34-1.63.41-3.26.38-4.87-.09-1.2-.35-2.14-.91-2.8-1.67-.67-.76-1.09-1.65-1.28-2.67-.19-1.01-.18-2.1.02-3.27.2-1.16.55-2.31,1.05-3.44.54-1.2,1.22-2.3,2.02-3.28.8-.99,1.7-1.81,2.68-2.47s2.04-1.09,3.17-1.3c1.13-.21,2.3-.14,3.5.21,1.61.47,2.84,1.29,3.7,2.46.85,1.17,1.32,2.53,1.39,4.09.07,1.56-.25,3.17-.95,4.83-.75,1.7-1.8,3.12-3.14,4.27ZM114.21,40.74c-.04-.8-.3-1.52-.77-2.14-.47-.62-1.14-1.08-2-1.36-.61-.18-1.25-.23-1.91-.16-.66.07-1.31.26-1.94.58-.63.31-1.21.72-1.73,1.22s-.95,1.08-1.28,1.73c-.28.67-.45,1.31-.5,1.92-.05.61,0,1.18.18,1.72.18.54.46,1,.84,1.39.39.39.88.69,1.49.89.92.3,1.82.34,2.73.13.91-.21,1.75-.6,2.54-1.2.78-.59,1.37-1.33,1.77-2.21.42-.88.61-1.72.57-2.52Z"/>
      <path class="cls-1" d="M118.92,63.52l-5.14-1.51,9.24-8.51.15-17.04,5.26,1.54-.92,14.98-2.42-.83,11.91-11.65,5.22,1.53-23.29,21.49Z"/>
      <path class="cls-1" d="M4.89,56.63c.44.6.91,1.11,1.43,1.52.52.42,1.09.7,1.71.85.61.18,1.18.16,1.71-.06.52-.22.86-.59,1.01-1.1.17-.48.14-.92-.08-1.31-.22-.4-.54-.79-.97-1.18s-.92-.79-1.46-1.2c-.66-.5-1.27-1.06-1.82-1.7-.55-.63-.93-1.36-1.14-2.17-.21-.81-.14-1.69.19-2.65.41-1.13,1.04-1.97,1.89-2.53.84-.56,1.81-.88,2.89-.97,1.08-.09,2.16.03,3.23.34,1.46.43,2.68,1.08,3.66,1.96s1.77,1.86,2.37,2.92l-3.23,2.35c-.39-.84-.91-1.6-1.54-2.28s-1.36-1.15-2.18-1.39c-.61-.18-1.15-.19-1.62-.04-.46.16-.77.45-.92.88-.15.4-.11.8.11,1.18.22.38.57.77,1.04,1.16.47.39.95.78,1.45,1.17.76.61,1.43,1.25,2.01,1.9.57.66.97,1.37,1.18,2.16.21.79.15,1.68-.2,2.69-.41,1.13-1.04,2.04-1.88,2.72-.84.69-1.82,1.12-2.95,1.31-1.12.19-2.33.09-3.6-.28-1.2-.35-2.26-.84-3.17-1.47-.91-.63-1.7-1.34-2.35-2.15-.66-.8-1.21-1.62-1.66-2.45l3.61-2.23c.42.76.84,1.44,1.28,2.04Z"/>
      <path class="cls-1" d="M23.8,61.45c-.07.56,0,1.06.23,1.5.22.44.67.76,1.36.96.69.2,1.36.25,2,.13.64-.12,1.24-.38,1.77-.79.54-.41.96-.95,1.26-1.61l5.1-10.3,4.91,1.44-8.24,16.76-4.92-1.44,1.18-2.45c-.88.72-1.84,1.21-2.89,1.49s-2.19.23-3.42-.13c-1.38-.4-2.39-1.03-3.02-1.86-.63-.84-.94-1.81-.92-2.92.02-1.11.3-2.26.85-3.46l5.26-10.71,4.99,1.46-4.99,10.21c-.28.58-.46,1.16-.53,1.72Z"/>
      <path class="cls-1" d="M62.3,78.34l-4.95-1.45,5.1-10.18c.23-.6.4-1.18.51-1.75.11-.57.08-1.05-.09-1.46s-.58-.71-1.22-.9c-.64-.19-1.27-.2-1.88-.05-.61.15-1.16.44-1.62.86-.47.42-.87.95-1.2,1.61l-5.01,10.29-4.88-1.43,5.06-10.19c.26-.62.44-1.2.54-1.76.09-.56.05-1.04-.12-1.45s-.56-.71-1.18-.89c-.64-.19-1.26-.21-1.85-.08-.6.13-1.13.41-1.59.82-.47.42-.87.94-1.19,1.57l-5.08,10.39-4.76-1.39,8.2-16.77,4.76,1.39-1.09,2.31c.55-.45,1.14-.81,1.78-1.08.63-.27,1.3-.43,1.99-.48.7-.05,1.41.04,2.16.26.9.24,1.62.57,2.15,1,.53.43.9.94,1.12,1.52.22.58.31,1.22.27,1.93,1-.76,2.08-1.28,3.23-1.56,1.15-.27,2.35-.23,3.61.14,1.34.36,2.26.95,2.78,1.77.51.82.72,1.77.62,2.85-.09,1.08-.4,2.23-.92,3.44l-5.22,10.72Z"/>
      <path class="cls-1" d="M92.4,87.15l-4.95-1.45,5.1-10.18c.23-.6.4-1.18.51-1.75.11-.57.08-1.05-.09-1.46s-.58-.71-1.22-.9c-.64-.19-1.27-.2-1.88-.05-.61.15-1.16.44-1.63.86-.47.42-.87.95-1.2,1.61l-5.01,10.29-4.88-1.43,5.06-10.19c.26-.62.44-1.2.54-1.76.09-.56.05-1.04-.12-1.45-.17-.41-.56-.71-1.18-.89-.64-.19-1.26-.21-1.85-.08-.59.13-1.13.41-1.59.83-.47.42-.87.94-1.19,1.57l-5.08,10.39-4.76-1.39,8.2-16.77,4.76,1.39-1.09,2.31c.55-.45,1.14-.81,1.78-1.08.63-.27,1.3-.43,1.99-.48.69-.05,1.41.04,2.15.26.9.24,1.62.57,2.15,1,.53.43.9.94,1.12,1.52.22.58.31,1.22.27,1.93,1-.76,2.08-1.28,3.23-1.56,1.15-.27,2.35-.23,3.61.14,1.34.36,2.26.95,2.78,1.77s.72,1.77.62,2.85c-.1,1.08-.4,2.23-.92,3.44l-5.22,10.73Z"/>
      <path class="cls-1" d="M101.67,89.23c-1.07-1.01-1.78-2.21-2.13-3.62-.35-1.41-.28-2.96.21-4.65.42-1.43,1.07-2.7,1.97-3.8.89-1.1,1.96-1.98,3.19-2.65s2.59-1.08,4.05-1.23c1.46-.16,2.97,0,4.54.45,1.71.5,3.06,1.23,4.05,2.19.99.95,1.62,2.1,1.89,3.43.28,1.33.17,2.83-.32,4.49-.12.41-.29.84-.5,1.29s-.44.82-.66,1.12l-15.59-4.56.9-3.07,11.79,3.45-1.82,1.38c.2-.22.4-.47.59-.74.19-.28.33-.56.41-.84.23-.79.31-1.51.23-2.14-.08-.63-.31-1.17-.69-1.62-.39-.45-.96-.78-1.73-1.01-.77-.22-1.51-.27-2.23-.15-.72.12-1.39.39-2.01.81-.62.42-1.18.97-1.67,1.66-.49.69-.91,1.48-1.26,2.38-.39.94-.56,1.82-.52,2.64.04.82.29,1.51.77,2.08.47.57,1.17.99,2.09,1.26,1.02.3,2.01.34,2.95.11.94-.23,1.79-.64,2.55-1.25l3.83,2.58c-1.4,1.28-3.02,2.14-4.83,2.57-1.82.43-3.79.33-5.92-.29-1.69-.49-3.07-1.24-4.13-2.25Z"/>
      <path class="cls-1" d="M122.62,95.98l-4.84-1.42,8.2-16.77,4.84,1.42-8.2,16.77ZM132.86,84.69c-.27-.27-.62-.47-1.05-.6-.66-.22-1.3-.21-1.93.04-.63.25-1.19.63-1.69,1.15-.5.52-.91,1.12-1.22,1.81l-.66-1.74c.58-1.14,1.36-2.16,2.34-3.09.98-.92,2.03-1.61,3.15-2.06,1.12-.45,2.19-.53,3.21-.23.64.19,1.17.48,1.6.88.42.4.76.89,1.01,1.46l-4,3.29c-.23-.35-.48-.65-.75-.93Z"/>
      <path class="cls-1" d="M135.61,95.22c.76-.37,1.59-.43,2.49-.17.89.26,1.56.76,2,1.48s.54,1.51.29,2.36c-.25.85-.75,1.45-1.51,1.83-.76.37-1.59.43-2.49.17-.9-.26-1.57-.76-2.01-1.48-.44-.73-.54-1.51-.29-2.36.25-.84.75-1.45,1.51-1.83ZM151.71,75.32l-9.55,17.13-3.95-1.16,7.44-17.74,6.07,1.77Z"/>
    </g>
  </g>
</svg>