<?xml version="1.0" encoding="UTF-8"?>
<svg id="_レイヤー_2" data-name="レイヤー 2" xmlns="http://www.w3.org/2000/svg" viewBox="0 0 239.69 193.98">
  <defs>
    <style>
      .cls-1 {
        fill: #5aa0c8;
      }
    </style>
  </defs>
  <g id="_レイヤー_1-2" data-name="レイヤー 1">
    <g>
      <g>
        <path class="cls-1" d="M54.25,99.34l-3.16,18.4h-4.96l3.08-18.4h5.04ZM50.77,90.12c.61-.55,1.33-.82,2.16-.82.88,0,1.62.27,2.22.82.6.55.9,1.25.9,2.1s-.3,1.52-.9,2.08c-.6.56-1.34.84-2.22.84-.83,0-1.55-.28-2.16-.84-.61-.56-.92-1.25-.92-2.08s.31-1.55.92-2.1Z"/>
        <path class="cls-1" d="M68.21,89.74l-5.72,9.84h-3.68l3.84-9.84h5.56Z"/>
        <path class="cls-1" d="M92.93,117.74h-5.16l2.04-11.2c.05-.64.05-1.25,0-1.82-.05-.57-.22-1.03-.5-1.38-.28-.35-.75-.52-1.42-.52s-1.27.16-1.82.48c-.55.32-.99.75-1.32,1.28-.33.53-.57,1.16-.7,1.88l-1.92,11.28h-5.08l2-11.2c.08-.67.09-1.28.02-1.84-.07-.56-.24-1.01-.52-1.36-.28-.35-.74-.52-1.38-.52s-1.27.15-1.8.44c-.53.29-.97.71-1.3,1.24-.33.53-.57,1.15-.7,1.84l-1.96,11.4h-4.96l3.16-18.4h4.96l-.4,2.52c.4-.59.87-1.1,1.4-1.54.53-.44,1.13-.78,1.78-1.02.65-.24,1.37-.36,2.14-.36.93-.03,1.71.09,2.34.36.63.27,1.13.65,1.5,1.14.37.49.64,1.09.8,1.78.75-1.01,1.63-1.81,2.66-2.4,1.03-.59,2.19-.88,3.5-.88,1.39-.03,2.44.28,3.16.92.72.64,1.19,1.49,1.4,2.56.21,1.07.24,2.25.08,3.56l-2,11.76Z"/>
        <path class="cls-1" d="M113.89,113.02c.59.45,1.19.81,1.8,1.06.61.25,1.24.37,1.88.34.64,0,1.18-.18,1.62-.54.44-.36.66-.81.66-1.34.03-.51-.12-.92-.44-1.24-.32-.32-.74-.61-1.26-.86-.52-.25-1.1-.5-1.74-.74-.77-.29-1.51-.67-2.22-1.12-.71-.45-1.27-1.04-1.7-1.76-.43-.72-.61-1.59-.56-2.6.08-1.2.45-2.19,1.1-2.96.65-.77,1.49-1.35,2.5-1.74,1.01-.39,2.08-.58,3.2-.58,1.52,0,2.87.29,4.06.86,1.19.57,2.22,1.29,3.1,2.14l-2.44,3.16c-.61-.69-1.32-1.28-2.12-1.76-.8-.48-1.63-.72-2.48-.72-.64,0-1.16.14-1.56.42-.4.28-.61.65-.64,1.1-.03.43.12.79.44,1.1.32.31.76.58,1.32.82.56.24,1.13.48,1.72.72.91.37,1.73.79,2.46,1.26.73.47,1.31,1.05,1.74,1.74.43.69.61,1.57.56,2.64-.08,1.2-.43,2.25-1.04,3.14-.61.89-1.43,1.59-2.46,2.08-1.03.49-2.21.74-3.54.74-1.25,0-2.41-.17-3.46-.52-1.05-.35-2.01-.81-2.86-1.4-.85-.59-1.61-1.21-2.28-1.88l2.84-3.16c.61.61,1.21,1.15,1.8,1.6Z"/>
        <path class="cls-1" d="M129.53,103.58c1.07-1.44,2.41-2.57,4.02-3.4,1.61-.83,3.37-1.24,5.26-1.24s3.53.43,4.9,1.28c1.37.85,2.4,2.01,3.08,3.46.68,1.45.9,3.07.66,4.86-.24,1.84-.89,3.48-1.96,4.92-1.07,1.44-2.41,2.57-4.02,3.4-1.61.83-3.38,1.24-5.3,1.24s-3.49-.42-4.86-1.26c-1.37-.84-2.4-1.99-3.08-3.44-.68-1.45-.91-3.07-.7-4.86.27-1.87.93-3.52,2-4.96ZM132.93,111.06c.27.8.71,1.44,1.32,1.92.61.48,1.37.73,2.28.76.96,0,1.85-.23,2.66-.7.81-.47,1.49-1.1,2.04-1.9.55-.8.89-1.67,1.02-2.6.13-.93.07-1.79-.2-2.56-.27-.77-.71-1.41-1.32-1.92-.61-.51-1.39-.76-2.32-.76-.91-.03-1.77.2-2.6.68-.83.48-1.51,1.12-2.04,1.92-.53.8-.88,1.68-1.04,2.64-.13.88-.07,1.72.2,2.52Z"/>
        <path class="cls-1" d="M174.35,90.96c-.25-.17-.55-.27-.9-.3-.45,0-.85.14-1.2.42s-.63.65-.84,1.12c-.21.47-.36.97-.44,1.5l-4.12,24.04h-4.96l4.28-25.24c.21-1.28.63-2.41,1.26-3.4.63-.99,1.45-1.76,2.46-2.32,1.01-.56,2.2-.83,3.56-.8,1.04,0,1.91.19,2.6.58.69.39,1.27.83,1.72,1.34l-2.72,3.8c-.21-.32-.45-.57-.7-.74ZM174.25,99.34l-.8,4.36h-11.28l.8-4.36h11.28Z"/>
        <path class="cls-1" d="M182.49,99.34l-3.16,18.4h-4.96l3.08-18.4h5.04ZM179.01,90.12c.61-.55,1.33-.82,2.16-.82.88,0,1.62.27,2.22.82.6.55.9,1.25.9,2.1s-.3,1.52-.9,2.08c-.6.56-1.34.84-2.22.84-.83,0-1.55-.28-2.16-.84-.61-.56-.92-1.25-.92-2.08s.31-1.55.92-2.1Z"/>
        <path class="cls-1" d="M198.03,104.7c-.09-.56-.31-1.02-.66-1.38-.35-.36-.89-.54-1.64-.54-.69,0-1.34.15-1.94.46s-1.09.73-1.46,1.28c-.37.55-.61,1.18-.72,1.9l-1.96,11.32h-5.12l3.16-18.4h5.12l-.4,2.64c.64-.96,1.43-1.71,2.36-2.24.93-.53,2.03-.8,3.28-.8,1.47-.03,2.61.28,3.44.92s1.39,1.49,1.7,2.54c.31,1.05.37,2.25.18,3.58l-2.04,11.76h-5.24l1.96-11.2c.08-.67.07-1.28-.02-1.84Z"/>
        <path class="cls-1" d="M210.81,117.14c-1.31-.67-2.33-1.63-3.06-2.88-.73-1.25-1.1-2.76-1.1-4.52,0-1.49.27-2.89.82-4.2.55-1.31,1.32-2.45,2.32-3.44s2.18-1.76,3.54-2.32,2.85-.84,4.48-.84c1.79,0,3.29.32,4.5.96,1.21.64,2.14,1.56,2.78,2.76.64,1.2.96,2.67.96,4.4,0,.43-.04.89-.12,1.38s-.19.91-.32,1.26h-16.24v-3.2h12.28l-1.36,1.84c.13-.27.25-.56.36-.88.11-.32.16-.63.16-.92,0-.83-.13-1.53-.38-2.12-.25-.59-.63-1.04-1.12-1.36-.49-.32-1.14-.48-1.94-.48s-1.53.16-2.18.48c-.65.32-1.22.77-1.7,1.34s-.86,1.26-1.14,2.06-.46,1.68-.54,2.64c-.11,1.01-.03,1.91.24,2.68.27.77.71,1.37,1.32,1.78.61.41,1.4.62,2.36.62,1.07,0,2.02-.24,2.86-.72.84-.48,1.54-1.12,2.1-1.92l4.4,1.4c-.99,1.63-2.29,2.9-3.92,3.82-1.63.92-3.55,1.38-5.76,1.38-1.76,0-3.29-.33-4.6-1Z"/>
        <path class="cls-1" d="M229.83,113.36c.63-.57,1.41-.86,2.34-.86s1.71.29,2.34.86c.63.57.94,1.3.94,2.18s-.31,1.61-.94,2.18c-.63.57-1.41.86-2.34.86s-1.71-.29-2.34-.86c-.63-.57-.94-1.3-.94-2.18s.31-1.61.94-2.18ZM239.69,89.74l-4.36,19.12h-4.12l2.16-19.12h6.32Z"/>
      </g>
      <path class="cls-1" d="M1.85,58.87c21.32-6.18,42.87-11.55,64.6-16.07s43.69-8.22,65.73-11.05c12.44-1.59,24.92-2.91,37.42-3.96,1.91-.16,1.93-3.16,0-3-22.25,1.87-44.43,4.6-66.47,8.18-22.07,3.58-43.99,8.03-65.71,13.31-12.19,2.97-24.31,6.21-36.36,9.7-1.85.54-1.06,3.43.8,2.89h0Z"/>
      <path class="cls-1" d="M5.82,152.02c15.92,7.06,32.11,13.53,48.52,19.34,16.52,5.85,33.27,11.05,50.19,15.58,9.49,2.54,19.03,4.87,28.62,6.99,1.88.42,2.68-2.47.8-2.89-16.96-3.75-33.76-8.16-50.38-13.22-16.54-5.04-32.88-10.71-48.98-17.01-9.17-3.59-18.26-7.39-27.27-11.38-1.75-.78-3.28,1.81-1.51,2.59h0Z"/>
      <path class="cls-1" d="M7.95,24.42c17.7-5.85,35.47-11.49,53.31-16.9,5.05-1.53,10.11-3.05,15.17-4.55,1.85-.55,1.06-3.44-.8-2.89-17.87,5.3-35.68,10.81-53.42,16.53-5.02,1.62-10.04,3.26-15.05,4.92-1.82.6-1.04,3.5.8,2.89h0Z"/>
    </g>
  </g>
</svg>