<?xml version="1.0" encoding="UTF-8"?>
<svg id="_レイヤー_2" data-name="レイヤー 2" xmlns="http://www.w3.org/2000/svg" viewBox="0 0 246.37 117.55">
  <defs>
    <style>
      .cls-1 {
        fill: #5aa0c8;
      }
    </style>
  </defs>
  <g id="_レイヤー_1-2" data-name="レイヤー 1">
    <g>
      <g>
        <path class="cls-1" d="M117.3,0l-4.32,25.2h-5.11L112.15,0h5.15Z"/>
        <path class="cls-1" d="M128.6,8.64l-.68,3.92h-10.01l.72-3.92h9.97ZM126.8,2.88l-3.89,22.32h-4.39l3.78-22.32h4.5Z"/>
        <path class="cls-1" d="M139.04,0l-5.29,11.23h-3.06l3.31-11.23h5.04Z"/>
        <path class="cls-1" d="M138.61,20.95c.53.41,1.07.73,1.62.95.55.23,1.12.33,1.69.31.58,0,1.06-.16,1.46-.49.4-.32.59-.73.59-1.21.02-.46-.11-.83-.4-1.12s-.67-.55-1.13-.77c-.47-.23-.99-.45-1.57-.67-.7-.26-1.36-.6-2-1.01s-1.15-.94-1.53-1.58c-.38-.65-.55-1.43-.5-2.34.07-1.08.4-1.97.99-2.66s1.34-1.22,2.25-1.57c.91-.35,1.87-.52,2.88-.52,1.37,0,2.59.26,3.65.77,1.07.52,2,1.16,2.79,1.93l-2.2,2.84c-.55-.62-1.19-1.15-1.91-1.58-.72-.43-1.46-.65-2.23-.65-.58,0-1.04.13-1.4.38-.36.25-.55.58-.58.99-.02.38.11.71.4.99.29.28.68.52,1.19.74.5.22,1.02.43,1.55.65.82.34,1.55.71,2.21,1.13.66.42,1.18.94,1.57,1.57s.55,1.42.5,2.38c-.07,1.08-.38,2.02-.94,2.83-.55.8-1.29,1.43-2.21,1.87-.92.44-1.99.67-3.19.67-1.13,0-2.17-.16-3.11-.47-.95-.31-1.81-.73-2.57-1.26-.77-.53-1.45-1.09-2.05-1.69l2.56-2.84c.55.55,1.09,1.03,1.62,1.44Z"/>
        <path class="cls-1" d="M50.39,44.89c.88-1.3,1.97-2.33,3.28-3.1,1.31-.77,2.71-1.14,4.19-1.12,1.13,0,2.08.24,2.84.72.77.48,1.38,1.12,1.84,1.93.46.8.76,1.72.9,2.75.14,1.03.14,2.11,0,3.24-.14,1.18-.45,2.29-.92,3.33-.47,1.04-1.06,1.96-1.76,2.75s-1.53,1.41-2.47,1.85c-.94.44-1.96.67-3.06.67-1.51,0-2.78-.39-3.82-1.17-1.03-.78-1.79-1.82-2.27-3.13-.48-1.31-.61-2.74-.4-4.3.22-1.66.76-3.13,1.64-4.43ZM53.67,51.64c.23.73.62,1.31,1.17,1.75.55.43,1.25.66,2.09.68.58,0,1.14-.12,1.69-.36.55-.24,1.06-.58,1.53-1.03.47-.44.86-.95,1.19-1.53.32-.58.55-1.19.67-1.84.1-.65.09-1.25-.02-1.8-.11-.55-.31-1.05-.59-1.49-.29-.44-.65-.8-1.08-1.06-.43-.26-.94-.41-1.51-.43-.84-.02-1.64.18-2.39.61-.76.43-1.39,1.01-1.91,1.75-.52.73-.85,1.54-.99,2.43-.12.82-.07,1.59.16,2.32ZM68.02,41.04l-2.84,16.56h-4.5l2.81-16.56h4.54Z"/>
        <path class="cls-1" d="M71.42,44.89c.88-1.3,1.97-2.33,3.28-3.1,1.31-.77,2.71-1.14,4.19-1.12,1.13,0,2.08.24,2.84.72.77.48,1.38,1.12,1.84,1.93s.76,1.72.9,2.75c.14,1.03.14,2.11,0,3.24-.14,1.18-.45,2.29-.92,3.33-.47,1.04-1.06,1.96-1.76,2.75-.71.79-1.53,1.41-2.47,1.85-.94.44-1.96.67-3.06.67-1.51,0-2.78-.39-3.82-1.17-1.03-.78-1.79-1.82-2.27-3.13-.48-1.31-.61-2.74-.4-4.3.22-1.66.76-3.13,1.64-4.43ZM74.69,51.64c.23.73.62,1.31,1.17,1.75.55.43,1.25.66,2.09.68.58,0,1.14-.12,1.69-.36.55-.24,1.06-.58,1.53-1.03.47-.44.86-.95,1.19-1.53.32-.58.55-1.19.67-1.84.1-.65.09-1.25-.02-1.8-.11-.55-.31-1.05-.59-1.49-.29-.44-.65-.8-1.08-1.06-.43-.26-.94-.41-1.51-.43-.84-.02-1.64.18-2.39.61-.76.43-1.39,1.01-1.91,1.75-.52.73-.85,1.54-.99,2.43-.12.82-.07,1.59.16,2.32ZM91.02,29.52l-4.86,28.08h-4.54l4.75-28.08h4.64Z"/>
        <path class="cls-1" d="M96.02,41.04l2.38,9.86,5.44-9.86h5l-11.7,18.32-6.01-18.32h4.9Z"/>
        <path class="cls-1" d="M111.54,57.06c-1.18-.6-2.09-1.46-2.75-2.59-.66-1.13-.99-2.48-.99-4.07,0-1.34.25-2.6.74-3.78.49-1.18,1.19-2.21,2.09-3.1.9-.89,1.96-1.58,3.19-2.09,1.22-.5,2.57-.76,4.03-.76,1.61,0,2.96.29,4.05.86s1.93,1.4,2.5,2.48c.58,1.08.86,2.4.86,3.96,0,.38-.04.8-.11,1.24-.07.44-.17.82-.29,1.13h-14.62v-2.88h11.05l-1.22,1.66c.12-.24.23-.5.32-.79.09-.29.14-.56.14-.83,0-.74-.11-1.38-.34-1.91-.23-.53-.56-.94-1.01-1.22-.44-.29-1.03-.43-1.75-.43s-1.37.14-1.96.43c-.59.29-1.1.69-1.53,1.21-.43.52-.77,1.13-1.03,1.85-.25.72-.41,1.51-.49,2.38-.1.91-.02,1.72.22,2.41.24.7.64,1.23,1.19,1.6s1.26.56,2.12.56c.96,0,1.82-.22,2.57-.65.76-.43,1.39-1.01,1.89-1.73l3.96,1.26c-.89,1.46-2.06,2.61-3.53,3.44-1.46.83-3.19,1.24-5.18,1.24-1.58,0-2.96-.3-4.14-.9Z"/>
        <path class="cls-1" d="M138.95,45.86c-.08-.5-.28-.92-.59-1.24-.31-.32-.8-.49-1.48-.49-.62,0-1.21.14-1.75.41-.54.28-.98.66-1.31,1.15-.34.49-.55,1.06-.65,1.71l-1.76,10.19h-4.61l2.84-16.56h4.61l-.36,2.38c.58-.86,1.28-1.54,2.12-2.02.84-.48,1.82-.72,2.95-.72,1.32-.02,2.35.25,3.1.83s1.25,1.34,1.53,2.29c.28.95.33,2.02.16,3.22l-1.84,10.58h-4.72l1.76-10.08c.07-.6.07-1.15-.02-1.66Z"/>
        <path class="cls-1" d="M157.11,41.04l-.68,3.92h-10.01l.72-3.92h9.97ZM155.31,35.28l-3.89,22.32h-4.39l3.78-22.32h4.5Z"/>
        <path class="cls-1" d="M162.39,52.74c.08.5.28.92.58,1.24.3.32.77.49,1.42.49s1.24-.13,1.76-.4c.53-.26.97-.64,1.33-1.13.36-.49.59-1.06.68-1.71l1.8-10.19h4.61l-2.88,16.56h-4.61l.4-2.41c-.58.84-1.28,1.51-2.12,2.02s-1.84.76-2.99.76c-1.3,0-2.32-.28-3.08-.85-.76-.56-1.27-1.33-1.53-2.29-.26-.96-.31-2.03-.14-3.2l1.84-10.58h4.68l-1.73,10.08c-.1.58-.1,1.12-.02,1.62Z"/>
        <path class="cls-1" d="M180.62,57.6h-4.54l2.84-16.56h4.54l-2.84,16.56ZM186.62,45.25c-.3-.17-.65-.25-1.06-.25-.62-.02-1.18.15-1.66.52-.48.37-.87.85-1.17,1.42-.3.58-.5,1.2-.59,1.87l-1.01-1.33c.22-1.13.63-2.21,1.24-3.26.61-1.04,1.34-1.9,2.2-2.57.85-.67,1.76-1.01,2.72-1.01.6,0,1.13.12,1.6.36.47.24.88.58,1.24,1.01l-2.63,3.85c-.29-.24-.58-.44-.88-.61Z"/>
        <path class="cls-1" d="M193.4,57.06c-1.18-.6-2.09-1.46-2.75-2.59-.66-1.13-.99-2.48-.99-4.07,0-1.34.25-2.6.74-3.78s1.19-2.21,2.09-3.1c.9-.89,1.96-1.58,3.19-2.09s2.57-.76,4.03-.76c1.61,0,2.96.29,4.05.86,1.09.58,1.93,1.4,2.5,2.48.58,1.08.86,2.4.86,3.96,0,.38-.04.8-.11,1.24-.07.44-.17.82-.29,1.13h-14.62v-2.88h11.05l-1.22,1.66c.12-.24.23-.5.32-.79s.14-.56.14-.83c0-.74-.11-1.38-.34-1.91-.23-.53-.56-.94-1.01-1.22s-1.03-.43-1.75-.43-1.37.14-1.96.43-1.1.69-1.53,1.21c-.43.52-.77,1.13-1.03,1.85-.25.72-.41,1.51-.49,2.38-.1.91-.02,1.72.22,2.41s.64,1.23,1.19,1.6c.55.37,1.26.56,2.12.56.96,0,1.82-.22,2.57-.65.76-.43,1.39-1.01,1.89-1.73l3.96,1.26c-.89,1.46-2.06,2.61-3.53,3.44s-3.19,1.24-5.18,1.24c-1.58,0-2.96-.3-4.14-.9Z"/>
        <path class="cls-1" d="M210.52,53.66c.56-.52,1.27-.77,2.11-.77s1.54.26,2.11.77c.56.52.85,1.17.85,1.96s-.28,1.45-.85,1.96c-.56.52-1.27.77-2.11.77s-1.54-.26-2.11-.77c-.56-.52-.85-1.17-.85-1.96s.28-1.45.85-1.96ZM219.39,32.4l-3.92,17.21h-3.71l1.94-17.21h5.69Z"/>
      </g>
      <path class="cls-1" d="M2.98,52.94c-4.26,4.52-3.59,11.47-.33,16.37,3.9,5.88,10.99,8.06,17.65,8.97,7.25.98,15,.51,21.84,3.48,6.3,2.74,10.66,8.87,10.92,15.79.27,7.42-4.61,14.49-11.55,17.04l1.85,1.85c4.69-11.59,17.88-17.03,29.58-17.8,7.96-.52,15.9.56,23.75,1.71s15.94,2.2,23.99,2.68c15.77.94,31.62.26,47.31-1.54,8-.92,15.97-2.12,23.89-3.55,6.77-1.22,13.55-2.52,20.2-4.3,13.06-3.5,26.29-9.28,34.05-20.9,1.08-1.61-1.52-3.11-2.59-1.51-6.94,10.38-18.81,15.71-30.44,19.02-6.45,1.83-13.05,3.14-19.64,4.37-7.97,1.49-15.98,2.75-24.03,3.71-15.84,1.89-31.85,2.65-47.79,1.76-7.94-.44-15.81-1.4-23.67-2.56s-16-2.35-24.07-1.95c-13.51.67-28.06,6.76-33.44,20.06-.42,1.03.83,2.22,1.85,1.85,6.24-2.29,11.17-7.5,13.01-13.91s.04-13.86-4.38-19.05c-4.95-5.81-12.55-7.51-19.81-8.24s-15.06-.54-21.48-4.4c-5.28-3.17-9.52-11.54-4.54-16.82,1.32-1.4-.79-3.53-2.12-2.12h0Z"/>
    </g>
  </g>
</svg>