<?xml version="1.0" encoding="UTF-8"?>
<svg id="_レイヤー_2" data-name="レイヤー 2" xmlns="http://www.w3.org/2000/svg" viewBox="0 0 228.92 145.87">
  <defs>
    <style>
      .cls-1 {
        fill: #5aa0c8;
      }
    </style>
  </defs>
  <g id="_レイヤー_1-2" data-name="レイヤー 1">
    <g>
      <path class="cls-1" d="M19.4,1.95L5.34,26.63l-5.34-1.94L14.03,0l5.38,1.95Z"/>
      <path class="cls-1" d="M29.42,28.4c0,.85.24,1.62.72,2.3.48.68,1.17,1.21,2.09,1.57,1.12.43,2.28.57,3.49.4,1.21-.17,2.28-.51,3.2-1.03l-2.48,4.72c-.92.26-1.92.38-3,.34-1.08-.04-2.2-.26-3.35-.68-1.75-.64-3.15-1.59-4.18-2.86s-1.62-2.7-1.76-4.3c-.14-1.6.2-3.2,1.04-4.79.86-1.67,2.04-3,3.54-3.99,1.49-.99,3.15-1.6,4.96-1.82,1.81-.22,3.63,0,5.46.66,1.1.4,2.05.91,2.84,1.54.79.63,1.43,1.34,1.9,2.14l-2.49,4.76c-.14-1.02-.54-1.92-1.21-2.71-.66-.79-1.51-1.38-2.53-1.75-.98-.35-1.96-.45-2.94-.28-.98.17-1.88.53-2.69,1.09-.81.56-1.46,1.27-1.95,2.14-.45.86-.68,1.71-.67,2.56Z"/>
      <path class="cls-1" d="M46.27,26.47c1.41-1.02,2.94-1.69,4.6-1.99,1.66-.31,3.26-.16,4.8.42,1.18.43,2.08,1.04,2.7,1.83.62.79,1.02,1.69,1.19,2.71.17,1.01.14,2.09-.1,3.22-.24,1.13-.65,2.26-1.23,3.38-.6,1.17-1.34,2.22-2.22,3.13-.88.91-1.85,1.65-2.89,2.21-1.04.56-2.13.89-3.28,1-1.15.11-2.3-.05-3.45-.46-1.58-.57-2.76-1.46-3.54-2.67-.78-1.21-1.18-2.58-1.18-4.13,0-1.55.4-3.1,1.22-4.64.85-1.65,1.98-2.98,3.39-4ZM47.13,34.76c-.04.85.15,1.61.56,2.27.41.66,1.05,1.16,1.92,1.51.6.22,1.24.31,1.9.27.67-.04,1.33-.21,1.99-.49.66-.29,1.26-.67,1.82-1.15.56-.48,1.02-1.03,1.39-1.67.35-.64.57-1.27.66-1.89.1-.62.08-1.21-.05-1.79-.13-.57-.37-1.08-.73-1.52-.35-.44-.82-.78-1.42-1.02-.87-.34-1.78-.43-2.73-.27-.95.16-1.84.53-2.66,1.1-.82.57-1.47,1.29-1.96,2.16-.44.81-.67,1.64-.71,2.49ZM66.14,29.13l-9.25,16.22-4.7-1.71,9.21-16.23,4.74,1.72Z"/>
      <path class="cls-1" d="M78.5,39.32c.1-.56.05-1.07-.15-1.52-.2-.46-.66-.81-1.36-1.07-.65-.24-1.31-.31-1.98-.23-.67.08-1.27.32-1.81.71-.54.39-.98.9-1.32,1.54l-5.71,9.97-4.81-1.75,9.25-16.22,4.81,1.75-1.28,2.34c.93-.68,1.92-1.12,2.98-1.3,1.06-.18,2.18-.06,3.36.37,1.39.48,2.36,1.15,2.92,2.04.56.88.8,1.87.73,2.97-.07,1.09-.42,2.24-1.05,3.43l-5.93,10.36-4.93-1.79,5.66-9.86c.3-.6.51-1.18.61-1.74Z"/>
      <path class="cls-1" d="M101.63,31.8l-9.79,9.72-3.2-1.16,7.72-10.48,5.26,1.91Z"/>
      <path class="cls-1" d="M109.45,38.04l-12.52,21.84-4.59-1.67,12.41-21.88,4.7,1.71ZM109.15,44.74l-2.2,3.84-10.45-3.79,2.24-3.83,10.42,3.78Z"/>
      <path class="cls-1" d="M125.43,50.65l-1.41,10.21,10.56-8.46-.96,12.03,8.84-7.6,5.19,1.88-18.2,14.37.53-12.23-11.17,8.37,1.65-20.38,4.96,1.8Z"/>
      <path class="cls-1" d="M147.34,63.15c1.41-1.02,2.94-1.69,4.6-1.99,1.66-.31,3.26-.16,4.8.42,1.18.43,2.08,1.04,2.7,1.83s1.02,1.7,1.19,2.71c.17,1.01.14,2.09-.1,3.22-.24,1.13-.65,2.26-1.23,3.38-.6,1.17-1.34,2.22-2.22,3.13-.88.91-1.85,1.65-2.89,2.21-1.04.56-2.13.89-3.28,1-1.15.11-2.3-.05-3.45-.46-1.58-.57-2.76-1.46-3.54-2.67-.78-1.21-1.18-2.58-1.18-4.13,0-1.55.4-3.1,1.22-4.64.85-1.65,1.98-2.98,3.39-4ZM148.2,71.45c-.04.85.15,1.61.56,2.27.41.66,1.05,1.16,1.92,1.51.6.22,1.24.31,1.9.27.67-.04,1.33-.21,1.99-.49.66-.29,1.26-.67,1.82-1.15.56-.48,1.02-1.03,1.39-1.67.35-.64.57-1.27.66-1.89.1-.62.08-1.21-.05-1.79-.13-.57-.37-1.08-.73-1.52-.35-.44-.82-.78-1.42-1.02-.87-.34-1.78-.43-2.73-.27-.95.16-1.84.53-2.66,1.1-.82.57-1.47,1.29-1.96,2.16-.43.81-.67,1.64-.71,2.49ZM167.2,65.81l-9.25,16.22-4.7-1.71,9.21-16.23,4.74,1.72Z"/>
      <path class="cls-1" d="M176.68,69.25l-9.25,16.22-4.66-1.69,9.17-16.25,4.74,1.72ZM176.55,59.4c.76-.3,1.53-.32,2.31-.03.83.3,1.43.81,1.81,1.53.38.72.42,1.48.13,2.28-.28.78-.8,1.33-1.56,1.65-.76.32-1.55.33-2.37.03-.78-.28-1.36-.79-1.74-1.53-.39-.74-.44-1.49-.16-2.27.29-.8.82-1.36,1.58-1.66Z"/>
      <path class="cls-1" d="M190.18,67.34l-12.52,21.84-4.59-1.66,12.41-21.88,4.7,1.71ZM189.87,74.04l-2.2,3.84-10.45-3.79,2.24-3.83,10.42,3.78Z"/>
      <path class="cls-1" d="M76.72,69.25l-12.52,21.84-4.59-1.67,12.41-21.88,4.7,1.71ZM76.42,75.95l-2.2,3.84-10.45-3.79,2.24-3.83,10.42,3.78Z"/>
      <path class="cls-1" d="M76.85,80.61c1.49-.99,3.14-1.6,4.94-1.82,1.8-.23,3.59-.02,5.37.63,1.78.65,3.17,1.6,4.17,2.88,1,1.27,1.57,2.71,1.71,4.3.14,1.6-.2,3.2-1.04,4.79-.85,1.65-2.03,2.97-3.52,3.96-1.49.99-3.14,1.6-4.94,1.82-1.8.23-3.6.01-5.4-.64-1.75-.64-3.13-1.58-4.14-2.84-1.01-1.26-1.58-2.69-1.72-4.28-.14-1.6.19-3.2,1-4.81.89-1.66,2.08-2.99,3.57-3.98ZM77.5,88.8c-.02.84.17,1.59.59,2.26.41.66,1.04,1.16,1.88,1.49.9.33,1.81.41,2.74.25.92-.16,1.78-.52,2.57-1.09.79-.57,1.4-1.26,1.85-2.1.44-.83.67-1.66.69-2.47.01-.82-.18-1.57-.59-2.26-.4-.69-1.04-1.19-1.92-1.51-.84-.33-1.73-.42-2.68-.25-.94.17-1.8.54-2.57,1.11-.77.57-1.4,1.28-1.88,2.13-.43.78-.65,1.59-.67,2.44Z"/>
      <path class="cls-1" d="M105.08,107.29c-.26.73-.37,1.4-.31,2.04.05.63.3,1.19.73,1.69.43.5,1.05.89,1.85,1.18.93.34,1.86.43,2.79.29.93-.14,1.81-.52,2.62-1.13.82-.61,1.48-1.39,2-2.34l9.07-15.86,4.66,1.69-9.04,15.87c-.97,1.8-2.18,3.22-3.63,4.26-1.45,1.03-3.03,1.66-4.74,1.87-1.71.22-3.47,0-5.27-.66-1.8-.66-3.21-1.52-4.21-2.59-1-1.07-1.59-2.29-1.78-3.67-.18-1.37.03-2.81.63-4.32l4.62,1.68ZM108.86,92.13c1.4-1.01,2.92-1.65,4.55-1.92,1.63-.27,3.22-.11,4.76.47,1.15.42,2.05,1.01,2.69,1.79.64.77,1.05,1.66,1.23,2.66.18,1,.15,2.06-.06,3.17-.22,1.11-.62,2.24-1.21,3.39-.6,1.17-1.33,2.2-2.21,3.09-.88.89-1.83,1.6-2.87,2.15-1.04.55-2.12.87-3.27.96-1.14.1-2.29-.06-3.44-.48-1.55-.56-2.73-1.44-3.54-2.62-.8-1.19-1.21-2.54-1.23-4.06-.02-1.52.39-3.07,1.22-4.64.84-1.62,1.97-2.94,3.37-3.95ZM109.74,100.38c-.03.81.18,1.54.61,2.18.43.64,1.08,1.11,1.93,1.42.59.24,1.22.35,1.88.32.66-.03,1.32-.17,1.99-.43.66-.26,1.26-.63,1.81-1.11.54-.48,1-1.04,1.37-1.67.34-.61.55-1.23.63-1.86.08-.62.06-1.21-.09-1.75-.14-.55-.39-1.03-.75-1.44-.36-.41-.84-.74-1.43-.99-.9-.33-1.82-.43-2.74-.29-.93.13-1.79.47-2.58,1.02-.79.55-1.44,1.26-1.92,2.13-.44.83-.68,1.65-.7,2.47Z"/>
      <path class="cls-1" d="M130.99,100.27c1.49-.99,3.14-1.6,4.94-1.82,1.8-.23,3.59-.02,5.37.63,1.78.65,3.17,1.6,4.17,2.88,1,1.27,1.57,2.71,1.71,4.3.14,1.6-.2,3.2-1.04,4.79-.85,1.65-2.03,2.97-3.52,3.96-1.49.99-3.14,1.6-4.94,1.82-1.8.23-3.6.01-5.4-.64-1.75-.64-3.13-1.58-4.14-2.84-1.01-1.26-1.58-2.69-1.72-4.28-.14-1.6.19-3.2,1-4.81.89-1.66,2.08-2.99,3.57-3.98ZM131.64,108.46c-.02.84.17,1.59.59,2.26.41.66,1.04,1.16,1.88,1.49.9.33,1.81.41,2.74.25.92-.16,1.78-.52,2.57-1.09.79-.57,1.4-1.26,1.85-2.1.44-.83.67-1.66.69-2.47.01-.82-.18-1.57-.59-2.26-.4-.69-1.04-1.19-1.92-1.51-.84-.33-1.73-.42-2.68-.25-.94.17-1.8.54-2.57,1.11-.77.57-1.4,1.28-1.88,2.13-.43.78-.65,1.59-.67,2.44Z"/>
      <path class="cls-1" d="M163.33,112c1.49-.99,3.14-1.6,4.94-1.82,1.8-.23,3.59-.02,5.37.63,1.78.65,3.17,1.6,4.17,2.88,1,1.27,1.57,2.71,1.71,4.3.14,1.6-.2,3.2-1.04,4.79-.85,1.65-2.03,2.97-3.52,3.96-1.49.99-3.14,1.6-4.94,1.82-1.8.23-3.6.01-5.4-.64-1.75-.64-3.13-1.58-4.14-2.84-1-1.26-1.58-2.69-1.72-4.28-.14-1.6.19-3.2,1-4.81.89-1.66,2.08-2.99,3.57-3.98ZM163.97,120.19c-.02.84.17,1.59.59,2.26.41.66,1.04,1.16,1.88,1.49.9.33,1.82.41,2.74.25.92-.16,1.78-.52,2.57-1.09.79-.57,1.4-1.26,1.85-2.1.44-.83.67-1.66.69-2.47.01-.82-.18-1.57-.59-2.26-.4-.69-1.04-1.19-1.92-1.51-.84-.33-1.73-.42-2.68-.25-.94.17-1.8.54-2.57,1.11-.78.57-1.4,1.28-1.88,2.13-.43.78-.65,1.59-.67,2.44Z"/>
      <path class="cls-1" d="M184.99,129.18c-.1.56-.06,1.06.13,1.52s.62.8,1.3,1.05,1.34.33,1.99.26c.65-.08,1.26-.3,1.82-.68.56-.38,1.02-.89,1.36-1.53l5.74-9.96,4.81,1.75-9.29,16.2-4.81-1.75,1.33-2.37c-.92.66-1.91,1.09-2.98,1.3-1.07.21-2.2.09-3.41-.34-1.35-.49-2.32-1.18-2.89-2.05-.58-.88-.82-1.86-.73-2.97.09-1.1.44-2.24,1.06-3.4l5.93-10.36,4.89,1.77-5.63,9.87c-.32.57-.53,1.13-.63,1.69Z"/>
      <path class="cls-1" d="M215.31,119.55l-12.52,21.84-4.59-1.67,12.41-21.88,4.7,1.71ZM215.01,126.25l-2.2,3.84-10.45-3.79,2.24-3.83,10.42,3.78Z"/>
      <path class="cls-1" d="M211.6,139.93c.78-.32,1.62-.33,2.49-.01.88.32,1.51.85,1.91,1.61.39.75.44,1.54.14,2.37-.3.83-.84,1.4-1.63,1.73s-1.62.33-2.49.01-1.51-.85-1.91-1.61c-.39-.75-.44-1.54-.14-2.37.3-.83.84-1.4,1.63-1.73ZM228.92,121.09l-10.62,16.49-3.87-1.41,8.55-17.24,5.94,2.16Z"/>
    </g>
  </g>
</svg>