<?xml version="1.0" encoding="UTF-8"?>
<svg id="_レイヤー_2" data-name="レイヤー 2" xmlns="http://www.w3.org/2000/svg" viewBox="0 0 174.4 94.43">
  <defs>
    <style>
      .cls-1 {
        fill: #5aa0c8;
      }
    </style>
  </defs>
  <g id="_レイヤー_1-2" data-name="レイヤー 1">
    <g>
      <g>
        <path class="cls-1" d="M32.87.33v21.38h9.54v1.72h-11.35V.33h1.81Z"/>
        <path class="cls-1" d="M44.18,7.18c.57-1.44,1.38-2.69,2.41-3.76,1.03-1.07,2.25-1.9,3.65-2.49,1.4-.59,2.92-.89,4.57-.89s3.17.3,4.57.89c1.4.59,2.61,1.42,3.65,2.49,1.03,1.07,1.84,2.32,2.41,3.76.57,1.44.86,3.01.86,4.7s-.29,3.26-.86,4.7c-.57,1.44-1.38,2.7-2.41,3.76-1.04,1.07-2.25,1.9-3.65,2.49-1.4.59-2.92.89-4.57.89s-3.17-.3-4.57-.89c-1.4-.59-2.61-1.42-3.65-2.49-1.03-1.07-1.84-2.32-2.41-3.76-.57-1.44-.86-3.01-.86-4.7s.29-3.26.86-4.7ZM46.48,17.03c.83,1.52,1.96,2.71,3.4,3.58,1.44.87,3.08,1.3,4.93,1.3s3.49-.43,4.93-1.3c1.44-.87,2.57-2.06,3.38-3.58.81-1.52,1.22-3.23,1.22-5.15s-.41-3.66-1.22-5.16c-.81-1.51-1.94-2.69-3.38-3.56-1.44-.87-3.08-1.3-4.93-1.3s-3.49.43-4.93,1.3c-1.44.87-2.57,2.06-3.4,3.56-.83,1.51-1.24,3.23-1.24,5.16s.41,3.63,1.24,5.15Z"/>
        <path class="cls-1" d="M70.06,7.18c.57-1.44,1.37-2.69,2.41-3.76,1.03-1.07,2.25-1.9,3.65-2.49,1.4-.59,2.92-.89,4.57-.89s3.17.3,4.57.89c1.4.59,2.61,1.42,3.65,2.49,1.03,1.07,1.84,2.32,2.41,3.76.57,1.44.86,3.01.86,4.7s-.29,3.26-.86,4.7c-.57,1.44-1.38,2.7-2.41,3.76-1.03,1.07-2.25,1.9-3.65,2.49-1.4.59-2.92.89-4.57.89s-3.17-.3-4.57-.89c-1.4-.59-2.61-1.42-3.65-2.49-1.03-1.07-1.84-2.32-2.41-3.76-.57-1.44-.86-3.01-.86-4.7s.29-3.26.86-4.7ZM72.35,17.03c.83,1.52,1.96,2.71,3.4,3.58,1.44.87,3.09,1.3,4.93,1.3s3.49-.43,4.93-1.3c1.44-.87,2.57-2.06,3.38-3.58.81-1.52,1.22-3.23,1.22-5.15s-.41-3.66-1.22-5.16c-.81-1.51-1.94-2.69-3.38-3.56-1.44-.87-3.08-1.3-4.93-1.3s-3.49.43-4.93,1.3c-1.44.87-2.57,2.06-3.4,3.56-.83,1.51-1.24,3.23-1.24,5.16s.41,3.63,1.24,5.15Z"/>
        <path class="cls-1" d="M98.14.33v23.1h-1.81V.33h1.81ZM110.02.33l-10.16,10.82,10.66,12.28h-2.31l-10.59-12.24L107.71.33h2.31Z"/>
        <path class="cls-1" d="M123.22,5.81c.66-1.78,1.59-3.2,2.8-4.24,1.21-1.04,2.63-1.57,4.26-1.57s3.05.52,4.26,1.57c1.21,1.05,2.15,2.46,2.81,4.24.66,1.78.99,3.81.99,6.07s-.33,4.29-.99,6.07c-.66,1.78-1.6,3.2-2.81,4.24-1.21,1.05-2.63,1.57-4.26,1.57s-3.05-.52-4.26-1.57c-1.21-1.04-2.14-2.46-2.8-4.24s-.99-3.81-.99-6.07.33-4.29.99-6.07ZM124.47,15.87c.29,1.23.7,2.31,1.24,3.23s1.19,1.64,1.96,2.16c.77.52,1.64.78,2.61.78s1.86-.26,2.62-.78c.76-.52,1.41-1.24,1.95-2.16s.95-2,1.24-3.23c.29-1.23.43-2.56.43-3.99s-.14-2.76-.43-3.99c-.29-1.23-.7-2.31-1.24-3.23-.54-.92-1.19-1.64-1.95-2.16-.76-.52-1.63-.78-2.62-.78s-1.84.26-2.61.78c-.77.52-1.42,1.24-1.96,2.16-.54.92-.95,2-1.24,3.23-.29,1.23-.43,2.56-.43,3.99s.14,2.76.43,3.99Z"/>
        <path class="cls-1" d="M145.16,23.43l7.52-10.26.13.1c-.55.66-1.2,1.14-1.95,1.44-.75.3-1.6.45-2.54.45s-1.83-.19-2.66-.56c-.82-.37-1.55-.9-2.18-1.57-.63-.67-1.12-1.45-1.47-2.34-.35-.89-.53-1.85-.53-2.89,0-1.54.32-2.89.97-4.06.65-1.17,1.54-2.08,2.69-2.74,1.14-.66,2.45-.99,3.93-.99s2.81.33,3.94.99c1.13.66,2.02,1.57,2.67,2.74.65,1.17.97,2.52.97,4.06,0,.95-.16,1.86-.48,2.74-.32.88-.7,1.63-1.14,2.24l-7.62,10.66h-2.28ZM154.19,4.62c-.5-.92-1.18-1.65-2.06-2.18s-1.89-.79-3.04-.79-2.16.26-3.04.79-1.57,1.25-2.06,2.18c-.5.92-.74,1.98-.74,3.17s.25,2.17.76,3.07c.51.9,1.19,1.62,2.06,2.15s1.83.79,2.89.79c1.21,0,2.26-.27,3.15-.82.89-.55,1.58-1.28,2.08-2.18.5-.9.74-1.9.74-3,0-1.19-.25-2.24-.74-3.17Z"/>
      </g>
      <g>
        <path class="cls-1" d="M6.16,87.14c.77.35,1.6.52,2.48.52s1.66-.35,2.45-1.05c.79-.7,1.18-1.89,1.18-3.57v-39.93h8.25v41.58c0,1.72-.28,3.2-.85,4.43-.57,1.23-1.38,2.24-2.42,3.02-1.04.79-2.25,1.37-3.63,1.73-1.38.37-2.85.55-4.43.55-1.28,0-2.52-.17-3.71-.49-1.19-.33-2.25-.72-3.19-1.16s-1.7-.88-2.28-1.32l4.23-5.67c.51.55,1.16,1,1.92,1.35Z"/>
        <path class="cls-1" d="M39.05,43.11v38.5h-7.97v-38.5h7.97Z"/>
        <path class="cls-1" d="M84.53,43.11v40.43l-27.39-25.8v23.87h-7.59v-40.43l27.39,25.8v-23.87h7.59Z"/>
        <path class="cls-1" d="M100.98,58.51h6.22c1.14,0,2.13-.18,2.97-.55.84-.37,1.49-.9,1.95-1.6.46-.7.69-1.52.69-2.47,0-1.47-.5-2.58-1.51-3.35-1.01-.77-2.37-1.16-4.1-1.16h-4.24v25.96h5.06c1.32,0,2.51-.19,3.57-.58s1.9-1,2.5-1.84c.6-.84.91-1.93.91-3.25,0-.95-.17-1.77-.52-2.45-.35-.68-.84-1.25-1.49-1.7-.64-.46-1.38-.79-2.23-.99-.84-.2-1.76-.3-2.75-.3h-7.04v-4.29h7.76c1.87,0,3.66.2,5.36.6,1.71.4,3.24,1.04,4.59,1.9,1.36.86,2.43,1.97,3.22,3.33.79,1.36,1.18,2.99,1.18,4.9,0,2.53-.6,4.6-1.79,6.22-1.19,1.61-2.87,2.8-5.03,3.57-2.16.77-4.68,1.16-7.54,1.16h-13.64v-38.5h12.82c2.57,0,4.82.36,6.76,1.07,1.94.72,3.46,1.79,4.57,3.22,1.1,1.43,1.65,3.24,1.65,5.45,0,1.94-.55,3.61-1.65,5-1.1,1.39-2.62,2.45-4.57,3.16-1.94.71-4.2,1.07-6.76,1.07h-6.93v-3.58Z"/>
        <path class="cls-1" d="M139.59,43.11v38.5h-7.59v-38.5h7.59ZM137.06,43.11h19.42v6.66h-19.42v-6.66ZM137.06,57.91h18.32v6.55h-18.32v-6.55ZM137.06,74.96h19.42v6.66h-19.42v-6.66Z"/>
        <path class="cls-1" d="M174.4,43.11v38.5h-7.98v-38.5h7.98Z"/>
      </g>
    </g>
  </g>
</svg>