<?xml version="1.0" encoding="UTF-8"?>
<svg id="_レイヤー_2" data-name="レイヤー 2" xmlns="http://www.w3.org/2000/svg" viewBox="0 0 356.22 209.19">
  <defs>
    <style>
      .cls-1 {
        fill: #5aa0c8;
      }
    </style>
  </defs>
  <g id="_レイヤー_1-2" data-name="レイヤー 1">
    <g>
      <g>
        <path class="cls-1" d="M78.93,64.93l-3.84,22.4h-4.48l3.81-22.4h4.51ZM77.14,64.93h4.48c1.58,0,2.93.3,4.05.9,1.12.6,1.96,1.43,2.51,2.5.55,1.07.73,2.31.51,3.74-.19,1.45-.71,2.71-1.57,3.78-.85,1.07-1.94,1.89-3.25,2.48-1.31.59-2.79.88-4.43.88h-4.77l.67-3.65h4.19c.77,0,1.47-.13,2.1-.4.63-.27,1.16-.66,1.58-1.17.43-.51.7-1.11.83-1.79.13-.68.07-1.27-.16-1.78-.23-.5-.61-.89-1.12-1.17-.51-.28-1.12-.42-1.82-.42h-4.48l.67-3.9ZM82,76.9l5.31,10.43h-5.15l-4.77-10.43h4.61Z"/>
        <path class="cls-1" d="M94.42,86.85c-1.04-.53-1.86-1.3-2.45-2.3-.59-1-.88-2.21-.88-3.62,0-1.19.22-2.31.66-3.36.44-1.04,1.06-1.96,1.86-2.75.8-.79,1.74-1.41,2.83-1.86,1.09-.45,2.28-.67,3.58-.67,1.43,0,2.63.26,3.6.77s1.71,1.25,2.22,2.21c.51.96.77,2.13.77,3.52,0,.34-.03.71-.1,1.1-.06.4-.15.73-.26,1.01h-12.99v-2.56h9.82l-1.09,1.47c.11-.21.2-.45.29-.7.08-.26.13-.5.13-.74,0-.66-.1-1.23-.3-1.7-.2-.47-.5-.83-.9-1.09-.4-.26-.91-.38-1.55-.38s-1.22.13-1.74.38c-.52.26-.98.61-1.36,1.07-.38.46-.69,1.01-.91,1.65-.22.64-.37,1.34-.43,2.11-.09.81-.02,1.53.19,2.14.21.62.57,1.09,1.06,1.42.49.33,1.12.5,1.89.5.85,0,1.62-.19,2.29-.58s1.23-.9,1.68-1.54l3.52,1.12c-.79,1.3-1.83,2.32-3.13,3.06-1.3.74-2.84,1.1-4.61,1.1-1.41,0-2.64-.27-3.68-.8Z"/>
        <path class="cls-1" d="M119.68,65.91c-.2-.14-.44-.22-.72-.24-.36,0-.68.11-.96.34-.28.22-.5.52-.67.9-.17.37-.29.77-.35,1.2l-3.3,19.23h-3.97l3.42-20.19c.17-1.02.51-1.93,1.01-2.72.5-.79,1.16-1.41,1.97-1.86.81-.45,1.76-.66,2.85-.64.83,0,1.52.16,2.08.46.55.31,1.01.67,1.38,1.07l-2.18,3.04c-.17-.26-.36-.45-.56-.59ZM119.6,72.61l-.64,3.49h-9.03l.64-3.49h9.02Z"/>
        <path class="cls-1" d="M124.72,87.33h-4.03l2.53-14.72h4.03l-2.53,14.72ZM130.05,76.36c-.27-.15-.58-.22-.94-.22-.55-.02-1.04.13-1.47.46-.43.33-.77.75-1.04,1.26-.27.51-.44,1.07-.53,1.66l-.9-1.18c.19-1,.56-1.97,1.1-2.9s1.2-1.69,1.95-2.29c.76-.6,1.56-.9,2.42-.9.53,0,1.01.11,1.42.32.42.21.78.51,1.1.9l-2.34,3.42c-.26-.21-.52-.39-.78-.54Z"/>
        <path class="cls-1" d="M137.36,86.85c-1.04-.53-1.86-1.3-2.45-2.3-.59-1-.88-2.21-.88-3.62,0-1.19.22-2.31.66-3.36.44-1.04,1.06-1.96,1.86-2.75.8-.79,1.74-1.41,2.83-1.86,1.09-.45,2.28-.67,3.58-.67,1.43,0,2.63.26,3.6.77s1.71,1.25,2.22,2.21c.51.96.77,2.13.77,3.52,0,.34-.03.71-.1,1.1-.06.4-.15.73-.26,1.01h-12.99v-2.56h9.82l-1.09,1.47c.11-.21.2-.45.29-.7.08-.26.13-.5.13-.74,0-.66-.1-1.23-.3-1.7-.2-.47-.5-.83-.9-1.09-.4-.26-.91-.38-1.55-.38s-1.22.13-1.74.38c-.52.26-.98.61-1.36,1.07-.38.46-.69,1.01-.91,1.65-.22.64-.37,1.34-.43,2.11-.09.81-.02,1.53.19,2.14.21.62.57,1.09,1.06,1.42.49.33,1.12.5,1.89.5.85,0,1.62-.19,2.29-.58s1.23-.9,1.68-1.54l3.52,1.12c-.79,1.3-1.83,2.32-3.13,3.06-1.3.74-2.84,1.1-4.61,1.1-1.41,0-2.64-.27-3.68-.8Z"/>
        <path class="cls-1" d="M155.44,83.56c.47.36.95.65,1.44.85.49.2.99.29,1.5.27.51,0,.94-.14,1.3-.43.35-.29.53-.65.53-1.07.02-.41-.1-.74-.35-.99-.26-.26-.59-.48-1.01-.69-.42-.2-.88-.4-1.39-.59-.62-.23-1.21-.53-1.78-.9-.57-.36-1.02-.83-1.36-1.41-.34-.58-.49-1.27-.45-2.08.06-.96.36-1.75.88-2.37.52-.62,1.19-1.08,2-1.39.81-.31,1.66-.46,2.56-.46,1.22,0,2.3.23,3.25.69.95.46,1.78,1.03,2.48,1.71l-1.95,2.53c-.49-.55-1.06-1.02-1.7-1.41-.64-.38-1.3-.58-1.98-.58-.51,0-.93.11-1.25.34-.32.22-.49.52-.51.88-.02.34.1.63.35.88.26.25.61.46,1.06.66.45.19.91.38,1.38.58.72.3,1.38.64,1.97,1.01.59.37,1.05.84,1.39,1.39.34.55.49,1.26.45,2.11-.06.96-.34,1.8-.83,2.51-.49.71-1.15,1.27-1.97,1.66-.82.39-1.77.59-2.83.59-1,0-1.93-.14-2.77-.42-.84-.28-1.61-.65-2.29-1.12-.68-.47-1.29-.97-1.82-1.5l2.27-2.53c.49.49.97.92,1.44,1.28Z"/>
        <path class="cls-1" d="M171.25,87.33h-4.1l4.29-24.96h4.1l-4.29,24.96ZM177.97,76.92c-.06-.44-.23-.79-.51-1.07-.28-.28-.69-.44-1.25-.48-.6-.02-1.13.11-1.6.38-.47.28-.86.65-1.17,1.1-.31.46-.53.96-.66,1.49h-.86c.19-1.09.54-2.1,1.06-3.04.51-.94,1.19-1.7,2.03-2.29.84-.59,1.84-.88,2.99-.88s2.05.25,2.7.74c.65.49,1.08,1.16,1.3,2.02.21.85.25,1.81.1,2.88l-1.63,9.57h-4.06l1.57-8.96c.06-.53.06-1.02,0-1.46Z"/>
        <path class="cls-1" d="M192.43,72.61l-2.53,14.72h-3.97l2.46-14.72h4.03ZM189.65,65.24c.49-.44,1.07-.66,1.73-.66.7,0,1.29.22,1.78.66.48.44.72,1,.72,1.68s-.24,1.22-.72,1.66-1.07.67-1.78.67c-.66,0-1.24-.22-1.73-.67s-.74-1-.74-1.66.25-1.24.74-1.68Z"/>
        <path class="cls-1" d="M206.15,76.9c-.08-.45-.25-.82-.53-1.1-.28-.29-.71-.43-1.31-.43-.55,0-1.07.12-1.55.37-.48.25-.87.59-1.17,1.02-.3.44-.49.94-.58,1.52l-1.57,9.06h-4.1l2.53-14.72h4.1l-.32,2.11c.51-.77,1.14-1.36,1.89-1.79.75-.43,1.62-.64,2.62-.64,1.17-.02,2.09.22,2.75.74s1.12,1.19,1.36,2.03c.25.84.29,1.8.14,2.86l-1.63,9.41h-4.19l1.57-8.96c.06-.53.06-1.02-.02-1.47Z"/>
        <path class="cls-1" d="M217.04,88.36c0,.62.11,1.16.32,1.62.21.46.55.82,1.01,1.07.46.26,1.03.38,1.71.38.79,0,1.51-.18,2.18-.54.66-.36,1.22-.89,1.66-1.57.45-.68.74-1.45.86-2.3l2.5-14.4h3.97l-2.46,14.4c-.23,1.62-.76,3.02-1.57,4.19-.81,1.17-1.83,2.07-3.06,2.7-1.23.63-2.61.94-4.14.94s-2.83-.27-3.87-.8c-1.05-.53-1.82-1.29-2.34-2.27-.51-.98-.75-2.12-.71-3.42h3.94ZM215.75,75.93c.78-1.14,1.74-2.04,2.9-2.69,1.15-.65,2.39-.97,3.71-.94.98,0,1.82.2,2.51.61.69.41,1.24.96,1.65,1.66.41.7.68,1.5.82,2.4s.14,1.86.02,2.88c-.13,1.05-.4,2.02-.82,2.93-.42.91-.94,1.71-1.57,2.4-.63.69-1.36,1.23-2.19,1.62s-1.74.58-2.72.58c-1.32,0-2.45-.34-3.38-1.01-.93-.67-1.61-1.58-2.03-2.72-.43-1.14-.54-2.42-.35-3.82.19-1.45.68-2.75,1.46-3.89ZM218.66,81.89c.2.62.55,1.11,1.06,1.47.5.36,1.11.54,1.84.54.51.02,1.01-.07,1.5-.27.49-.2.95-.49,1.38-.86.43-.37.78-.82,1.06-1.33.28-.51.47-1.06.58-1.63.08-.55.07-1.08-.03-1.57-.11-.49-.29-.92-.54-1.3-.26-.37-.58-.67-.96-.88-.38-.21-.83-.33-1.34-.35-.77,0-1.48.18-2.14.53-.66.35-1.22.84-1.66,1.47-.45.63-.74,1.34-.86,2.13-.11.75-.06,1.43.14,2.05Z"/>
        <path class="cls-1" d="M115.62,119.57c.78-1.15,1.75-2.07,2.91-2.75,1.16-.68,2.41-1.01,3.73-.99,1,0,1.84.21,2.53.64.68.43,1.23,1,1.63,1.71.4.72.67,1.53.8,2.45.13.92.13,1.88,0,2.88-.13,1.05-.4,2.03-.82,2.96s-.94,1.74-1.57,2.45c-.63.7-1.36,1.25-2.19,1.65s-1.74.59-2.72.59c-1.34,0-2.47-.35-3.39-1.04-.92-.69-1.59-1.62-2.02-2.78-.43-1.16-.54-2.44-.35-3.82.19-1.47.68-2.78,1.46-3.94ZM118.53,125.57c.2.65.55,1.17,1.04,1.55.49.38,1.11.59,1.86.61.51,0,1.01-.11,1.5-.32.49-.21.94-.52,1.36-.91.42-.39.77-.85,1.06-1.36s.48-1.06.59-1.63c.08-.58.08-1.11-.02-1.6-.1-.49-.27-.93-.53-1.33-.26-.39-.58-.71-.96-.94-.38-.23-.83-.36-1.34-.38-.75-.02-1.46.16-2.13.54-.67.38-1.24.9-1.7,1.55-.46.65-.75,1.37-.88,2.16-.11.73-.06,1.41.14,2.06ZM131.28,116.14l-2.53,14.72h-4l2.5-14.72h4.03Z"/>
        <path class="cls-1" d="M144.64,120.43c-.08-.45-.25-.82-.53-1.1-.28-.29-.71-.43-1.31-.43-.55,0-1.07.12-1.55.37-.48.25-.87.59-1.17,1.02-.3.44-.49.94-.58,1.52l-1.57,9.06h-4.1l2.53-14.72h4.1l-.32,2.11c.51-.77,1.14-1.36,1.89-1.79.75-.43,1.62-.64,2.62-.64,1.17-.02,2.09.22,2.75.74s1.11,1.19,1.36,2.03c.25.84.29,1.8.14,2.86l-1.63,9.41h-4.19l1.57-8.96c.06-.53.06-1.02-.02-1.47Z"/>
        <path class="cls-1" d="M154.21,119.57c.78-1.15,1.75-2.07,2.91-2.75,1.16-.68,2.41-1.01,3.73-.99,1,0,1.84.21,2.53.64.68.43,1.23,1,1.63,1.71.4.72.67,1.53.8,2.45.13.92.13,1.88,0,2.88-.13,1.05-.4,2.03-.82,2.96s-.94,1.74-1.57,2.45c-.63.7-1.36,1.25-2.19,1.65s-1.74.59-2.72.59c-1.34,0-2.47-.35-3.39-1.04-.92-.69-1.59-1.62-2.02-2.78-.43-1.16-.54-2.44-.35-3.82.19-1.47.68-2.78,1.46-3.94ZM157.12,125.57c.2.65.55,1.17,1.04,1.55.49.38,1.11.59,1.86.61.51,0,1.01-.11,1.5-.32.49-.21.94-.52,1.36-.91.42-.39.77-.85,1.06-1.36s.48-1.06.59-1.63c.08-.58.08-1.11-.02-1.6-.1-.49-.27-.93-.53-1.33-.26-.39-.58-.71-.96-.94-.38-.23-.83-.36-1.34-.38-.75-.02-1.46.16-2.13.54-.67.38-1.24.9-1.7,1.55-.46.65-.75,1.37-.88,2.16-.11.73-.06,1.41.14,2.06ZM171.63,105.9l-4.32,24.96h-4.03l4.22-24.96h4.13Z"/>
        <path class="cls-1" d="M188.02,125.61c.23.64.62,1.15,1.17,1.54.54.38,1.21.59,2,.61.96.02,1.87-.2,2.74-.66.86-.46,1.57-1.01,2.13-1.65l-.58,4.22c-.62.45-1.34.81-2.16,1.07-.82.27-1.72.4-2.7.4-1.49,0-2.8-.34-3.92-1.01-1.12-.67-1.95-1.59-2.5-2.75-.54-1.16-.72-2.46-.53-3.89.19-1.49.71-2.82,1.57-3.97.85-1.15,1.93-2.06,3.23-2.72,1.3-.66,2.73-.99,4.29-.99.94,0,1.79.13,2.56.38s1.44.62,2.02,1.09l-.58,4.26c-.38-.73-.93-1.3-1.65-1.71-.71-.42-1.51-.62-2.38-.62s-1.59.2-2.29.59c-.69.4-1.27.91-1.73,1.55-.46.64-.75,1.35-.88,2.14-.11.77-.04,1.47.19,2.11Z"/>
        <path class="cls-1" d="M204.87,126.54c.07.45.24.82.51,1.1.27.29.69.43,1.26.43s1.1-.12,1.57-.35c.47-.23.86-.57,1.18-1.01.32-.44.52-.94.61-1.52l1.6-9.06h4.1l-2.56,14.72h-4.1l.35-2.14c-.51.75-1.14,1.34-1.89,1.79s-1.63.67-2.66.67c-1.15,0-2.06-.25-2.74-.75-.67-.5-1.13-1.18-1.36-2.03-.24-.85-.28-1.8-.13-2.85l1.63-9.41h4.16l-1.54,8.96c-.09.51-.09.99-.02,1.44Z"/>
        <path class="cls-1" d="M227.92,116.14l-.61,3.49h-8.9l.64-3.49h8.86ZM226.32,111.02l-3.46,19.84h-3.9l3.36-19.84h4Z"/>
        <path class="cls-1" d="M232.4,130.38c-1.04-.53-1.86-1.3-2.45-2.3-.59-1-.88-2.21-.88-3.62,0-1.19.22-2.31.66-3.36.44-1.04,1.06-1.96,1.86-2.75.8-.79,1.74-1.41,2.83-1.86s2.28-.67,3.58-.67c1.43,0,2.63.26,3.6.77s1.71,1.25,2.22,2.21c.51.96.77,2.13.77,3.52,0,.34-.03.71-.1,1.1-.06.4-.15.73-.26,1.01h-12.99v-2.56h9.82l-1.09,1.47c.11-.21.2-.45.29-.7.08-.26.13-.5.13-.74,0-.66-.1-1.23-.3-1.7-.2-.47-.5-.83-.9-1.09-.4-.26-.91-.38-1.55-.38s-1.22.13-1.74.38c-.52.26-.98.61-1.36,1.07-.38.46-.69,1.01-.91,1.65-.22.64-.37,1.34-.43,2.11-.08.81-.02,1.53.19,2.14.21.62.56,1.09,1.06,1.42.49.33,1.12.5,1.89.5.85,0,1.62-.19,2.29-.58.67-.38,1.23-.9,1.68-1.54l3.52,1.12c-.79,1.3-1.83,2.32-3.14,3.06-1.3.74-2.84,1.1-4.61,1.1-1.41,0-2.63-.27-3.68-.8Z"/>
        <path class="cls-1" d="M247.12,127.13c.49-.5,1.11-.75,1.86-.75s1.4.25,1.89.75c.49.5.74,1.11.74,1.84,0,.68-.25,1.28-.74,1.79-.49.51-1.12.77-1.89.77s-1.37-.26-1.86-.77c-.49-.51-.74-1.11-.74-1.79,0-.73.24-1.34.74-1.84Z"/>
      </g>
      <path class="cls-1" d="M12.43,122.48C4.14,127.27.14,136.53,0,145.84c-.15,10.11,3.92,19.72,11.14,26.74,8.37,8.15,19.55,12.69,30.73,15.42,13.39,3.27,27.39,4.62,41.14,4.98,8.02.21,16.13.13,24.12-.7,7.19-.75,14.4-2.35,20.54-6.32l-2.05-2.05c-2.27,3.74-1.66,8.48.6,12.09,2.5,3.99,6.82,6.28,11.16,7.77,8.92,3.08,18.61,4.54,27.99,5.16,18.92,1.24,38.16-1.82,55.77-8.84,9.88-3.93,19.25-9.07,27.8-15.39,1.54-1.13.04-3.74-1.51-2.59-14.43,10.66-31.16,17.95-48.72,21.54s-35.85,3.44-53.26-.74c-4.79-1.15-10.08-2.35-13.99-5.52-3.42-2.77-5.73-7.86-3.24-11.97.76-1.26-.78-2.88-2.05-2.05-5.2,3.36-11.24,4.96-17.33,5.72-6.66.83-13.45.98-20.16.97-13.54-.02-27.2-1.12-40.49-3.74-10.75-2.12-21.57-5.5-30.48-12.08-7.9-5.83-13.4-14.16-14.49-24.03s1.95-20.07,10.73-25.14c1.67-.97.16-3.56-1.51-2.59h0Z"/>
      <path class="cls-1" d="M225.97,8.37c6.68-4.63,14.93-5.48,22.85-5.35s16.08.95,23.73,3.37,14.41,6.7,19.59,12.9,8.52,13.27,11.64,20.44c3.87,8.88,7.89,18.84,5.45,28.65-.47,1.87,2.43,2.67,2.89.8,2.31-9.28-.59-18.64-4.15-27.2-3.21-7.74-6.7-15.55-11.74-22.3s-11.55-11.84-19.42-14.96S260.35.47,251.92.11c-9.38-.41-19.5.14-27.46,5.67-1.58,1.09-.08,3.7,1.51,2.59h0Z"/>
      <path class="cls-1" d="M302.88,102.22c17.45.85,34.98-.68,52.03-4.48l-1.46-2.51c-14.22,13.05-30.18,24.16-47.35,32.97-4.87,2.5-9.83,4.81-14.87,6.93-.75.32-1.27.99-1.05,1.85.19.71,1.1,1.36,1.85,1.05,18.18-7.62,35.25-17.63,50.75-29.79,4.41-3.46,8.67-7.09,12.8-10.88,1.16-1.06-.07-2.82-1.46-2.51-16.8,3.75-34.04,5.21-51.23,4.38-1.93-.09-1.92,2.91,0,3h0Z"/>
    </g>
  </g>
</svg>